<svg version="1.1" xmlns="http://www.w3.org/2000/svg" xmlns:xlink="http://www.w3.org/1999/xlink" width="643" height="646"><defs/><g><g><path fill="#C0C0C0" stroke="none" paint-order="stroke fill markers" d=" M 171 97 L 265 97 Q 275 97 275 107 L 275 128 Q 275 138 265 138 L 171 138 Q 161 138 161 128 L 161 107 Q 161 97 171 97 Z" fill-opacity="0.2"/></g><g><path fill="#ffffff" stroke="none" paint-order="stroke fill markers" d=" M 164 90 L 258 90 Q 268 90 268 100 L 268 121 Q 268 131 258 131 L 164 131 Q 154 131 154 121 L 154 100 Q 154 90 164 90 Z"/></g><g><path fill="none" stroke="#000000" paint-order="fill stroke markers" d=" M 164 90 L 258 90 Q 268 90 268 100 L 268 121 Q 268 131 258 131 L 164 131 Q 154 131 154 121 L 154 100 Q 154 90 164 90 Z" stroke-miterlimit="10" stroke-dasharray=""/></g><g><g><path fill="none" stroke="none"/><text fill="#000000" stroke="none" font-family="Arial" font-size="13px" font-style="normal" font-weight="bold" text-decoration="undefined" x="297.5" y="173.5" text-anchor="middle" dominant-baseline="central" transform="matrix(1 0 0 1 -86 -70)">选择起末站和日期</text></g></g><g><path fill="#C0C0C0" stroke="none" paint-order="stroke fill markers" d=" M 57 123 C 57 117.47715199999999 61.47715199999999 113 67 113 C 72.52284800000001 113 77 117.47715199999999 77 123 C 77 128.522848 72.52284800000001 133 67 133 C 61.47715199999999 133 57 128.522848 57 123 Z" fill-opacity="0.2"/></g><g><path fill="#000000" stroke="none" paint-order="stroke fill markers" d=" M 50 116 C 50 110.47715199999999 54.47715199999999 106 60 106 C 65.52284800000001 106 70 110.47715199999999 70 116 C 70 121.52284800000001 65.52284800000001 126 60 126 C 54.47715199999999 126 50 121.52284800000001 50 116 Z"/></g><g><path fill="none" stroke="#000000" paint-order="fill stroke markers" d=" M 71 116 L 153 112" stroke-miterlimit="10" stroke-dasharray=""/></g><g><path fill="none" stroke="#000000" paint-order="fill stroke markers" d=" M 143.05449328671358 116.69966979861084 L 153 112 L 142.6442963767635 108.29063314463417" stroke-miterlimit="10" stroke-dasharray=""/></g><g><path fill="#C0C0C0" stroke="none" paint-order="stroke fill markers" d=" M 395 17 L 528 17 Q 538 17 538 27 L 538 48 Q 538 58 528 58 L 395 58 Q 385 58 385 48 L 385 27 Q 385 17 395 17 Z" fill-opacity="0.2"/></g><g><path fill="#ffffff" stroke="none" paint-order="stroke fill markers" d=" M 388 10 L 521 10 Q 531 10 531 20 L 531 41 Q 531 51 521 51 L 388 51 Q 378 51 378 41 L 378 20 Q 378 10 388 10 Z"/></g><g><path fill="none" stroke="#000000" paint-order="fill stroke markers" d=" M 388 10 L 521 10 Q 531 10 531 20 L 531 41 Q 531 51 521 51 L 388 51 Q 378 51 378 41 L 378 20 Q 378 10 388 10 Z" stroke-miterlimit="10" stroke-dasharray=""/></g><g><g><path fill="none" stroke="none"/><text fill="#000000" stroke="none" font-family="Arial" font-size="13px" font-style="normal" font-weight="bold" text-decoration="undefined" x="541" y="93.5" text-anchor="middle" dominant-baseline="central" transform="matrix(1 0 0 1 -86 -70)">获得满足条件的所有安排</text></g></g><g><path fill="none" stroke="#000000" paint-order="fill stroke markers" d=" M 269 91 L 387 52" stroke-miterlimit="10" stroke-dasharray=""/></g><g><path fill="none" stroke="#000000" paint-order="fill stroke markers" d=" M 378.67169447631045 59.1860508698507 L 387 52 L 376.02969338838284 51.19230398842865" stroke-miterlimit="10" stroke-dasharray=""/></g><g><path fill="#C0C0C0" stroke="none" paint-order="stroke fill markers" d=" M 420 105 L 484 105 Q 487 105 487 108 L 487 108 Q 487 111 484 111 L 420 111 Q 417 111 417 108 L 417 108 Q 417 105 420 105 Z" fill-opacity="0.2"/></g><g><path fill="#000000" stroke="none" paint-order="stroke fill markers" d=" M 413 98 L 477 98 Q 480 98 480 101 L 480 101 Q 480 104 477 104 L 413 104 Q 410 104 410 101 L 410 101 Q 410 98 413 98 Z"/></g><g><path fill="none" stroke="#000000" paint-order="fill stroke markers" d=" M 451 52 L 446 97" stroke-miterlimit="10" stroke-dasharray=""/></g><g><path fill="none" stroke="#000000" paint-order="fill stroke markers" d=" M 442.93850846500584 86.4346192883948 L 446 97 L 451.30605092205394 87.36434622806684" stroke-miterlimit="10" stroke-dasharray=""/></g><g><g><path fill="none" stroke="none"/><text fill="#000000" stroke="none" font-family="Arial" font-size="13px" font-style="normal" font-weight="normal" text-decoration="undefined" x="573" y="165" text-anchor="start" dominant-baseline="text-before-edge" transform="matrix(1 0 0 1 -86 -70)">对于每个安排</text></g></g><g><path fill="#C0C0C0" stroke="none" paint-order="stroke fill markers" d=" M 339 145 L 381 145 Q 391 145 391 155 L 391 176 Q 391 186 381 186 L 339 186 Q 329 186 329 176 L 329 155 Q 329 145 339 145 Z" fill-opacity="0.2"/></g><g><path fill="#ffffff" stroke="none" paint-order="stroke fill markers" d=" M 332 138 L 374 138 Q 384 138 384 148 L 384 169 Q 384 179 374 179 L 332 179 Q 322 179 322 169 L 322 148 Q 322 138 332 138 Z"/></g><g><path fill="none" stroke="#000000" paint-order="fill stroke markers" d=" M 332 138 L 374 138 Q 384 138 384 148 L 384 169 Q 384 179 374 179 L 332 179 Q 322 179 322 169 L 322 148 Q 322 138 332 138 Z" stroke-miterlimit="10" stroke-dasharray=""/></g><g><g><path fill="none" stroke="none"/><text fill="#000000" stroke="none" font-family="Arial" font-size="13px" font-style="normal" font-weight="bold" text-decoration="undefined" x="439.5" y="221.5" text-anchor="middle" dominant-baseline="central" transform="matrix(1 0 0 1 -86 -70)">计算余座</text></g></g><g><path fill="#C0C0C0" stroke="none" paint-order="stroke fill markers" d=" M 515 145 L 557 145 Q 567 145 567 155 L 567 176 Q 567 186 557 186 L 515 186 Q 505 186 505 176 L 505 155 Q 505 145 515 145 Z" fill-opacity="0.2"/></g><g><path fill="#ffffff" stroke="none" paint-order="stroke fill markers" d=" M 508 138 L 550 138 Q 560 138 560 148 L 560 169 Q 560 179 550 179 L 508 179 Q 498 179 498 169 L 498 148 Q 498 138 508 138 Z"/></g><g><path fill="none" stroke="#000000" paint-order="fill stroke markers" d=" M 508 138 L 550 138 Q 560 138 560 148 L 560 169 Q 560 179 550 179 L 508 179 Q 498 179 498 169 L 498 148 Q 498 138 508 138 Z" stroke-miterlimit="10" stroke-dasharray=""/></g><g><g><path fill="none" stroke="none"/><text fill="#000000" stroke="none" font-family="Arial" font-size="13px" font-style="normal" font-weight="bold" text-decoration="undefined" x="615.5" y="221.5" text-anchor="middle" dominant-baseline="central" transform="matrix(1 0 0 1 -86 -70)">计算票价</text></g></g><g><path fill="none" stroke="#000000" paint-order="fill stroke markers" d=" M 439 105 L 385 138" stroke-miterlimit="10" stroke-dasharray=""/></g><g><path fill="none" stroke="#000000" paint-order="fill stroke markers" d=" M 391.476572763651 129.1087680697704 L 385 138 L 395.8666789109934 136.292578129058" stroke-miterlimit="10" stroke-dasharray=""/></g><g><path fill="none" stroke="#000000" paint-order="fill stroke markers" d=" M 451 105 L 498 137" stroke-miterlimit="10" stroke-dasharray=""/></g><g><path fill="none" stroke="#000000" paint-order="fill stroke markers" d=" M 487.2304619982416 134.76012249694708 L 498 137 L 491.96861922014637 127.80095407727453" stroke-miterlimit="10" stroke-dasharray=""/></g><g><path fill="#C0C0C0" stroke="none" paint-order="stroke fill markers" d=" M 404 225 L 494 225 Q 497 225 497 228 L 497 228 Q 497 231 494 231 L 404 231 Q 401 231 401 228 L 401 228 Q 401 225 404 225 Z" fill-opacity="0.2"/></g><g><path fill="#000000" stroke="none" paint-order="stroke fill markers" d=" M 397 218 L 487 218 Q 490 218 490 221 L 490 221 Q 490 224 487 224 L 397 224 Q 394 224 394 221 L 394 221 Q 394 218 397 218 Z"/></g><g><path fill="none" stroke="#000000" paint-order="fill stroke markers" d=" M 384 180 L 436 217" stroke-miterlimit="10" stroke-dasharray=""/></g><g><path fill="none" stroke="#000000" paint-order="fill stroke markers" d=" M 425.2790565462557 214.5380147316411 L 436 217 L 430.1600346615778 207.67826170470192" stroke-miterlimit="10" stroke-dasharray=""/></g><g><path fill="none" stroke="#000000" paint-order="fill stroke markers" d=" M 499 180 L 448 217" stroke-miterlimit="10" stroke-dasharray=""/></g><g><path fill="none" stroke="#000000" paint-order="fill stroke markers" d=" M 453.75394599054425 207.62492103831124 L 448 217 L 458.6978361364645 214.43947232052557" stroke-miterlimit="10" stroke-dasharray=""/></g><g><path fill="#C0C0C0" stroke="none" paint-order="stroke fill markers" d=" M 411 273 L 479 273 Q 489 273 489 283 L 489 304 Q 489 314 479 314 L 411 314 Q 401 314 401 304 L 401 283 Q 401 273 411 273 Z" fill-opacity="0.2"/></g><g><path fill="#ffffff" stroke="none" paint-order="stroke fill markers" d=" M 404 266 L 472 266 Q 482 266 482 276 L 482 297 Q 482 307 472 307 L 404 307 Q 394 307 394 297 L 394 276 Q 394 266 404 266 Z"/></g><g><path fill="none" stroke="#000000" paint-order="fill stroke markers" d=" M 404 266 L 472 266 Q 482 266 482 276 L 482 297 Q 482 307 472 307 L 404 307 Q 394 307 394 297 L 394 276 Q 394 266 404 266 Z" stroke-miterlimit="10" stroke-dasharray=""/></g><g><g><path fill="none" stroke="none"/><text fill="#000000" stroke="none" font-family="Arial" font-size="13px" font-style="normal" font-weight="bold" text-decoration="undefined" x="524.5" y="349.5" text-anchor="middle" dominant-baseline="central" transform="matrix(1 0 0 1 -86 -70)">显示余票信息</text></g></g><g><path fill="none" stroke="#000000" paint-order="fill stroke markers" d=" M 442 225 L 439 265" stroke-miterlimit="10" stroke-dasharray=""/></g><g><path fill="none" stroke="#000000" paint-order="fill stroke markers" d=" M 435.56233772533596 254.55095803026177 L 439 265 L 443.95779412786067 255.18061726045113" stroke-miterlimit="10" stroke-dasharray=""/></g><g><path fill="#C0C0C0" stroke="none" paint-order="stroke fill markers" d=" M 211 281 L 318 281 Q 328 281 328 291 L 328 312 Q 328 322 318 322 L 211 322 Q 201 322 201 312 L 201 291 Q 201 281 211 281 Z" fill-opacity="0.2"/></g><g><path fill="#ffffff" stroke="none" paint-order="stroke fill markers" d=" M 204 274 L 311 274 Q 321 274 321 284 L 321 305 Q 321 315 311 315 L 204 315 Q 194 315 194 305 L 194 284 Q 194 274 204 274 Z"/></g><g><path fill="none" stroke="#000000" paint-order="fill stroke markers" d=" M 204 274 L 311 274 Q 321 274 321 284 L 321 305 Q 321 315 311 315 L 204 315 Q 194 315 194 305 L 194 284 Q 194 274 204 274 Z" stroke-miterlimit="10" stroke-dasharray=""/></g><g><g><path fill="none" stroke="none"/><text fill="#000000" stroke="none" font-family="Arial" font-size="13px" font-style="normal" font-weight="bold" text-decoration="undefined" x="344" y="357.5" text-anchor="middle" dominant-baseline="central" transform="matrix(1 0 0 1 -86 -70)">选择余票，点击预定</text></g></g><g><path fill="none" stroke="#000000" paint-order="fill stroke markers" d=" M 393 288 L 322 291" stroke-miterlimit="10" stroke-dasharray=""/></g><g><path fill="none" stroke="#000000" paint-order="fill stroke markers" d=" M 331.9759065888997 286.3652089875004 L 322 291 L 332.3313233518155 294.7767390431736" stroke-miterlimit="10" stroke-dasharray=""/></g><g><path fill="#C0C0C0" stroke="none" paint-order="stroke fill markers" d=" M 27 281 L 147 281 Q 157 281 157 291 L 157 312 Q 157 322 147 322 L 27 322 Q 17 322 17 312 L 17 291 Q 17 281 27 281 Z" fill-opacity="0.2"/></g><g><path fill="#ffffff" stroke="none" paint-order="stroke fill markers" d=" M 20 274 L 140 274 Q 150 274 150 284 L 150 305 Q 150 315 140 315 L 20 315 Q 10 315 10 305 L 10 284 Q 10 274 20 274 Z"/></g><g><path fill="none" stroke="#000000" paint-order="fill stroke markers" d=" M 20 274 L 140 274 Q 150 274 150 284 L 150 305 Q 150 315 140 315 L 20 315 Q 10 315 10 305 L 10 284 Q 10 274 20 274 Z" stroke-miterlimit="10" stroke-dasharray=""/></g><g><g><path fill="none" stroke="none"/><text fill="#000000" stroke="none" font-family="Arial" font-size="13px" font-style="normal" font-weight="bold" text-decoration="undefined" x="166.5" y="357.5" text-anchor="middle" dominant-baseline="central" transform="matrix(1 0 0 1 -86 -70)">获得该用户所有乘车人</text></g></g><g><path fill="none" stroke="#000000" paint-order="fill stroke markers" d=" M 193 294 L 151 294" stroke-miterlimit="10" stroke-dasharray=""/></g><g><path fill="none" stroke="#000000" paint-order="fill stroke markers" d=" M 161.16267485762415 289.790482243984 L 151 294 L 161.16267485762415 298.209517756016" stroke-miterlimit="10" stroke-dasharray=""/></g><g><path fill="#C0C0C0" stroke="none" paint-order="stroke fill markers" d=" M 68 369 L 132 369 Q 135 369 135 372 L 135 372 Q 135 375 132 375 L 68 375 Q 65 375 65 372 L 65 372 Q 65 369 68 369 Z" fill-opacity="0.2"/></g><g><path fill="#000000" stroke="none" paint-order="stroke fill markers" d=" M 61 362 L 125 362 Q 128 362 128 365 L 128 365 Q 128 368 125 368 L 61 368 Q 58 368 58 365 L 58 365 Q 58 362 61 362 Z"/></g><g><path fill="none" stroke="#000000" paint-order="fill stroke markers" d=" M 84 316 L 92 361" stroke-miterlimit="10" stroke-dasharray=""/></g><g><path fill="none" stroke="#000000" paint-order="fill stroke markers" d=" M 86.076659771588 351.7310172867528 L 92 361 L 94.3657264884528 350.2574054259768" stroke-miterlimit="10" stroke-dasharray=""/></g><g><g><path fill="none" stroke="none"/><text fill="#000000" stroke="none" font-family="Arial" font-size="13px" font-style="normal" font-weight="normal" text-decoration="undefined" x="221" y="429" text-anchor="start" dominant-baseline="text-before-edge" transform="matrix(1 0 0 1 -86 -70)">对于每个乘车人</text></g></g><g><path fill="#C0C0C0" stroke="none" paint-order="stroke fill markers" d=" M 67 417 L 135 417 Q 145 417 145 427 L 145 448 Q 145 458 135 458 L 67 458 Q 57 458 57 448 L 57 427 Q 57 417 67 417 Z" fill-opacity="0.2"/></g><g><path fill="#ffffff" stroke="none" paint-order="stroke fill markers" d=" M 60 410 L 128 410 Q 138 410 138 420 L 138 441 Q 138 451 128 451 L 60 451 Q 50 451 50 441 L 50 420 Q 50 410 60 410 Z"/></g><g><path fill="none" stroke="#000000" paint-order="fill stroke markers" d=" M 60 410 L 128 410 Q 138 410 138 420 L 138 441 Q 138 451 128 451 L 60 451 Q 50 451 50 441 L 50 420 Q 50 410 60 410 Z" stroke-miterlimit="10" stroke-dasharray=""/></g><g><g><path fill="none" stroke="none"/><text fill="#000000" stroke="none" font-family="Arial" font-size="13px" font-style="normal" font-weight="bold" text-decoration="undefined" x="180.5" y="493.5" text-anchor="middle" dominant-baseline="central" transform="matrix(1 0 0 1 -86 -70)">判断是否空闲</text></g></g><g><path fill="none" stroke="#000000" paint-order="fill stroke markers" d=" M 93 369 L 94 409" stroke-miterlimit="10" stroke-dasharray=""/></g><g><path fill="none" stroke="#000000" paint-order="fill stroke markers" d=" M 89.53780958923446 398.94570456282133 L 94 409 L 97.95421538528407 398.7352944179201" stroke-miterlimit="10" stroke-dasharray=""/></g><g><path fill="#C0C0C0" stroke="none" paint-order="stroke fill markers" d=" M 267 393 L 348 393 Q 358 393 358 403 L 358 424 Q 358 434 348 434 L 267 434 Q 257 434 257 424 L 257 403 Q 257 393 267 393 Z" fill-opacity="0.2"/></g><g><path fill="#ffffff" stroke="none" paint-order="stroke fill markers" d=" M 260 386 L 341 386 Q 351 386 351 396 L 351 417 Q 351 427 341 427 L 260 427 Q 250 427 250 417 L 250 396 Q 250 386 260 386 Z"/></g><g><path fill="none" stroke="#000000" paint-order="fill stroke markers" d=" M 260 386 L 341 386 Q 351 386 351 396 L 351 417 Q 351 427 341 427 L 260 427 Q 250 427 250 417 L 250 396 Q 250 386 260 386 Z" stroke-miterlimit="10" stroke-dasharray=""/></g><g><g><path fill="none" stroke="none"/><text fill="#000000" stroke="none" font-family="Arial" font-size="13px" font-style="normal" font-weight="bold" text-decoration="undefined" x="387" y="469.5" text-anchor="middle" dominant-baseline="central" transform="matrix(1 0 0 1 -86 -70)">显示所有乘车人</text></g></g><g><path fill="#C0C0C0" stroke="none" paint-order="stroke fill markers" d=" M 68 505 L 132 505 Q 135 505 135 508 L 135 508 Q 135 511 132 511 L 68 511 Q 65 511 65 508 L 65 508 Q 65 505 68 505 Z" fill-opacity="0.2"/></g><g><path fill="#000000" stroke="none" paint-order="stroke fill markers" d=" M 61 498 L 125 498 Q 128 498 128 501 L 128 501 Q 128 504 125 504 L 61 504 Q 58 504 58 501 L 58 501 Q 58 498 61 498 Z"/></g><g><path fill="none" stroke="#000000" paint-order="fill stroke markers" d=" M 94 452 L 93 497" stroke-miterlimit="10" stroke-dasharray=""/></g><g><path fill="none" stroke="#000000" paint-order="fill stroke markers" d=" M 89.01730272371063 486.74631176573826 L 93 497 L 97.43426023114176 486.9333552659034" stroke-miterlimit="10" stroke-dasharray=""/></g><g><path fill="none" stroke="#000000" paint-order="fill stroke markers" d=" M 102 497 L 252 428" stroke-miterlimit="10" stroke-dasharray=""/></g><g><path fill="none" stroke="#000000" paint-order="fill stroke markers" d=" M 244.52648799636376 436.0713455093624 L 252 428 L 241.00812583997998 428.4227321259195" stroke-miterlimit="10" stroke-dasharray=""/></g><g><path fill="#C0C0C0" stroke="none" paint-order="stroke fill markers" d=" M 443 393 L 563 393 Q 573 393 573 403 L 573 424 Q 573 434 563 434 L 443 434 Q 433 434 433 424 L 433 403 Q 433 393 443 393 Z" fill-opacity="0.2"/></g><g><path fill="#ffffff" stroke="none" paint-order="stroke fill markers" d=" M 436 386 L 556 386 Q 566 386 566 396 L 566 417 Q 566 427 556 427 L 436 427 Q 426 427 426 417 L 426 396 Q 426 386 436 386 Z"/></g><g><path fill="none" stroke="#000000" paint-order="fill stroke markers" d=" M 436 386 L 556 386 Q 566 386 566 396 L 566 417 Q 566 427 556 427 L 436 427 Q 426 427 426 417 L 426 396 Q 426 386 436 386 Z" stroke-miterlimit="10" stroke-dasharray=""/></g><g><g><path fill="none" stroke="none"/><text fill="#000000" stroke="none" font-family="Arial" font-size="13px" font-style="normal" font-weight="bold" text-decoration="undefined" x="582.5" y="469.5" text-anchor="middle" dominant-baseline="central" transform="matrix(1 0 0 1 -86 -70)">选择乘车人，创建订单</text></g></g><g><path fill="none" stroke="#000000" paint-order="fill stroke markers" d=" M 352 406 L 425 406" stroke-miterlimit="10" stroke-dasharray=""/></g><g><path fill="none" stroke="#000000" paint-order="fill stroke markers" d=" M 414.83732514237585 410.209517756016 L 425 406 L 414.83732514237585 401.790482243984" stroke-miterlimit="10" stroke-dasharray=""/></g><g><path fill="#C0C0C0" stroke="none" paint-order="stroke fill markers" d=" M 444 489 L 508 489 Q 511 489 511 492 L 511 492 Q 511 495 508 495 L 444 495 Q 441 495 441 492 L 441 492 Q 441 489 444 489 Z" fill-opacity="0.2"/></g><g><path fill="#000000" stroke="none" paint-order="stroke fill markers" d=" M 437 482 L 501 482 Q 504 482 504 485 L 504 485 Q 504 488 501 488 L 437 488 Q 434 488 434 485 L 434 485 Q 434 482 437 482 Z"/></g><g><path fill="none" stroke="#000000" paint-order="fill stroke markers" d=" M 488 428 L 470 481" stroke-miterlimit="10" stroke-dasharray=""/></g><g><path fill="none" stroke="#000000" paint-order="fill stroke markers" d=" M 469.2822227784377 470.0234433513872 L 470 481 L 477.2540524995645 472.7308572189397" stroke-miterlimit="10" stroke-dasharray=""/></g><g><g><path fill="none" stroke="none"/><text fill="#000000" stroke="none" font-family="Arial" font-size="13px" font-style="normal" font-weight="normal" text-decoration="undefined" x="597" y="549" text-anchor="start" dominant-baseline="text-before-edge" transform="matrix(1 0 0 1 -86 -70)">对于每个待提交订单</text></g></g><g><path fill="#C0C0C0" stroke="none" paint-order="stroke fill markers" d=" M 379 521 L 421 521 Q 431 521 431 531 L 431 552 Q 431 562 421 562 L 379 562 Q 369 562 369 552 L 369 531 Q 369 521 379 521 Z" fill-opacity="0.2"/></g><g><path fill="#ffffff" stroke="none" paint-order="stroke fill markers" d=" M 372 514 L 414 514 Q 424 514 424 524 L 424 545 Q 424 555 414 555 L 372 555 Q 362 555 362 545 L 362 524 Q 362 514 372 514 Z"/></g><g><path fill="none" stroke="#000000" paint-order="fill stroke markers" d=" M 372 514 L 414 514 Q 424 514 424 524 L 424 545 Q 424 555 414 555 L 372 555 Q 362 555 362 545 L 362 524 Q 362 514 372 514 Z" stroke-miterlimit="10" stroke-dasharray=""/></g><g><g><path fill="none" stroke="none"/><text fill="#000000" stroke="none" font-family="Arial" font-size="13px" font-style="normal" font-weight="bold" text-decoration="undefined" x="479.5" y="597.5" text-anchor="middle" dominant-baseline="central" transform="matrix(1 0 0 1 -86 -70)">分配座位</text></g></g><g><path fill="#C0C0C0" stroke="none" paint-order="stroke fill markers" d=" M 531 521 L 573 521 Q 583 521 583 531 L 583 552 Q 583 562 573 562 L 531 562 Q 521 562 521 552 L 521 531 Q 521 521 531 521 Z" fill-opacity="0.2"/></g><g><path fill="#ffffff" stroke="none" paint-order="stroke fill markers" d=" M 524 514 L 566 514 Q 576 514 576 524 L 576 545 Q 576 555 566 555 L 524 555 Q 514 555 514 545 L 514 524 Q 514 514 524 514 Z"/></g><g><path fill="none" stroke="#000000" paint-order="fill stroke markers" d=" M 524 514 L 566 514 Q 576 514 576 524 L 576 545 Q 576 555 566 555 L 524 555 Q 514 555 514 545 L 514 524 Q 514 514 524 514 Z" stroke-miterlimit="10" stroke-dasharray=""/></g><g><g><path fill="none" stroke="none"/><text fill="#000000" stroke="none" font-family="Arial" font-size="13px" font-style="normal" font-weight="bold" text-decoration="undefined" x="631.5" y="597.5" text-anchor="middle" dominant-baseline="central" transform="matrix(1 0 0 1 -86 -70)">计算票价</text></g></g><g><path fill="none" stroke="#000000" paint-order="fill stroke markers" d=" M 463 489 L 425 513" stroke-miterlimit="10" stroke-dasharray=""/></g><g><path fill="none" stroke="#000000" paint-order="fill stroke markers" d=" M 431.3445758383973 504.0141023024505 L 425 513 L 435.8402817960689 511.13230340209725" stroke-miterlimit="10" stroke-dasharray=""/></g><g><path fill="none" stroke="#000000" paint-order="fill stroke markers" d=" M 475 489 L 513 513" stroke-miterlimit="10" stroke-dasharray=""/></g><g><path fill="none" stroke="#000000" paint-order="fill stroke markers" d=" M 502.1597182039311 511.13230340209725 L 513 513 L 506.6554241616027 504.0141023024505" stroke-miterlimit="10" stroke-dasharray=""/></g><g><path fill="#C0C0C0" stroke="none" paint-order="stroke fill markers" d=" M 436 593 L 500 593 Q 503 593 503 596 L 503 596 Q 503 599 500 599 L 436 599 Q 433 599 433 596 L 433 596 Q 433 593 436 593 Z" fill-opacity="0.2"/></g><g><path fill="#000000" stroke="none" paint-order="stroke fill markers" d=" M 429 586 L 493 586 Q 496 586 496 589 L 496 589 Q 496 592 493 592 L 429 592 Q 426 592 426 589 L 426 589 Q 426 586 429 586 Z"/></g><g><path fill="none" stroke="#000000" paint-order="fill stroke markers" d=" M 420 556 L 456 585" stroke-miterlimit="10" stroke-dasharray=""/></g><g><path fill="none" stroke="#000000" paint-order="fill stroke markers" d=" M 445.44502239933456 581.9028322858696 L 456 585 L 450.726532056431 575.3464754701638" stroke-miterlimit="10" stroke-dasharray=""/></g><g><path fill="none" stroke="#000000" paint-order="fill stroke markers" d=" M 513 555 L 467 585" stroke-miterlimit="10" stroke-dasharray=""/></g><g><path fill="none" stroke="#000000" paint-order="fill stroke markers" d=" M 473.2128402312196 575.9225214810864 L 467 585 L 477.811888074723 582.974394841125" stroke-miterlimit="10" stroke-dasharray=""/></g><g><path fill="#C0C0C0" stroke="none" paint-order="stroke fill markers" d=" M 235 585 L 277 585 Q 287 585 287 595 L 287 616 Q 287 626 277 626 L 235 626 Q 225 626 225 616 L 225 595 Q 225 585 235 585 Z" fill-opacity="0.2"/></g><g><path fill="#ffffff" stroke="none" paint-order="stroke fill markers" d=" M 228 578 L 270 578 Q 280 578 280 588 L 280 609 Q 280 619 270 619 L 228 619 Q 218 619 218 609 L 218 588 Q 218 578 228 578 Z"/></g><g><path fill="none" stroke="#000000" paint-order="fill stroke markers" d=" M 228 578 L 270 578 Q 280 578 280 588 L 280 609 Q 280 619 270 619 L 228 619 Q 218 619 218 609 L 218 588 Q 218 578 228 578 Z" stroke-miterlimit="10" stroke-dasharray=""/></g><g><g><path fill="none" stroke="none"/><text fill="#000000" stroke="none" font-family="Arial" font-size="13px" font-style="normal" font-weight="bold" text-decoration="undefined" x="335.5" y="661.5" text-anchor="middle" dominant-baseline="central" transform="matrix(1 0 0 1 -86 -70)">提交订单</text></g></g><g><path fill="none" stroke="#000000" paint-order="fill stroke markers" d=" M 425 591 L 281 597" stroke-miterlimit="10" stroke-dasharray=""/></g><g><path fill="none" stroke="#000000" paint-order="fill stroke markers" d=" M 290.97862004417783 592.3710538981393 L 281 597 L 291.3291090784949 600.7827907217494" stroke-miterlimit="10" stroke-dasharray=""/></g><g><path fill="#C0C0C0" stroke="none" paint-order="stroke fill markers" d=" M 121 630 C 121 622.8202976 126.8202976 617 134 617 C 141.1797024 617 147 622.8202976 147 630 C 147 637.1797024 141.1797024 643 134 643 C 126.8202976 643 121 637.1797024 121 630 Z" fill-opacity="0.2"/></g><g><path fill="none" stroke="#000000" paint-order="fill stroke markers" d=" M 114 623 C 114 615.8202976 119.8202976 610 127 610 C 134.1797024 610 140 615.8202976 140 623 C 140 630.1797024 134.1797024 636 127 636 C 119.8202976 636 114 630.1797024 114 623 Z" stroke-miterlimit="10" stroke-dasharray=""/></g><g><path fill="#000000" stroke="none" paint-order="stroke fill markers" d=" M 119 623 C 119 618.5817216 122.58172160000001 615 127 615 C 131.4182784 615 135 618.5817216 135 623 C 135 627.4182784 131.4182784 631 127 631 C 122.58172160000001 631 119 627.4182784 119 623 Z"/></g><g><path fill="none" stroke="#000000" paint-order="fill stroke markers" d=" M 217 605 L 141 620" stroke-miterlimit="10" stroke-dasharray=""/></g><g><path fill="none" stroke="#000000" paint-order="fill stroke markers" d=" M 150.15523467471255 613.9023219131426 L 141 620 L 151.78543804655294 622.1620189971339" stroke-miterlimit="10" stroke-dasharray=""/></g></g></svg>