<svg version="1.1" xmlns="http://www.w3.org/2000/svg" xmlns:xlink="http://www.w3.org/1999/xlink" width="628" height="700"><defs/><g><g><path fill="none" stroke="#000000" paint-order="fill stroke markers" d=" M 10 10 L 618 10 L 618 690 L 10 690 L 10 10" stroke-miterlimit="10" stroke-dasharray=""/></g><g><path fill="#ffffff" stroke="none" paint-order="stroke fill markers" d=" M 10 10 L 10 33 L 135.05908203125 33 L 146.55908203125 21.5 L 146.55908203125 10 L 10 10"/></g><g><path fill="none" stroke="#000000" paint-order="fill stroke markers" d=" M 10 10 L 10 33 L 135.05908203125 33 L 146.55908203125 21.5 L 146.55908203125 10 L 10 10 L 10 10" stroke-miterlimit="10" stroke-dasharray=""/></g><g><g><path fill="none" stroke="none"/><text fill="#000000" stroke="none" font-family="Arial" font-size="13px" font-style="normal" font-weight="normal" text-decoration="undefined" x="200.39453125" y="19.5" text-anchor="middle" dominant-baseline="central" transform="matrix(1 0 0 1 -118 2)">顺序图-取消订单</text></g></g><g><g><path fill="none" stroke="none"/><text fill="#000000" stroke="none" font-family="Arial" font-size="13px" font-style="normal" font-weight="bold" text-decoration="undefined" x="139.864990234375" y="19.5" text-anchor="middle" dominant-baseline="central" transform="matrix(1 0 0 1 -118 2)">sd</text></g></g><g><rect fill="#C0C0C0" stroke="none" x="159" y="47" width="99.0537109375" height="40" transform="matrix(1 0 0 1 -118 2)" fill-opacity="0.2"/></g><g><rect fill="#ffffff" stroke="none" x="152" y="40" width="99.0537109375" height="40" transform="matrix(1 0 0 1 -118 2)"/></g><g><path fill="none" stroke="#000000" paint-order="fill stroke markers" d=" M 34 42 L 133.0537109375 42 L 133.0537109375 82 L 34 82 L 34 42 Z Z" stroke-miterlimit="10" stroke-dasharray=""/></g><g><g><path fill="none" stroke="none"/><text fill="#000000" stroke="none" font-family="Arial" font-size="13px" font-style="normal" font-weight="bold" text-decoration="undefined" x="202.02685546875" y="53.5" text-anchor="middle" dominant-baseline="central" transform="matrix(1 0 0 1 -118 2)">用户or管理员</text></g></g><g><path fill="none" stroke="#000000" paint-order="fill stroke markers" d=" M 84.5 83 L 84.5 661" stroke-miterlimit="10" stroke-dasharray="3"/></g><g><rect fill="#C0C0C0" stroke="none" x="287" y="47" width="72.736328125" height="40" transform="matrix(1 0 0 1 -118 2)" fill-opacity="0.2"/></g><g><rect fill="#ffffff" stroke="none" x="280" y="40" width="72.736328125" height="40" transform="matrix(1 0 0 1 -118 2)"/></g><g><path fill="none" stroke="#000000" paint-order="fill stroke markers" d=" M 162 42 L 234.736328125 42 L 234.736328125 82 L 162 82 L 162 42 Z Z" stroke-miterlimit="10" stroke-dasharray=""/></g><g><g><path fill="none" stroke="none"/><text fill="#000000" stroke="none" font-family="Arial" font-size="13px" font-style="normal" font-weight="bold" text-decoration="undefined" x="316.8681640625" y="53.5" text-anchor="middle" dominant-baseline="central" transform="matrix(1 0 0 1 -118 2)">前端</text></g></g><g><path fill="none" stroke="#000000" paint-order="fill stroke markers" d=" M 198.5 83 L 198.5 661" stroke-miterlimit="10" stroke-dasharray="3"/></g><g><rect fill="#C0C0C0" stroke="none" x="503" y="47" width="116.32568359375" height="40" transform="matrix(1 0 0 1 -118 2)" fill-opacity="0.2"/></g><g><rect fill="#ffffff" stroke="none" x="496" y="40" width="116.32568359375" height="40" transform="matrix(1 0 0 1 -118 2)"/></g><g><path fill="none" stroke="#000000" paint-order="fill stroke markers" d=" M 378 42 L 494.32568359375 42 L 494.32568359375 82 L 378 82 L 378 42 Z Z" stroke-miterlimit="10" stroke-dasharray=""/></g><g><g><path fill="none" stroke="none"/><text fill="#000000" stroke="none" font-family="Arial" font-size="13px" font-style="normal" font-weight="bold" text-decoration="undefined" x="554.662841796875" y="53.5" text-anchor="middle" dominant-baseline="central" transform="matrix(1 0 0 1 -118 2)">OrderManager</text></g></g><g><path fill="none" stroke="#000000" paint-order="fill stroke markers" d=" M 436.5 83 L 436.5 610" stroke-miterlimit="10" stroke-dasharray="3"/></g><g><path fill="none" stroke="#000000" paint-order="fill stroke markers" d=" M 85 122 L 191 122" stroke-miterlimit="10" stroke-dasharray=""/></g><g><path fill="#000000" stroke="none" paint-order="stroke fill markers" d=" M 180.83732514237585 126.20951775601598 L 191 122 L 180.83732514237585 117.79048224398402"/></g><g><path fill="none" stroke="#000000" paint-order="fill stroke markers" d=" M 180.83732514237585 126.20951775601598 L 191 122 L 180.83732514237585 117.79048224398402 L 180.83732514237585 126.20951775601598" stroke-miterlimit="10" stroke-dasharray=""/></g><g><rect fill="#ffffff" stroke="none" x="208" y="104" width="96.4462890625" height="13" transform="matrix(1 0 0 1 -118 2)"/></g><g><g><path fill="none" stroke="none"/><text fill="#000000" stroke="none" font-family="Arial" font-size="13px" font-style="normal" font-weight="normal" text-decoration="undefined" x="256.22314453125" y="110.5" text-anchor="middle" dominant-baseline="central" transform="matrix(1 0 0 1 -118 2)">1 : 点击取消订单</text></g></g><g><rect fill="#ffffff" stroke="none" x="309" y="120" width="14" height="136" transform="matrix(1 0 0 1 -118 2)"/></g><g><path fill="none" stroke="#000000" paint-order="fill stroke markers" d=" M 191 122 L 205 122 L 205 258 L 191 258 L 191 122 Z Z" stroke-miterlimit="10" stroke-dasharray=""/></g><g><path fill="none" stroke="#000000" paint-order="fill stroke markers" d=" M 205 138 L 235 138 L 235 158 L 212 158" stroke-miterlimit="10" stroke-dasharray=""/></g><g><path fill="#000000" stroke="none" paint-order="stroke fill markers" d=" M 222.16267485762415 153.790482243984 L 212 158 L 222.16267485762415 162.209517756016"/></g><g><path fill="none" stroke="#000000" paint-order="fill stroke markers" d=" M 222.16267485762415 153.790482243984 L 212 158 L 222.16267485762415 162.209517756016 L 222.16267485762415 153.790482243984" stroke-miterlimit="10" stroke-dasharray=""/></g><g><rect fill="#ffffff" stroke="none" x="282" y="139" width="161.4462890625" height="13" transform="matrix(1 0 0 1 -118 2)"/></g><g><g><path fill="none" stroke="none"/><text fill="#000000" stroke="none" font-family="Arial" font-size="13px" font-style="normal" font-weight="normal" text-decoration="undefined" x="362.72314453125" y="145.5" text-anchor="middle" dominant-baseline="central" transform="matrix(1 0 0 1 -118 2)">2 : 弹窗：是否取消此订单？</text></g></g><g><rect fill="#ffffff" stroke="none" x="316" y="156" width="14" height="28" transform="matrix(1 0 0 1 -118 2)"/></g><g><path fill="none" stroke="#000000" paint-order="fill stroke markers" d=" M 198 158 L 212 158 L 212 186 L 198 186 L 198 158 Z Z" stroke-miterlimit="10" stroke-dasharray=""/></g><g><path fill="none" stroke="#000000" paint-order="fill stroke markers" d=" M 191 206 L 85 206" stroke-miterlimit="10" stroke-dasharray="3"/></g><g><path fill="none" stroke="#000000" paint-order="fill stroke markers" d=" M 95.16267485762415 201.790482243984 L 85 206 L 95.16267485762415 210.209517756016" stroke-miterlimit="10" stroke-dasharray=""/></g><g><rect fill="#ffffff" stroke="none" x="181" y="208" width="148.4462890625" height="13" transform="matrix(1 0 0 1 -118 2)"/></g><g><g><path fill="none" stroke="none"/><text fill="#000000" stroke="none" font-family="Arial" font-size="13px" font-style="normal" font-weight="normal" text-decoration="undefined" x="255.22314453125" y="214.5" text-anchor="middle" dominant-baseline="central" transform="matrix(1 0 0 1 -118 2)">3 : 显示弹窗，待用户选择</text></g></g><g><path fill="none" stroke="#000000" paint-order="fill stroke markers" d=" M 85 306 L 191 306" stroke-miterlimit="10" stroke-dasharray=""/></g><g><path fill="#000000" stroke="none" paint-order="stroke fill markers" d=" M 180.83732514237585 310.209517756016 L 191 306 L 180.83732514237585 301.790482243984"/></g><g><path fill="none" stroke="#000000" paint-order="fill stroke markers" d=" M 180.83732514237585 310.209517756016 L 191 306 L 180.83732514237585 301.790482243984 L 180.83732514237585 310.209517756016" stroke-miterlimit="10" stroke-dasharray=""/></g><g><rect fill="#ffffff" stroke="none" x="217" y="288" width="78.04443359375" height="13" transform="matrix(1 0 0 1 -118 2)"/></g><g><g><path fill="none" stroke="none"/><text fill="#000000" stroke="none" font-family="Arial" font-size="13px" font-style="normal" font-weight="normal" text-decoration="undefined" x="256.022216796875" y="294.5" text-anchor="middle" dominant-baseline="central" transform="matrix(1 0 0 1 -118 2)">4 : 点击确认</text></g></g><g><rect fill="#ffffff" stroke="none" x="309" y="304" width="14" height="288" transform="matrix(1 0 0 1 -118 2)"/></g><g><path fill="none" stroke="#000000" paint-order="fill stroke markers" d=" M 191 306 L 205 306 L 205 594 L 191 594 L 191 306 Z Z" stroke-miterlimit="10" stroke-dasharray=""/></g><g><path fill="none" stroke="#000000" paint-order="fill stroke markers" d=" M 205 338 L 235 338 L 235 358 L 212 358" stroke-miterlimit="10" stroke-dasharray=""/></g><g><path fill="#000000" stroke="none" paint-order="stroke fill markers" d=" M 222.16267485762415 353.790482243984 L 212 358 L 222.16267485762415 362.209517756016"/></g><g><path fill="none" stroke="#000000" paint-order="fill stroke markers" d=" M 222.16267485762415 353.790482243984 L 212 358 L 222.16267485762415 362.209517756016 L 222.16267485762415 353.790482243984" stroke-miterlimit="10" stroke-dasharray=""/></g><g><rect fill="#ffffff" stroke="none" x="282" y="339" width="161.4462890625" height="13" transform="matrix(1 0 0 1 -118 2)"/></g><g><g><path fill="none" stroke="none"/><text fill="#000000" stroke="none" font-family="Arial" font-size="13px" font-style="normal" font-weight="normal" text-decoration="undefined" x="362.72314453125" y="345.5" text-anchor="middle" dominant-baseline="central" transform="matrix(1 0 0 1 -118 2)">5 : 获取待取消订单的订单号</text></g></g><g><rect fill="#ffffff" stroke="none" x="316" y="356" width="14" height="28" transform="matrix(1 0 0 1 -118 2)"/></g><g><path fill="none" stroke="#000000" paint-order="fill stroke markers" d=" M 198 358 L 212 358 L 212 386 L 198 386 L 198 358 Z Z" stroke-miterlimit="10" stroke-dasharray=""/></g><g><path fill="none" stroke="#000000" paint-order="fill stroke markers" d=" M 205 402 L 429 402" stroke-miterlimit="10" stroke-dasharray=""/></g><g><path fill="#000000" stroke="none" paint-order="stroke fill markers" d=" M 418.8373251423759 406.209517756016 L 429 402 L 418.8373251423758 397.790482243984"/></g><g><path fill="none" stroke="#000000" paint-order="fill stroke markers" d=" M 418.8373251423759 406.209517756016 L 429 402 L 418.8373251423758 397.790482243984 L 418.8373251423759 406.209517756016" stroke-miterlimit="10" stroke-dasharray=""/></g><g><rect fill="#ffffff" stroke="none" x="375" y="384" width="120.681640625" height="13" transform="matrix(1 0 0 1 -118 2)"/></g><g><g><path fill="none" stroke="none"/><text fill="#000000" stroke="none" font-family="Arial" font-size="13px" font-style="normal" font-weight="normal" text-decoration="undefined" x="435.3408203125" y="390.5" text-anchor="middle" dominant-baseline="central" transform="matrix(1 0 0 1 -118 2)">6 : cancelOrder_api</text></g></g><g><rect fill="#ffffff" stroke="none" x="547" y="400" width="14" height="104" transform="matrix(1 0 0 1 -118 2)"/></g><g><path fill="none" stroke="#000000" paint-order="fill stroke markers" d=" M 429 402 L 443 402 L 443 506 L 429 506 L 429 402 Z Z" stroke-miterlimit="10" stroke-dasharray=""/></g><g><path fill="none" stroke="#000000" paint-order="fill stroke markers" d=" M 443 426 L 473 426 L 473 446 L 450 446" stroke-miterlimit="10" stroke-dasharray=""/></g><g><path fill="#000000" stroke="none" paint-order="stroke fill markers" d=" M 460.1626748576241 441.790482243984 L 450 446 L 460.1626748576241 450.209517756016"/></g><g><path fill="none" stroke="#000000" paint-order="fill stroke markers" d=" M 460.1626748576241 441.790482243984 L 450 446 L 460.1626748576241 450.209517756016 L 460.1626748576241 441.790482243984" stroke-miterlimit="10" stroke-dasharray=""/></g><g><rect fill="#ffffff" stroke="none" x="481" y="427" width="239.4462890625" height="13" transform="matrix(1 0 0 1 -118 2)"/></g><g><g><path fill="none" stroke="none"/><text fill="#000000" stroke="none" font-family="Arial" font-size="13px" font-style="normal" font-weight="normal" text-decoration="undefined" x="600.72314453125" y="433.5" text-anchor="middle" dominant-baseline="central" transform="matrix(1 0 0 1 -118 2)">7 : 查找该订单，并更新状态为“已取消”</text></g></g><g><rect fill="#ffffff" stroke="none" x="554" y="444" width="14" height="28" transform="matrix(1 0 0 1 -118 2)"/></g><g><path fill="none" stroke="#000000" paint-order="fill stroke markers" d=" M 436 446 L 450 446 L 450 474 L 436 474 L 436 446 Z Z" stroke-miterlimit="10" stroke-dasharray=""/></g><g><path fill="none" stroke="#000000" paint-order="fill stroke markers" d=" M 429 490 L 205 490" stroke-miterlimit="10" stroke-dasharray="3"/></g><g><path fill="none" stroke="#000000" paint-order="fill stroke markers" d=" M 215.16267485762415 485.790482243984 L 205 490 L 215.16267485762415 494.209517756016" stroke-miterlimit="10" stroke-dasharray=""/></g><g><rect fill="#ffffff" stroke="none" x="377" y="492" width="114.8544921875" height="13" transform="matrix(1 0 0 1 -118 2)"/></g><g><g><path fill="none" stroke="none"/><text fill="#000000" stroke="none" font-family="Arial" font-size="13px" font-style="normal" font-weight="normal" text-decoration="undefined" x="434.42724609375" y="498.5" text-anchor="middle" dominant-baseline="central" transform="matrix(1 0 0 1 -118 2)">8 : 取消成功or失败</text></g></g><g><path fill="none" stroke="#000000" paint-order="fill stroke markers" d=" M 191 522 L 85 522" stroke-miterlimit="10" stroke-dasharray="3"/></g><g><path fill="none" stroke="#000000" paint-order="fill stroke markers" d=" M 95.16267485762415 517.790482243984 L 85 522 L 95.16267485762415 526.209517756016" stroke-miterlimit="10" stroke-dasharray=""/></g><g><rect fill="#ffffff" stroke="none" x="191" y="524" width="129.29541015625" height="13" transform="matrix(1 0 0 1 -118 2)"/></g><g><g><path fill="none" stroke="none"/><text fill="#000000" stroke="none" font-family="Arial" font-size="13px" font-style="normal" font-weight="normal" text-decoration="undefined" x="255.647705078125" y="530.5" text-anchor="middle" dominant-baseline="central" transform="matrix(1 0 0 1 -118 2)">9 : 弹窗显示取消情况</text></g></g><g><path fill="none" stroke="#000000" paint-order="fill stroke markers" d=" M 205 546 L 429 546" stroke-miterlimit="10" stroke-dasharray=""/></g><g><path fill="#000000" stroke="none" paint-order="stroke fill markers" d=" M 418.8373251423759 550.209517756016 L 429 546 L 418.8373251423758 541.790482243984"/></g><g><path fill="none" stroke="#000000" paint-order="fill stroke markers" d=" M 418.8373251423759 550.209517756016 L 429 546 L 418.8373251423758 541.790482243984 L 418.8373251423759 550.209517756016" stroke-miterlimit="10" stroke-dasharray=""/></g><g><rect fill="#ffffff" stroke="none" x="340" y="528" width="191.35009765625" height="13" transform="matrix(1 0 0 1 -118 2)"/></g><g><g><path fill="none" stroke="none"/><text fill="#000000" stroke="none" font-family="Arial" font-size="13px" font-style="normal" font-weight="normal" text-decoration="undefined" x="435.675048828125" y="534.5" text-anchor="middle" dominant-baseline="central" transform="matrix(1 0 0 1 -118 2)">10 : getOrdersByUsername_api</text></g></g><g><rect fill="#ffffff" stroke="none" x="547" y="544" width="14" height="32" transform="matrix(1 0 0 1 -118 2)"/></g><g><path fill="none" stroke="#000000" paint-order="fill stroke markers" d=" M 429 546 L 443 546 L 443 578 L 429 578 L 429 546 Z Z" stroke-miterlimit="10" stroke-dasharray=""/></g><g><path fill="none" stroke="#000000" paint-order="fill stroke markers" d=" M 429 573 L 205 573" stroke-miterlimit="10" stroke-dasharray="3"/></g><g><path fill="none" stroke="#000000" paint-order="fill stroke markers" d=" M 215.16267485762415 568.790482243984 L 205 573 L 215.16267485762415 577.209517756016" stroke-miterlimit="10" stroke-dasharray=""/></g><g><rect fill="#ffffff" stroke="none" x="376" y="575" width="117.06982421875" height="13" transform="matrix(1 0 0 1 -118 2)"/></g><g><g><path fill="none" stroke="none"/><text fill="#000000" stroke="none" font-family="Arial" font-size="13px" font-style="normal" font-weight="normal" text-decoration="undefined" x="434.534912109375" y="581.5" text-anchor="middle" dominant-baseline="central" transform="matrix(1 0 0 1 -118 2)">11 : 最新的订单列表</text></g></g><g><path fill="none" stroke="#000000" paint-order="fill stroke markers" d=" M 199 594 L 229 594 L 229 614 L 205 614" stroke-miterlimit="10" stroke-dasharray=""/></g><g><path fill="#000000" stroke="none" paint-order="stroke fill markers" d=" M 215.16267485762415 609.790482243984 L 205 614 L 215.16267485762415 618.209517756016"/></g><g><path fill="none" stroke="#000000" paint-order="fill stroke markers" d=" M 215.16267485762415 609.790482243984 L 205 614 L 215.16267485762415 618.209517756016 L 215.16267485762415 609.790482243984" stroke-miterlimit="10" stroke-dasharray=""/></g><g><rect fill="#ffffff" stroke="none" x="278" y="595" width="156.06982421875" height="13" transform="matrix(1 0 0 1 -118 2)"/></g><g><g><path fill="none" stroke="none"/><text fill="#000000" stroke="none" font-family="Arial" font-size="13px" font-style="normal" font-weight="normal" text-decoration="undefined" x="356.034912109375" y="601.5" text-anchor="middle" dominant-baseline="central" transform="matrix(1 0 0 1 -118 2)">12 : 根据搜索条件进行过滤</text></g></g><g><rect fill="#ffffff" stroke="none" x="309" y="612" width="14" height="28" transform="matrix(1 0 0 1 -118 2)"/></g><g><path fill="none" stroke="#000000" paint-order="fill stroke markers" d=" M 191 614 L 205 614 L 205 642 L 191 642 L 191 614 Z Z" stroke-miterlimit="10" stroke-dasharray=""/></g><g><path fill="none" stroke="#000000" paint-order="fill stroke markers" d=" M 191 630 L 85 630" stroke-miterlimit="10" stroke-dasharray="3"/></g><g><path fill="none" stroke="#000000" paint-order="fill stroke markers" d=" M 95.16267485762415 625.790482243984 L 85 630 L 95.16267485762415 634.209517756016" stroke-miterlimit="10" stroke-dasharray=""/></g><g><rect fill="#ffffff" stroke="none" x="190" y="632" width="130.06982421875" height="13" transform="matrix(1 0 0 1 -118 2)"/></g><g><g><path fill="none" stroke="none"/><text fill="#000000" stroke="none" font-family="Arial" font-size="13px" font-style="normal" font-weight="normal" text-decoration="undefined" x="255.034912109375" y="638.5" text-anchor="middle" dominant-baseline="central" transform="matrix(1 0 0 1 -118 2)">13 : 更新后的订单列表</text></g></g></g></svg>