<svg version="1.1" xmlns="http://www.w3.org/2000/svg" xmlns:xlink="http://www.w3.org/1999/xlink" width="588" height="636"><defs/><g><g><path fill="none" stroke="#000000" paint-order="fill stroke markers" d=" M 10 10 L 578 10 L 578 626 L 10 626 L 10 10" stroke-miterlimit="10" stroke-dasharray=""/></g><g><path fill="#ffffff" stroke="none" paint-order="stroke fill markers" d=" M 10 10 L 10 33 L 174.05908203125 33 L 185.55908203125 21.5 L 185.55908203125 10 L 10 10"/></g><g><path fill="none" stroke="#000000" paint-order="fill stroke markers" d=" M 10 10 L 10 33 L 174.05908203125 33 L 185.55908203125 21.5 L 185.55908203125 10 L 10 10 L 10 10" stroke-miterlimit="10" stroke-dasharray=""/></g><g><g><path fill="none" stroke="none"/><text fill="#000000" stroke="none" font-family="Arial" font-size="13px" font-style="normal" font-weight="normal" text-decoration="undefined" x="163.89453125" y="19.5" text-anchor="middle" dominant-baseline="central" transform="matrix(1 0 0 1 -62 2)">顺序图-添加乘车人信息</text></g></g><g><g><path fill="none" stroke="none"/><text fill="#000000" stroke="none" font-family="Arial" font-size="13px" font-style="normal" font-weight="bold" text-decoration="undefined" x="83.864990234375" y="19.5" text-anchor="middle" dominant-baseline="central" transform="matrix(1 0 0 1 -62 2)">sd</text></g></g><g><rect fill="#C0C0C0" stroke="none" x="119" y="47" width="72.736328125" height="40" transform="matrix(1 0 0 1 -62 2)" fill-opacity="0.2"/></g><g><rect fill="#ffffff" stroke="none" x="112" y="40" width="72.736328125" height="40" transform="matrix(1 0 0 1 -62 2)"/></g><g><path fill="none" stroke="#000000" paint-order="fill stroke markers" d=" M 50 42 L 122.736328125 42 L 122.736328125 82 L 50 82 L 50 42 Z Z" stroke-miterlimit="10" stroke-dasharray=""/></g><g><g><path fill="none" stroke="none"/><text fill="#000000" stroke="none" font-family="Arial" font-size="13px" font-style="normal" font-weight="bold" text-decoration="undefined" x="148.8681640625" y="53.5" text-anchor="middle" dominant-baseline="central" transform="matrix(1 0 0 1 -62 2)">用户</text></g></g><g><path fill="none" stroke="#000000" paint-order="fill stroke markers" d=" M 86.5 83 L 86.5 609" stroke-miterlimit="10" stroke-dasharray="3"/></g><g><rect fill="#C0C0C0" stroke="none" x="247" y="47" width="72.736328125" height="40" transform="matrix(1 0 0 1 -62 2)" fill-opacity="0.2"/></g><g><rect fill="#ffffff" stroke="none" x="240" y="40" width="72.736328125" height="40" transform="matrix(1 0 0 1 -62 2)"/></g><g><path fill="none" stroke="#000000" paint-order="fill stroke markers" d=" M 178 42 L 250.736328125 42 L 250.736328125 82 L 178 82 L 178 42 Z Z" stroke-miterlimit="10" stroke-dasharray=""/></g><g><g><path fill="none" stroke="none"/><text fill="#000000" stroke="none" font-family="Arial" font-size="13px" font-style="normal" font-weight="bold" text-decoration="undefined" x="276.8681640625" y="53.5" text-anchor="middle" dominant-baseline="central" transform="matrix(1 0 0 1 -62 2)">前端</text></g></g><g><path fill="none" stroke="#000000" paint-order="fill stroke markers" d=" M 214.5 83 L 214.5 609" stroke-miterlimit="10" stroke-dasharray="3"/></g><g><rect fill="#C0C0C0" stroke="none" x="439" y="47" width="144.7568359375" height="40" transform="matrix(1 0 0 1 -62 2)" fill-opacity="0.2"/></g><g><rect fill="#ffffff" stroke="none" x="432" y="40" width="144.7568359375" height="40" transform="matrix(1 0 0 1 -62 2)"/></g><g><path fill="none" stroke="#000000" paint-order="fill stroke markers" d=" M 370 42 L 514.7568359375 42 L 514.7568359375 82 L 370 82 L 370 42 Z Z" stroke-miterlimit="10" stroke-dasharray=""/></g><g><g><path fill="none" stroke="none"/><text fill="#000000" stroke="none" font-family="Arial" font-size="13px" font-style="normal" font-weight="bold" text-decoration="undefined" x="504.87841796875" y="53.5" text-anchor="middle" dominant-baseline="central" transform="matrix(1 0 0 1 -62 2)">PassengerManager</text></g></g><g><path fill="none" stroke="#000000" paint-order="fill stroke markers" d=" M 442.5 83 L 442.5 553" stroke-miterlimit="10" stroke-dasharray="3"/></g><g><path fill="none" stroke="#000000" paint-order="fill stroke markers" d=" M 87 124 L 207 124" stroke-miterlimit="10" stroke-dasharray=""/></g><g><path fill="#000000" stroke="none" paint-order="stroke fill markers" d=" M 196.83732514237585 128.209517756016 L 207 124 L 196.83732514237585 119.79048224398402"/></g><g><path fill="none" stroke="#000000" paint-order="fill stroke markers" d=" M 196.83732514237585 128.209517756016 L 207 124 L 196.83732514237585 119.79048224398402 L 196.83732514237585 128.209517756016" stroke-miterlimit="10" stroke-dasharray=""/></g><g><rect fill="#ffffff" stroke="none" x="148" y="106" width="122.4462890625" height="13" transform="matrix(1 0 0 1 -62 2)"/></g><g><g><path fill="none" stroke="none"/><text fill="#000000" stroke="none" font-family="Arial" font-size="13px" font-style="normal" font-weight="normal" text-decoration="undefined" x="209.22314453125" y="112.5" text-anchor="middle" dominant-baseline="central" transform="matrix(1 0 0 1 -62 2)">1 : 点击底部添加图标</text></g></g><g><rect fill="#ffffff" stroke="none" x="269" y="122" width="14" height="118" transform="matrix(1 0 0 1 -62 2)"/></g><g><path fill="none" stroke="#000000" paint-order="fill stroke markers" d=" M 207 124 L 221 124 L 221 242 L 207 242 L 207 124 Z Z" stroke-miterlimit="10" stroke-dasharray=""/></g><g><path fill="none" stroke="#000000" paint-order="fill stroke markers" d=" M 221 146 L 251 146 L 251 166 L 228 166" stroke-miterlimit="10" stroke-dasharray=""/></g><g><path fill="#000000" stroke="none" paint-order="stroke fill markers" d=" M 238.16267485762415 161.790482243984 L 228 166 L 238.16267485762415 170.209517756016"/></g><g><path fill="none" stroke="#000000" paint-order="fill stroke markers" d=" M 238.16267485762415 161.790482243984 L 228 166 L 238.16267485762415 170.209517756016 L 238.16267485762415 161.790482243984" stroke-miterlimit="10" stroke-dasharray=""/></g><g><rect fill="#ffffff" stroke="none" x="233" y="147" width="178.0390625" height="13" transform="matrix(1 0 0 1 -62 2)"/></g><g><g><path fill="none" stroke="none"/><text fill="#000000" stroke="none" font-family="Arial" font-size="13px" font-style="normal" font-weight="normal" text-decoration="undefined" x="322.01953125" y="153.5" text-anchor="middle" dominant-baseline="central" transform="matrix(1 0 0 1 -62 2)">2 : 利用Loader弹出信息填写框</text></g></g><g><rect fill="#ffffff" stroke="none" x="276" y="164" width="14" height="28" transform="matrix(1 0 0 1 -62 2)"/></g><g><path fill="none" stroke="#000000" paint-order="fill stroke markers" d=" M 214 166 L 228 166 L 228 194 L 214 194 L 214 166 Z Z" stroke-miterlimit="10" stroke-dasharray=""/></g><g><path fill="none" stroke="#000000" paint-order="fill stroke markers" d=" M 207 219 L 87 219" stroke-miterlimit="10" stroke-dasharray="3"/></g><g><path fill="none" stroke="#000000" paint-order="fill stroke markers" d=" M 97.16267485762415 214.790482243984 L 87 219 L 97.16267485762415 223.209517756016" stroke-miterlimit="10" stroke-dasharray=""/></g><g><rect fill="#ffffff" stroke="none" x="134" y="221" width="148.4462890625" height="13" transform="matrix(1 0 0 1 -62 2)"/></g><g><g><path fill="none" stroke="none"/><text fill="#000000" stroke="none" font-family="Arial" font-size="13px" font-style="normal" font-weight="normal" text-decoration="undefined" x="208.22314453125" y="227.5" text-anchor="middle" dominant-baseline="central" transform="matrix(1 0 0 1 -62 2)">3 : 显示弹窗，待用户输入</text></g></g><g><path fill="none" stroke="#000000" paint-order="fill stroke markers" d=" M 87 290 L 207 290" stroke-miterlimit="10" stroke-dasharray=""/></g><g><path fill="#000000" stroke="none" paint-order="stroke fill markers" d=" M 196.83732514237585 294.209517756016 L 207 290 L 196.83732514237585 285.790482243984"/></g><g><path fill="none" stroke="#000000" paint-order="fill stroke markers" d=" M 196.83732514237585 294.209517756016 L 207 290 L 196.83732514237585 285.790482243984 L 196.83732514237585 294.209517756016" stroke-miterlimit="10" stroke-dasharray=""/></g><g><rect fill="#ffffff" stroke="none" x="122" y="272" width="174.4462890625" height="13" transform="matrix(1 0 0 1 -62 2)"/></g><g><g><path fill="none" stroke="none"/><text fill="#000000" stroke="none" font-family="Arial" font-size="13px" font-style="normal" font-weight="normal" text-decoration="undefined" x="209.22314453125" y="278.5" text-anchor="middle" dominant-baseline="central" transform="matrix(1 0 0 1 -62 2)">4 : 输入乘车人信息，点击确定</text></g></g><g><rect fill="#ffffff" stroke="none" x="269" y="288" width="14" height="256" transform="matrix(1 0 0 1 -62 2)"/></g><g><path fill="none" stroke="#000000" paint-order="fill stroke markers" d=" M 207 290 L 221 290 L 221 546 L 207 546 L 207 290 Z Z" stroke-miterlimit="10" stroke-dasharray=""/></g><g><path fill="none" stroke="#000000" paint-order="fill stroke markers" d=" M 221 314 L 251 314 L 251 334 L 228 334" stroke-miterlimit="10" stroke-dasharray=""/></g><g><path fill="#000000" stroke="none" paint-order="stroke fill markers" d=" M 238.16267485762415 329.790482243984 L 228 334 L 238.16267485762415 338.209517756016"/></g><g><path fill="none" stroke="#000000" paint-order="fill stroke markers" d=" M 238.16267485762415 329.790482243984 L 228 334 L 238.16267485762415 338.209517756016 L 238.16267485762415 329.790482243984" stroke-miterlimit="10" stroke-dasharray=""/></g><g><rect fill="#ffffff" stroke="none" x="268" y="315" width="109.4462890625" height="13" transform="matrix(1 0 0 1 -62 2)"/></g><g><g><path fill="none" stroke="none"/><text fill="#000000" stroke="none" font-family="Arial" font-size="13px" font-style="normal" font-weight="normal" text-decoration="undefined" x="322.72314453125" y="321.5" text-anchor="middle" dominant-baseline="central" transform="matrix(1 0 0 1 -62 2)">5 : 输入合法性校验</text></g></g><g><rect fill="#ffffff" stroke="none" x="276" y="332" width="14" height="28" transform="matrix(1 0 0 1 -62 2)"/></g><g><path fill="none" stroke="#000000" paint-order="fill stroke markers" d=" M 214 334 L 228 334 L 228 362 L 214 362 L 214 334 Z Z" stroke-miterlimit="10" stroke-dasharray=""/></g><g><path fill="none" stroke="#000000" paint-order="fill stroke markers" d=" M 221 387 L 435 387" stroke-miterlimit="10" stroke-dasharray=""/></g><g><path fill="#000000" stroke="none" paint-order="stroke fill markers" d=" M 424.83732514237585 391.209517756016 L 435 387 L 424.83732514237585 382.790482243984"/></g><g><path fill="none" stroke="#000000" paint-order="fill stroke markers" d=" M 424.83732514237585 391.209517756016 L 435 387 L 424.83732514237585 382.790482243984 L 424.83732514237585 391.209517756016" stroke-miterlimit="10" stroke-dasharray=""/></g><g><rect fill="#ffffff" stroke="none" x="326" y="369" width="129.80322265625" height="13" transform="matrix(1 0 0 1 -62 2)"/></g><g><g><path fill="none" stroke="none"/><text fill="#000000" stroke="none" font-family="Arial" font-size="13px" font-style="normal" font-weight="normal" text-decoration="undefined" x="390.901611328125" y="375.5" text-anchor="middle" dominant-baseline="central" transform="matrix(1 0 0 1 -62 2)">6 : addPassenger_api</text></g></g><g><rect fill="#ffffff" stroke="none" x="497" y="385" width="14" height="28" transform="matrix(1 0 0 1 -62 2)"/></g><g><path fill="none" stroke="#000000" paint-order="fill stroke markers" d=" M 435 387 L 449 387 L 449 415 L 435 415 L 435 387 Z Z" stroke-miterlimit="10" stroke-dasharray=""/></g><g><path fill="none" stroke="#000000" paint-order="fill stroke markers" d=" M 449 410 L 479 410 L 479 430 L 449 430" stroke-miterlimit="10" stroke-dasharray=""/></g><g><path fill="#000000" stroke="none" paint-order="stroke fill markers" d=" M 459.1626748576241 425.790482243984 L 449 430 L 459.1626748576241 434.209517756016"/></g><g><path fill="none" stroke="#000000" paint-order="fill stroke markers" d=" M 459.1626748576241 425.790482243984 L 449 430 L 459.1626748576241 434.209517756016 L 459.1626748576241 425.790482243984" stroke-miterlimit="10" stroke-dasharray=""/></g><g><rect fill="#ffffff" stroke="none" x="470" y="411" width="161.4462890625" height="13" transform="matrix(1 0 0 1 -62 2)"/></g><g><g><path fill="none" stroke="none"/><text fill="#000000" stroke="none" font-family="Arial" font-size="13px" font-style="normal" font-weight="normal" text-decoration="undefined" x="550.72314453125" y="417.5" text-anchor="middle" dominant-baseline="central" transform="matrix(1 0 0 1 -62 2)">7 : 校验实名信息并检验重复</text></g></g><g><rect fill="#ffffff" stroke="none" x="497" y="428" width="14" height="44" transform="matrix(1 0 0 1 -62 2)"/></g><g><path fill="none" stroke="#000000" paint-order="fill stroke markers" d=" M 435 430 L 449 430 L 449 474 L 435 474 L 435 430 Z Z" stroke-miterlimit="10" stroke-dasharray=""/></g><g><path fill="none" stroke="#000000" paint-order="fill stroke markers" d=" M 435 451 L 221 451" stroke-miterlimit="10" stroke-dasharray="3"/></g><g><path fill="none" stroke="#000000" paint-order="fill stroke markers" d=" M 231.16267485762415 446.790482243984 L 221 451 L 231.16267485762415 455.209517756016" stroke-miterlimit="10" stroke-dasharray=""/></g><g><rect fill="#ffffff" stroke="none" x="335" y="453" width="109.4462890625" height="13" transform="matrix(1 0 0 1 -62 2)"/></g><g><g><path fill="none" stroke="none"/><text fill="#000000" stroke="none" font-family="Arial" font-size="13px" font-style="normal" font-weight="normal" text-decoration="undefined" x="389.72314453125" y="459.5" text-anchor="middle" dominant-baseline="central" transform="matrix(1 0 0 1 -62 2)">8 : 乘车人添加成功</text></g></g><g><path fill="none" stroke="#000000" paint-order="fill stroke markers" d=" M 207 466 L 87 466" stroke-miterlimit="10" stroke-dasharray="3"/></g><g><path fill="none" stroke="#000000" paint-order="fill stroke markers" d=" M 97.16267485762415 461.790482243984 L 87 466 L 97.16267485762415 470.209517756016" stroke-miterlimit="10" stroke-dasharray=""/></g><g><rect fill="#ffffff" stroke="none" x="173" y="468" width="70.4462890625" height="13" transform="matrix(1 0 0 1 -62 2)"/></g><g><g><path fill="none" stroke="none"/><text fill="#000000" stroke="none" font-family="Arial" font-size="13px" font-style="normal" font-weight="normal" text-decoration="undefined" x="208.22314453125" y="474.5" text-anchor="middle" dominant-baseline="central" transform="matrix(1 0 0 1 -62 2)">9 : 弹窗回复</text></g></g><g><path fill="none" stroke="#000000" paint-order="fill stroke markers" d=" M 221 506 L 435 506" stroke-miterlimit="10" stroke-dasharray=""/></g><g><path fill="#000000" stroke="none" paint-order="stroke fill markers" d=" M 424.83732514237585 510.209517756016 L 435 506 L 424.83732514237585 501.790482243984"/></g><g><path fill="none" stroke="#000000" paint-order="fill stroke markers" d=" M 424.83732514237585 510.209517756016 L 435 506 L 424.83732514237585 501.790482243984 L 424.83732514237585 510.209517756016" stroke-miterlimit="10" stroke-dasharray=""/></g><g><rect fill="#ffffff" stroke="none" x="281" y="488" width="218.08642578125" height="13" transform="matrix(1 0 0 1 -62 2)"/></g><g><g><path fill="none" stroke="none"/><text fill="#000000" stroke="none" font-family="Arial" font-size="13px" font-style="normal" font-weight="normal" text-decoration="undefined" x="390.043212890625" y="494.5" text-anchor="middle" dominant-baseline="central" transform="matrix(1 0 0 1 -62 2)">10 : getPassengersByUsername_api</text></g></g><g><rect fill="#ffffff" stroke="none" x="497" y="504" width="14" height="28" transform="matrix(1 0 0 1 -62 2)"/></g><g><path fill="none" stroke="#000000" paint-order="fill stroke markers" d=" M 435 506 L 449 506 L 449 534 L 435 534 L 435 506 Z Z" stroke-miterlimit="10" stroke-dasharray=""/></g><g><path fill="none" stroke="#000000" paint-order="fill stroke markers" d=" M 435 522 L 221 522" stroke-miterlimit="10" stroke-dasharray="3"/></g><g><path fill="none" stroke="#000000" paint-order="fill stroke markers" d=" M 231.16267485762415 517.790482243984 L 221 522 L 231.16267485762415 526.209517756016" stroke-miterlimit="10" stroke-dasharray=""/></g><g><rect fill="#ffffff" stroke="none" x="324" y="524" width="130.06982421875" height="13" transform="matrix(1 0 0 1 -62 2)"/></g><g><g><path fill="none" stroke="none"/><text fill="#000000" stroke="none" font-family="Arial" font-size="13px" font-style="normal" font-weight="normal" text-decoration="undefined" x="389.034912109375" y="530.5" text-anchor="middle" dominant-baseline="central" transform="matrix(1 0 0 1 -62 2)">11 : 最新的乘车人列表</text></g></g><g><path fill="none" stroke="#000000" paint-order="fill stroke markers" d=" M 221 538 L 251 538 L 251 558 L 221 558" stroke-miterlimit="10" stroke-dasharray=""/></g><g><path fill="#000000" stroke="none" paint-order="stroke fill markers" d=" M 231.16267485762415 553.790482243984 L 221 558 L 231.16267485762415 562.209517756016"/></g><g><path fill="none" stroke="#000000" paint-order="fill stroke markers" d=" M 231.16267485762415 553.790482243984 L 221 558 L 231.16267485762415 562.209517756016 L 231.16267485762415 553.790482243984" stroke-miterlimit="10" stroke-dasharray=""/></g><g><rect fill="#ffffff" stroke="none" x="244" y="539" width="156.06982421875" height="13" transform="matrix(1 0 0 1 -62 2)"/></g><g><g><path fill="none" stroke="none"/><text fill="#000000" stroke="none" font-family="Arial" font-size="13px" font-style="normal" font-weight="normal" text-decoration="undefined" x="322.034912109375" y="545.5" text-anchor="middle" dominant-baseline="central" transform="matrix(1 0 0 1 -62 2)">12 : 根据搜索条件进行过滤</text></g></g><g><rect fill="#ffffff" stroke="none" x="269" y="556" width="14" height="28" transform="matrix(1 0 0 1 -62 2)"/></g><g><path fill="none" stroke="#000000" paint-order="fill stroke markers" d=" M 207 558 L 221 558 L 221 586 L 207 586 L 207 558 Z Z" stroke-miterlimit="10" stroke-dasharray=""/></g><g><path fill="none" stroke="#000000" paint-order="fill stroke markers" d=" M 207 578 L 87 578" stroke-miterlimit="10" stroke-dasharray="3"/></g><g><path fill="none" stroke="#000000" paint-order="fill stroke markers" d=" M 97.16267485762415 573.790482243984 L 87 578 L 97.16267485762415 582.209517756016" stroke-miterlimit="10" stroke-dasharray=""/></g><g><rect fill="#ffffff" stroke="none" x="124" y="580" width="169.06982421875" height="13" transform="matrix(1 0 0 1 -62 2)"/></g><g><g><path fill="none" stroke="none"/><text fill="#000000" stroke="none" font-family="Arial" font-size="13px" font-style="normal" font-weight="normal" text-decoration="undefined" x="208.534912109375" y="586.5" text-anchor="middle" dominant-baseline="central" transform="matrix(1 0 0 1 -62 2)">13 : 显示更新后的乘车人列表</text></g></g></g></svg>