<svg version="1.1" xmlns="http://www.w3.org/2000/svg" xmlns:xlink="http://www.w3.org/1999/xlink" width="548.48046875" height="532"><defs/><g><g><path fill="none" stroke="#000000" paint-order="fill stroke markers" d=" M 10 10 L 538 10 L 538 522 L 10 522 L 10 10" stroke-miterlimit="10" stroke-dasharray=""/></g><g><path fill="#ffffff" stroke="none" paint-order="stroke fill markers" d=" M 10 10 L 10 33 L 109.05908203125 33 L 120.55908203125 21.5 L 120.55908203125 10 L 10 10"/></g><g><path fill="none" stroke="#000000" paint-order="fill stroke markers" d=" M 10 10 L 10 33 L 109.05908203125 33 L 120.55908203125 21.5 L 120.55908203125 10 L 10 10 L 10 10" stroke-miterlimit="10" stroke-dasharray=""/></g><g><g><path fill="none" stroke="none"/><text fill="#000000" stroke="none" font-family="Arial" font-size="13px" font-style="normal" font-weight="normal" text-decoration="undefined" x="59.39453125" y="11.5" text-anchor="middle" dominant-baseline="central" transform="matrix(1 0 0 1 10 10)">顺序图-退票</text></g></g><g><g><path fill="none" stroke="none"/><text fill="#000000" stroke="none" font-family="Arial" font-size="13px" font-style="normal" font-weight="bold" text-decoration="undefined" x="11.864990234375" y="11.5" text-anchor="middle" dominant-baseline="central" transform="matrix(1 0 0 1 10 10)">sd</text></g></g><g><rect fill="#C0C0C0" stroke="none" x="47" y="47" width="72.736328125" height="40" transform="matrix(1 0 0 1 10 10)" fill-opacity="0.2"/></g><g><rect fill="#ffffff" stroke="none" x="40" y="40" width="72.736328125" height="40" transform="matrix(1 0 0 1 10 10)"/></g><g><path fill="none" stroke="#000000" paint-order="fill stroke markers" d=" M 50 50 L 122.736328125 50 L 122.736328125 90 L 50 90 L 50 50 Z Z" stroke-miterlimit="10" stroke-dasharray=""/></g><g><g><path fill="none" stroke="none"/><text fill="#000000" stroke="none" font-family="Arial" font-size="13px" font-style="normal" font-weight="bold" text-decoration="undefined" x="76.8681640625" y="53.5" text-anchor="middle" dominant-baseline="central" transform="matrix(1 0 0 1 10 10)">用户</text></g></g><g><path fill="none" stroke="#000000" paint-order="fill stroke markers" d=" M 86.5 91 L 86.5 504" stroke-miterlimit="10" stroke-dasharray="3"/></g><g><rect fill="#C0C0C0" stroke="none" x="199" y="47" width="72.736328125" height="40" transform="matrix(1 0 0 1 10 10)" fill-opacity="0.2"/></g><g><rect fill="#ffffff" stroke="none" x="192" y="40" width="72.736328125" height="40" transform="matrix(1 0 0 1 10 10)"/></g><g><path fill="none" stroke="#000000" paint-order="fill stroke markers" d=" M 202 50 L 274.736328125 50 L 274.736328125 90 L 202 90 L 202 50 Z Z" stroke-miterlimit="10" stroke-dasharray=""/></g><g><g><path fill="none" stroke="none"/><text fill="#000000" stroke="none" font-family="Arial" font-size="13px" font-style="normal" font-weight="bold" text-decoration="undefined" x="228.8681640625" y="53.5" text-anchor="middle" dominant-baseline="central" transform="matrix(1 0 0 1 10 10)">前端</text></g></g><g><path fill="none" stroke="#000000" paint-order="fill stroke markers" d=" M 238.5 91 L 238.5 504" stroke-miterlimit="10" stroke-dasharray="3"/></g><g><rect fill="#C0C0C0" stroke="none" x="343" y="47" width="114.23095703125" height="40" transform="matrix(1 0 0 1 10 10)" fill-opacity="0.2"/></g><g><rect fill="#ffffff" stroke="none" x="336" y="40" width="114.23095703125" height="40" transform="matrix(1 0 0 1 10 10)"/></g><g><path fill="none" stroke="#000000" paint-order="fill stroke markers" d=" M 346 50 L 460.23095703125 50 L 460.23095703125 90 L 346 90 L 346 50 Z Z" stroke-miterlimit="10" stroke-dasharray=""/></g><g><g><path fill="none" stroke="none"/><text fill="#000000" stroke="none" font-family="Arial" font-size="13px" font-style="normal" font-weight="bold" text-decoration="undefined" x="393.615478515625" y="53.5" text-anchor="middle" dominant-baseline="central" transform="matrix(1 0 0 1 10 10)">orderManager</text></g></g><g><path fill="none" stroke="#000000" paint-order="fill stroke markers" d=" M 403.5 91 L 403.5 506" stroke-miterlimit="10" stroke-dasharray="3"/></g><g><path fill="none" stroke="#000000" paint-order="fill stroke markers" d=" M 87 123 L 231 123" stroke-miterlimit="10" stroke-dasharray=""/></g><g><path fill="#000000" stroke="none" paint-order="stroke fill markers" d=" M 220.83732514237585 127.20951775601598 L 231 123 L 220.83732514237585 118.79048224398402"/></g><g><path fill="none" stroke="#000000" paint-order="fill stroke markers" d=" M 220.83732514237585 127.20951775601598 L 231 123 L 220.83732514237585 118.79048224398402 L 220.83732514237585 127.20951775601598" stroke-miterlimit="10" stroke-dasharray=""/></g><g><rect fill="#ffffff" stroke="none" x="88" y="97" width="122.4462890625" height="13" transform="matrix(1 0 0 1 10 10)"/></g><g><g><path fill="none" stroke="none"/><text fill="#000000" stroke="none" font-family="Arial" font-size="13px" font-style="normal" font-weight="normal" text-decoration="undefined" x="149.22314453125" y="103.5" text-anchor="middle" dominant-baseline="central" transform="matrix(1 0 0 1 10 10)">1 : 用户点击“退票”</text></g></g><g><rect fill="#ffffff" stroke="none" x="221" y="113" width="14" height="367" transform="matrix(1 0 0 1 10 10)"/></g><g><path fill="none" stroke="#000000" paint-order="fill stroke markers" d=" M 231 123 L 245 123 L 245 490 L 231 490 L 231 123 Z Z" stroke-miterlimit="10" stroke-dasharray=""/></g><g><path fill="none" stroke="#000000" paint-order="fill stroke markers" d=" M 245 138 L 275 138 L 275 158 L 252 158" stroke-miterlimit="10" stroke-dasharray=""/></g><g><path fill="#000000" stroke="none" paint-order="stroke fill markers" d=" M 262.16267485762415 153.790482243984 L 252 158 L 262.16267485762415 162.209517756016"/></g><g><path fill="none" stroke="#000000" paint-order="fill stroke markers" d=" M 262.16267485762415 153.790482243984 L 252 158 L 262.16267485762415 162.209517756016 L 262.16267485762415 153.790482243984" stroke-miterlimit="10" stroke-dasharray=""/></g><g><rect fill="#ffffff" stroke="none" x="207" y="131" width="135.4462890625" height="13" transform="matrix(1 0 0 1 10 10)"/></g><g><g><path fill="none" stroke="none"/><text fill="#000000" stroke="none" font-family="Arial" font-size="13px" font-style="normal" font-weight="normal" text-decoration="undefined" x="274.72314453125" y="137.5" text-anchor="middle" dominant-baseline="central" transform="matrix(1 0 0 1 10 10)">2 : 获取对应订单列车号</text></g></g><g><rect fill="#ffffff" stroke="none" x="228" y="148" width="14" height="28" transform="matrix(1 0 0 1 10 10)"/></g><g><path fill="none" stroke="#000000" paint-order="fill stroke markers" d=" M 238 158 L 252 158 L 252 186 L 238 186 L 238 158 Z Z" stroke-miterlimit="10" stroke-dasharray=""/></g><g><path fill="none" stroke="#000000" paint-order="fill stroke markers" d=" M 245 202 L 396 202" stroke-miterlimit="10" stroke-dasharray=""/></g><g><path fill="#000000" stroke="none" paint-order="stroke fill markers" d=" M 385.83732514237585 206.209517756016 L 396 202 L 385.83732514237585 197.790482243984"/></g><g><path fill="none" stroke="#000000" paint-order="fill stroke markers" d=" M 385.83732514237585 206.209517756016 L 396 202 L 385.83732514237585 197.790482243984 L 385.83732514237585 206.209517756016" stroke-miterlimit="10" stroke-dasharray=""/></g><g><rect fill="#ffffff" stroke="none" x="251" y="176" width="118.3203125" height="13" transform="matrix(1 0 0 1 10 10)"/></g><g><g><path fill="none" stroke="none"/><text fill="#000000" stroke="none" font-family="Arial" font-size="13px" font-style="normal" font-weight="normal" text-decoration="undefined" x="310.16015625" y="182.5" text-anchor="middle" dominant-baseline="central" transform="matrix(1 0 0 1 10 10)">3 : cancelOrder_api</text></g></g><g><rect fill="#ffffff" stroke="none" x="386" y="192" width="14" height="144" transform="matrix(1 0 0 1 10 10)"/></g><g><path fill="none" stroke="#000000" paint-order="fill stroke markers" d=" M 396 202 L 410 202 L 410 346 L 396 346 L 396 202 Z Z" stroke-miterlimit="10" stroke-dasharray=""/></g><g><path fill="none" stroke="#000000" paint-order="fill stroke markers" d=" M 410 218 L 440 218 L 440 238 L 417 238" stroke-miterlimit="10" stroke-dasharray=""/></g><g><path fill="#000000" stroke="none" paint-order="stroke fill markers" d=" M 427.16267485762415 233.790482243984 L 417 238 L 427.16267485762415 242.209517756016"/></g><g><path fill="none" stroke="#000000" paint-order="fill stroke markers" d=" M 427.16267485762415 233.790482243984 L 417 238 L 427.16267485762415 242.209517756016 L 427.16267485762415 233.790482243984" stroke-miterlimit="10" stroke-dasharray=""/></g><g><rect fill="#ffffff" stroke="none" x="351" y="211" width="177.48046875" height="13" transform="matrix(1 0 0 1 10 10)"/></g><g><g><path fill="none" stroke="none"/><text fill="#000000" stroke="none" font-family="Arial" font-size="13px" font-style="normal" font-weight="normal" text-decoration="undefined" x="439.740234375" y="217.5" text-anchor="middle" dominant-baseline="central" transform="matrix(1 0 0 1 10 10)">4 : getOrderByOrderNumber</text></g></g><g><rect fill="#ffffff" stroke="none" x="393" y="228" width="14" height="28" transform="matrix(1 0 0 1 10 10)"/></g><g><path fill="none" stroke="#000000" paint-order="fill stroke markers" d=" M 403 238 L 417 238 L 417 266 L 403 266 L 403 238 Z Z" stroke-miterlimit="10" stroke-dasharray=""/></g><g><path fill="none" stroke="#000000" paint-order="fill stroke markers" d=" M 410 282 L 440 282 L 440 302 L 417 302" stroke-miterlimit="10" stroke-dasharray=""/></g><g><path fill="#000000" stroke="none" paint-order="stroke fill markers" d=" M 427.16267485762415 297.790482243984 L 417 302 L 427.16267485762415 306.209517756016"/></g><g><path fill="none" stroke="#000000" paint-order="fill stroke markers" d=" M 427.16267485762415 297.790482243984 L 417 302 L 427.16267485762415 306.209517756016 L 427.16267485762415 297.790482243984" stroke-miterlimit="10" stroke-dasharray=""/></g><g><rect fill="#ffffff" stroke="none" x="393" y="275" width="93.54541015625" height="13" transform="matrix(1 0 0 1 10 10)"/></g><g><g><path fill="none" stroke="none"/><text fill="#000000" stroke="none" font-family="Arial" font-size="13px" font-style="normal" font-weight="normal" text-decoration="undefined" x="439.772705078125" y="281.5" text-anchor="middle" dominant-baseline="central" transform="matrix(1 0 0 1 10 10)">5 : cancelOrder</text></g></g><g><rect fill="#ffffff" stroke="none" x="393" y="292" width="14" height="28" transform="matrix(1 0 0 1 10 10)"/></g><g><path fill="none" stroke="#000000" paint-order="fill stroke markers" d=" M 403 302 L 417 302 L 417 330 L 403 330 L 403 302 Z Z" stroke-miterlimit="10" stroke-dasharray=""/></g><g><path fill="none" stroke="#000000" paint-order="fill stroke markers" d=" M 396 335 L 245 335" stroke-miterlimit="10" stroke-dasharray="3"/></g><g><path fill="none" stroke="#000000" paint-order="fill stroke markers" d=" M 255.16267485762415 330.790482243984 L 245 335 L 255.16267485762415 339.209517756016" stroke-miterlimit="10" stroke-dasharray=""/></g><g><rect fill="#ffffff" stroke="none" x="222" y="329" width="174.4462890625" height="13" transform="matrix(1 0 0 1 10 10)"/></g><g><g><path fill="none" stroke="none"/><text fill="#000000" stroke="none" font-family="Arial" font-size="13px" font-style="normal" font-weight="normal" text-decoration="undefined" x="309.22314453125" y="335.5" text-anchor="middle" dominant-baseline="central" transform="matrix(1 0 0 1 10 10)">6 : 返回订单是否成功取消结果</text></g></g><g><path fill="none" stroke="#000000" paint-order="fill stroke markers" d=" M 245 378 L 275 378 L 275 398 L 252 398" stroke-miterlimit="10" stroke-dasharray=""/></g><g><path fill="#000000" stroke="none" paint-order="stroke fill markers" d=" M 262.16267485762415 393.790482243984 L 252 398 L 262.16267485762415 402.209517756016"/></g><g><path fill="none" stroke="#000000" paint-order="fill stroke markers" d=" M 262.16267485762415 393.790482243984 L 252 398 L 262.16267485762415 402.209517756016 L 262.16267485762415 393.790482243984" stroke-miterlimit="10" stroke-dasharray=""/></g><g><rect fill="#ffffff" stroke="none" x="223" y="371" width="103.4287109375" height="13" transform="matrix(1 0 0 1 10 10)"/></g><g><g><path fill="none" stroke="none"/><text fill="#000000" stroke="none" font-family="Arial" font-size="13px" font-style="normal" font-weight="normal" text-decoration="undefined" x="274.71435546875" y="377.5" text-anchor="middle" dominant-baseline="central" transform="matrix(1 0 0 1 10 10)">7 : refreshOrders</text></g></g><g><rect fill="#ffffff" stroke="none" x="228" y="388" width="14" height="28" transform="matrix(1 0 0 1 10 10)"/></g><g><path fill="none" stroke="#000000" paint-order="fill stroke markers" d=" M 238 398 L 252 398 L 252 426 L 238 426 L 238 398 Z Z" stroke-miterlimit="10" stroke-dasharray=""/></g><g><path fill="none" stroke="#000000" paint-order="fill stroke markers" d=" M 231 443 L 87 443" stroke-miterlimit="10" stroke-dasharray="3"/></g><g><path fill="none" stroke="#000000" paint-order="fill stroke markers" d=" M 97.16267485762415 438.790482243984 L 87 443 L 97.16267485762415 447.209517756016" stroke-miterlimit="10" stroke-dasharray=""/></g><g><rect fill="#ffffff" stroke="none" x="81" y="437" width="135.4462890625" height="13" transform="matrix(1 0 0 1 10 10)"/></g><g><g><path fill="none" stroke="none"/><text fill="#000000" stroke="none" font-family="Arial" font-size="13px" font-style="normal" font-weight="normal" text-decoration="undefined" x="148.72314453125" y="443.5" text-anchor="middle" dominant-baseline="central" transform="matrix(1 0 0 1 10 10)">8 : 显示退票后订单列表</text></g></g></g></svg>