<svg version="1.1" xmlns="http://www.w3.org/2000/svg" xmlns:xlink="http://www.w3.org/1999/xlink" width="452" height="548"><defs/><g><g><path fill="none" stroke="#000000" paint-order="fill stroke markers" d=" M 10 10 L 442 10 L 442 538 L 10 538 L 10 10" stroke-miterlimit="10" stroke-dasharray=""/></g><g><path fill="#ffffff" stroke="none" paint-order="stroke fill markers" d=" M 10 10 L 10 33 L 135.05908203125 33 L 146.55908203125 21.5 L 146.55908203125 10 L 10 10"/></g><g><path fill="none" stroke="#000000" paint-order="fill stroke markers" d=" M 10 10 L 10 33 L 135.05908203125 33 L 146.55908203125 21.5 L 146.55908203125 10 L 10 10 L 10 10" stroke-miterlimit="10" stroke-dasharray=""/></g><g><g><path fill="none" stroke="none"/><text fill="#000000" stroke="none" font-family="Arial" font-size="13px" font-style="normal" font-weight="normal" text-decoration="undefined" x="72.39453125" y="19.5" text-anchor="middle" dominant-baseline="central" transform="matrix(1 0 0 1 10 2)">顺序图-删除列车</text></g></g><g><g><path fill="none" stroke="none"/><text fill="#000000" stroke="none" font-family="Arial" font-size="13px" font-style="normal" font-weight="bold" text-decoration="undefined" x="11.864990234375" y="19.5" text-anchor="middle" dominant-baseline="central" transform="matrix(1 0 0 1 10 2)">sd</text></g></g><g><rect fill="#C0C0C0" stroke="none" x="47" y="47" width="72.736328125" height="40" transform="matrix(1 0 0 1 10 2)" fill-opacity="0.2"/></g><g><rect fill="#ffffff" stroke="none" x="40" y="40" width="72.736328125" height="40" transform="matrix(1 0 0 1 10 2)"/></g><g><path fill="none" stroke="#000000" paint-order="fill stroke markers" d=" M 50 42 L 122.736328125 42 L 122.736328125 82 L 50 82 L 50 42 Z Z" stroke-miterlimit="10" stroke-dasharray=""/></g><g><g><path fill="none" stroke="none"/><text fill="#000000" stroke="none" font-family="Arial" font-size="13px" font-style="normal" font-weight="bold" text-decoration="undefined" x="76.8681640625" y="53.5" text-anchor="middle" dominant-baseline="central" transform="matrix(1 0 0 1 10 2)">用户</text></g></g><g><path fill="none" stroke="#000000" paint-order="fill stroke markers" d=" M 86.5 83 L 86.5 512" stroke-miterlimit="10" stroke-dasharray="3"/></g><g><rect fill="#C0C0C0" stroke="none" x="167" y="47" width="72.736328125" height="40" transform="matrix(1 0 0 1 10 2)" fill-opacity="0.2"/></g><g><rect fill="#ffffff" stroke="none" x="160" y="40" width="72.736328125" height="40" transform="matrix(1 0 0 1 10 2)"/></g><g><path fill="none" stroke="#000000" paint-order="fill stroke markers" d=" M 170 42 L 242.736328125 42 L 242.736328125 82 L 170 82 L 170 42 Z Z" stroke-miterlimit="10" stroke-dasharray=""/></g><g><g><path fill="none" stroke="none"/><text fill="#000000" stroke="none" font-family="Arial" font-size="13px" font-style="normal" font-weight="bold" text-decoration="undefined" x="196.8681640625" y="53.5" text-anchor="middle" dominant-baseline="central" transform="matrix(1 0 0 1 10 2)">前端</text></g></g><g><path fill="none" stroke="#000000" paint-order="fill stroke markers" d=" M 206.5 83 L 206.5 512" stroke-miterlimit="10" stroke-dasharray="3"/></g><g><rect fill="#C0C0C0" stroke="none" x="311" y="47" width="109.197265625" height="40" transform="matrix(1 0 0 1 10 2)" fill-opacity="0.2"/></g><g><rect fill="#ffffff" stroke="none" x="304" y="40" width="109.197265625" height="40" transform="matrix(1 0 0 1 10 2)"/></g><g><path fill="none" stroke="#000000" paint-order="fill stroke markers" d=" M 314 42 L 423.197265625 42 L 423.197265625 82 L 314 82 L 314 42 Z Z" stroke-miterlimit="10" stroke-dasharray=""/></g><g><g><path fill="none" stroke="none"/><text fill="#000000" stroke="none" font-family="Arial" font-size="13px" font-style="normal" font-weight="bold" text-decoration="undefined" x="359.0986328125" y="53.5" text-anchor="middle" dominant-baseline="central" transform="matrix(1 0 0 1 10 2)">trainManager</text></g></g><g><path fill="none" stroke="#000000" paint-order="fill stroke markers" d=" M 369.5 83 L 369.5 410" stroke-miterlimit="10" stroke-dasharray="3"/></g><g><path fill="none" stroke="#000000" paint-order="fill stroke markers" d=" M 87 117 L 199 117" stroke-miterlimit="10" stroke-dasharray=""/></g><g><path fill="#000000" stroke="none" paint-order="stroke fill markers" d=" M 188.83732514237585 121.20951775601598 L 199 117 L 188.83732514237585 112.79048224398402"/></g><g><path fill="none" stroke="#000000" paint-order="fill stroke markers" d=" M 188.83732514237585 121.20951775601598 L 199 117 L 188.83732514237585 112.79048224398402 L 188.83732514237585 121.20951775601598" stroke-miterlimit="10" stroke-dasharray=""/></g><g><rect fill="#ffffff" stroke="none" x="85" y="99" width="96.4462890625" height="13" transform="matrix(1 0 0 1 10 2)"/></g><g><g><path fill="none" stroke="none"/><text fill="#000000" stroke="none" font-family="Arial" font-size="13px" font-style="normal" font-weight="normal" text-decoration="undefined" x="133.22314453125" y="105.5" text-anchor="middle" dominant-baseline="central" transform="matrix(1 0 0 1 10 2)">1 : 点击删除图标</text></g></g><g><rect fill="#ffffff" stroke="none" x="189" y="115" width="14" height="365" transform="matrix(1 0 0 1 10 2)"/></g><g><path fill="none" stroke="#000000" paint-order="fill stroke markers" d=" M 199 117 L 213 117 L 213 482 L 199 482 L 199 117 Z Z" stroke-miterlimit="10" stroke-dasharray=""/></g><g><path fill="none" stroke="#000000" paint-order="fill stroke markers" d=" M 213 146 L 243 146 L 243 166 L 220 166" stroke-miterlimit="10" stroke-dasharray=""/></g><g><path fill="#000000" stroke="none" paint-order="stroke fill markers" d=" M 230.16267485762415 161.790482243984 L 220 166 L 230.16267485762415 170.209517756016"/></g><g><path fill="none" stroke="#000000" paint-order="fill stroke markers" d=" M 230.16267485762415 161.790482243984 L 220 166 L 230.16267485762415 170.209517756016 L 230.16267485762415 161.790482243984" stroke-miterlimit="10" stroke-dasharray=""/></g><g><rect fill="#ffffff" stroke="none" x="168" y="147" width="148.4462890625" height="13" transform="matrix(1 0 0 1 10 2)"/></g><g><g><path fill="none" stroke="none"/><text fill="#000000" stroke="none" font-family="Arial" font-size="13px" font-style="normal" font-weight="normal" text-decoration="undefined" x="242.22314453125" y="153.5" text-anchor="middle" dominant-baseline="central" transform="matrix(1 0 0 1 10 2)">2 : 检验该列车是否可编辑</text></g></g><g><rect fill="#ffffff" stroke="none" x="196" y="164" width="14" height="28" transform="matrix(1 0 0 1 10 2)"/></g><g><path fill="none" stroke="#000000" paint-order="fill stroke markers" d=" M 206 166 L 220 166 L 220 194 L 206 194 L 206 166 Z Z" stroke-miterlimit="10" stroke-dasharray=""/></g><g><path fill="none" stroke="#000000" paint-order="fill stroke markers" d=" M 213 210 L 243 210 L 243 230 L 220 230" stroke-miterlimit="10" stroke-dasharray=""/></g><g><path fill="#000000" stroke="none" paint-order="stroke fill markers" d=" M 230.16267485762415 225.790482243984 L 220 230 L 230.16267485762415 234.209517756016"/></g><g><path fill="none" stroke="#000000" paint-order="fill stroke markers" d=" M 230.16267485762415 225.790482243984 L 220 230 L 230.16267485762415 234.209517756016 L 230.16267485762415 225.790482243984" stroke-miterlimit="10" stroke-dasharray=""/></g><g><rect fill="#ffffff" stroke="none" x="199" y="211" width="86.9375" height="13" transform="matrix(1 0 0 1 10 2)"/></g><g><g><path fill="none" stroke="none"/><text fill="#000000" stroke="none" font-family="Arial" font-size="13px" font-style="normal" font-weight="normal" text-decoration="undefined" x="242.46875" y="217.5" text-anchor="middle" dominant-baseline="central" transform="matrix(1 0 0 1 10 2)">3 : deleteTrain</text></g></g><g><rect fill="#ffffff" stroke="none" x="196" y="228" width="14" height="132" transform="matrix(1 0 0 1 10 2)"/></g><g><path fill="none" stroke="#000000" paint-order="fill stroke markers" d=" M 206 230 L 220 230 L 220 362 L 206 362 L 206 230 Z Z" stroke-miterlimit="10" stroke-dasharray=""/></g><g><path fill="none" stroke="#000000" paint-order="fill stroke markers" d=" M 220 258 L 362 258" stroke-miterlimit="10" stroke-dasharray=""/></g><g><path fill="#000000" stroke="none" paint-order="stroke fill markers" d=" M 351.83732514237585 262.209517756016 L 362 258 L 351.83732514237585 253.790482243984"/></g><g><path fill="none" stroke="#000000" paint-order="fill stroke markers" d=" M 351.83732514237585 262.209517756016 L 362 258 L 351.83732514237585 253.790482243984 L 351.83732514237585 262.209517756016" stroke-miterlimit="10" stroke-dasharray=""/></g><g><rect fill="#ffffff" stroke="none" x="226" y="240" width="111.71240234375" height="13" transform="matrix(1 0 0 1 10 2)"/></g><g><g><path fill="none" stroke="none"/><text fill="#000000" stroke="none" font-family="Arial" font-size="13px" font-style="normal" font-weight="normal" text-decoration="undefined" x="281.856201171875" y="246.5" text-anchor="middle" dominant-baseline="central" transform="matrix(1 0 0 1 10 2)">4 : deleteTrain_api</text></g></g><g><rect fill="#ffffff" stroke="none" x="352" y="256" width="14" height="96" transform="matrix(1 0 0 1 10 2)"/></g><g><path fill="none" stroke="#000000" paint-order="fill stroke markers" d=" M 362 258 L 376 258 L 376 354 L 362 354 L 362 258 Z Z" stroke-miterlimit="10" stroke-dasharray=""/></g><g><path fill="none" stroke="#000000" paint-order="fill stroke markers" d=" M 362 322 L 220 322" stroke-miterlimit="10" stroke-dasharray="3"/></g><g><path fill="none" stroke="#000000" paint-order="fill stroke markers" d=" M 230.16267485762415 317.790482243984 L 220 322 L 230.16267485762415 326.209517756016" stroke-miterlimit="10" stroke-dasharray=""/></g><g><rect fill="#ffffff" stroke="none" x="206" y="324" width="148.4462890625" height="13" transform="matrix(1 0 0 1 10 2)"/></g><g><g><path fill="none" stroke="none"/><text fill="#000000" stroke="none" font-family="Arial" font-size="13px" font-style="normal" font-weight="normal" text-decoration="undefined" x="280.22314453125" y="330.5" text-anchor="middle" dominant-baseline="central" transform="matrix(1 0 0 1 10 2)">5 : 返回删除是否成功结果</text></g></g><g><path fill="none" stroke="#000000" paint-order="fill stroke markers" d=" M 213 386 L 243 386 L 243 406 L 220 406" stroke-miterlimit="10" stroke-dasharray=""/></g><g><path fill="#000000" stroke="none" paint-order="stroke fill markers" d=" M 230.16267485762415 401.790482243984 L 220 406 L 230.16267485762415 410.209517756016"/></g><g><path fill="none" stroke="#000000" paint-order="fill stroke markers" d=" M 230.16267485762415 401.790482243984 L 220 406 L 230.16267485762415 410.209517756016 L 230.16267485762415 401.790482243984" stroke-miterlimit="10" stroke-dasharray=""/></g><g><rect fill="#ffffff" stroke="none" x="194" y="387" width="96.4462890625" height="13" transform="matrix(1 0 0 1 10 2)"/></g><g><g><path fill="none" stroke="none"/><text fill="#000000" stroke="none" font-family="Arial" font-size="13px" font-style="normal" font-weight="normal" text-decoration="undefined" x="242.22314453125" y="393.5" text-anchor="middle" dominant-baseline="central" transform="matrix(1 0 0 1 10 2)">6 : 更新列车列表</text></g></g><g><rect fill="#ffffff" stroke="none" x="196" y="404" width="14" height="28" transform="matrix(1 0 0 1 10 2)"/></g><g><path fill="none" stroke="#000000" paint-order="fill stroke markers" d=" M 206 406 L 220 406 L 220 434 L 206 434 L 206 406 Z Z" stroke-miterlimit="10" stroke-dasharray=""/></g><g><path fill="none" stroke="#000000" paint-order="fill stroke markers" d=" M 199 443 L 87 443" stroke-miterlimit="10" stroke-dasharray="3"/></g><g><path fill="none" stroke="#000000" paint-order="fill stroke markers" d=" M 97.16267485762415 438.790482243984 L 87 443 L 97.16267485762415 447.209517756016" stroke-miterlimit="10" stroke-dasharray=""/></g><g><rect fill="#ffffff" stroke="none" x="65" y="445" width="135.4462890625" height="13" transform="matrix(1 0 0 1 10 2)"/></g><g><g><path fill="none" stroke="none"/><text fill="#000000" stroke="none" font-family="Arial" font-size="13px" font-style="normal" font-weight="normal" text-decoration="undefined" x="132.72314453125" y="451.5" text-anchor="middle" dominant-baseline="central" transform="matrix(1 0 0 1 10 2)">7 : 显示更新后列车列表</text></g></g></g></svg>