<svg version="1.1" xmlns="http://www.w3.org/2000/svg" xmlns:xlink="http://www.w3.org/1999/xlink" width="428" height="396"><defs/><g><g><path fill="none" stroke="#000000" paint-order="fill stroke markers" d=" M 10 10 L 418 10 L 418 386 L 10 386 L 10 10" stroke-miterlimit="10" stroke-dasharray=""/></g><g><path fill="#ffffff" stroke="none" paint-order="stroke fill markers" d=" M 10 10 L 10 33 L 135.05908203125 33 L 146.55908203125 21.5 L 146.55908203125 10 L 10 10"/></g><g><path fill="none" stroke="#000000" paint-order="fill stroke markers" d=" M 10 10 L 10 33 L 135.05908203125 33 L 146.55908203125 21.5 L 146.55908203125 10 L 10 10 L 10 10" stroke-miterlimit="10" stroke-dasharray=""/></g><g><g><path fill="none" stroke="none"/><text fill="#000000" stroke="none" font-family="Arial" font-size="13px" font-style="normal" font-weight="normal" text-decoration="undefined" x="96.39453125" y="11.5" text-anchor="middle" dominant-baseline="central" transform="matrix(1 0 0 1 -14 10)">顺序图-订单管理</text></g></g><g><g><path fill="none" stroke="none"/><text fill="#000000" stroke="none" font-family="Arial" font-size="13px" font-style="normal" font-weight="bold" text-decoration="undefined" x="35.864990234375" y="11.5" text-anchor="middle" dominant-baseline="central" transform="matrix(1 0 0 1 -14 10)">sd</text></g></g><g><rect fill="#C0C0C0" stroke="none" x="55" y="47" width="72.736328125" height="40" transform="matrix(1 0 0 1 -14 10)" fill-opacity="0.2"/></g><g><rect fill="#ffffff" stroke="none" x="48" y="40" width="72.736328125" height="40" transform="matrix(1 0 0 1 -14 10)"/></g><g><path fill="none" stroke="#000000" paint-order="fill stroke markers" d=" M 34 50 L 106.736328125 50 L 106.736328125 90 L 34 90 L 34 50 Z Z" stroke-miterlimit="10" stroke-dasharray=""/></g><g><g><path fill="none" stroke="none"/><text fill="#000000" stroke="none" font-family="Arial" font-size="13px" font-style="normal" font-weight="bold" text-decoration="undefined" x="84.8681640625" y="53.5" text-anchor="middle" dominant-baseline="central" transform="matrix(1 0 0 1 -14 10)">用户</text></g></g><g><path fill="none" stroke="#000000" paint-order="fill stroke markers" d=" M 70.5 91 L 70.5 370" stroke-miterlimit="10" stroke-dasharray="3"/></g><g><rect fill="#C0C0C0" stroke="none" x="167" y="47" width="72.736328125" height="40" transform="matrix(1 0 0 1 -14 10)" fill-opacity="0.2"/></g><g><rect fill="#ffffff" stroke="none" x="160" y="40" width="72.736328125" height="40" transform="matrix(1 0 0 1 -14 10)"/></g><g><path fill="none" stroke="#000000" paint-order="fill stroke markers" d=" M 146 50 L 218.736328125 50 L 218.736328125 90 L 146 90 L 146 50 Z Z" stroke-miterlimit="10" stroke-dasharray=""/></g><g><g><path fill="none" stroke="none"/><text fill="#000000" stroke="none" font-family="Arial" font-size="13px" font-style="normal" font-weight="bold" text-decoration="undefined" x="196.8681640625" y="53.5" text-anchor="middle" dominant-baseline="central" transform="matrix(1 0 0 1 -14 10)">前端</text></g></g><g><path fill="none" stroke="#000000" paint-order="fill stroke markers" d=" M 182.5 91 L 182.5 370" stroke-miterlimit="10" stroke-dasharray="3"/></g><g><rect fill="#C0C0C0" stroke="none" x="311" y="47" width="114.23095703125" height="40" transform="matrix(1 0 0 1 -14 10)" fill-opacity="0.2"/></g><g><rect fill="#ffffff" stroke="none" x="304" y="40" width="114.23095703125" height="40" transform="matrix(1 0 0 1 -14 10)"/></g><g><path fill="none" stroke="#000000" paint-order="fill stroke markers" d=" M 290 50 L 404.23095703125 50 L 404.23095703125 90 L 290 90 L 290 50 Z Z" stroke-miterlimit="10" stroke-dasharray=""/></g><g><g><path fill="none" stroke="none"/><text fill="#000000" stroke="none" font-family="Arial" font-size="13px" font-style="normal" font-weight="bold" text-decoration="undefined" x="361.615478515625" y="53.5" text-anchor="middle" dominant-baseline="central" transform="matrix(1 0 0 1 -14 10)">orderManager</text></g></g><g><path fill="none" stroke="#000000" paint-order="fill stroke markers" d=" M 347.5 91 L 347.5 370" stroke-miterlimit="10" stroke-dasharray="3"/></g><g><path fill="none" stroke="#000000" paint-order="fill stroke markers" d=" M 71 124 L 175 124" stroke-miterlimit="10" stroke-dasharray=""/></g><g><path fill="#000000" stroke="none" paint-order="stroke fill markers" d=" M 164.83732514237585 128.209517756016 L 175 124 L 164.83732514237585 119.79048224398402"/></g><g><path fill="none" stroke="#000000" paint-order="fill stroke markers" d=" M 164.83732514237585 128.209517756016 L 175 124 L 164.83732514237585 119.79048224398402 L 164.83732514237585 128.209517756016" stroke-miterlimit="10" stroke-dasharray=""/></g><g><rect fill="#ffffff" stroke="none" x="63" y="98" width="148.4462890625" height="13" transform="matrix(1 0 0 1 -14 10)"/></g><g><g><path fill="none" stroke="none"/><text fill="#000000" stroke="none" font-family="Arial" font-size="13px" font-style="normal" font-weight="normal" text-decoration="undefined" x="137.22314453125" y="104.5" text-anchor="middle" dominant-baseline="central" transform="matrix(1 0 0 1 -14 10)">1 : 用户点击“订单管理”</text></g></g><g><rect fill="#ffffff" stroke="none" x="189" y="114" width="14" height="214" transform="matrix(1 0 0 1 -14 10)"/></g><g><path fill="none" stroke="#000000" paint-order="fill stroke markers" d=" M 175 124 L 189 124 L 189 338 L 175 338 L 175 124 Z Z" stroke-miterlimit="10" stroke-dasharray=""/></g><g><path fill="none" stroke="#000000" paint-order="fill stroke markers" d=" M 189 151 L 340 151" stroke-miterlimit="10" stroke-dasharray=""/></g><g><path fill="#000000" stroke="none" paint-order="stroke fill markers" d=" M 329.83732514237585 155.209517756016 L 340 151 L 329.83732514237585 146.790482243984"/></g><g><path fill="none" stroke="#000000" paint-order="fill stroke markers" d=" M 329.83732514237585 155.209517756016 L 340 151 L 329.83732514237585 146.790482243984 L 329.83732514237585 155.209517756016" stroke-miterlimit="10" stroke-dasharray=""/></g><g><rect fill="#ffffff" stroke="none" x="226" y="125" width="105.89794921875" height="13" transform="matrix(1 0 0 1 -14 10)"/></g><g><g><path fill="none" stroke="none"/><text fill="#000000" stroke="none" font-family="Arial" font-size="13px" font-style="normal" font-weight="normal" text-decoration="undefined" x="278.948974609375" y="131.5" text-anchor="middle" dominant-baseline="central" transform="matrix(1 0 0 1 -14 10)">2 : getOrders_api</text></g></g><g><rect fill="#ffffff" stroke="none" x="354" y="141" width="14" height="75" transform="matrix(1 0 0 1 -14 10)"/></g><g><path fill="none" stroke="#000000" paint-order="fill stroke markers" d=" M 340 151 L 354 151 L 354 226 L 340 226 L 340 151 Z Z" stroke-miterlimit="10" stroke-dasharray=""/></g><g><path fill="none" stroke="#000000" paint-order="fill stroke markers" d=" M 340 196 L 189 196" stroke-miterlimit="10" stroke-dasharray="3"/></g><g><path fill="none" stroke="#000000" paint-order="fill stroke markers" d=" M 199.16267485762415 191.790482243984 L 189 196 L 199.16267485762415 200.209517756016" stroke-miterlimit="10" stroke-dasharray=""/></g><g><rect fill="#ffffff" stroke="none" x="229" y="190" width="96.4462890625" height="13" transform="matrix(1 0 0 1 -14 10)"/></g><g><g><path fill="none" stroke="none"/><text fill="#000000" stroke="none" font-family="Arial" font-size="13px" font-style="normal" font-weight="normal" text-decoration="undefined" x="277.22314453125" y="196.5" text-anchor="middle" dominant-baseline="central" transform="matrix(1 0 0 1 -14 10)">3 : 返回订单列表</text></g></g><g><path fill="none" stroke="#000000" paint-order="fill stroke markers" d=" M 189 234 L 219 234 L 219 254 L 196 254" stroke-miterlimit="10" stroke-dasharray=""/></g><g><path fill="#000000" stroke="none" paint-order="stroke fill markers" d=" M 206.16267485762415 249.790482243984 L 196 254 L 206.16267485762415 258.209517756016"/></g><g><path fill="none" stroke="#000000" paint-order="fill stroke markers" d=" M 206.16267485762415 249.790482243984 L 196 254 L 206.16267485762415 258.209517756016 L 206.16267485762415 249.790482243984" stroke-miterlimit="10" stroke-dasharray=""/></g><g><rect fill="#ffffff" stroke="none" x="194" y="227" width="96.4462890625" height="13" transform="matrix(1 0 0 1 -14 10)"/></g><g><g><path fill="none" stroke="none"/><text fill="#000000" stroke="none" font-family="Arial" font-size="13px" font-style="normal" font-weight="normal" text-decoration="undefined" x="242.22314453125" y="233.5" text-anchor="middle" dominant-baseline="central" transform="matrix(1 0 0 1 -14 10)">4 : 筛选搜索结果</text></g></g><g><rect fill="#ffffff" stroke="none" x="196" y="244" width="14" height="28" transform="matrix(1 0 0 1 -14 10)"/></g><g><path fill="none" stroke="#000000" paint-order="fill stroke markers" d=" M 182 254 L 196 254 L 196 282 L 182 282 L 182 254 Z Z" stroke-miterlimit="10" stroke-dasharray=""/></g><g><path fill="none" stroke="#000000" paint-order="fill stroke markers" d=" M 175 314 L 71 314" stroke-miterlimit="10" stroke-dasharray="3"/></g><g><path fill="none" stroke="#000000" paint-order="fill stroke markers" d=" M 81.16267485762415 309.790482243984 L 71 314 L 81.16267485762415 318.209517756016" stroke-miterlimit="10" stroke-dasharray=""/></g><g><rect fill="#ffffff" stroke="none" x="62" y="308" width="148.4462890625" height="13" transform="matrix(1 0 0 1 -14 10)"/></g><g><g><path fill="none" stroke="none"/><text fill="#000000" stroke="none" font-family="Arial" font-size="13px" font-style="normal" font-weight="normal" text-decoration="undefined" x="136.22314453125" y="314.5" text-anchor="middle" dominant-baseline="central" transform="matrix(1 0 0 1 -14 10)">5 : 显示搜索后的订单列表</text></g></g></g></svg>