<svg version="1.1" xmlns="http://www.w3.org/2000/svg" xmlns:xlink="http://www.w3.org/1999/xlink" width="712" height="788"><defs/><g><g><path fill="none" stroke="#000000" paint-order="fill stroke markers" d=" M 10 10 L 702 10 L 702 778 L 10 778 L 10 10" stroke-miterlimit="10" stroke-dasharray=""/></g><g><path fill="#ffffff" stroke="none" paint-order="stroke fill markers" d=" M 10 10 L 10 33 L 174.05908203125 33 L 185.55908203125 21.5 L 185.55908203125 10 L 10 10"/></g><g><path fill="none" stroke="#000000" paint-order="fill stroke markers" d=" M 10 10 L 10 33 L 174.05908203125 33 L 185.55908203125 21.5 L 185.55908203125 10 L 10 10 L 10 10" stroke-miterlimit="10" stroke-dasharray=""/></g><g><g><path fill="none" stroke="none"/><text fill="#000000" stroke="none" font-family="Arial" font-size="13px" font-style="normal" font-weight="normal" text-decoration="undefined" x="91.89453125" y="19.5" text-anchor="middle" dominant-baseline="central" transform="matrix(1 0 0 1 10 2)">顺序图-车次管理时刻表</text></g></g><g><g><path fill="none" stroke="none"/><text fill="#000000" stroke="none" font-family="Arial" font-size="13px" font-style="normal" font-weight="bold" text-decoration="undefined" x="11.864990234375" y="19.5" text-anchor="middle" dominant-baseline="central" transform="matrix(1 0 0 1 10 2)">sd</text></g></g><g><rect fill="#C0C0C0" stroke="none" x="47" y="47" width="72.736328125" height="40" transform="matrix(1 0 0 1 10 2)" fill-opacity="0.2"/></g><g><rect fill="#ffffff" stroke="none" x="40" y="40" width="72.736328125" height="40" transform="matrix(1 0 0 1 10 2)"/></g><g><path fill="none" stroke="#000000" paint-order="fill stroke markers" d=" M 50 42 L 122.736328125 42 L 122.736328125 82 L 50 82 L 50 42 Z Z" stroke-miterlimit="10" stroke-dasharray=""/></g><g><g><path fill="none" stroke="none"/><text fill="#000000" stroke="none" font-family="Arial" font-size="13px" font-style="normal" font-weight="bold" text-decoration="undefined" x="76.8681640625" y="53.5" text-anchor="middle" dominant-baseline="central" transform="matrix(1 0 0 1 10 2)">用户</text></g></g><g><path fill="none" stroke="#000000" paint-order="fill stroke markers" d=" M 86.5 83 L 86.5 704" stroke-miterlimit="10" stroke-dasharray="3"/></g><g><rect fill="#C0C0C0" stroke="none" x="167" y="47" width="72.736328125" height="40" transform="matrix(1 0 0 1 10 2)" fill-opacity="0.2"/></g><g><rect fill="#ffffff" stroke="none" x="160" y="40" width="72.736328125" height="40" transform="matrix(1 0 0 1 10 2)"/></g><g><path fill="none" stroke="#000000" paint-order="fill stroke markers" d=" M 170 42 L 242.736328125 42 L 242.736328125 82 L 170 82 L 170 42 Z Z" stroke-miterlimit="10" stroke-dasharray=""/></g><g><g><path fill="none" stroke="none"/><text fill="#000000" stroke="none" font-family="Arial" font-size="13px" font-style="normal" font-weight="bold" text-decoration="undefined" x="196.8681640625" y="53.5" text-anchor="middle" dominant-baseline="central" transform="matrix(1 0 0 1 10 2)">前端</text></g></g><g><path fill="none" stroke="#000000" paint-order="fill stroke markers" d=" M 206.5 83 L 206.5 704" stroke-miterlimit="10" stroke-dasharray="3"/></g><g><rect fill="#C0C0C0" stroke="none" x="295" y="47" width="109.197265625" height="40" transform="matrix(1 0 0 1 10 2)" fill-opacity="0.2"/></g><g><rect fill="#ffffff" stroke="none" x="288" y="40" width="109.197265625" height="40" transform="matrix(1 0 0 1 10 2)"/></g><g><path fill="none" stroke="#000000" paint-order="fill stroke markers" d=" M 298 42 L 407.197265625 42 L 407.197265625 82 L 298 82 L 298 42 Z Z" stroke-miterlimit="10" stroke-dasharray=""/></g><g><g><path fill="none" stroke="none"/><text fill="#000000" stroke="none" font-family="Arial" font-size="13px" font-style="normal" font-weight="bold" text-decoration="undefined" x="343.0986328125" y="53.5" text-anchor="middle" dominant-baseline="central" transform="matrix(1 0 0 1 10 2)">trainManager</text></g></g><g><path fill="none" stroke="#000000" paint-order="fill stroke markers" d=" M 353.5 83 L 353.5 698" stroke-miterlimit="10" stroke-dasharray="3"/></g><g><rect fill="#C0C0C0" stroke="none" x="471" y="47" width="85.27294921875" height="40" transform="matrix(1 0 0 1 10 2)" fill-opacity="0.2"/></g><g><rect fill="#ffffff" stroke="none" x="464" y="40" width="85.27294921875" height="40" transform="matrix(1 0 0 1 10 2)"/></g><g><path fill="none" stroke="#000000" paint-order="fill stroke markers" d=" M 474 42 L 559.27294921875 42 L 559.27294921875 82 L 474 82 L 474 42 Z Z" stroke-miterlimit="10" stroke-dasharray=""/></g><g><g><path fill="none" stroke="none"/><text fill="#000000" stroke="none" font-family="Arial" font-size="13px" font-style="normal" font-weight="bold" text-decoration="undefined" x="507.136474609375" y="53.5" text-anchor="middle" dominant-baseline="central" transform="matrix(1 0 0 1 10 2)">Timetable</text></g></g><g><path fill="none" stroke="#000000" paint-order="fill stroke markers" d=" M 517.5 83 L 517.5 490" stroke-miterlimit="10" stroke-dasharray="3"/></g><g><rect fill="#C0C0C0" stroke="none" x="567" y="47" width="121.41650390625" height="40" transform="matrix(1 0 0 1 10 2)" fill-opacity="0.2"/></g><g><rect fill="#ffffff" stroke="none" x="560" y="40" width="121.41650390625" height="40" transform="matrix(1 0 0 1 10 2)"/></g><g><path fill="none" stroke="#000000" paint-order="fill stroke markers" d=" M 570 42 L 691.41650390625 42 L 691.41650390625 82 L 570 82 L 570 42 Z Z" stroke-miterlimit="10" stroke-dasharray=""/></g><g><g><path fill="none" stroke="none"/><text fill="#000000" stroke="none" font-family="Arial" font-size="13px" font-style="normal" font-weight="bold" text-decoration="undefined" x="621.208251953125" y="53.5" text-anchor="middle" dominant-baseline="central" transform="matrix(1 0 0 1 10 2)">bookingSystem</text></g></g><g><path fill="none" stroke="#000000" paint-order="fill stroke markers" d=" M 631.5 83 L 631.5 754" stroke-miterlimit="10" stroke-dasharray="3"/></g><g><path fill="none" stroke="#000000" paint-order="fill stroke markers" d=" M 87 116 L 199 116" stroke-miterlimit="10" stroke-dasharray=""/></g><g><path fill="#000000" stroke="none" paint-order="stroke fill markers" d=" M 188.83732514237585 120.20951775601598 L 199 116 L 188.83732514237585 111.79048224398402"/></g><g><path fill="none" stroke="#000000" paint-order="fill stroke markers" d=" M 188.83732514237585 120.20951775601598 L 199 116 L 188.83732514237585 111.79048224398402 L 188.83732514237585 120.20951775601598" stroke-miterlimit="10" stroke-dasharray=""/></g><g><rect fill="#ffffff" stroke="none" x="79" y="98" width="109.4462890625" height="13" transform="matrix(1 0 0 1 10 2)"/></g><g><g><path fill="none" stroke="none"/><text fill="#000000" stroke="none" font-family="Arial" font-size="13px" font-style="normal" font-weight="normal" text-decoration="undefined" x="133.72314453125" y="104.5" text-anchor="middle" dominant-baseline="central" transform="matrix(1 0 0 1 10 2)">1 : 点击“时刻表”</text></g></g><g><rect fill="#ffffff" stroke="none" x="189" y="114" width="14" height="310" transform="matrix(1 0 0 1 10 2)"/></g><g><path fill="none" stroke="#000000" paint-order="fill stroke markers" d=" M 199 116 L 213 116 L 213 426 L 199 426 L 199 116 Z Z" stroke-miterlimit="10" stroke-dasharray=""/></g><g><path fill="none" stroke="#000000" paint-order="fill stroke markers" d=" M 213 130 L 243 130 L 243 150 L 220 150" stroke-miterlimit="10" stroke-dasharray=""/></g><g><path fill="#000000" stroke="none" paint-order="stroke fill markers" d=" M 230.16267485762415 145.790482243984 L 220 150 L 230.16267485762415 154.209517756016"/></g><g><path fill="none" stroke="#000000" paint-order="fill stroke markers" d=" M 230.16267485762415 145.790482243984 L 220 150 L 230.16267485762415 154.209517756016 L 230.16267485762415 145.790482243984" stroke-miterlimit="10" stroke-dasharray=""/></g><g><rect fill="#ffffff" stroke="none" x="86" y="131" width="313.1552734375" height="13" transform="matrix(1 0 0 1 10 2)"/></g><g><g><path fill="none" stroke="none"/><text fill="#000000" stroke="none" font-family="Arial" font-size="13px" font-style="normal" font-weight="normal" text-decoration="undefined" x="242.57763671875" y="137.5" text-anchor="middle" dominant-baseline="central" transform="matrix(1 0 0 1 10 2)">2 : modelData.trainNumber，获取对应车次的列车号</text></g></g><g><rect fill="#ffffff" stroke="none" x="196" y="148" width="14" height="28" transform="matrix(1 0 0 1 10 2)"/></g><g><path fill="none" stroke="#000000" paint-order="fill stroke markers" d=" M 206 150 L 220 150 L 220 178 L 206 178 L 206 150 Z Z" stroke-miterlimit="10" stroke-dasharray=""/></g><g><path fill="none" stroke="#000000" paint-order="fill stroke markers" d=" M 213 210 L 346 210" stroke-miterlimit="10" stroke-dasharray=""/></g><g><path fill="#000000" stroke="none" paint-order="stroke fill markers" d=" M 335.83732514237585 214.209517756016 L 346 210 L 335.83732514237585 205.790482243984"/></g><g><path fill="none" stroke="#000000" paint-order="fill stroke markers" d=" M 335.83732514237585 214.209517756016 L 346 210 L 335.83732514237585 205.790482243984 L 335.83732514237585 214.209517756016" stroke-miterlimit="10" stroke-dasharray=""/></g><g><rect fill="#ffffff" stroke="none" x="195" y="192" width="149.9951171875" height="13" transform="matrix(1 0 0 1 10 2)"/></g><g><g><path fill="none" stroke="none"/><text fill="#000000" stroke="none" font-family="Arial" font-size="13px" font-style="normal" font-weight="normal" text-decoration="undefined" x="269.99755859375" y="198.5" text-anchor="middle" dominant-baseline="central" transform="matrix(1 0 0 1 10 2)">3 : getTimetableInfo_api</text></g></g><g><rect fill="#ffffff" stroke="none" x="336" y="208" width="14" height="208" transform="matrix(1 0 0 1 10 2)"/></g><g><path fill="none" stroke="#000000" paint-order="fill stroke markers" d=" M 346 210 L 360 210 L 360 418 L 346 418 L 346 210 Z Z" stroke-miterlimit="10" stroke-dasharray=""/></g><g><path fill="none" stroke="#000000" paint-order="fill stroke markers" d=" M 360 234 L 390 234 L 390 254 L 367 254" stroke-miterlimit="10" stroke-dasharray=""/></g><g><path fill="#000000" stroke="none" paint-order="stroke fill markers" d=" M 377.16267485762415 249.790482243984 L 367 254 L 377.16267485762415 258.209517756016"/></g><g><path fill="none" stroke="#000000" paint-order="fill stroke markers" d=" M 377.16267485762415 249.790482243984 L 367 254 L 377.16267485762415 258.209517756016 L 377.16267485762415 249.790482243984" stroke-miterlimit="10" stroke-dasharray=""/></g><g><rect fill="#ffffff" stroke="none" x="307" y="235" width="165.1279296875" height="13" transform="matrix(1 0 0 1 10 2)"/></g><g><g><path fill="none" stroke="none"/><text fill="#000000" stroke="none" font-family="Arial" font-size="13px" font-style="normal" font-weight="normal" text-decoration="undefined" x="389.56396484375" y="241.5" text-anchor="middle" dominant-baseline="central" transform="matrix(1 0 0 1 10 2)">4 : getTrainByTrainNumber</text></g></g><g><rect fill="#ffffff" stroke="none" x="343" y="252" width="14" height="28" transform="matrix(1 0 0 1 10 2)"/></g><g><path fill="none" stroke="#000000" paint-order="fill stroke markers" d=" M 353 254 L 367 254 L 367 282 L 353 282 L 353 254 Z Z" stroke-miterlimit="10" stroke-dasharray=""/></g><g><path fill="none" stroke="#000000" paint-order="fill stroke markers" d=" M 360 306 L 510 306" stroke-miterlimit="10" stroke-dasharray=""/></g><g><path fill="#000000" stroke="none" paint-order="stroke fill markers" d=" M 499.83732514237585 310.209517756016 L 510 306 L 499.83732514237585 301.790482243984"/></g><g><path fill="none" stroke="#000000" paint-order="fill stroke markers" d=" M 499.83732514237585 310.209517756016 L 510 306 L 499.83732514237585 301.790482243984 L 499.83732514237585 310.209517756016" stroke-miterlimit="10" stroke-dasharray=""/></g><g><rect fill="#ffffff" stroke="none" x="386" y="288" width="78.04443359375" height="13" transform="matrix(1 0 0 1 10 2)"/></g><g><g><path fill="none" stroke="none"/><text fill="#000000" stroke="none" font-family="Arial" font-size="13px" font-style="normal" font-weight="normal" text-decoration="undefined" x="425.022216796875" y="294.5" text-anchor="middle" dominant-baseline="central" transform="matrix(1 0 0 1 10 2)">5 : getinfo</text></g></g><g><rect fill="#ffffff" stroke="none" x="500" y="304" width="14" height="56" transform="matrix(1 0 0 1 10 2)"/></g><g><path fill="none" stroke="#000000" paint-order="fill stroke markers" d=" M 510 306 L 524 306 L 524 362 L 510 362 L 510 306 Z Z" stroke-miterlimit="10" stroke-dasharray=""/></g><g><path fill="none" stroke="#000000" paint-order="fill stroke markers" d=" M 510 338 L 360 338" stroke-miterlimit="10" stroke-dasharray="3"/></g><g><path fill="none" stroke="#000000" paint-order="fill stroke markers" d=" M 370.16267485762415 333.790482243984 L 360 338 L 370.16267485762415 342.209517756016" stroke-miterlimit="10" stroke-dasharray=""/></g><g><rect fill="#ffffff" stroke="none" x="318" y="340" width="213.4462890625" height="13" transform="matrix(1 0 0 1 10 2)"/></g><g><g><path fill="none" stroke="none"/><text fill="#000000" stroke="none" font-family="Arial" font-size="13px" font-style="normal" font-weight="normal" text-decoration="undefined" x="424.72314453125" y="346.5" text-anchor="middle" dominant-baseline="central" transform="matrix(1 0 0 1 10 2)">6 : 各停靠站到时、发时、站名等信息</text></g></g><g><path fill="none" stroke="#000000" paint-order="fill stroke markers" d=" M 346 362 L 213 362" stroke-miterlimit="10" stroke-dasharray="3"/></g><g><path fill="none" stroke="#000000" paint-order="fill stroke markers" d=" M 223.16267485762415 357.790482243984 L 213 362 L 223.16267485762415 366.209517756016" stroke-miterlimit="10" stroke-dasharray=""/></g><g><rect fill="#ffffff" stroke="none" x="240" y="364" width="57.4462890625" height="13" transform="matrix(1 0 0 1 10 2)"/></g><g><g><path fill="none" stroke="none"/><text fill="#000000" stroke="none" font-family="Arial" font-size="13px" font-style="normal" font-weight="normal" text-decoration="undefined" x="268.72314453125" y="370.5" text-anchor="middle" dominant-baseline="central" transform="matrix(1 0 0 1 10 2)">7 : 时刻表</text></g></g><g><path fill="none" stroke="#000000" paint-order="fill stroke markers" d=" M 199 386 L 87 386" stroke-miterlimit="10" stroke-dasharray="3"/></g><g><path fill="none" stroke="#000000" paint-order="fill stroke markers" d=" M 97.16267485762415 381.790482243984 L 87 386 L 97.16267485762415 390.209517756016" stroke-miterlimit="10" stroke-dasharray=""/></g><g><rect fill="#ffffff" stroke="none" x="52" y="388" width="161.4462890625" height="13" transform="matrix(1 0 0 1 10 2)"/></g><g><g><path fill="none" stroke="none"/><text fill="#000000" stroke="none" font-family="Arial" font-size="13px" font-style="normal" font-weight="normal" text-decoration="undefined" x="132.72314453125" y="394.5" text-anchor="middle" dominant-baseline="central" transform="matrix(1 0 0 1 10 2)">8 : 显示该车次的时刻表信息</text></g></g><g><path fill="none" stroke="#000000" paint-order="fill stroke markers" d=" M 87 476 L 199 476" stroke-miterlimit="10" stroke-dasharray=""/></g><g><path fill="#000000" stroke="none" paint-order="stroke fill markers" d=" M 188.83732514237585 480.209517756016 L 199 476 L 188.83732514237585 471.790482243984"/></g><g><path fill="none" stroke="#000000" paint-order="fill stroke markers" d=" M 188.83732514237585 480.209517756016 L 199 476 L 188.83732514237585 471.790482243984 L 188.83732514237585 480.209517756016" stroke-miterlimit="10" stroke-dasharray=""/></g><g><rect fill="#ffffff" stroke="none" x="59" y="458" width="148.4462890625" height="13" transform="matrix(1 0 0 1 10 2)"/></g><g><g><path fill="none" stroke="none"/><text fill="#000000" stroke="none" font-family="Arial" font-size="13px" font-style="normal" font-weight="normal" text-decoration="undefined" x="133.22314453125" y="464.5" text-anchor="middle" dominant-baseline="central" transform="matrix(1 0 0 1 10 2)">9 : 修改时刻表后点击确认</text></g></g><g><rect fill="#ffffff" stroke="none" x="189" y="474" width="14" height="214" transform="matrix(1 0 0 1 10 2)"/></g><g><path fill="none" stroke="#000000" paint-order="fill stroke markers" d=" M 199 476 L 213 476 L 213 690 L 199 690 L 199 476 Z Z" stroke-miterlimit="10" stroke-dasharray=""/></g><g><path fill="none" stroke="#000000" paint-order="fill stroke markers" d=" M 213 490 L 243 490 L 243 510 L 220 510" stroke-miterlimit="10" stroke-dasharray=""/></g><g><path fill="#000000" stroke="none" paint-order="stroke fill markers" d=" M 230.16267485762415 505.790482243984 L 220 510 L 230.16267485762415 514.209517756016"/></g><g><path fill="none" stroke="#000000" paint-order="fill stroke markers" d=" M 230.16267485762415 505.790482243984 L 220 510 L 230.16267485762415 514.209517756016 L 230.16267485762415 505.790482243984" stroke-miterlimit="10" stroke-dasharray=""/></g><g><rect fill="#ffffff" stroke="none" x="123" y="491" width="238.36083984375" height="13" transform="matrix(1 0 0 1 10 2)"/></g><g><g><path fill="none" stroke="none"/><text fill="#000000" stroke="none" font-family="Arial" font-size="13px" font-style="normal" font-weight="normal" text-decoration="undefined" x="242.180419921875" y="497.5" text-anchor="middle" dominant-baseline="central" transform="matrix(1 0 0 1 10 2)">10 : updateTimetableAndTrainNumber</text></g></g><g><rect fill="#ffffff" stroke="none" x="196" y="508" width="14" height="108" transform="matrix(1 0 0 1 10 2)"/></g><g><path fill="none" stroke="#000000" paint-order="fill stroke markers" d=" M 206 510 L 220 510 L 220 618 L 206 618 L 206 510 Z Z" stroke-miterlimit="10" stroke-dasharray=""/></g><g><path fill="none" stroke="#000000" paint-order="fill stroke markers" d=" M 220 530 L 250 530 L 250 550 L 227 550" stroke-miterlimit="10" stroke-dasharray=""/></g><g><path fill="#000000" stroke="none" paint-order="stroke fill markers" d=" M 237.16267485762415 545.790482243984 L 227 550 L 237.16267485762415 554.209517756016"/></g><g><path fill="none" stroke="#000000" paint-order="fill stroke markers" d=" M 237.16267485762415 545.790482243984 L 227 550 L 237.16267485762415 554.209517756016 L 237.16267485762415 545.790482243984" stroke-miterlimit="10" stroke-dasharray=""/></g><g><rect fill="#ffffff" stroke="none" x="170" y="531" width="158.72314453125" height="13" transform="matrix(1 0 0 1 10 2)"/></g><g><g><path fill="none" stroke="none"/><text fill="#000000" stroke="none" font-family="Arial" font-size="13px" font-style="normal" font-weight="normal" text-decoration="undefined" x="249.361572265625" y="537.5" text-anchor="middle" dominant-baseline="central" transform="matrix(1 0 0 1 10 2)">11 : isPassingStationLegal</text></g></g><g><rect fill="#ffffff" stroke="none" x="203" y="548" width="14" height="28" transform="matrix(1 0 0 1 10 2)"/></g><g><path fill="none" stroke="#000000" paint-order="fill stroke markers" d=" M 213 550 L 227 550 L 227 578 L 213 578 L 213 550 Z Z" stroke-miterlimit="10" stroke-dasharray=""/></g><g><path fill="none" stroke="#000000" paint-order="fill stroke markers" d=" M 220 586 L 624 586" stroke-miterlimit="10" stroke-dasharray=""/></g><g><path fill="#000000" stroke="none" paint-order="stroke fill markers" d=" M 613.8373251423759 590.209517756016 L 624 586 L 613.8373251423758 581.790482243984"/></g><g><path fill="none" stroke="#000000" paint-order="fill stroke markers" d=" M 613.8373251423759 590.209517756016 L 624 586 L 613.8373251423758 581.790482243984 L 613.8373251423759 590.209517756016" stroke-miterlimit="10" stroke-dasharray=""/></g><g><rect fill="#ffffff" stroke="none" x="281" y="568" width="263.1357421875" height="13" transform="matrix(1 0 0 1 10 2)"/></g><g><g><path fill="none" stroke="none"/><text fill="#000000" stroke="none" font-family="Arial" font-size="13px" font-style="normal" font-weight="normal" text-decoration="undefined" x="412.56787109375" y="574.5" text-anchor="middle" dominant-baseline="central" transform="matrix(1 0 0 1 10 2)">12 : updateTimetableAndTrainNumber_api</text></g></g><g><rect fill="#ffffff" stroke="none" x="614" y="584" width="14" height="80" transform="matrix(1 0 0 1 10 2)"/></g><g><path fill="none" stroke="#000000" paint-order="fill stroke markers" d=" M 624 586 L 638 586 L 638 666 L 624 666 L 624 586 Z Z" stroke-miterlimit="10" stroke-dasharray=""/></g><g><path fill="none" stroke="#000000" paint-order="fill stroke markers" d=" M 624 642 L 213 642" stroke-miterlimit="10" stroke-dasharray="3"/></g><g><path fill="none" stroke="#000000" paint-order="fill stroke markers" d=" M 223.16267485762415 637.790482243984 L 213 642 L 223.16267485762415 646.209517756016" stroke-miterlimit="10" stroke-dasharray=""/></g><g><rect fill="#ffffff" stroke="none" x="316" y="644" width="182.06982421875" height="13" transform="matrix(1 0 0 1 10 2)"/></g><g><g><path fill="none" stroke="none"/><text fill="#000000" stroke="none" font-family="Arial" font-size="13px" font-style="normal" font-weight="normal" text-decoration="undefined" x="407.034912109375" y="650.5" text-anchor="middle" dominant-baseline="central" transform="matrix(1 0 0 1 10 2)">13 : 返回更新是否结果是否成功</text></g></g><g><path fill="none" stroke="#000000" paint-order="fill stroke markers" d=" M 199 661 L 87 661" stroke-miterlimit="10" stroke-dasharray="3"/></g><g><path fill="none" stroke="#000000" paint-order="fill stroke markers" d=" M 97.16267485762415 656.790482243984 L 87 661 L 97.16267485762415 665.209517756016" stroke-miterlimit="10" stroke-dasharray=""/></g><g><rect fill="#ffffff" stroke="none" x="80" y="663" width="104.06982421875" height="13" transform="matrix(1 0 0 1 10 2)"/></g><g><g><path fill="none" stroke="none"/><text fill="#000000" stroke="none" font-family="Arial" font-size="13px" font-style="normal" font-weight="normal" text-decoration="undefined" x="132.034912109375" y="669.5" text-anchor="middle" dominant-baseline="central" transform="matrix(1 0 0 1 10 2)">14 : 显示列车信息</text></g></g><g><path fill="none" stroke="#000000" paint-order="fill stroke markers" d=" M 42 442 L 666 442 L 666 746 L 42 746 L 42 442" stroke-miterlimit="10" stroke-dasharray=""/></g><g><path fill="#ffffff" stroke="none" paint-order="stroke fill markers" d=" M 42 442 L 42 465 L 143.9599609375 465 L 155.4599609375 453.5 L 155.4599609375 442 L 42 442"/></g><g><path fill="none" stroke="#000000" paint-order="fill stroke markers" d=" M 42 442 L 42 465 L 143.9599609375 465 L 155.4599609375 453.5 L 155.4599609375 442 L 42 442 L 42 442" stroke-miterlimit="10" stroke-dasharray=""/></g><g><g><path fill="none" stroke="none"/><text fill="#000000" stroke="none" font-family="Arial" font-size="13px" font-style="normal" font-weight="normal" text-decoration="undefined" x="96.4599609375" y="451.5" text-anchor="middle" dominant-baseline="central" transform="matrix(1 0 0 1 10 2)">修改时刻表</text></g></g><g><g><path fill="none" stroke="none"/><text fill="#000000" stroke="none" font-family="Arial" font-size="13px" font-style="normal" font-weight="bold" text-decoration="undefined" x="47.47998046875" y="451.5" text-anchor="middle" dominant-baseline="central" transform="matrix(1 0 0 1 10 2)">seq</text></g></g></g></svg>