<svg version="1.1" xmlns="http://www.w3.org/2000/svg" xmlns:xlink="http://www.w3.org/1999/xlink" width="828" height="596"><defs/><g><g><path fill="none" stroke="#000000" paint-order="fill stroke markers" d=" M 10 10 L 818 10 L 818 586 L 10 586 L 10 10" stroke-miterlimit="10" stroke-dasharray=""/></g><g><path fill="#ffffff" stroke="none" paint-order="stroke fill markers" d=" M 10 10 L 10 33 L 174.05908203125 33 L 185.55908203125 21.5 L 185.55908203125 10 L 10 10"/></g><g><path fill="none" stroke="#000000" paint-order="fill stroke markers" d=" M 10 10 L 10 33 L 174.05908203125 33 L 185.55908203125 21.5 L 185.55908203125 10 L 10 10 L 10 10" stroke-miterlimit="10" stroke-dasharray=""/></g><g><g><path fill="none" stroke="none"/><text fill="#000000" stroke="none" font-family="Arial" font-size="13px" font-style="normal" font-weight="normal" text-decoration="undefined" x="163.89453125" y="19.5" text-anchor="middle" dominant-baseline="central" transform="matrix(1 0 0 1 -62 2)">顺序图-查看订单时刻表</text></g></g><g><g><path fill="none" stroke="none"/><text fill="#000000" stroke="none" font-family="Arial" font-size="13px" font-style="normal" font-weight="bold" text-decoration="undefined" x="83.864990234375" y="19.5" text-anchor="middle" dominant-baseline="central" transform="matrix(1 0 0 1 -62 2)">sd</text></g></g><g><rect fill="#C0C0C0" stroke="none" x="135" y="47" width="72.736328125" height="40" transform="matrix(1 0 0 1 -62 2)" fill-opacity="0.2"/></g><g><rect fill="#ffffff" stroke="none" x="128" y="40" width="72.736328125" height="40" transform="matrix(1 0 0 1 -62 2)"/></g><g><path fill="none" stroke="#000000" paint-order="fill stroke markers" d=" M 66 42 L 138.736328125 42 L 138.736328125 82 L 66 82 L 66 42 Z Z" stroke-miterlimit="10" stroke-dasharray=""/></g><g><g><path fill="none" stroke="none"/><text fill="#000000" stroke="none" font-family="Arial" font-size="13px" font-style="normal" font-weight="bold" text-decoration="undefined" x="164.8681640625" y="53.5" text-anchor="middle" dominant-baseline="central" transform="matrix(1 0 0 1 -62 2)">用户</text></g></g><g><path fill="none" stroke="#000000" paint-order="fill stroke markers" d=" M 102.5 83 L 102.5 568" stroke-miterlimit="10" stroke-dasharray="3"/></g><g><rect fill="#C0C0C0" stroke="none" x="319" y="47" width="72.736328125" height="40" transform="matrix(1 0 0 1 -62 2)" fill-opacity="0.2"/></g><g><rect fill="#ffffff" stroke="none" x="312" y="40" width="72.736328125" height="40" transform="matrix(1 0 0 1 -62 2)"/></g><g><path fill="none" stroke="#000000" paint-order="fill stroke markers" d=" M 250 42 L 322.736328125 42 L 322.736328125 82 L 250 82 L 250 42 Z Z" stroke-miterlimit="10" stroke-dasharray=""/></g><g><g><path fill="none" stroke="none"/><text fill="#000000" stroke="none" font-family="Arial" font-size="13px" font-style="normal" font-weight="bold" text-decoration="undefined" x="348.8681640625" y="53.5" text-anchor="middle" dominant-baseline="central" transform="matrix(1 0 0 1 -62 2)">前端</text></g></g><g><path fill="none" stroke="#000000" paint-order="fill stroke markers" d=" M 286.5 83 L 286.5 568" stroke-miterlimit="10" stroke-dasharray="3"/></g><g><rect fill="#C0C0C0" stroke="none" x="495" y="47" width="116.32568359375" height="40" transform="matrix(1 0 0 1 -62 2)" fill-opacity="0.2"/></g><g><rect fill="#ffffff" stroke="none" x="488" y="40" width="116.32568359375" height="40" transform="matrix(1 0 0 1 -62 2)"/></g><g><path fill="none" stroke="#000000" paint-order="fill stroke markers" d=" M 426 42 L 542.32568359375 42 L 542.32568359375 82 L 426 82 L 426 42 Z Z" stroke-miterlimit="10" stroke-dasharray=""/></g><g><g><path fill="none" stroke="none"/><text fill="#000000" stroke="none" font-family="Arial" font-size="13px" font-style="normal" font-weight="bold" text-decoration="undefined" x="546.662841796875" y="53.5" text-anchor="middle" dominant-baseline="central" transform="matrix(1 0 0 1 -62 2)">OrderManager</text></g></g><g><path fill="none" stroke="#000000" paint-order="fill stroke markers" d=" M 484.5 83 L 484.5 546" stroke-miterlimit="10" stroke-dasharray="3"/></g><g><rect fill="#C0C0C0" stroke="none" x="743" y="47" width="85.27294921875" height="40" transform="matrix(1 0 0 1 -62 2)" fill-opacity="0.2"/></g><g><rect fill="#ffffff" stroke="none" x="736" y="40" width="85.27294921875" height="40" transform="matrix(1 0 0 1 -62 2)"/></g><g><path fill="none" stroke="#000000" paint-order="fill stroke markers" d=" M 674 42 L 759.27294921875 42 L 759.27294921875 82 L 674 82 L 674 42 Z Z" stroke-miterlimit="10" stroke-dasharray=""/></g><g><g><path fill="none" stroke="none"/><text fill="#000000" stroke="none" font-family="Arial" font-size="13px" font-style="normal" font-weight="bold" text-decoration="undefined" x="779.136474609375" y="53.5" text-anchor="middle" dominant-baseline="central" transform="matrix(1 0 0 1 -62 2)">Timetable</text></g></g><g><path fill="none" stroke="#000000" paint-order="fill stroke markers" d=" M 717.5 83 L 717.5 522" stroke-miterlimit="10" stroke-dasharray="3"/></g><g><path fill="none" stroke="#000000" paint-order="fill stroke markers" d=" M 103 130 L 279 130" stroke-miterlimit="10" stroke-dasharray=""/></g><g><path fill="#000000" stroke="none" paint-order="stroke fill markers" d=" M 268.83732514237585 134.209517756016 L 279 130 L 268.83732514237585 125.79048224398402"/></g><g><path fill="none" stroke="#000000" paint-order="fill stroke markers" d=" M 268.83732514237585 134.209517756016 L 279 130 L 268.83732514237585 125.79048224398402 L 268.83732514237585 134.209517756016" stroke-miterlimit="10" stroke-dasharray=""/></g><g><rect fill="#ffffff" stroke="none" x="212" y="112" width="83.4462890625" height="13" transform="matrix(1 0 0 1 -62 2)"/></g><g><g><path fill="none" stroke="none"/><text fill="#000000" stroke="none" font-family="Arial" font-size="13px" font-style="normal" font-weight="normal" text-decoration="undefined" x="253.72314453125" y="118.5" text-anchor="middle" dominant-baseline="central" transform="matrix(1 0 0 1 -62 2)">1 : 点击时刻表</text></g></g><g><rect fill="#ffffff" stroke="none" x="341" y="128" width="14" height="424" transform="matrix(1 0 0 1 -62 2)"/></g><g><path fill="none" stroke="#000000" paint-order="fill stroke markers" d=" M 279 130 L 293 130 L 293 554 L 279 554 L 279 130 Z Z" stroke-miterlimit="10" stroke-dasharray=""/></g><g><path fill="none" stroke="#000000" paint-order="fill stroke markers" d=" M 293 162 L 323 162 L 323 182 L 300 182" stroke-miterlimit="10" stroke-dasharray=""/></g><g><path fill="#000000" stroke="none" paint-order="stroke fill markers" d=" M 310.16267485762415 177.790482243984 L 300 182 L 310.16267485762415 186.209517756016"/></g><g><path fill="none" stroke="#000000" paint-order="fill stroke markers" d=" M 310.16267485762415 177.790482243984 L 300 182 L 310.16267485762415 186.209517756016 L 310.16267485762415 177.790482243984" stroke-miterlimit="10" stroke-dasharray=""/></g><g><rect fill="#ffffff" stroke="none" x="307" y="163" width="174.4462890625" height="13" transform="matrix(1 0 0 1 -62 2)"/></g><g><g><path fill="none" stroke="none"/><text fill="#000000" stroke="none" font-family="Arial" font-size="13px" font-style="normal" font-weight="normal" text-decoration="undefined" x="394.22314453125" y="169.5" text-anchor="middle" dominant-baseline="central" transform="matrix(1 0 0 1 -62 2)">2 : 获取用户点击订单的订单号</text></g></g><g><rect fill="#ffffff" stroke="none" x="348" y="180" width="14" height="28" transform="matrix(1 0 0 1 -62 2)"/></g><g><path fill="none" stroke="#000000" paint-order="fill stroke markers" d=" M 286 182 L 300 182 L 300 210 L 286 210 L 286 182 Z Z" stroke-miterlimit="10" stroke-dasharray=""/></g><g><path fill="none" stroke="#000000" paint-order="fill stroke markers" d=" M 293 226 L 477 226" stroke-miterlimit="10" stroke-dasharray=""/></g><g><path fill="#000000" stroke="none" paint-order="stroke fill markers" d=" M 466.8373251423759 230.209517756016 L 477 226 L 466.8373251423758 221.790482243984"/></g><g><path fill="none" stroke="#000000" paint-order="fill stroke markers" d=" M 466.8373251423759 230.209517756016 L 477 226 L 466.8373251423758 221.790482243984 L 466.8373251423759 230.209517756016" stroke-miterlimit="10" stroke-dasharray=""/></g><g><rect fill="#ffffff" stroke="none" x="377" y="208" width="141.6923828125" height="13" transform="matrix(1 0 0 1 -62 2)"/></g><g><g><path fill="none" stroke="none"/><text fill="#000000" stroke="none" font-family="Arial" font-size="13px" font-style="normal" font-weight="normal" text-decoration="undefined" x="447.84619140625" y="214.5" text-anchor="middle" dominant-baseline="central" transform="matrix(1 0 0 1 -62 2)">3 : getTimetaleInfo_api</text></g></g><g><rect fill="#ffffff" stroke="none" x="539" y="224" width="14" height="224" transform="matrix(1 0 0 1 -62 2)"/></g><g><path fill="none" stroke="#000000" paint-order="fill stroke markers" d=" M 477 226 L 491 226 L 491 450 L 477 450 L 477 226 Z Z" stroke-miterlimit="10" stroke-dasharray=""/></g><g><path fill="none" stroke="#000000" paint-order="fill stroke markers" d=" M 491 250 L 521 250 L 521 270 L 498 270" stroke-miterlimit="10" stroke-dasharray=""/></g><g><path fill="#000000" stroke="none" paint-order="stroke fill markers" d=" M 508.1626748576241 265.790482243984 L 498 270 L 508.1626748576241 274.209517756016"/></g><g><path fill="none" stroke="#000000" paint-order="fill stroke markers" d=" M 508.1626748576241 265.790482243984 L 498 270 L 508.1626748576241 274.209517756016 L 508.1626748576241 265.790482243984" stroke-miterlimit="10" stroke-dasharray=""/></g><g><rect fill="#ffffff" stroke="none" x="468" y="251" width="249.08203125" height="13" transform="matrix(1 0 0 1 -62 2)"/></g><g><g><path fill="none" stroke="none"/><text fill="#000000" stroke="none" font-family="Arial" font-size="13px" font-style="normal" font-weight="normal" text-decoration="undefined" x="592.541015625" y="257.5" text-anchor="middle" dominant-baseline="central" transform="matrix(1 0 0 1 -62 2)">4 : 遍历查找该订单并获取其Timetable对象</text></g></g><g><rect fill="#ffffff" stroke="none" x="546" y="268" width="14" height="28" transform="matrix(1 0 0 1 -62 2)"/></g><g><path fill="none" stroke="#000000" paint-order="fill stroke markers" d=" M 484 270 L 498 270 L 498 298 L 484 298 L 484 270 Z Z" stroke-miterlimit="10" stroke-dasharray=""/></g><g><path fill="none" stroke="#000000" paint-order="fill stroke markers" d=" M 491 322 L 710 322" stroke-miterlimit="10" stroke-dasharray=""/></g><g><path fill="#000000" stroke="none" paint-order="stroke fill markers" d=" M 699.8373251423759 326.209517756016 L 710 322 L 699.8373251423758 317.790482243984"/></g><g><path fill="none" stroke="#000000" paint-order="fill stroke markers" d=" M 699.8373251423759 326.209517756016 L 710 322 L 699.8373251423758 317.790482243984 L 699.8373251423759 326.209517756016" stroke-miterlimit="10" stroke-dasharray=""/></g><g><rect fill="#ffffff" stroke="none" x="623" y="304" width="78.04443359375" height="13" transform="matrix(1 0 0 1 -62 2)"/></g><g><g><path fill="none" stroke="none"/><text fill="#000000" stroke="none" font-family="Arial" font-size="13px" font-style="normal" font-weight="normal" text-decoration="undefined" x="662.022216796875" y="310.5" text-anchor="middle" dominant-baseline="central" transform="matrix(1 0 0 1 -62 2)">5 : getInfo</text></g></g><g><rect fill="#ffffff" stroke="none" x="772" y="320" width="14" height="80" transform="matrix(1 0 0 1 -62 2)"/></g><g><path fill="none" stroke="#000000" paint-order="fill stroke markers" d=" M 710 322 L 724 322 L 724 402 L 710 402 L 710 322 Z Z" stroke-miterlimit="10" stroke-dasharray=""/></g><g><path fill="none" stroke="#000000" paint-order="fill stroke markers" d=" M 710 380 L 491 380" stroke-miterlimit="10" stroke-dasharray="3"/></g><g><path fill="none" stroke="#000000" paint-order="fill stroke markers" d=" M 501.1626748576241 375.790482243984 L 491 380 L 501.1626748576241 384.209517756016" stroke-miterlimit="10" stroke-dasharray=""/></g><g><rect fill="#ffffff" stroke="none" x="555" y="382" width="213.4462890625" height="13" transform="matrix(1 0 0 1 -62 2)"/></g><g><g><path fill="none" stroke="none"/><text fill="#000000" stroke="none" font-family="Arial" font-size="13px" font-style="normal" font-weight="normal" text-decoration="undefined" x="661.72314453125" y="388.5" text-anchor="middle" dominant-baseline="central" transform="matrix(1 0 0 1 -62 2)">6 : 各停靠站到时、发时、站名等信息</text></g></g><g><path fill="none" stroke="#000000" paint-order="fill stroke markers" d=" M 477 420 L 293 420" stroke-miterlimit="10" stroke-dasharray="3"/></g><g><path fill="none" stroke="#000000" paint-order="fill stroke markers" d=" M 303.16267485762415 415.790482243984 L 293 420 L 303.16267485762415 424.209517756016" stroke-miterlimit="10" stroke-dasharray=""/></g><g><rect fill="#ffffff" stroke="none" x="418" y="422" width="57.4462890625" height="13" transform="matrix(1 0 0 1 -62 2)"/></g><g><g><path fill="none" stroke="none"/><text fill="#000000" stroke="none" font-family="Arial" font-size="13px" font-style="normal" font-weight="normal" text-decoration="undefined" x="446.72314453125" y="428.5" text-anchor="middle" dominant-baseline="central" transform="matrix(1 0 0 1 -62 2)">7 : 时刻表</text></g></g><g><path fill="none" stroke="#000000" paint-order="fill stroke markers" d=" M 293 458 L 323 458 L 323 478 L 300 478" stroke-miterlimit="10" stroke-dasharray=""/></g><g><path fill="#000000" stroke="none" paint-order="stroke fill markers" d=" M 310.16267485762415 473.790482243984 L 300 478 L 310.16267485762415 482.209517756016"/></g><g><path fill="none" stroke="#000000" paint-order="fill stroke markers" d=" M 310.16267485762415 473.790482243984 L 300 478 L 310.16267485762415 482.209517756016 L 310.16267485762415 473.790482243984" stroke-miterlimit="10" stroke-dasharray=""/></g><g><rect fill="#ffffff" stroke="none" x="305" y="459" width="178.0390625" height="13" transform="matrix(1 0 0 1 -62 2)"/></g><g><g><path fill="none" stroke="none"/><text fill="#000000" stroke="none" font-family="Arial" font-size="13px" font-style="normal" font-weight="normal" text-decoration="undefined" x="394.01953125" y="465.5" text-anchor="middle" dominant-baseline="central" transform="matrix(1 0 0 1 -62 2)">8 : 利用Loader弹出时刻表窗口</text></g></g><g><rect fill="#ffffff" stroke="none" x="348" y="476" width="14" height="28" transform="matrix(1 0 0 1 -62 2)"/></g><g><path fill="none" stroke="#000000" paint-order="fill stroke markers" d=" M 286 478 L 300 478 L 300 506 L 286 506 L 286 478 Z Z" stroke-miterlimit="10" stroke-dasharray=""/></g><g><path fill="none" stroke="#000000" paint-order="fill stroke markers" d=" M 279 522 L 103 522" stroke-miterlimit="10" stroke-dasharray="3"/></g><g><path fill="none" stroke="#000000" paint-order="fill stroke markers" d=" M 113.16267485762415 517.790482243984 L 103 522 L 113.16267485762415 526.209517756016" stroke-miterlimit="10" stroke-dasharray=""/></g><g><rect fill="#ffffff" stroke="none" x="178" y="524" width="148.4462890625" height="13" transform="matrix(1 0 0 1 -62 2)"/></g><g><g><path fill="none" stroke="none"/><text fill="#000000" stroke="none" font-family="Arial" font-size="13px" font-style="normal" font-weight="normal" text-decoration="undefined" x="252.22314453125" y="530.5" text-anchor="middle" dominant-baseline="central" transform="matrix(1 0 0 1 -62 2)">9 : 显示该订单时刻表信息</text></g></g></g></svg>