<svg version="1.1" xmlns="http://www.w3.org/2000/svg" xmlns:xlink="http://www.w3.org/1999/xlink" width="948" height="676"><defs/><g><g><path fill="none" stroke="#000000" paint-order="fill stroke markers" d=" M 10 10 L 938 10 L 938 666 L 10 666 L 10 10" stroke-miterlimit="10" stroke-dasharray=""/></g><g><path fill="#ffffff" stroke="none" paint-order="stroke fill markers" d=" M 10 10 L 10 33 L 174.05908203125 33 L 185.55908203125 21.5 L 185.55908203125 10 L 10 10"/></g><g><path fill="none" stroke="#000000" paint-order="fill stroke markers" d=" M 10 10 L 10 33 L 174.05908203125 33 L 185.55908203125 21.5 L 185.55908203125 10 L 10 10 L 10 10" stroke-miterlimit="10" stroke-dasharray=""/></g><g><g><path fill="none" stroke="none"/><text fill="#000000" stroke="none" font-family="Arial" font-size="13px" font-style="normal" font-weight="normal" text-decoration="undefined" x="115.89453125" y="19.5" text-anchor="middle" dominant-baseline="central" transform="matrix(1 0 0 1 -14 2)">顺序图-修改乘车人信息</text></g></g><g><g><path fill="none" stroke="none"/><text fill="#000000" stroke="none" font-family="Arial" font-size="13px" font-style="normal" font-weight="bold" text-decoration="undefined" x="35.864990234375" y="19.5" text-anchor="middle" dominant-baseline="central" transform="matrix(1 0 0 1 -14 2)">sd</text></g></g><g><rect fill="#C0C0C0" stroke="none" x="87" y="47" width="72.736328125" height="40" transform="matrix(1 0 0 1 -14 2)" fill-opacity="0.2"/></g><g><rect fill="#ffffff" stroke="none" x="80" y="40" width="72.736328125" height="40" transform="matrix(1 0 0 1 -14 2)"/></g><g><path fill="none" stroke="#000000" paint-order="fill stroke markers" d=" M 66 42 L 138.736328125 42 L 138.736328125 82 L 66 82 L 66 42 Z Z" stroke-miterlimit="10" stroke-dasharray=""/></g><g><g><path fill="none" stroke="none"/><text fill="#000000" stroke="none" font-family="Arial" font-size="13px" font-style="normal" font-weight="bold" text-decoration="undefined" x="116.8681640625" y="53.5" text-anchor="middle" dominant-baseline="central" transform="matrix(1 0 0 1 -14 2)">用户</text></g></g><g><path fill="none" stroke="#000000" paint-order="fill stroke markers" d=" M 102.5 83 L 102.5 648" stroke-miterlimit="10" stroke-dasharray="3"/></g><g><rect fill="#C0C0C0" stroke="none" x="247" y="47" width="72.736328125" height="40" transform="matrix(1 0 0 1 -14 2)" fill-opacity="0.2"/></g><g><rect fill="#ffffff" stroke="none" x="240" y="40" width="72.736328125" height="40" transform="matrix(1 0 0 1 -14 2)"/></g><g><path fill="none" stroke="#000000" paint-order="fill stroke markers" d=" M 226 42 L 298.736328125 42 L 298.736328125 82 L 226 82 L 226 42 Z Z" stroke-miterlimit="10" stroke-dasharray=""/></g><g><g><path fill="none" stroke="none"/><text fill="#000000" stroke="none" font-family="Arial" font-size="13px" font-style="normal" font-weight="bold" text-decoration="undefined" x="276.8681640625" y="53.5" text-anchor="middle" dominant-baseline="central" transform="matrix(1 0 0 1 -14 2)">前端</text></g></g><g><path fill="none" stroke="#000000" paint-order="fill stroke markers" d=" M 262.5 83 L 262.5 648" stroke-miterlimit="10" stroke-dasharray="3"/></g><g><rect fill="#C0C0C0" stroke="none" x="423" y="47" width="121.64501953125" height="40" transform="matrix(1 0 0 1 -14 2)" fill-opacity="0.2"/></g><g><rect fill="#ffffff" stroke="none" x="416" y="40" width="121.64501953125" height="40" transform="matrix(1 0 0 1 -14 2)"/></g><g><path fill="none" stroke="#000000" paint-order="fill stroke markers" d=" M 402 42 L 523.64501953125 42 L 523.64501953125 82 L 402 82 L 402 42 Z Z" stroke-miterlimit="10" stroke-dasharray=""/></g><g><g><path fill="none" stroke="none"/><text fill="#000000" stroke="none" font-family="Arial" font-size="13px" font-style="normal" font-weight="bold" text-decoration="undefined" x="477.322509765625" y="53.5" text-anchor="middle" dominant-baseline="central" transform="matrix(1 0 0 1 -14 2)">BookingSystem</text></g></g><g><path fill="none" stroke="#000000" paint-order="fill stroke markers" d=" M 463.5 83 L 463.5 360" stroke-miterlimit="10" stroke-dasharray="3"/></g><g><rect fill="#C0C0C0" stroke="none" x="599" y="47" width="144.7568359375" height="40" transform="matrix(1 0 0 1 -14 2)" fill-opacity="0.2"/></g><g><rect fill="#ffffff" stroke="none" x="592" y="40" width="144.7568359375" height="40" transform="matrix(1 0 0 1 -14 2)"/></g><g><path fill="none" stroke="#000000" paint-order="fill stroke markers" d=" M 578 42 L 722.7568359375 42 L 722.7568359375 82 L 578 82 L 578 42 Z Z" stroke-miterlimit="10" stroke-dasharray=""/></g><g><g><path fill="none" stroke="none"/><text fill="#000000" stroke="none" font-family="Arial" font-size="13px" font-style="normal" font-weight="bold" text-decoration="undefined" x="664.87841796875" y="53.5" text-anchor="middle" dominant-baseline="central" transform="matrix(1 0 0 1 -14 2)">PassengerManager</text></g></g><g><path fill="none" stroke="#000000" paint-order="fill stroke markers" d=" M 650.5 83 L 650.5 553" stroke-miterlimit="10" stroke-dasharray="3"/></g><g><rect fill="#C0C0C0" stroke="none" x="839" y="47" width="116.32568359375" height="40" transform="matrix(1 0 0 1 -14 2)" fill-opacity="0.2"/></g><g><rect fill="#ffffff" stroke="none" x="832" y="40" width="116.32568359375" height="40" transform="matrix(1 0 0 1 -14 2)"/></g><g><path fill="none" stroke="#000000" paint-order="fill stroke markers" d=" M 818 42 L 934.32568359375 42 L 934.32568359375 82 L 818 82 L 818 42 Z Z" stroke-miterlimit="10" stroke-dasharray=""/></g><g><g><path fill="none" stroke="none"/><text fill="#000000" stroke="none" font-family="Arial" font-size="13px" font-style="normal" font-weight="bold" text-decoration="undefined" x="890.662841796875" y="53.5" text-anchor="middle" dominant-baseline="central" transform="matrix(1 0 0 1 -14 2)">OrderManager</text></g></g><g><path fill="none" stroke="#000000" paint-order="fill stroke markers" d=" M 876.5 83 L 876.5 386" stroke-miterlimit="10" stroke-dasharray="3"/></g><g><path fill="none" stroke="#000000" paint-order="fill stroke markers" d=" M 103 118 L 255 118" stroke-miterlimit="10" stroke-dasharray=""/></g><g><path fill="#000000" stroke="none" paint-order="stroke fill markers" d=" M 244.83732514237585 122.20951775601598 L 255 118 L 244.83732514237585 113.79048224398402"/></g><g><path fill="none" stroke="#000000" paint-order="fill stroke markers" d=" M 244.83732514237585 122.20951775601598 L 255 118 L 244.83732514237585 113.79048224398402 L 244.83732514237585 122.20951775601598" stroke-miterlimit="10" stroke-dasharray=""/></g><g><rect fill="#ffffff" stroke="none" x="145" y="100" width="96.4462890625" height="13" transform="matrix(1 0 0 1 -14 2)"/></g><g><g><path fill="none" stroke="none"/><text fill="#000000" stroke="none" font-family="Arial" font-size="13px" font-style="normal" font-weight="normal" text-decoration="undefined" x="193.22314453125" y="106.5" text-anchor="middle" dominant-baseline="central" transform="matrix(1 0 0 1 -14 2)">1 : 点击修改图标</text></g></g><g><rect fill="#ffffff" stroke="none" x="269" y="116" width="14" height="28" transform="matrix(1 0 0 1 -14 2)"/></g><g><path fill="none" stroke="#000000" paint-order="fill stroke markers" d=" M 255 118 L 269 118 L 269 146 L 255 146 L 255 118 Z Z" stroke-miterlimit="10" stroke-dasharray=""/></g><g><path fill="none" stroke="#000000" paint-order="fill stroke markers" d=" M 269 138 L 299 138 L 299 158 L 269 158" stroke-miterlimit="10" stroke-dasharray=""/></g><g><path fill="#000000" stroke="none" paint-order="stroke fill markers" d=" M 279.16267485762415 153.790482243984 L 269 158 L 279.16267485762415 162.209517756016"/></g><g><path fill="none" stroke="#000000" paint-order="fill stroke markers" d=" M 279.16267485762415 153.790482243984 L 269 158 L 279.16267485762415 162.209517756016 L 279.16267485762415 153.790482243984" stroke-miterlimit="10" stroke-dasharray=""/></g><g><rect fill="#ffffff" stroke="none" x="177" y="139" width="291.4462890625" height="13" transform="matrix(1 0 0 1 -14 2)"/></g><g><g><path fill="none" stroke="none"/><text fill="#000000" stroke="none" font-family="Arial" font-size="13px" font-style="normal" font-weight="normal" text-decoration="undefined" x="322.72314453125" y="145.5" text-anchor="middle" dominant-baseline="central" transform="matrix(1 0 0 1 -14 2)">2 : 获取待修改乘车人的身份证号和当前登录用户名</text></g></g><g><rect fill="#ffffff" stroke="none" x="269" y="156" width="14" height="196" transform="matrix(1 0 0 1 -14 2)"/></g><g><path fill="none" stroke="#000000" paint-order="fill stroke markers" d=" M 255 158 L 269 158 L 269 354 L 255 354 L 255 158 Z Z" stroke-miterlimit="10" stroke-dasharray=""/></g><g><path fill="none" stroke="#000000" paint-order="fill stroke markers" d=" M 269 178 L 456 178" stroke-miterlimit="10" stroke-dasharray=""/></g><g><path fill="#000000" stroke="none" paint-order="stroke fill markers" d=" M 445.83732514237585 182.209517756016 L 456 178 L 445.83732514237585 173.790482243984"/></g><g><path fill="none" stroke="#000000" paint-order="fill stroke markers" d=" M 445.83732514237585 182.209517756016 L 456 178 L 445.83732514237585 173.790482243984 L 445.83732514237585 182.209517756016" stroke-miterlimit="10" stroke-dasharray=""/></g><g><rect fill="#ffffff" stroke="none" x="294" y="160" width="165.55322265625" height="13" transform="matrix(1 0 0 1 -14 2)"/></g><g><g><path fill="none" stroke="none"/><text fill="#000000" stroke="none" font-family="Arial" font-size="13px" font-style="normal" font-weight="normal" text-decoration="undefined" x="376.776611328125" y="166.5" text-anchor="middle" dominant-baseline="central" transform="matrix(1 0 0 1 -14 2)">3 : isPassengerEditable_api</text></g></g><g><rect fill="#ffffff" stroke="none" x="470" y="176" width="14" height="136" transform="matrix(1 0 0 1 -14 2)"/></g><g><path fill="none" stroke="#000000" paint-order="fill stroke markers" d=" M 456 178 L 470 178 L 470 314 L 456 314 L 456 178 Z Z" stroke-miterlimit="10" stroke-dasharray=""/></g><g><path fill="none" stroke="#000000" paint-order="fill stroke markers" d=" M 470 186 L 643 186" stroke-miterlimit="10" stroke-dasharray=""/></g><g><path fill="#000000" stroke="none" paint-order="stroke fill markers" d=" M 632.8373251423759 190.209517756016 L 643 186 L 632.8373251423758 181.790482243984"/></g><g><path fill="none" stroke="#000000" paint-order="fill stroke markers" d=" M 632.8373251423759 190.209517756016 L 643 186 L 632.8373251423758 181.790482243984 L 632.8373251423759 190.209517756016" stroke-miterlimit="10" stroke-dasharray=""/></g><g><rect fill="#ffffff" stroke="none" x="462" y="168" width="217.18505859375" height="13" transform="matrix(1 0 0 1 -14 2)"/></g><g><g><path fill="none" stroke="none"/><text fill="#000000" stroke="none" font-family="Arial" font-size="13px" font-style="normal" font-weight="normal" text-decoration="undefined" x="570.592529296875" y="174.5" text-anchor="middle" dominant-baseline="central" transform="matrix(1 0 0 1 -14 2)">4 : getPassengerByUsernameAndId</text></g></g><g><rect fill="#ffffff" stroke="none" x="657" y="184" width="14" height="40" transform="matrix(1 0 0 1 -14 2)"/></g><g><path fill="none" stroke="#000000" paint-order="fill stroke markers" d=" M 643 186 L 657 186 L 657 226 L 643 226 L 643 186 Z Z" stroke-miterlimit="10" stroke-dasharray=""/></g><g><path fill="none" stroke="#000000" paint-order="fill stroke markers" d=" M 643 212 L 470 212" stroke-miterlimit="10" stroke-dasharray="3"/></g><g><path fill="none" stroke="#000000" paint-order="fill stroke markers" d=" M 480.16267485762415 207.790482243984 L 470 212 L 480.16267485762415 216.209517756016" stroke-miterlimit="10" stroke-dasharray=""/></g><g><rect fill="#ffffff" stroke="none" x="521" y="214" width="96.4462890625" height="13" transform="matrix(1 0 0 1 -14 2)"/></g><g><g><path fill="none" stroke="none"/><text fill="#000000" stroke="none" font-family="Arial" font-size="13px" font-style="normal" font-weight="normal" text-decoration="undefined" x="569.22314453125" y="220.5" text-anchor="middle" dominant-baseline="central" transform="matrix(1 0 0 1 -14 2)">5 : 该乘车人对象</text></g></g><g><path fill="none" stroke="#000000" paint-order="fill stroke markers" d=" M 470 250 L 869 250" stroke-miterlimit="10" stroke-dasharray=""/></g><g><path fill="#000000" stroke="none" paint-order="stroke fill markers" d=" M 858.8373251423759 254.209517756016 L 869 250 L 858.8373251423758 245.790482243984"/></g><g><path fill="none" stroke="#000000" paint-order="fill stroke markers" d=" M 858.8373251423759 254.209517756016 L 869 250 L 858.8373251423758 245.790482243984 L 858.8373251423759 254.209517756016" stroke-miterlimit="10" stroke-dasharray=""/></g><g><rect fill="#ffffff" stroke="none" x="580" y="232" width="206.01953125" height="13" transform="matrix(1 0 0 1 -14 2)"/></g><g><g><path fill="none" stroke="none"/><text fill="#000000" stroke="none" font-family="Arial" font-size="13px" font-style="normal" font-weight="normal" text-decoration="undefined" x="683.009765625" y="238.5" text-anchor="middle" dominant-baseline="central" transform="matrix(1 0 0 1 -14 2)">6 : hasUnusedOrderForPassenger</text></g></g><g><rect fill="#ffffff" stroke="none" x="883" y="248" width="14" height="28" transform="matrix(1 0 0 1 -14 2)"/></g><g><path fill="none" stroke="#000000" paint-order="fill stroke markers" d=" M 869 250 L 883 250 L 883 278 L 869 278 L 869 250 Z Z" stroke-miterlimit="10" stroke-dasharray=""/></g><g><path fill="none" stroke="#000000" paint-order="fill stroke markers" d=" M 869 273 L 470 273" stroke-miterlimit="10" stroke-dasharray="3"/></g><g><path fill="none" stroke="#000000" paint-order="fill stroke markers" d=" M 480.16267485762415 268.790482243984 L 470 273 L 480.16267485762415 277.209517756016" stroke-miterlimit="10" stroke-dasharray=""/></g><g><rect fill="#ffffff" stroke="none" x="595" y="275" width="174.4462890625" height="13" transform="matrix(1 0 0 1 -14 2)"/></g><g><g><path fill="none" stroke="none"/><text fill="#000000" stroke="none" font-family="Arial" font-size="13px" font-style="normal" font-weight="normal" text-decoration="undefined" x="682.22314453125" y="281.5" text-anchor="middle" dominant-baseline="central" transform="matrix(1 0 0 1 -14 2)">7 : 该乘车人是否有待乘坐订单</text></g></g><g><path fill="none" stroke="#000000" paint-order="fill stroke markers" d=" M 456 298 L 269 298" stroke-miterlimit="10" stroke-dasharray="3"/></g><g><path fill="none" stroke="#000000" paint-order="fill stroke markers" d=" M 279.16267485762415 293.790482243984 L 269 298 L 279.16267485762415 302.209517756016" stroke-miterlimit="10" stroke-dasharray=""/></g><g><rect fill="#ffffff" stroke="none" x="301" y="300" width="148.4462890625" height="13" transform="matrix(1 0 0 1 -14 2)"/></g><g><g><path fill="none" stroke="none"/><text fill="#000000" stroke="none" font-family="Arial" font-size="13px" font-style="normal" font-weight="normal" text-decoration="undefined" x="375.22314453125" y="306.5" text-anchor="middle" dominant-baseline="central" transform="matrix(1 0 0 1 -14 2)">8 : 该乘车人是否可被修改</text></g></g><g><path fill="none" stroke="#000000" paint-order="fill stroke markers" d=" M 255 324 L 103 324" stroke-miterlimit="10" stroke-dasharray="3"/></g><g><path fill="none" stroke="#000000" paint-order="fill stroke markers" d=" M 113.16267485762415 319.790482243984 L 103 324 L 113.16267485762415 328.209517756016" stroke-miterlimit="10" stroke-dasharray=""/></g><g><rect fill="#ffffff" stroke="none" x="118" y="326" width="148.4462890625" height="13" transform="matrix(1 0 0 1 -14 2)"/></g><g><g><path fill="none" stroke="none"/><text fill="#000000" stroke="none" font-family="Arial" font-size="13px" font-style="normal" font-weight="normal" text-decoration="undefined" x="192.22314453125" y="332.5" text-anchor="middle" dominant-baseline="central" transform="matrix(1 0 0 1 -14 2)">9 : 若不可修改，弹窗提示</text></g></g><g><path fill="none" stroke="#000000" paint-order="fill stroke markers" d=" M 269 346 L 299 346 L 299 366 L 269 366" stroke-miterlimit="10" stroke-dasharray=""/></g><g><path fill="#000000" stroke="none" paint-order="stroke fill markers" d=" M 279.16267485762415 361.790482243984 L 269 366 L 279.16267485762415 370.209517756016"/></g><g><path fill="none" stroke="#000000" paint-order="fill stroke markers" d=" M 279.16267485762415 361.790482243984 L 269 366 L 279.16267485762415 370.209517756016 L 279.16267485762415 361.790482243984" stroke-miterlimit="10" stroke-dasharray=""/></g><g><rect fill="#ffffff" stroke="none" x="204" y="347" width="237.66259765625" height="13" transform="matrix(1 0 0 1 -14 2)"/></g><g><g><path fill="none" stroke="none"/><text fill="#000000" stroke="none" font-family="Arial" font-size="13px" font-style="normal" font-weight="normal" text-decoration="undefined" x="322.831298828125" y="353.5" text-anchor="middle" dominant-baseline="central" transform="matrix(1 0 0 1 -14 2)">10 : 若可修改，利用Loader弹出修改窗口</text></g></g><g><rect fill="#ffffff" stroke="none" x="269" y="364" width="14" height="28" transform="matrix(1 0 0 1 -14 2)"/></g><g><path fill="none" stroke="#000000" paint-order="fill stroke markers" d=" M 255 366 L 269 366 L 269 394 L 255 394 L 255 366 Z Z" stroke-miterlimit="10" stroke-dasharray=""/></g><g><path fill="none" stroke="#000000" paint-order="fill stroke markers" d=" M 255 388 L 103 388" stroke-miterlimit="10" stroke-dasharray="3"/></g><g><path fill="none" stroke="#000000" paint-order="fill stroke markers" d=" M 113.16267485762415 383.790482243984 L 103 388 L 113.16267485762415 392.209517756016" stroke-miterlimit="10" stroke-dasharray=""/></g><g><rect fill="#ffffff" stroke="none" x="88" y="390" width="208.06982421875" height="13" transform="matrix(1 0 0 1 -14 2)"/></g><g><g><path fill="none" stroke="none"/><text fill="#000000" stroke="none" font-family="Arial" font-size="13px" font-style="normal" font-weight="normal" text-decoration="undefined" x="192.034912109375" y="396.5" text-anchor="middle" dominant-baseline="central" transform="matrix(1 0 0 1 -14 2)">11 : 显示修改窗口，待用户填写信息</text></g></g><g><path fill="none" stroke="#000000" paint-order="fill stroke markers" d=" M 103 454 L 255 454" stroke-miterlimit="10" stroke-dasharray=""/></g><g><path fill="#000000" stroke="none" paint-order="stroke fill markers" d=" M 244.83732514237585 458.209517756016 L 255 454 L 244.83732514237585 449.790482243984"/></g><g><path fill="none" stroke="#000000" paint-order="fill stroke markers" d=" M 244.83732514237585 458.209517756016 L 255 454 L 244.83732514237585 449.790482243984 L 244.83732514237585 458.209517756016" stroke-miterlimit="10" stroke-dasharray=""/></g><g><rect fill="#ffffff" stroke="none" x="109" y="436" width="169.06982421875" height="13" transform="matrix(1 0 0 1 -14 2)"/></g><g><g><path fill="none" stroke="none"/><text fill="#000000" stroke="none" font-family="Arial" font-size="13px" font-style="normal" font-weight="normal" text-decoration="undefined" x="193.534912109375" y="442.5" text-anchor="middle" dominant-baseline="central" transform="matrix(1 0 0 1 -14 2)">12 : 用户填写信息并点击确认</text></g></g><g><rect fill="#ffffff" stroke="none" x="269" y="452" width="14" height="116" transform="matrix(1 0 0 1 -14 2)"/></g><g><path fill="none" stroke="#000000" paint-order="fill stroke markers" d=" M 255 454 L 269 454 L 269 570 L 255 570 L 255 454 Z Z" stroke-miterlimit="10" stroke-dasharray=""/></g><g><path fill="none" stroke="#000000" paint-order="fill stroke markers" d=" M 269 466 L 643 466" stroke-miterlimit="10" stroke-dasharray=""/></g><g><path fill="#000000" stroke="none" paint-order="stroke fill markers" d=" M 632.8373251423759 470.209517756016 L 643 466 L 632.8373251423758 461.790482243984"/></g><g><path fill="none" stroke="#000000" paint-order="fill stroke markers" d=" M 632.8373251423759 470.209517756016 L 643 466 L 632.8373251423758 461.790482243984 L 632.8373251423759 470.209517756016" stroke-miterlimit="10" stroke-dasharray=""/></g><g><rect fill="#ffffff" stroke="none" x="402" y="448" width="137.6044921875" height="13" transform="matrix(1 0 0 1 -14 2)"/></g><g><g><path fill="none" stroke="none"/><text fill="#000000" stroke="none" font-family="Arial" font-size="13px" font-style="normal" font-weight="normal" text-decoration="undefined" x="470.80224609375" y="454.5" text-anchor="middle" dominant-baseline="central" transform="matrix(1 0 0 1 -14 2)">13 : editPassenger_api</text></g></g><g><rect fill="#ffffff" stroke="none" x="657" y="464" width="14" height="28" transform="matrix(1 0 0 1 -14 2)"/></g><g><path fill="none" stroke="#000000" paint-order="fill stroke markers" d=" M 643 466 L 657 466 L 657 494 L 643 494 L 643 466 Z Z" stroke-miterlimit="10" stroke-dasharray=""/></g><g><path fill="none" stroke="#000000" paint-order="fill stroke markers" d=" M 657 482 L 687 482 L 687 502 L 657 502" stroke-miterlimit="10" stroke-dasharray=""/></g><g><path fill="#000000" stroke="none" paint-order="stroke fill markers" d=" M 667.1626748576241 497.790482243984 L 657 502 L 667.1626748576241 506.209517756016"/></g><g><path fill="none" stroke="#000000" paint-order="fill stroke markers" d=" M 667.1626748576241 497.790482243984 L 657 502 L 667.1626748576241 506.209517756016 L 667.1626748576241 497.790482243984" stroke-miterlimit="10" stroke-dasharray=""/></g><g><rect fill="#ffffff" stroke="none" x="600" y="483" width="221.06982421875" height="13" transform="matrix(1 0 0 1 -14 2)"/></g><g><g><path fill="none" stroke="none"/><text fill="#000000" stroke="none" font-family="Arial" font-size="13px" font-style="normal" font-weight="normal" text-decoration="undefined" x="710.534912109375" y="489.5" text-anchor="middle" dominant-baseline="central" transform="matrix(1 0 0 1 -14 2)">14 : 遍历乘车人列表，更新乘车人信息</text></g></g><g><rect fill="#ffffff" stroke="none" x="657" y="500" width="14" height="28" transform="matrix(1 0 0 1 -14 2)"/></g><g><path fill="none" stroke="#000000" paint-order="fill stroke markers" d=" M 643 502 L 657 502 L 657 530 L 643 530 L 643 502 Z Z" stroke-miterlimit="10" stroke-dasharray=""/></g><g><path fill="none" stroke="#000000" paint-order="fill stroke markers" d=" M 643 522 L 269 522" stroke-miterlimit="10" stroke-dasharray="3"/></g><g><path fill="none" stroke="#000000" paint-order="fill stroke markers" d=" M 279.16267485762415 517.790482243984 L 269 522 L 279.16267485762415 526.209517756016" stroke-miterlimit="10" stroke-dasharray=""/></g><g><rect fill="#ffffff" stroke="none" x="411" y="524" width="117.29833984375" height="13" transform="matrix(1 0 0 1 -14 2)"/></g><g><g><path fill="none" stroke="none"/><text fill="#000000" stroke="none" font-family="Arial" font-size="13px" font-style="normal" font-weight="normal" text-decoration="undefined" x="469.649169921875" y="530.5" text-anchor="middle" dominant-baseline="central" transform="matrix(1 0 0 1 -14 2)">15 : 修改成功or失败</text></g></g><g><path fill="none" stroke="#000000" paint-order="fill stroke markers" d=" M 255 547 L 103 547" stroke-miterlimit="10" stroke-dasharray="3"/></g><g><path fill="none" stroke="#000000" paint-order="fill stroke markers" d=" M 113.16267485762415 542.790482243984 L 103 547 L 113.16267485762415 551.209517756016" stroke-miterlimit="10" stroke-dasharray=""/></g><g><rect fill="#ffffff" stroke="none" x="153" y="549" width="78.06982421875" height="13" transform="matrix(1 0 0 1 -14 2)"/></g><g><g><path fill="none" stroke="none"/><text fill="#000000" stroke="none" font-family="Arial" font-size="13px" font-style="normal" font-weight="normal" text-decoration="undefined" x="192.034912109375" y="555.5" text-anchor="middle" dominant-baseline="central" transform="matrix(1 0 0 1 -14 2)">16 : 弹窗回复</text></g></g><g><path fill="none" stroke="#000000" paint-order="fill stroke markers" d=" M 269 562 L 299 562 L 299 582 L 269 582" stroke-miterlimit="10" stroke-dasharray=""/></g><g><path fill="#000000" stroke="none" paint-order="stroke fill markers" d=" M 279.16267485762415 577.790482243984 L 269 582 L 279.16267485762415 586.209517756016"/></g><g><path fill="none" stroke="#000000" paint-order="fill stroke markers" d=" M 279.16267485762415 577.790482243984 L 269 582 L 279.16267485762415 586.209517756016 L 279.16267485762415 577.790482243984" stroke-miterlimit="10" stroke-dasharray=""/></g><g><rect fill="#ffffff" stroke="none" x="244" y="563" width="156.06982421875" height="13" transform="matrix(1 0 0 1 -14 2)"/></g><g><g><path fill="none" stroke="none"/><text fill="#000000" stroke="none" font-family="Arial" font-size="13px" font-style="normal" font-weight="normal" text-decoration="undefined" x="322.034912109375" y="569.5" text-anchor="middle" dominant-baseline="central" transform="matrix(1 0 0 1 -14 2)">17 : 根据搜索条件进行过滤</text></g></g><g><rect fill="#ffffff" stroke="none" x="269" y="580" width="14" height="28" transform="matrix(1 0 0 1 -14 2)"/></g><g><path fill="none" stroke="#000000" paint-order="fill stroke markers" d=" M 255 582 L 269 582 L 269 610 L 255 610 L 255 582 Z Z" stroke-miterlimit="10" stroke-dasharray=""/></g><g><path fill="none" stroke="#000000" paint-order="fill stroke markers" d=" M 255 602 L 103 602" stroke-miterlimit="10" stroke-dasharray="3"/></g><g><path fill="none" stroke="#000000" paint-order="fill stroke markers" d=" M 113.16267485762415 597.790482243984 L 103 602 L 113.16267485762415 606.209517756016" stroke-miterlimit="10" stroke-dasharray=""/></g><g><rect fill="#ffffff" stroke="none" x="108" y="604" width="169.06982421875" height="13" transform="matrix(1 0 0 1 -14 2)"/></g><g><g><path fill="none" stroke="none"/><text fill="#000000" stroke="none" font-family="Arial" font-size="13px" font-style="normal" font-weight="normal" text-decoration="undefined" x="192.534912109375" y="610.5" text-anchor="middle" dominant-baseline="central" transform="matrix(1 0 0 1 -14 2)">18 : 显示更新后的乘车人列表</text></g></g></g></svg>