<svg version="1.1" xmlns="http://www.w3.org/2000/svg" xmlns:xlink="http://www.w3.org/1999/xlink" width="508" height="612"><defs/><g><g><path fill="none" stroke="#000000" paint-order="fill stroke markers" d=" M 10 10 L 498 10 L 498 602 L 10 602 L 10 10" stroke-miterlimit="10" stroke-dasharray=""/></g><g><path fill="#ffffff" stroke="none" paint-order="stroke fill markers" d=" M 10 10 L 10 33 L 109.05908203125 33 L 120.55908203125 21.5 L 120.55908203125 10 L 10 10"/></g><g><path fill="none" stroke="#000000" paint-order="fill stroke markers" d=" M 10 10 L 10 33 L 109.05908203125 33 L 120.55908203125 21.5 L 120.55908203125 10 L 10 10 L 10 10" stroke-miterlimit="10" stroke-dasharray=""/></g><g><g><path fill="none" stroke="none"/><text fill="#000000" stroke="none" font-family="Arial" font-size="13px" font-style="normal" font-weight="normal" text-decoration="undefined" x="59.39453125" y="19.5" text-anchor="middle" dominant-baseline="central" transform="matrix(1 0 0 1 10 2)">顺序图-解锁</text></g></g><g><g><path fill="none" stroke="none"/><text fill="#000000" stroke="none" font-family="Arial" font-size="13px" font-style="normal" font-weight="bold" text-decoration="undefined" x="11.864990234375" y="19.5" text-anchor="middle" dominant-baseline="central" transform="matrix(1 0 0 1 10 2)">sd</text></g></g><g><rect fill="#C0C0C0" stroke="none" x="87" y="47" width="72.736328125" height="40" transform="matrix(1 0 0 1 10 2)" fill-opacity="0.2"/></g><g><rect fill="#ffffff" stroke="none" x="80" y="40" width="72.736328125" height="40" transform="matrix(1 0 0 1 10 2)"/></g><g><path fill="none" stroke="#000000" paint-order="fill stroke markers" d=" M 90 42 L 162.736328125 42 L 162.736328125 82 L 90 82 L 90 42 Z Z" stroke-miterlimit="10" stroke-dasharray=""/></g><g><g><path fill="none" stroke="none"/><text fill="#000000" stroke="none" font-family="Arial" font-size="13px" font-style="normal" font-weight="bold" text-decoration="undefined" x="116.8681640625" y="53.5" text-anchor="middle" dominant-baseline="central" transform="matrix(1 0 0 1 10 2)">用户</text></g></g><g><path fill="none" stroke="#000000" paint-order="fill stroke markers" d=" M 126.5 83 L 126.5 585" stroke-miterlimit="10" stroke-dasharray="3"/></g><g><rect fill="#C0C0C0" stroke="none" x="223" y="47" width="72.736328125" height="40" transform="matrix(1 0 0 1 10 2)" fill-opacity="0.2"/></g><g><rect fill="#ffffff" stroke="none" x="216" y="40" width="72.736328125" height="40" transform="matrix(1 0 0 1 10 2)"/></g><g><path fill="none" stroke="#000000" paint-order="fill stroke markers" d=" M 226 42 L 298.736328125 42 L 298.736328125 82 L 226 82 L 226 42 Z Z" stroke-miterlimit="10" stroke-dasharray=""/></g><g><g><path fill="none" stroke="none"/><text fill="#000000" stroke="none" font-family="Arial" font-size="13px" font-style="normal" font-weight="bold" text-decoration="undefined" x="252.8681640625" y="53.5" text-anchor="middle" dominant-baseline="central" transform="matrix(1 0 0 1 10 2)">前端</text></g></g><g><path fill="none" stroke="#000000" paint-order="fill stroke markers" d=" M 262.5 83 L 262.5 585" stroke-miterlimit="10" stroke-dasharray="3"/></g><g><rect fill="#C0C0C0" stroke="none" x="359" y="47" width="130.23974609375" height="40" transform="matrix(1 0 0 1 10 2)" fill-opacity="0.2"/></g><g><rect fill="#ffffff" stroke="none" x="352" y="40" width="130.23974609375" height="40" transform="matrix(1 0 0 1 10 2)"/></g><g><path fill="none" stroke="#000000" paint-order="fill stroke markers" d=" M 362 42 L 492.23974609375 42 L 492.23974609375 82 L 362 82 L 362 42 Z Z" stroke-miterlimit="10" stroke-dasharray=""/></g><g><g><path fill="none" stroke="none"/><text fill="#000000" stroke="none" font-family="Arial" font-size="13px" font-style="normal" font-weight="bold" text-decoration="undefined" x="417.619873046875" y="53.5" text-anchor="middle" dominant-baseline="central" transform="matrix(1 0 0 1 10 2)">accountManager</text></g></g><g><path fill="none" stroke="#000000" paint-order="fill stroke markers" d=" M 427.5 83 L 427.5 570" stroke-miterlimit="10" stroke-dasharray="3"/></g><g><path fill="none" stroke="#000000" paint-order="fill stroke markers" d=" M 127 112 L 255 112" stroke-miterlimit="10" stroke-dasharray=""/></g><g><path fill="#000000" stroke="none" paint-order="stroke fill markers" d=" M 244.83732514237585 116.20951775601598 L 255 112 L 244.83732514237585 107.79048224398402"/></g><g><path fill="none" stroke="#000000" paint-order="fill stroke markers" d=" M 244.83732514237585 116.20951775601598 L 255 112 L 244.83732514237585 107.79048224398402 L 244.83732514237585 116.20951775601598" stroke-miterlimit="10" stroke-dasharray=""/></g><g><rect fill="#ffffff" stroke="none" x="120" y="94" width="122.4462890625" height="13" transform="matrix(1 0 0 1 10 2)"/></g><g><g><path fill="none" stroke="none"/><text fill="#000000" stroke="none" font-family="Arial" font-size="13px" font-style="normal" font-weight="normal" text-decoration="undefined" x="181.22314453125" y="100.5" text-anchor="middle" dominant-baseline="central" transform="matrix(1 0 0 1 10 2)">1 : 用户点击“解锁”</text></g></g><g><rect fill="#ffffff" stroke="none" x="245" y="110" width="14" height="450" transform="matrix(1 0 0 1 10 2)"/></g><g><path fill="none" stroke="#000000" paint-order="fill stroke markers" d=" M 255 112 L 269 112 L 269 562 L 255 562 L 255 112 Z Z" stroke-miterlimit="10" stroke-dasharray=""/></g><g><path fill="none" stroke="#000000" paint-order="fill stroke markers" d=" M 269 130 L 299 130 L 299 150 L 276 150" stroke-miterlimit="10" stroke-dasharray=""/></g><g><path fill="#000000" stroke="none" paint-order="stroke fill markers" d=" M 286.16267485762415 145.790482243984 L 276 150 L 286.16267485762415 154.209517756016"/></g><g><path fill="none" stroke="#000000" paint-order="fill stroke markers" d=" M 286.16267485762415 145.790482243984 L 276 150 L 286.16267485762415 154.209517756016 L 286.16267485762415 145.790482243984" stroke-miterlimit="10" stroke-dasharray=""/></g><g><rect fill="#ffffff" stroke="none" x="224" y="131" width="148.4462890625" height="13" transform="matrix(1 0 0 1 10 2)"/></g><g><g><path fill="none" stroke="none"/><text fill="#000000" stroke="none" font-family="Arial" font-size="13px" font-style="normal" font-weight="normal" text-decoration="undefined" x="298.22314453125" y="137.5" text-anchor="middle" dominant-baseline="central" transform="matrix(1 0 0 1 10 2)">2 : 判断是用户还是管理员</text></g></g><g><rect fill="#ffffff" stroke="none" x="252" y="148" width="14" height="396" transform="matrix(1 0 0 1 10 2)"/></g><g><path fill="none" stroke="#000000" paint-order="fill stroke markers" d=" M 262 150 L 276 150 L 276 546 L 262 546 L 262 150 Z Z" stroke-miterlimit="10" stroke-dasharray=""/></g><g><path fill="none" stroke="#000000" paint-order="fill stroke markers" d=" M 276 186 L 306 186 L 306 206 L 283 206" stroke-miterlimit="10" stroke-dasharray=""/></g><g><path fill="#000000" stroke="none" paint-order="stroke fill markers" d=" M 293.16267485762415 201.790482243984 L 283 206 L 293.16267485762415 210.209517756016"/></g><g><path fill="none" stroke="#000000" paint-order="fill stroke markers" d=" M 293.16267485762415 201.790482243984 L 283 206 L 293.16267485762415 210.209517756016 L 293.16267485762415 201.790482243984" stroke-miterlimit="10" stroke-dasharray=""/></g><g><rect fill="#ffffff" stroke="none" x="242" y="187" width="126.8515625" height="13" transform="matrix(1 0 0 1 10 2)"/></g><g><g><path fill="none" stroke="none"/><text fill="#000000" stroke="none" font-family="Arial" font-size="13px" font-style="normal" font-weight="normal" text-decoration="undefined" x="305.42578125" y="193.5" text-anchor="middle" dominant-baseline="central" transform="matrix(1 0 0 1 10 2)">3 : 用户：unlockUser</text></g></g><g><rect fill="#ffffff" stroke="none" x="259" y="204" width="14" height="132" transform="matrix(1 0 0 1 10 2)"/></g><g><path fill="none" stroke="#000000" paint-order="fill stroke markers" d=" M 269 206 L 283 206 L 283 338 L 269 338 L 269 206 Z Z" stroke-miterlimit="10" stroke-dasharray=""/></g><g><path fill="none" stroke="#000000" paint-order="fill stroke markers" d=" M 283 227 L 420 227" stroke-miterlimit="10" stroke-dasharray=""/></g><g><path fill="#000000" stroke="none" paint-order="stroke fill markers" d=" M 409.83732514237585 231.209517756016 L 420 227 L 409.83732514237585 222.790482243984"/></g><g><path fill="none" stroke="#000000" paint-order="fill stroke markers" d=" M 409.83732514237585 231.209517756016 L 420 227 L 409.83732514237585 222.790482243984 L 409.83732514237585 231.209517756016" stroke-miterlimit="10" stroke-dasharray=""/></g><g><rect fill="#ffffff" stroke="none" x="285" y="209" width="112.62646484375" height="13" transform="matrix(1 0 0 1 10 2)"/></g><g><g><path fill="none" stroke="none"/><text fill="#000000" stroke="none" font-family="Arial" font-size="13px" font-style="normal" font-weight="normal" text-decoration="undefined" x="341.313232421875" y="215.5" text-anchor="middle" dominant-baseline="central" transform="matrix(1 0 0 1 10 2)">4 : unlockUser_api</text></g></g><g><rect fill="#ffffff" stroke="none" x="410" y="225" width="14" height="28" transform="matrix(1 0 0 1 10 2)"/></g><g><path fill="none" stroke="#000000" paint-order="fill stroke markers" d=" M 420 227 L 434 227 L 434 255 L 420 255 L 420 227 Z Z" stroke-miterlimit="10" stroke-dasharray=""/></g><g><path fill="none" stroke="#000000" paint-order="fill stroke markers" d=" M 420 248 L 283 248" stroke-miterlimit="10" stroke-dasharray="3"/></g><g><path fill="none" stroke="#000000" paint-order="fill stroke markers" d=" M 293.16267485762415 243.790482243984 L 283 248 L 293.16267485762415 252.209517756016" stroke-miterlimit="10" stroke-dasharray=""/></g><g><rect fill="#ffffff" stroke="none" x="266" y="250" width="148.4462890625" height="13" transform="matrix(1 0 0 1 10 2)"/></g><g><g><path fill="none" stroke="none"/><text fill="#000000" stroke="none" font-family="Arial" font-size="13px" font-style="normal" font-weight="normal" text-decoration="undefined" x="340.22314453125" y="256.5" text-anchor="middle" dominant-baseline="central" transform="matrix(1 0 0 1 10 2)">5 : 返回是否解锁成功结果</text></g></g><g><path fill="none" stroke="#000000" paint-order="fill stroke markers" d=" M 283 274 L 313 274 L 313 294 L 290 294" stroke-miterlimit="10" stroke-dasharray=""/></g><g><path fill="#000000" stroke="none" paint-order="stroke fill markers" d=" M 300.16267485762415 289.790482243984 L 290 294 L 300.16267485762415 298.209517756016"/></g><g><path fill="none" stroke="#000000" paint-order="fill stroke markers" d=" M 300.16267485762415 289.790482243984 L 290 294 L 300.16267485762415 298.209517756016 L 300.16267485762415 289.790482243984" stroke-miterlimit="10" stroke-dasharray=""/></g><g><rect fill="#ffffff" stroke="none" x="253" y="275" width="118.61865234375" height="13" transform="matrix(1 0 0 1 10 2)"/></g><g><g><path fill="none" stroke="none"/><text fill="#000000" stroke="none" font-family="Arial" font-size="13px" font-style="normal" font-weight="normal" text-decoration="undefined" x="312.309326171875" y="281.5" text-anchor="middle" dominant-baseline="central" transform="matrix(1 0 0 1 10 2)">6 : refreshAccounts</text></g></g><g><rect fill="#ffffff" stroke="none" x="266" y="292" width="14" height="28" transform="matrix(1 0 0 1 10 2)"/></g><g><path fill="none" stroke="#000000" paint-order="fill stroke markers" d=" M 276 294 L 290 294 L 290 322 L 276 322 L 276 294 Z Z" stroke-miterlimit="10" stroke-dasharray=""/></g><g><path fill="none" stroke="#000000" paint-order="fill stroke markers" d=" M 276 378 L 306 378 L 306 398 L 283 398" stroke-miterlimit="10" stroke-dasharray=""/></g><g><path fill="#000000" stroke="none" paint-order="stroke fill markers" d=" M 293.16267485762415 393.790482243984 L 283 398 L 293.16267485762415 402.209517756016"/></g><g><path fill="none" stroke="#000000" paint-order="fill stroke markers" d=" M 293.16267485762415 393.790482243984 L 283 398 L 293.16267485762415 402.209517756016 L 293.16267485762415 393.790482243984" stroke-miterlimit="10" stroke-dasharray=""/></g><g><rect fill="#ffffff" stroke="none" x="229" y="379" width="152.90234375" height="13" transform="matrix(1 0 0 1 10 2)"/></g><g><g><path fill="none" stroke="none"/><text fill="#000000" stroke="none" font-family="Arial" font-size="13px" font-style="normal" font-weight="normal" text-decoration="undefined" x="305.451171875" y="385.5" text-anchor="middle" dominant-baseline="central" transform="matrix(1 0 0 1 10 2)">7 : 管理员：unlockAdmin</text></g></g><g><rect fill="#ffffff" stroke="none" x="259" y="396" width="14" height="140" transform="matrix(1 0 0 1 10 2)"/></g><g><path fill="none" stroke="#000000" paint-order="fill stroke markers" d=" M 269 398 L 283 398 L 283 538 L 269 538 L 269 398 Z Z" stroke-miterlimit="10" stroke-dasharray=""/></g><g><path fill="none" stroke="#000000" paint-order="fill stroke markers" d=" M 283 420 L 420 420" stroke-miterlimit="10" stroke-dasharray=""/></g><g><path fill="#000000" stroke="none" paint-order="stroke fill markers" d=" M 409.83732514237585 424.209517756016 L 420 420 L 409.83732514237585 415.790482243984"/></g><g><path fill="none" stroke="#000000" paint-order="fill stroke markers" d=" M 409.83732514237585 424.209517756016 L 420 420 L 409.83732514237585 415.790482243984 L 409.83732514237585 424.209517756016" stroke-miterlimit="10" stroke-dasharray=""/></g><g><rect fill="#ffffff" stroke="none" x="279" y="402" width="125.67724609375" height="13" transform="matrix(1 0 0 1 10 2)"/></g><g><g><path fill="none" stroke="none"/><text fill="#000000" stroke="none" font-family="Arial" font-size="13px" font-style="normal" font-weight="normal" text-decoration="undefined" x="341.838623046875" y="408.5" text-anchor="middle" dominant-baseline="central" transform="matrix(1 0 0 1 10 2)">8 : unlockAdmin_api</text></g></g><g><rect fill="#ffffff" stroke="none" x="410" y="418" width="14" height="62" transform="matrix(1 0 0 1 10 2)"/></g><g><path fill="none" stroke="#000000" paint-order="fill stroke markers" d=" M 420 420 L 434 420 L 434 482 L 420 482 L 420 420 Z Z" stroke-miterlimit="10" stroke-dasharray=""/></g><g><path fill="none" stroke="#000000" paint-order="fill stroke markers" d=" M 420 458 L 283 458" stroke-miterlimit="10" stroke-dasharray="3"/></g><g><path fill="none" stroke="#000000" paint-order="fill stroke markers" d=" M 293.16267485762415 453.790482243984 L 283 458 L 293.16267485762415 462.209517756016" stroke-miterlimit="10" stroke-dasharray=""/></g><g><rect fill="#ffffff" stroke="none" x="266" y="460" width="148.4462890625" height="13" transform="matrix(1 0 0 1 10 2)"/></g><g><g><path fill="none" stroke="none"/><text fill="#000000" stroke="none" font-family="Arial" font-size="13px" font-style="normal" font-weight="normal" text-decoration="undefined" x="340.22314453125" y="466.5" text-anchor="middle" dominant-baseline="central" transform="matrix(1 0 0 1 10 2)">9 : 返回是否解锁成功结果</text></g></g><g><path fill="none" stroke="#000000" paint-order="fill stroke markers" d=" M 283 482 L 313 482 L 313 502 L 290 502" stroke-miterlimit="10" stroke-dasharray=""/></g><g><path fill="#000000" stroke="none" paint-order="stroke fill markers" d=" M 300.16267485762415 497.790482243984 L 290 502 L 300.16267485762415 506.209517756016"/></g><g><path fill="none" stroke="#000000" paint-order="fill stroke markers" d=" M 300.16267485762415 497.790482243984 L 290 502 L 300.16267485762415 506.209517756016 L 300.16267485762415 497.790482243984" stroke-miterlimit="10" stroke-dasharray=""/></g><g><rect fill="#ffffff" stroke="none" x="249" y="483" width="126.2421875" height="13" transform="matrix(1 0 0 1 10 2)"/></g><g><g><path fill="none" stroke="none"/><text fill="#000000" stroke="none" font-family="Arial" font-size="13px" font-style="normal" font-weight="normal" text-decoration="undefined" x="312.12109375" y="489.5" text-anchor="middle" dominant-baseline="central" transform="matrix(1 0 0 1 10 2)">10 : refreshAccounts</text></g></g><g><rect fill="#ffffff" stroke="none" x="266" y="500" width="14" height="28" transform="matrix(1 0 0 1 10 2)"/></g><g><path fill="none" stroke="#000000" paint-order="fill stroke markers" d=" M 276 502 L 290 502 L 290 530 L 276 530 L 276 502 Z Z" stroke-miterlimit="10" stroke-dasharray=""/></g><g><path fill="none" stroke="#000000" paint-order="fill stroke markers" d=" M 255 554 L 127 554" stroke-miterlimit="10" stroke-dasharray="3"/></g><g><path fill="none" stroke="#000000" paint-order="fill stroke markers" d=" M 137.16267485762415 549.790482243984 L 127 554 L 137.16267485762415 558.209517756016" stroke-miterlimit="10" stroke-dasharray=""/></g><g><rect fill="#ffffff" stroke="none" x="109" y="556" width="143.06982421875" height="13" transform="matrix(1 0 0 1 10 2)"/></g><g><g><path fill="none" stroke="none"/><text fill="#000000" stroke="none" font-family="Arial" font-size="13px" font-style="normal" font-weight="normal" text-decoration="undefined" x="180.534912109375" y="562.5" text-anchor="middle" dominant-baseline="central" transform="matrix(1 0 0 1 10 2)">11 : 返回更新后用户列表</text></g></g></g></svg>