<svg version="1.1" xmlns="http://www.w3.org/2000/svg" xmlns:xlink="http://www.w3.org/1999/xlink" width="900" height="772"><defs/><g><g><path fill="none" stroke="#000000" paint-order="fill stroke markers" d=" M 10 10 L 890 10 L 890 762 L 10 762 L 10 10" stroke-miterlimit="10" stroke-dasharray=""/></g><g><path fill="#ffffff" stroke="none" paint-order="stroke fill markers" d=" M 10 10 L 10 33 L 174.05908203125 33 L 185.55908203125 21.5 L 185.55908203125 10 L 10 10"/></g><g><path fill="none" stroke="#000000" paint-order="fill stroke markers" d=" M 10 10 L 10 33 L 174.05908203125 33 L 185.55908203125 21.5 L 185.55908203125 10 L 10 10 L 10 10" stroke-miterlimit="10" stroke-dasharray=""/></g><g><g><path fill="none" stroke="none"/><text fill="#000000" stroke="none" font-family="Arial" font-size="13px" font-style="normal" font-weight="normal" text-decoration="undefined" x="171.89453125" y="19.5" text-anchor="middle" dominant-baseline="central" transform="matrix(1 0 0 1 -70 2)">顺序图-删除乘车人信息</text></g></g><g><g><path fill="none" stroke="none"/><text fill="#000000" stroke="none" font-family="Arial" font-size="13px" font-style="normal" font-weight="bold" text-decoration="undefined" x="91.864990234375" y="19.5" text-anchor="middle" dominant-baseline="central" transform="matrix(1 0 0 1 -70 2)">sd</text></g></g><g><rect fill="#C0C0C0" stroke="none" x="127" y="47" width="72.736328125" height="40" transform="matrix(1 0 0 1 -70 2)" fill-opacity="0.2"/></g><g><rect fill="#ffffff" stroke="none" x="120" y="40" width="72.736328125" height="40" transform="matrix(1 0 0 1 -70 2)"/></g><g><path fill="none" stroke="#000000" paint-order="fill stroke markers" d=" M 50 42 L 122.736328125 42 L 122.736328125 82 L 50 82 L 50 42 Z Z" stroke-miterlimit="10" stroke-dasharray=""/></g><g><g><path fill="none" stroke="none"/><text fill="#000000" stroke="none" font-family="Arial" font-size="13px" font-style="normal" font-weight="bold" text-decoration="undefined" x="156.8681640625" y="53.5" text-anchor="middle" dominant-baseline="central" transform="matrix(1 0 0 1 -70 2)">用户</text></g></g><g><path fill="none" stroke="#000000" paint-order="fill stroke markers" d=" M 86.5 83 L 86.5 744" stroke-miterlimit="10" stroke-dasharray="3"/></g><g><rect fill="#C0C0C0" stroke="none" x="263" y="47" width="72.736328125" height="40" transform="matrix(1 0 0 1 -70 2)" fill-opacity="0.2"/></g><g><rect fill="#ffffff" stroke="none" x="256" y="40" width="72.736328125" height="40" transform="matrix(1 0 0 1 -70 2)"/></g><g><path fill="none" stroke="#000000" paint-order="fill stroke markers" d=" M 186 42 L 258.736328125 42 L 258.736328125 82 L 186 82 L 186 42 Z Z" stroke-miterlimit="10" stroke-dasharray=""/></g><g><g><path fill="none" stroke="none"/><text fill="#000000" stroke="none" font-family="Arial" font-size="13px" font-style="normal" font-weight="bold" text-decoration="undefined" x="292.8681640625" y="53.5" text-anchor="middle" dominant-baseline="central" transform="matrix(1 0 0 1 -70 2)">前端</text></g></g><g><path fill="none" stroke="#000000" paint-order="fill stroke markers" d=" M 222.5 83 L 222.5 744" stroke-miterlimit="10" stroke-dasharray="3"/></g><g><rect fill="#C0C0C0" stroke="none" x="471" y="47" width="121.64501953125" height="40" transform="matrix(1 0 0 1 -70 2)" fill-opacity="0.2"/></g><g><rect fill="#ffffff" stroke="none" x="464" y="40" width="121.64501953125" height="40" transform="matrix(1 0 0 1 -70 2)"/></g><g><path fill="none" stroke="#000000" paint-order="fill stroke markers" d=" M 394 42 L 515.64501953125 42 L 515.64501953125 82 L 394 82 L 394 42 Z Z" stroke-miterlimit="10" stroke-dasharray=""/></g><g><g><path fill="none" stroke="none"/><text fill="#000000" stroke="none" font-family="Arial" font-size="13px" font-style="normal" font-weight="bold" text-decoration="undefined" x="525.322509765625" y="53.5" text-anchor="middle" dominant-baseline="central" transform="matrix(1 0 0 1 -70 2)">BookingSystem</text></g></g><g><path fill="none" stroke="#000000" paint-order="fill stroke markers" d=" M 455.5 83 L 455.5 360" stroke-miterlimit="10" stroke-dasharray="3"/></g><g><rect fill="#C0C0C0" stroke="none" x="839" y="47" width="116.32568359375" height="40" transform="matrix(1 0 0 1 -70 2)" fill-opacity="0.2"/></g><g><rect fill="#ffffff" stroke="none" x="832" y="40" width="116.32568359375" height="40" transform="matrix(1 0 0 1 -70 2)"/></g><g><path fill="none" stroke="#000000" paint-order="fill stroke markers" d=" M 762 42 L 878.32568359375 42 L 878.32568359375 82 L 762 82 L 762 42 Z Z" stroke-miterlimit="10" stroke-dasharray=""/></g><g><g><path fill="none" stroke="none"/><text fill="#000000" stroke="none" font-family="Arial" font-size="13px" font-style="normal" font-weight="bold" text-decoration="undefined" x="890.662841796875" y="53.5" text-anchor="middle" dominant-baseline="central" transform="matrix(1 0 0 1 -70 2)">OrderManager</text></g></g><g><path fill="none" stroke="#000000" paint-order="fill stroke markers" d=" M 820.5 83 L 820.5 329" stroke-miterlimit="10" stroke-dasharray="3"/></g><g><rect fill="#C0C0C0" stroke="none" x="647" y="47" width="144.7568359375" height="40" transform="matrix(1 0 0 1 -70 2)" fill-opacity="0.2"/></g><g><rect fill="#ffffff" stroke="none" x="640" y="40" width="144.7568359375" height="40" transform="matrix(1 0 0 1 -70 2)"/></g><g><path fill="none" stroke="#000000" paint-order="fill stroke markers" d=" M 570 42 L 714.7568359375 42 L 714.7568359375 82 L 570 82 L 570 42 Z Z" stroke-miterlimit="10" stroke-dasharray=""/></g><g><g><path fill="none" stroke="none"/><text fill="#000000" stroke="none" font-family="Arial" font-size="13px" font-style="normal" font-weight="bold" text-decoration="undefined" x="712.87841796875" y="53.5" text-anchor="middle" dominant-baseline="central" transform="matrix(1 0 0 1 -70 2)">PassengerManager</text></g></g><g><path fill="none" stroke="#000000" paint-order="fill stroke markers" d=" M 642.5 83 L 642.5 689" stroke-miterlimit="10" stroke-dasharray="3"/></g><g><path fill="none" stroke="#000000" paint-order="fill stroke markers" d=" M 87 117 L 215 117" stroke-miterlimit="10" stroke-dasharray=""/></g><g><path fill="#000000" stroke="none" paint-order="stroke fill markers" d=" M 204.83732514237585 121.20951775601598 L 215 117 L 204.83732514237585 112.79048224398402"/></g><g><path fill="none" stroke="#000000" paint-order="fill stroke markers" d=" M 204.83732514237585 121.20951775601598 L 215 117 L 204.83732514237585 112.79048224398402 L 204.83732514237585 121.20951775601598" stroke-miterlimit="10" stroke-dasharray=""/></g><g><rect fill="#ffffff" stroke="none" x="173" y="99" width="96.4462890625" height="13" transform="matrix(1 0 0 1 -70 2)"/></g><g><g><path fill="none" stroke="none"/><text fill="#000000" stroke="none" font-family="Arial" font-size="13px" font-style="normal" font-weight="normal" text-decoration="undefined" x="221.22314453125" y="105.5" text-anchor="middle" dominant-baseline="central" transform="matrix(1 0 0 1 -70 2)">1 : 点击删除图标</text></g></g><g><rect fill="#ffffff" stroke="none" x="285" y="115" width="14" height="28" transform="matrix(1 0 0 1 -70 2)"/></g><g><path fill="none" stroke="#000000" paint-order="fill stroke markers" d=" M 215 117 L 229 117 L 229 145 L 215 145 L 215 117 Z Z" stroke-miterlimit="10" stroke-dasharray=""/></g><g><path fill="none" stroke="#000000" paint-order="fill stroke markers" d=" M 229 138 L 259 138 L 259 158 L 229 158" stroke-miterlimit="10" stroke-dasharray=""/></g><g><path fill="#000000" stroke="none" paint-order="stroke fill markers" d=" M 239.16267485762415 153.790482243984 L 229 158 L 239.16267485762415 162.209517756016"/></g><g><path fill="none" stroke="#000000" paint-order="fill stroke markers" d=" M 239.16267485762415 153.790482243984 L 229 158 L 239.16267485762415 162.209517756016 L 239.16267485762415 153.790482243984" stroke-miterlimit="10" stroke-dasharray=""/></g><g><rect fill="#ffffff" stroke="none" x="193" y="139" width="291.4462890625" height="13" transform="matrix(1 0 0 1 -70 2)"/></g><g><g><path fill="none" stroke="none"/><text fill="#000000" stroke="none" font-family="Arial" font-size="13px" font-style="normal" font-weight="normal" text-decoration="undefined" x="338.72314453125" y="145.5" text-anchor="middle" dominant-baseline="central" transform="matrix(1 0 0 1 -70 2)">2 : 获取待修改乘车人的身份证号和当前登录用户名</text></g></g><g><rect fill="#ffffff" stroke="none" x="285" y="156" width="14" height="236" transform="matrix(1 0 0 1 -70 2)"/></g><g><path fill="none" stroke="#000000" paint-order="fill stroke markers" d=" M 215 158 L 229 158 L 229 394 L 215 394 L 215 158 Z Z" stroke-miterlimit="10" stroke-dasharray=""/></g><g><path fill="none" stroke="#000000" paint-order="fill stroke markers" d=" M 229 173 L 448 173" stroke-miterlimit="10" stroke-dasharray=""/></g><g><path fill="#000000" stroke="none" paint-order="stroke fill markers" d=" M 437.83732514237585 177.209517756016 L 448 173 L 437.83732514237585 168.790482243984"/></g><g><path fill="none" stroke="#000000" paint-order="fill stroke markers" d=" M 437.83732514237585 177.209517756016 L 448 173 L 437.83732514237585 168.790482243984 L 437.83732514237585 177.209517756016" stroke-miterlimit="10" stroke-dasharray=""/></g><g><rect fill="#ffffff" stroke="none" x="326" y="155" width="165.55322265625" height="13" transform="matrix(1 0 0 1 -70 2)"/></g><g><g><path fill="none" stroke="none"/><text fill="#000000" stroke="none" font-family="Arial" font-size="13px" font-style="normal" font-weight="normal" text-decoration="undefined" x="408.776611328125" y="161.5" text-anchor="middle" dominant-baseline="central" transform="matrix(1 0 0 1 -70 2)">3 : isPassengerEditable_api</text></g></g><g><rect fill="#ffffff" stroke="none" x="518" y="171" width="14" height="165" transform="matrix(1 0 0 1 -70 2)"/></g><g><path fill="none" stroke="#000000" paint-order="fill stroke markers" d=" M 448 173 L 462 173 L 462 338 L 448 338 L 448 173 Z Z" stroke-miterlimit="10" stroke-dasharray=""/></g><g><path fill="none" stroke="#000000" paint-order="fill stroke markers" d=" M 462 194 L 635 194" stroke-miterlimit="10" stroke-dasharray=""/></g><g><path fill="#000000" stroke="none" paint-order="stroke fill markers" d=" M 624.8373251423759 198.209517756016 L 635 194 L 624.8373251423758 189.790482243984"/></g><g><path fill="none" stroke="#000000" paint-order="fill stroke markers" d=" M 624.8373251423759 198.209517756016 L 635 194 L 624.8373251423758 189.790482243984 L 624.8373251423759 198.209517756016" stroke-miterlimit="10" stroke-dasharray=""/></g><g><rect fill="#ffffff" stroke="none" x="510" y="176" width="217.18505859375" height="13" transform="matrix(1 0 0 1 -70 2)"/></g><g><g><path fill="none" stroke="none"/><text fill="#000000" stroke="none" font-family="Arial" font-size="13px" font-style="normal" font-weight="normal" text-decoration="undefined" x="618.592529296875" y="182.5" text-anchor="middle" dominant-baseline="central" transform="matrix(1 0 0 1 -70 2)">4 : getPassengerByUsernameAndId</text></g></g><g><rect fill="#ffffff" stroke="none" x="705" y="192" width="14" height="32" transform="matrix(1 0 0 1 -70 2)"/></g><g><path fill="none" stroke="#000000" paint-order="fill stroke markers" d=" M 635 194 L 649 194 L 649 226 L 635 226 L 635 194 Z Z" stroke-miterlimit="10" stroke-dasharray=""/></g><g><path fill="none" stroke="#000000" paint-order="fill stroke markers" d=" M 635 218 L 462 218" stroke-miterlimit="10" stroke-dasharray="3"/></g><g><path fill="none" stroke="#000000" paint-order="fill stroke markers" d=" M 472.1626748576241 213.790482243984 L 462 218 L 472.1626748576241 222.209517756016" stroke-miterlimit="10" stroke-dasharray=""/></g><g><rect fill="#ffffff" stroke="none" x="569" y="220" width="96.4462890625" height="13" transform="matrix(1 0 0 1 -70 2)"/></g><g><g><path fill="none" stroke="none"/><text fill="#000000" stroke="none" font-family="Arial" font-size="13px" font-style="normal" font-weight="normal" text-decoration="undefined" x="617.22314453125" y="226.5" text-anchor="middle" dominant-baseline="central" transform="matrix(1 0 0 1 -70 2)">5 : 该乘车人对象</text></g></g><g><path fill="none" stroke="#000000" paint-order="fill stroke markers" d=" M 462 274 L 813 274" stroke-miterlimit="10" stroke-dasharray=""/></g><g><path fill="#000000" stroke="none" paint-order="stroke fill markers" d=" M 802.8373251423759 278.209517756016 L 813 274 L 802.8373251423758 269.790482243984"/></g><g><path fill="none" stroke="#000000" paint-order="fill stroke markers" d=" M 802.8373251423759 278.209517756016 L 813 274 L 802.8373251423758 269.790482243984 L 802.8373251423759 278.209517756016" stroke-miterlimit="10" stroke-dasharray=""/></g><g><rect fill="#ffffff" stroke="none" x="604" y="256" width="206.01953125" height="13" transform="matrix(1 0 0 1 -70 2)"/></g><g><g><path fill="none" stroke="none"/><text fill="#000000" stroke="none" font-family="Arial" font-size="13px" font-style="normal" font-weight="normal" text-decoration="undefined" x="707.009765625" y="262.5" text-anchor="middle" dominant-baseline="central" transform="matrix(1 0 0 1 -70 2)">6 : hasUnusedOrderForPassenger</text></g></g><g><rect fill="#ffffff" stroke="none" x="883" y="272" width="14" height="40" transform="matrix(1 0 0 1 -70 2)"/></g><g><path fill="none" stroke="#000000" paint-order="fill stroke markers" d=" M 813 274 L 827 274 L 827 314 L 813 314 L 813 274 Z Z" stroke-miterlimit="10" stroke-dasharray=""/></g><g><path fill="none" stroke="#000000" paint-order="fill stroke markers" d=" M 813 298 L 462 298" stroke-miterlimit="10" stroke-dasharray="3"/></g><g><path fill="none" stroke="#000000" paint-order="fill stroke markers" d=" M 472.1626748576241 293.790482243984 L 462 298 L 472.1626748576241 302.209517756016" stroke-miterlimit="10" stroke-dasharray=""/></g><g><rect fill="#ffffff" stroke="none" x="626" y="300" width="161.4462890625" height="13" transform="matrix(1 0 0 1 -70 2)"/></g><g><g><path fill="none" stroke="none"/><text fill="#000000" stroke="none" font-family="Arial" font-size="13px" font-style="normal" font-weight="normal" text-decoration="undefined" x="706.72314453125" y="306.5" text-anchor="middle" dominant-baseline="central" transform="matrix(1 0 0 1 -70 2)">7 : 乘车人是否有待乘坐订单</text></g></g><g><path fill="none" stroke="#000000" paint-order="fill stroke markers" d=" M 448 322 L 229 322" stroke-miterlimit="10" stroke-dasharray="3"/></g><g><path fill="none" stroke="#000000" paint-order="fill stroke markers" d=" M 239.16267485762415 317.790482243984 L 229 322 L 239.16267485762415 326.209517756016" stroke-miterlimit="10" stroke-dasharray=""/></g><g><rect fill="#ffffff" stroke="none" x="333" y="324" width="148.4462890625" height="13" transform="matrix(1 0 0 1 -70 2)"/></g><g><g><path fill="none" stroke="none"/><text fill="#000000" stroke="none" font-family="Arial" font-size="13px" font-style="normal" font-weight="normal" text-decoration="undefined" x="407.22314453125" y="330.5" text-anchor="middle" dominant-baseline="central" transform="matrix(1 0 0 1 -70 2)">8 : 该乘车人是否可被删除</text></g></g><g><path fill="none" stroke="#000000" paint-order="fill stroke markers" d=" M 215 351 L 87 351" stroke-miterlimit="10" stroke-dasharray="3"/></g><g><path fill="none" stroke="#000000" paint-order="fill stroke markers" d=" M 97.16267485762415 346.790482243984 L 87 351 L 97.16267485762415 355.209517756016" stroke-miterlimit="10" stroke-dasharray=""/></g><g><rect fill="#ffffff" stroke="none" x="146" y="353" width="148.4462890625" height="13" transform="matrix(1 0 0 1 -70 2)"/></g><g><g><path fill="none" stroke="none"/><text fill="#000000" stroke="none" font-family="Arial" font-size="13px" font-style="normal" font-weight="normal" text-decoration="undefined" x="220.22314453125" y="359.5" text-anchor="middle" dominant-baseline="central" transform="matrix(1 0 0 1 -70 2)">9 : 若不可删除，弹窗提示</text></g></g><g><path fill="none" stroke="#000000" paint-order="fill stroke markers" d=" M 229 386 L 259 386 L 259 406 L 229 406" stroke-miterlimit="10" stroke-dasharray=""/></g><g><path fill="#000000" stroke="none" paint-order="stroke fill markers" d=" M 239.16267485762415 401.790482243984 L 229 406 L 239.16267485762415 410.209517756016"/></g><g><path fill="none" stroke="#000000" paint-order="fill stroke markers" d=" M 239.16267485762415 401.790482243984 L 229 406 L 239.16267485762415 410.209517756016 L 239.16267485762415 401.790482243984" stroke-miterlimit="10" stroke-dasharray=""/></g><g><rect fill="#ffffff" stroke="none" x="228" y="387" width="221.06982421875" height="13" transform="matrix(1 0 0 1 -70 2)"/></g><g><g><path fill="none" stroke="none"/><text fill="#000000" stroke="none" font-family="Arial" font-size="13px" font-style="normal" font-weight="normal" text-decoration="undefined" x="338.534912109375" y="393.5" text-anchor="middle" dominant-baseline="central" transform="matrix(1 0 0 1 -70 2)">10 : 若可删除，弹窗提示用户是否删除</text></g></g><g><rect fill="#ffffff" stroke="none" x="285" y="404" width="14" height="36" transform="matrix(1 0 0 1 -70 2)"/></g><g><path fill="none" stroke="#000000" paint-order="fill stroke markers" d=" M 215 406 L 229 406 L 229 442 L 215 442 L 215 406 Z Z" stroke-miterlimit="10" stroke-dasharray=""/></g><g><path fill="none" stroke="#000000" paint-order="fill stroke markers" d=" M 215 439 L 87 439" stroke-miterlimit="10" stroke-dasharray="3"/></g><g><path fill="none" stroke="#000000" paint-order="fill stroke markers" d=" M 97.16267485762415 434.790482243984 L 87 439 L 97.16267485762415 443.209517756016" stroke-miterlimit="10" stroke-dasharray=""/></g><g><rect fill="#ffffff" stroke="none" x="168" y="441" width="104.06982421875" height="13" transform="matrix(1 0 0 1 -70 2)"/></g><g><g><path fill="none" stroke="none"/><text fill="#000000" stroke="none" font-family="Arial" font-size="13px" font-style="normal" font-weight="normal" text-decoration="undefined" x="220.034912109375" y="447.5" text-anchor="middle" dominant-baseline="central" transform="matrix(1 0 0 1 -70 2)">11 : 显示确认弹窗</text></g></g><g><path fill="none" stroke="#000000" paint-order="fill stroke markers" d=" M 87 505 L 215 505" stroke-miterlimit="10" stroke-dasharray=""/></g><g><path fill="#000000" stroke="none" paint-order="stroke fill markers" d=" M 204.83732514237585 509.209517756016 L 215 505 L 204.83732514237585 500.790482243984"/></g><g><path fill="none" stroke="#000000" paint-order="fill stroke markers" d=" M 204.83732514237585 509.209517756016 L 215 505 L 204.83732514237585 500.790482243984 L 204.83732514237585 509.209517756016" stroke-miterlimit="10" stroke-dasharray=""/></g><g><rect fill="#ffffff" stroke="none" x="179" y="487" width="85.2744140625" height="13" transform="matrix(1 0 0 1 -70 2)"/></g><g><g><path fill="none" stroke="none"/><text fill="#000000" stroke="none" font-family="Arial" font-size="13px" font-style="normal" font-weight="normal" text-decoration="undefined" x="221.63720703125" y="493.5" text-anchor="middle" dominant-baseline="central" transform="matrix(1 0 0 1 -70 2)">12 : 点击确认</text></g></g><g><rect fill="#ffffff" stroke="none" x="285" y="503" width="14" height="185" transform="matrix(1 0 0 1 -70 2)"/></g><g><path fill="none" stroke="#000000" paint-order="fill stroke markers" d=" M 215 505 L 229 505 L 229 690 L 215 690 L 215 505 Z Z" stroke-miterlimit="10" stroke-dasharray=""/></g><g><path fill="none" stroke="#000000" paint-order="fill stroke markers" d=" M 229 514 L 635 514" stroke-miterlimit="10" stroke-dasharray=""/></g><g><path fill="#000000" stroke="none" paint-order="stroke fill markers" d=" M 624.8373251423759 518.209517756016 L 635 514 L 624.8373251423758 509.790482243984"/></g><g><path fill="none" stroke="#000000" paint-order="fill stroke markers" d=" M 624.8373251423759 518.209517756016 L 635 514 L 624.8373251423758 509.790482243984 L 624.8373251423759 518.209517756016" stroke-miterlimit="10" stroke-dasharray=""/></g><g><rect fill="#ffffff" stroke="none" x="426" y="496" width="152.24853515625" height="13" transform="matrix(1 0 0 1 -70 2)"/></g><g><g><path fill="none" stroke="none"/><text fill="#000000" stroke="none" font-family="Arial" font-size="13px" font-style="normal" font-weight="normal" text-decoration="undefined" x="502.124267578125" y="502.5" text-anchor="middle" dominant-baseline="central" transform="matrix(1 0 0 1 -70 2)">13 : deletePassenger_api</text></g></g><g><rect fill="#ffffff" stroke="none" x="705" y="512" width="14" height="32" transform="matrix(1 0 0 1 -70 2)"/></g><g><path fill="none" stroke="#000000" paint-order="fill stroke markers" d=" M 635 514 L 649 514 L 649 546 L 635 546 L 635 514 Z Z" stroke-miterlimit="10" stroke-dasharray=""/></g><g><path fill="none" stroke="#000000" paint-order="fill stroke markers" d=" M 649 530 L 679 530 L 679 550 L 649 550" stroke-miterlimit="10" stroke-dasharray=""/></g><g><path fill="#000000" stroke="none" paint-order="stroke fill markers" d=" M 659.1626748576241 545.790482243984 L 649 550 L 659.1626748576241 554.209517756016"/></g><g><path fill="none" stroke="#000000" paint-order="fill stroke markers" d=" M 659.1626748576241 545.790482243984 L 649 550 L 659.1626748576241 554.209517756016 L 659.1626748576241 545.790482243984" stroke-miterlimit="10" stroke-dasharray=""/></g><g><rect fill="#ffffff" stroke="none" x="648" y="531" width="221.06982421875" height="13" transform="matrix(1 0 0 1 -70 2)"/></g><g><g><path fill="none" stroke="none"/><text fill="#000000" stroke="none" font-family="Arial" font-size="13px" font-style="normal" font-weight="normal" text-decoration="undefined" x="758.534912109375" y="537.5" text-anchor="middle" dominant-baseline="central" transform="matrix(1 0 0 1 -70 2)">14 : 遍历乘车人列表，删除对应乘车人</text></g></g><g><rect fill="#ffffff" stroke="none" x="705" y="548" width="14" height="28" transform="matrix(1 0 0 1 -70 2)"/></g><g><path fill="none" stroke="#000000" paint-order="fill stroke markers" d=" M 635 550 L 649 550 L 649 578 L 635 578 L 635 550 Z Z" stroke-miterlimit="10" stroke-dasharray=""/></g><g><path fill="none" stroke="#000000" paint-order="fill stroke markers" d=" M 635 577 L 229 577" stroke-miterlimit="10" stroke-dasharray="3"/></g><g><path fill="none" stroke="#000000" paint-order="fill stroke markers" d=" M 239.16267485762415 572.790482243984 L 229 577 L 239.16267485762415 581.209517756016" stroke-miterlimit="10" stroke-dasharray=""/></g><g><rect fill="#ffffff" stroke="none" x="443" y="579" width="117.29833984375" height="13" transform="matrix(1 0 0 1 -70 2)"/></g><g><g><path fill="none" stroke="none"/><text fill="#000000" stroke="none" font-family="Arial" font-size="13px" font-style="normal" font-weight="normal" text-decoration="undefined" x="501.649169921875" y="585.5" text-anchor="middle" dominant-baseline="central" transform="matrix(1 0 0 1 -70 2)">15 : 删除成功or失败</text></g></g><g><path fill="none" stroke="#000000" paint-order="fill stroke markers" d=" M 215 610 L 87 610" stroke-miterlimit="10" stroke-dasharray="3"/></g><g><path fill="none" stroke="#000000" paint-order="fill stroke markers" d=" M 97.16267485762415 605.790482243984 L 87 610 L 97.16267485762415 614.209517756016" stroke-miterlimit="10" stroke-dasharray=""/></g><g><rect fill="#ffffff" stroke="none" x="181" y="612" width="78.06982421875" height="13" transform="matrix(1 0 0 1 -70 2)"/></g><g><g><path fill="none" stroke="none"/><text fill="#000000" stroke="none" font-family="Arial" font-size="13px" font-style="normal" font-weight="normal" text-decoration="undefined" x="220.034912109375" y="618.5" text-anchor="middle" dominant-baseline="central" transform="matrix(1 0 0 1 -70 2)">16 : 弹窗回复</text></g></g><g><path fill="none" stroke="#000000" paint-order="fill stroke markers" d=" M 229 635 L 635 635" stroke-miterlimit="10" stroke-dasharray=""/></g><g><path fill="#000000" stroke="none" paint-order="stroke fill markers" d=" M 624.8373251423759 639.209517756016 L 635 635 L 624.8373251423758 630.790482243984"/></g><g><path fill="none" stroke="#000000" paint-order="fill stroke markers" d=" M 624.8373251423759 639.209517756016 L 635 635 L 624.8373251423758 630.790482243984 L 624.8373251423759 639.209517756016" stroke-miterlimit="10" stroke-dasharray=""/></g><g><rect fill="#ffffff" stroke="none" x="393" y="617" width="218.08642578125" height="13" transform="matrix(1 0 0 1 -70 2)"/></g><g><g><path fill="none" stroke="none"/><text fill="#000000" stroke="none" font-family="Arial" font-size="13px" font-style="normal" font-weight="normal" text-decoration="undefined" x="502.043212890625" y="623.5" text-anchor="middle" dominant-baseline="central" transform="matrix(1 0 0 1 -70 2)">17 : getPassengersByUsername_api</text></g></g><g><rect fill="#ffffff" stroke="none" x="705" y="633" width="14" height="28" transform="matrix(1 0 0 1 -70 2)"/></g><g><path fill="none" stroke="#000000" paint-order="fill stroke markers" d=" M 635 635 L 649 635 L 649 663 L 635 663 L 635 635 Z Z" stroke-miterlimit="10" stroke-dasharray=""/></g><g><path fill="none" stroke="#000000" paint-order="fill stroke markers" d=" M 635 658 L 229 658" stroke-miterlimit="10" stroke-dasharray="3"/></g><g><path fill="none" stroke="#000000" paint-order="fill stroke markers" d=" M 239.16267485762415 653.790482243984 L 229 658 L 239.16267485762415 662.209517756016" stroke-miterlimit="10" stroke-dasharray=""/></g><g><rect fill="#ffffff" stroke="none" x="436" y="660" width="130.06982421875" height="13" transform="matrix(1 0 0 1 -70 2)"/></g><g><g><path fill="none" stroke="none"/><text fill="#000000" stroke="none" font-family="Arial" font-size="13px" font-style="normal" font-weight="normal" text-decoration="undefined" x="501.034912109375" y="666.5" text-anchor="middle" dominant-baseline="central" transform="matrix(1 0 0 1 -70 2)">18 : 最新的乘车人列表</text></g></g><g><path fill="none" stroke="#000000" paint-order="fill stroke markers" d=" M 229 674 L 259 674 L 259 694 L 229 694" stroke-miterlimit="10" stroke-dasharray=""/></g><g><path fill="#000000" stroke="none" paint-order="stroke fill markers" d=" M 239.16267485762415 689.790482243984 L 229 694 L 239.16267485762415 698.209517756016"/></g><g><path fill="none" stroke="#000000" paint-order="fill stroke markers" d=" M 239.16267485762415 689.790482243984 L 229 694 L 239.16267485762415 698.209517756016 L 239.16267485762415 689.790482243984" stroke-miterlimit="10" stroke-dasharray=""/></g><g><rect fill="#ffffff" stroke="none" x="260" y="675" width="156.06982421875" height="13" transform="matrix(1 0 0 1 -70 2)"/></g><g><g><path fill="none" stroke="none"/><text fill="#000000" stroke="none" font-family="Arial" font-size="13px" font-style="normal" font-weight="normal" text-decoration="undefined" x="338.034912109375" y="681.5" text-anchor="middle" dominant-baseline="central" transform="matrix(1 0 0 1 -70 2)">19 : 根据搜索条件进行过滤</text></g></g><g><rect fill="#ffffff" stroke="none" x="285" y="692" width="14" height="28" transform="matrix(1 0 0 1 -70 2)"/></g><g><path fill="none" stroke="#000000" paint-order="fill stroke markers" d=" M 215 694 L 229 694 L 229 722 L 215 722 L 215 694 Z Z" stroke-miterlimit="10" stroke-dasharray=""/></g><g><path fill="none" stroke="#000000" paint-order="fill stroke markers" d=" M 215 709 L 87 709" stroke-miterlimit="10" stroke-dasharray="3"/></g><g><path fill="none" stroke="#000000" paint-order="fill stroke markers" d=" M 97.16267485762415 704.790482243984 L 87 709 L 97.16267485762415 713.209517756016" stroke-miterlimit="10" stroke-dasharray=""/></g><g><rect fill="#ffffff" stroke="none" x="136" y="711" width="169.06982421875" height="13" transform="matrix(1 0 0 1 -70 2)"/></g><g><g><path fill="none" stroke="none"/><text fill="#000000" stroke="none" font-family="Arial" font-size="13px" font-style="normal" font-weight="normal" text-decoration="undefined" x="220.534912109375" y="717.5" text-anchor="middle" dominant-baseline="central" transform="matrix(1 0 0 1 -70 2)">20 : 显示更新后的乘车人列表</text></g></g></g></svg>