<svg version="1.1" xmlns="http://www.w3.org/2000/svg" xmlns:xlink="http://www.w3.org/1999/xlink" width="956" height="741"><defs/><g><g><path fill="none" stroke="#000000" paint-order="fill stroke markers" d=" M 10 66 L 946 66 L 946 730 L 10 730 L 10 66" stroke-miterlimit="10" stroke-dasharray=""/></g><g><path fill="#ffffff" stroke="none" paint-order="stroke fill markers" d=" M 10 66 L 10 89 L 135.05908203125 89 L 146.55908203125 77.5 L 146.55908203125 66 L 10 66"/></g><g><path fill="none" stroke="#000000" paint-order="fill stroke markers" d=" M 10 66 L 10 89 L 135.05908203125 89 L 146.55908203125 77.5 L 146.55908203125 66 L 10 66 L 10 66" stroke-miterlimit="10" stroke-dasharray=""/></g><g><g><path fill="none" stroke="none"/><text fill="#000000" stroke="none" font-family="Arial" font-size="13px" font-style="normal" font-weight="normal" text-decoration="undefined" x="288.39453125" y="107.5" text-anchor="middle" dominant-baseline="central" transform="matrix(1 0 0 1 -206 -30)">顺序图-查询余票</text></g></g><g><g><path fill="none" stroke="none"/><text fill="#000000" stroke="none" font-family="Arial" font-size="13px" font-style="normal" font-weight="bold" text-decoration="undefined" x="227.864990234375" y="107.5" text-anchor="middle" dominant-baseline="central" transform="matrix(1 0 0 1 -206 -30)">sd</text></g></g><g><rect fill="#C0C0C0" stroke="none" x="279" y="47" width="72.736328125" height="40" transform="matrix(1 0 0 1 -206 -30)" fill-opacity="0.2"/></g><g><rect fill="#ffffff" stroke="none" x="272" y="40" width="72.736328125" height="40" transform="matrix(1 0 0 1 -206 -30)"/></g><g><path fill="none" stroke="#000000" paint-order="fill stroke markers" d=" M 66 10 L 138.736328125 10 L 138.736328125 50 L 66 50 L 66 10 Z Z" stroke-miterlimit="10" stroke-dasharray=""/></g><g><g><path fill="none" stroke="none"/><text fill="#000000" stroke="none" font-family="Arial" font-size="13px" font-style="normal" font-weight="bold" text-decoration="undefined" x="308.8681640625" y="53.5" text-anchor="middle" dominant-baseline="central" transform="matrix(1 0 0 1 -206 -30)">用户</text></g></g><g><path fill="none" stroke="#000000" paint-order="fill stroke markers" d=" M 102.5 51 L 102.5 713" stroke-miterlimit="10" stroke-dasharray="3"/></g><g><rect fill="#C0C0C0" stroke="none" x="431" y="47" width="72.736328125" height="40" transform="matrix(1 0 0 1 -206 -30)" fill-opacity="0.2"/></g><g><rect fill="#ffffff" stroke="none" x="424" y="40" width="72.736328125" height="40" transform="matrix(1 0 0 1 -206 -30)"/></g><g><path fill="none" stroke="#000000" paint-order="fill stroke markers" d=" M 218 10 L 290.736328125 10 L 290.736328125 50 L 218 50 L 218 10 Z Z" stroke-miterlimit="10" stroke-dasharray=""/></g><g><g><path fill="none" stroke="none"/><text fill="#000000" stroke="none" font-family="Arial" font-size="13px" font-style="normal" font-weight="bold" text-decoration="undefined" x="460.8681640625" y="53.5" text-anchor="middle" dominant-baseline="central" transform="matrix(1 0 0 1 -206 -30)">前端</text></g></g><g><path fill="none" stroke="#000000" paint-order="fill stroke markers" d=" M 254.5 51 L 254.5 731" stroke-miterlimit="10" stroke-dasharray="3"/></g><g><rect fill="#C0C0C0" stroke="none" x="583" y="47" width="121.64501953125" height="40" transform="matrix(1 0 0 1 -206 -30)" fill-opacity="0.2"/></g><g><rect fill="#ffffff" stroke="none" x="576" y="40" width="121.64501953125" height="40" transform="matrix(1 0 0 1 -206 -30)"/></g><g><path fill="none" stroke="#000000" paint-order="fill stroke markers" d=" M 370 10 L 491.64501953125 10 L 491.64501953125 50 L 370 50 L 370 10 Z Z" stroke-miterlimit="10" stroke-dasharray=""/></g><g><g><path fill="none" stroke="none"/><text fill="#000000" stroke="none" font-family="Arial" font-size="13px" font-style="normal" font-weight="bold" text-decoration="undefined" x="637.322509765625" y="53.5" text-anchor="middle" dominant-baseline="central" transform="matrix(1 0 0 1 -206 -30)">BookingSystem</text></g></g><g><path fill="none" stroke="#000000" paint-order="fill stroke markers" d=" M 431.5 51 L 431.5 731" stroke-miterlimit="10" stroke-dasharray="3"/></g><g><rect fill="#C0C0C0" stroke="none" x="815" y="47" width="110.873046875" height="40" transform="matrix(1 0 0 1 -206 -30)" fill-opacity="0.2"/></g><g><rect fill="#ffffff" stroke="none" x="808" y="40" width="110.873046875" height="40" transform="matrix(1 0 0 1 -206 -30)"/></g><g><path fill="none" stroke="#000000" paint-order="fill stroke markers" d=" M 602 10 L 712.873046875 10 L 712.873046875 50 L 602 50 L 602 10 Z Z" stroke-miterlimit="10" stroke-dasharray=""/></g><g><g><path fill="none" stroke="none"/><text fill="#000000" stroke="none" font-family="Arial" font-size="13px" font-style="normal" font-weight="bold" text-decoration="undefined" x="863.9365234375" y="53.5" text-anchor="middle" dominant-baseline="central" transform="matrix(1 0 0 1 -206 -30)">TrainManager</text></g></g><g><path fill="none" stroke="#000000" paint-order="fill stroke markers" d=" M 657.5 51 L 657.5 426" stroke-miterlimit="10" stroke-dasharray="3"/></g><g><rect fill="#C0C0C0" stroke="none" x="1023" y="47" width="116.32568359375" height="40" transform="matrix(1 0 0 1 -206 -30)" fill-opacity="0.2"/></g><g><rect fill="#ffffff" stroke="none" x="1016" y="40" width="116.32568359375" height="40" transform="matrix(1 0 0 1 -206 -30)"/></g><g><path fill="none" stroke="#000000" paint-order="fill stroke markers" d=" M 810 10 L 926.32568359375 10 L 926.32568359375 50 L 810 50 L 810 10 Z Z" stroke-miterlimit="10" stroke-dasharray=""/></g><g><g><path fill="none" stroke="none"/><text fill="#000000" stroke="none" font-family="Arial" font-size="13px" font-style="normal" font-weight="bold" text-decoration="undefined" x="1074.662841796875" y="53.5" text-anchor="middle" dominant-baseline="central" transform="matrix(1 0 0 1 -206 -30)">OrderManager</text></g></g><g><path fill="none" stroke="#000000" paint-order="fill stroke markers" d=" M 868.5 51 L 868.5 410" stroke-miterlimit="10" stroke-dasharray="3"/></g><g><path fill="none" stroke="#000000" paint-order="fill stroke markers" d=" M 103 210 L 247 210" stroke-miterlimit="10" stroke-dasharray=""/></g><g><path fill="#000000" stroke="none" paint-order="stroke fill markers" d=" M 236.83732514237585 214.209517756016 L 247 210 L 236.83732514237585 205.790482243984"/></g><g><path fill="none" stroke="#000000" paint-order="fill stroke markers" d=" M 236.83732514237585 214.209517756016 L 247 210 L 236.83732514237585 205.790482243984 L 236.83732514237585 214.209517756016" stroke-miterlimit="10" stroke-dasharray=""/></g><g><rect fill="#ffffff" stroke="none" x="342" y="224" width="78.04443359375" height="13" transform="matrix(1 0 0 1 -206 -30)"/></g><g><g><path fill="none" stroke="none"/><text fill="#000000" stroke="none" font-family="Arial" font-size="13px" font-style="normal" font-weight="normal" text-decoration="undefined" x="381.022216796875" y="230.5" text-anchor="middle" dominant-baseline="central" transform="matrix(1 0 0 1 -206 -30)">1 : 点击查询</text></g></g><g><rect fill="#ffffff" stroke="none" x="453" y="240" width="14" height="488" transform="matrix(1 0 0 1 -206 -30)"/></g><g><path fill="none" stroke="#000000" paint-order="fill stroke markers" d=" M 247 210 L 261 210 L 261 698 L 247 698 L 247 210 Z Z" stroke-miterlimit="10" stroke-dasharray=""/></g><g><path fill="none" stroke="#000000" paint-order="fill stroke markers" d=" M 261 226 L 424 226" stroke-miterlimit="10" stroke-dasharray=""/></g><g><path fill="#000000" stroke="none" paint-order="stroke fill markers" d=" M 413.8373251423759 230.209517756016 L 424 226 L 413.8373251423758 221.790482243984"/></g><g><path fill="none" stroke="#000000" paint-order="fill stroke markers" d=" M 413.8373251423759 230.209517756016 L 424 226 L 413.8373251423758 221.790482243984 L 413.8373251423759 230.209517756016" stroke-miterlimit="10" stroke-dasharray=""/></g><g><rect fill="#ffffff" stroke="none" x="488" y="240" width="121.798828125" height="13" transform="matrix(1 0 0 1 -206 -30)"/></g><g><g><path fill="none" stroke="none"/><text fill="#000000" stroke="none" font-family="Arial" font-size="13px" font-style="normal" font-weight="normal" text-decoration="undefined" x="548.8994140625" y="246.5" text-anchor="middle" dominant-baseline="central" transform="matrix(1 0 0 1 -206 -30)">2 : queryTickets_api</text></g></g><g><rect fill="#ffffff" stroke="none" x="630" y="256" width="14" height="491" transform="matrix(1 0 0 1 -206 -30)"/></g><g><path fill="none" stroke="#000000" paint-order="fill stroke markers" d=" M 424 226 L 438 226 L 438 717 L 424 717 L 424 226 Z Z" stroke-miterlimit="10" stroke-dasharray=""/></g><g><path fill="none" stroke="#000000" paint-order="fill stroke markers" d=" M 438 242 L 650 242" stroke-miterlimit="10" stroke-dasharray=""/></g><g><path fill="#000000" stroke="none" paint-order="stroke fill markers" d=" M 639.8373251423759 246.209517756016 L 650 242 L 639.8373251423758 237.790482243984"/></g><g><path fill="none" stroke="#000000" paint-order="fill stroke markers" d=" M 639.8373251423759 246.209517756016 L 650 242 L 639.8373251423758 237.790482243984 L 639.8373251423759 246.209517756016" stroke-miterlimit="10" stroke-dasharray=""/></g><g><rect fill="#ffffff" stroke="none" x="685" y="256" width="130.35546875" height="13" transform="matrix(1 0 0 1 -206 -30)"/></g><g><g><path fill="none" stroke="none"/><text fill="#000000" stroke="none" font-family="Arial" font-size="13px" font-style="normal" font-weight="normal" text-decoration="undefined" x="750.177734375" y="262.5" text-anchor="middle" dominant-baseline="central" transform="matrix(1 0 0 1 -206 -30)">3 : getRoutesByCities</text></g></g><g><rect fill="#ffffff" stroke="none" x="856" y="272" width="14" height="32" transform="matrix(1 0 0 1 -206 -30)"/></g><g><path fill="none" stroke="#000000" paint-order="fill stroke markers" d=" M 650 242 L 664 242 L 664 274 L 650 274 L 650 242 Z Z" stroke-miterlimit="10" stroke-dasharray=""/></g><g><path fill="none" stroke="#000000" paint-order="fill stroke markers" d=" M 650 266 L 438 266" stroke-miterlimit="10" stroke-dasharray="3"/></g><g><path fill="none" stroke="#000000" paint-order="fill stroke markers" d=" M 448.1626748576241 261.790482243984 L 438 266 L 448.1626748576241 270.209517756016" stroke-miterlimit="10" stroke-dasharray=""/></g><g><rect fill="#ffffff" stroke="none" x="649" y="300" width="200.4462890625" height="13" transform="matrix(1 0 0 1 -206 -30)"/></g><g><g><path fill="none" stroke="none"/><text fill="#000000" stroke="none" font-family="Arial" font-size="13px" font-style="normal" font-weight="normal" text-decoration="undefined" x="749.22314453125" y="306.5" text-anchor="middle" dominant-baseline="central" transform="matrix(1 0 0 1 -206 -30)">4 : 满足条件的所有车次和车站安排</text></g></g><g><path fill="none" stroke="#000000" paint-order="fill stroke markers" d=" M 438 330 L 861 330" stroke-miterlimit="10" stroke-dasharray=""/></g><g><path fill="#000000" stroke="none" paint-order="stroke fill markers" d=" M 850.8373251423759 334.209517756016 L 861 330 L 850.8373251423759 325.790482243984"/></g><g><path fill="none" stroke="#000000" paint-order="fill stroke markers" d=" M 850.8373251423759 334.209517756016 L 861 330 L 850.8373251423759 325.790482243984 L 850.8373251423759 334.209517756016" stroke-miterlimit="10" stroke-dasharray=""/></g><g><rect fill="#ffffff" stroke="none" x="706" y="344" width="298.94921875" height="13" transform="matrix(1 0 0 1 -206 -30)"/></g><g><g><path fill="none" stroke="none"/><text fill="#000000" stroke="none" font-family="Arial" font-size="13px" font-style="normal" font-weight="normal" text-decoration="undefined" x="855.474609375" y="350.5" text-anchor="middle" dominant-baseline="central" transform="matrix(1 0 0 1 -206 -30)">5 : getOrdersUnusedAndOverlapByTrainNumber</text></g></g><g><rect fill="#ffffff" stroke="none" x="1067" y="360" width="14" height="28" transform="matrix(1 0 0 1 -206 -30)"/></g><g><path fill="none" stroke="#000000" paint-order="fill stroke markers" d=" M 861 330 L 875 330 L 875 358 L 861 358 L 861 330 Z Z" stroke-miterlimit="10" stroke-dasharray=""/></g><g><path fill="none" stroke="#000000" paint-order="fill stroke markers" d=" M 861 349 L 438 349" stroke-miterlimit="10" stroke-dasharray="3"/></g><g><path fill="none" stroke="#000000" paint-order="fill stroke markers" d=" M 448.1626748576241 344.790482243984 L 438 349 L 448.1626748576241 353.209517756016" stroke-miterlimit="10" stroke-dasharray=""/></g><g><rect fill="#ffffff" stroke="none" x="774" y="383" width="161.4462890625" height="13" transform="matrix(1 0 0 1 -206 -30)"/></g><g><g><path fill="none" stroke="none"/><text fill="#000000" stroke="none" font-family="Arial" font-size="13px" font-style="normal" font-weight="normal" text-decoration="undefined" x="854.72314453125" y="389.5" text-anchor="middle" dominant-baseline="central" transform="matrix(1 0 0 1 -206 -30)">6 : 与该安排重叠的所有订单</text></g></g><g><path fill="none" stroke="#000000" paint-order="fill stroke markers" d=" M 438 418 L 468 418 L 468 438 L 445 438" stroke-miterlimit="10" stroke-dasharray=""/></g><g><path fill="#000000" stroke="none" paint-order="stroke fill markers" d=" M 455.1626748576241 433.790482243984 L 445 438 L 455.1626748576241 442.209517756016"/></g><g><path fill="none" stroke="#000000" paint-order="fill stroke markers" d=" M 455.1626748576241 433.790482243984 L 445 438 L 455.1626748576241 442.209517756016 L 455.1626748576241 433.790482243984" stroke-miterlimit="10" stroke-dasharray=""/></g><g><rect fill="#ffffff" stroke="none" x="518" y="451" width="330.4462890625" height="13" transform="matrix(1 0 0 1 -206 -30)"/></g><g><g><path fill="none" stroke="none"/><text fill="#000000" stroke="none" font-family="Arial" font-size="13px" font-style="normal" font-weight="normal" text-decoration="undefined" x="683.22314453125" y="457.5" text-anchor="middle" dominant-baseline="central" transform="matrix(1 0 0 1 -206 -30)">7 : 判断座位等级，并减少该安排对应座位等级的余票数量</text></g></g><g><rect fill="#ffffff" stroke="none" x="637" y="468" width="14" height="28" transform="matrix(1 0 0 1 -206 -30)"/></g><g><path fill="none" stroke="#000000" paint-order="fill stroke markers" d=" M 431 438 L 445 438 L 445 466 L 431 466 L 431 438 Z Z" stroke-miterlimit="10" stroke-dasharray=""/></g><g><path fill="none" stroke="#000000" paint-order="fill stroke markers" d=" M 438 506 L 468 506 L 468 526 L 445 526" stroke-miterlimit="10" stroke-dasharray=""/></g><g><path fill="#000000" stroke="none" paint-order="stroke fill markers" d=" M 455.1626748576241 521.790482243984 L 445 526 L 455.1626748576241 530.209517756016"/></g><g><path fill="none" stroke="#000000" paint-order="fill stroke markers" d=" M 455.1626748576241 521.790482243984 L 445 526 L 455.1626748576241 530.209517756016 L 455.1626748576241 521.790482243984" stroke-miterlimit="10" stroke-dasharray=""/></g><g><rect fill="#ffffff" stroke="none" x="644" y="539" width="78.04443359375" height="13" transform="matrix(1 0 0 1 -206 -30)"/></g><g><g><path fill="none" stroke="none"/><text fill="#000000" stroke="none" font-family="Arial" font-size="13px" font-style="normal" font-weight="normal" text-decoration="undefined" x="683.022216796875" y="545.5" text-anchor="middle" dominant-baseline="central" transform="matrix(1 0 0 1 -206 -30)">8 : 计算历时</text></g></g><g><rect fill="#ffffff" stroke="none" x="637" y="556" width="14" height="28" transform="matrix(1 0 0 1 -206 -30)"/></g><g><path fill="none" stroke="#000000" paint-order="fill stroke markers" d=" M 431 526 L 445 526 L 445 554 L 431 554 L 431 526 Z Z" stroke-miterlimit="10" stroke-dasharray=""/></g><g><path fill="none" stroke="#000000" paint-order="fill stroke markers" d=" M 438 570 L 468 570 L 468 590 L 445 590" stroke-miterlimit="10" stroke-dasharray=""/></g><g><path fill="#000000" stroke="none" paint-order="stroke fill markers" d=" M 455.1626748576241 585.790482243984 L 445 590 L 455.1626748576241 594.209517756016"/></g><g><path fill="none" stroke="#000000" paint-order="fill stroke markers" d=" M 455.1626748576241 585.790482243984 L 445 590 L 455.1626748576241 594.209517756016 L 455.1626748576241 585.790482243984" stroke-miterlimit="10" stroke-dasharray=""/></g><g><rect fill="#ffffff" stroke="none" x="644" y="603" width="78.04443359375" height="13" transform="matrix(1 0 0 1 -206 -30)"/></g><g><g><path fill="none" stroke="none"/><text fill="#000000" stroke="none" font-family="Arial" font-size="13px" font-style="normal" font-weight="normal" text-decoration="undefined" x="683.022216796875" y="609.5" text-anchor="middle" dominant-baseline="central" transform="matrix(1 0 0 1 -206 -30)">9 : 计算票价</text></g></g><g><rect fill="#ffffff" stroke="none" x="637" y="620" width="14" height="28" transform="matrix(1 0 0 1 -206 -30)"/></g><g><path fill="none" stroke="#000000" paint-order="fill stroke markers" d=" M 431 590 L 445 590 L 445 618 L 431 618 L 431 590 Z Z" stroke-miterlimit="10" stroke-dasharray=""/></g><g><path fill="none" stroke="#000000" paint-order="fill stroke markers" d=" M 247 632 L 103 632" stroke-miterlimit="10" stroke-dasharray="3"/></g><g><path fill="none" stroke="#000000" paint-order="fill stroke markers" d=" M 113.16267485762415 627.790482243984 L 103 632 L 113.16267485762415 636.209517756016" stroke-miterlimit="10" stroke-dasharray=""/></g><g><rect fill="#ffffff" stroke="none" x="328" y="666" width="104.06982421875" height="13" transform="matrix(1 0 0 1 -206 -30)"/></g><g><g><path fill="none" stroke="none"/><text fill="#000000" stroke="none" font-family="Arial" font-size="13px" font-style="normal" font-weight="normal" text-decoration="undefined" x="380.034912109375" y="672.5" text-anchor="middle" dominant-baseline="central" transform="matrix(1 0 0 1 -206 -30)">10 : 显示所有余票</text></g></g><g><path fill="none" stroke="#000000" paint-order="fill stroke markers" d=" M 424 632 L 261 632" stroke-miterlimit="10" stroke-dasharray="3"/></g><g><path fill="none" stroke="#000000" paint-order="fill stroke markers" d=" M 271.16267485762415 627.790482243984 L 261 632 L 271.16267485762415 636.209517756016" stroke-miterlimit="10" stroke-dasharray=""/></g><g><rect fill="#ffffff" stroke="none" x="482" y="666" width="130.06982421875" height="13" transform="matrix(1 0 0 1 -206 -30)"/></g><g><g><path fill="none" stroke="none"/><text fill="#000000" stroke="none" font-family="Arial" font-size="13px" font-style="normal" font-weight="normal" text-decoration="undefined" x="547.034912109375" y="672.5" text-anchor="middle" dominant-baseline="central" transform="matrix(1 0 0 1 -206 -30)">11 : 返回有余票的安排</text></g></g><g><path fill="none" stroke="#000000" paint-order="fill stroke markers" d=" M 386 290 L 882 290 L 882 642 L 386 642 L 386 290" stroke-miterlimit="10" stroke-dasharray=""/></g><g><path fill="#ffffff" stroke="none" paint-order="stroke fill markers" d=" M 386 290 L 386 313 L 500.9599609375 313 L 512.4599609375 301.5 L 512.4599609375 290 L 386 290"/></g><g><path fill="none" stroke="#000000" paint-order="fill stroke markers" d=" M 386 290 L 386 313 L 500.9599609375 313 L 512.4599609375 301.5 L 512.4599609375 290 L 386 290 L 386 290" stroke-miterlimit="10" stroke-dasharray=""/></g><g><g><path fill="none" stroke="none"/><text fill="#000000" stroke="none" font-family="Arial" font-size="13px" font-style="normal" font-weight="normal" text-decoration="undefined" x="662.9599609375" y="331.5" text-anchor="middle" dominant-baseline="central" transform="matrix(1 0 0 1 -206 -30)">对于每个安排</text></g></g><g><g><path fill="none" stroke="none"/><text fill="#000000" stroke="none" font-family="Arial" font-size="13px" font-style="normal" font-weight="bold" text-decoration="undefined" x="607.47998046875" y="331.5" text-anchor="middle" dominant-baseline="central" transform="matrix(1 0 0 1 -206 -30)">seq</text></g></g><g><path fill="none" stroke="#000000" paint-order="fill stroke markers" d=" M 394 370 L 626 370 L 626 490 L 394 490 L 394 370" stroke-miterlimit="10" stroke-dasharray=""/></g><g><path fill="#ffffff" stroke="none" paint-order="stroke fill markers" d=" M 394 370 L 394 393 L 534.9599609375 393 L 546.4599609375 381.5 L 546.4599609375 370 L 394 370"/></g><g><path fill="none" stroke="#000000" paint-order="fill stroke markers" d=" M 394 370 L 394 393 L 534.9599609375 393 L 546.4599609375 381.5 L 546.4599609375 370 L 394 370 L 394 370" stroke-miterlimit="10" stroke-dasharray=""/></g><g><g><path fill="none" stroke="none"/><text fill="#000000" stroke="none" font-family="Arial" font-size="13px" font-style="normal" font-weight="normal" text-decoration="undefined" x="683.9599609375" y="411.5" text-anchor="middle" dominant-baseline="central" transform="matrix(1 0 0 1 -206 -30)">对于每个重叠订单</text></g></g><g><g><path fill="none" stroke="none"/><text fill="#000000" stroke="none" font-family="Arial" font-size="13px" font-style="normal" font-weight="bold" text-decoration="undefined" x="615.47998046875" y="411.5" text-anchor="middle" dominant-baseline="central" transform="matrix(1 0 0 1 -206 -30)">seq</text></g></g></g></svg>