<svg version="1.1" xmlns="http://www.w3.org/2000/svg" xmlns:xlink="http://www.w3.org/1999/xlink" width="721.44091796875" height="346"><defs/><g><g><rect fill="#C0C0C0" stroke="none" x="167" y="263" width="700.44091796875" height="326" transform="matrix(1 0 0 1 -150 -246)" fill-opacity="0.2"/></g><g><rect fill="#ffffff" stroke="none" x="160" y="256" width="700.44091796875" height="326" transform="matrix(1 0 0 1 -150 -246)"/></g><g><path fill="none" stroke="#000000" paint-order="fill stroke markers" d=" M 10 10 L 710.44091796875 10 L 710.44091796875 336 L 10 336 L 10 10 Z Z" stroke-miterlimit="10" stroke-dasharray=""/></g><g><path fill="none" stroke="#000000" paint-order="fill stroke markers" d=" M 10 35 L 710.44091796875 35" stroke-miterlimit="10" stroke-dasharray=""/></g><g><path fill="none" stroke="#000000" paint-order="fill stroke markers" d=" M 10 148 L 710.44091796875 148" stroke-miterlimit="10" stroke-dasharray=""/></g><g><g><path fill="none" stroke="none"/><text fill="#000000" stroke="none" font-family="Arial" font-size="13px" font-style="normal" font-weight="bold" text-decoration="undefined" x="510.720458984375" y="269.5" text-anchor="middle" dominant-baseline="central" transform="matrix(1 0 0 1 -150 -246)">BookingSystem</text></g></g><g><g><path fill="none" stroke="none"/><text fill="#000000" stroke="none" font-family="Arial" font-size="13px" font-style="normal" font-weight="normal" text-decoration="undefined" x="165" y="292.5" text-anchor="start" dominant-baseline="central" transform="matrix(1 0 0 1 -150 -246)">-station_manager: StationManager* = nullptr</text></g></g><g><g><path fill="none" stroke="none"/><text fill="#000000" stroke="none" font-family="Arial" font-size="13px" font-style="normal" font-weight="normal" text-decoration="undefined" x="165" y="307.5" text-anchor="start" dominant-baseline="central" transform="matrix(1 0 0 1 -150 -246)">-order_manager: OrderManager* = nullptr</text></g></g><g><g><path fill="none" stroke="none"/><text fill="#000000" stroke="none" font-family="Arial" font-size="13px" font-style="normal" font-weight="normal" text-decoration="undefined" x="165" y="322.5" text-anchor="start" dominant-baseline="central" transform="matrix(1 0 0 1 -150 -246)">-train_manager: TrainManager* = nullptr</text></g></g><g><g><path fill="none" stroke="none"/><text fill="#000000" stroke="none" font-family="Arial" font-size="13px" font-style="normal" font-weight="normal" text-decoration="undefined" x="165" y="337.5" text-anchor="start" dominant-baseline="central" transform="matrix(1 0 0 1 -150 -246)">-account_manager: AccountManager* = nullptr</text></g></g><g><g><path fill="none" stroke="none"/><text fill="#000000" stroke="none" font-family="Arial" font-size="13px" font-style="normal" font-weight="normal" text-decoration="undefined" x="165" y="352.5" text-anchor="start" dominant-baseline="central" transform="matrix(1 0 0 1 -150 -246)">-passenger_manager: PassengerManager* = nullptr</text></g></g><g><g><path fill="none" stroke="none"/><text fill="#000000" stroke="none" font-family="Arial" font-size="13px" font-style="normal" font-weight="normal" text-decoration="undefined" x="165" y="367.5" text-anchor="start" dominant-baseline="central" transform="matrix(1 0 0 1 -150 -246)">-today: Date = nullptr</text></g></g><g><g><path fill="none" stroke="none"/><text fill="#000000" stroke="none" font-family="Arial" font-size="13px" font-style="normal" font-weight="normal" text-decoration="undefined" x="165" y="382.5" text-anchor="start" dominant-baseline="central" transform="matrix(1 0 0 1 -150 -246)">-query_history: queue&lt;tuple&lt;City, City&gt;&gt;</text></g></g><g><g><path fill="none" stroke="none"/><text fill="#000000" stroke="none" font-family="Arial" font-size="13px" font-style="normal" font-weight="normal" text-decoration="undefined" x="165" y="405.5" text-anchor="start" dominant-baseline="central" transform="matrix(1 0 0 1 -150 -246)">+getQueryHistory_api()</text></g></g><g><g><path fill="none" stroke="none"/><text fill="#000000" stroke="none" font-family="Arial" font-size="13px" font-style="normal" font-weight="normal" text-decoration="undefined" x="165" y="420.5" text-anchor="start" dominant-baseline="central" transform="matrix(1 0 0 1 -150 -246)">+addQueryHistory_api(startCityName: const QString&amp;, endCityName: const QString&amp;)</text></g></g><g><g><path fill="none" stroke="none"/><text fill="#000000" stroke="none" font-family="Arial" font-size="13px" font-style="normal" font-weight="normal" text-decoration="undefined" x="165" y="435.5" text-anchor="start" dominant-baseline="central" transform="matrix(1 0 0 1 -150 -246)">+clearQueryHistory_api()</text></g></g><g><g><path fill="none" stroke="none"/><text fill="#000000" stroke="none" font-family="Arial" font-size="13px" font-style="normal" font-weight="normal" text-decoration="undefined" x="165" y="450.5" text-anchor="start" dominant-baseline="central" transform="matrix(1 0 0 1 -150 -246)">+queryTickets_api(startCityName: const QString&amp;, endCityName: const QString&amp;, year: int, month: int, day: int)</text></g></g><g><g><path fill="none" stroke="none"/><text fill="#000000" stroke="none" font-family="Arial" font-size="13px" font-style="normal" font-weight="normal" text-decoration="undefined" x="165" y="465.5" text-anchor="start" dominant-baseline="central" transform="matrix(1 0 0 1 -150 -246)">+getPassengers_api(info: const QVariantMap&amp;)</text></g></g><g><g><path fill="none" stroke="none"/><text fill="#000000" stroke="none" font-family="Arial" font-size="13px" font-style="normal" font-weight="normal" text-decoration="undefined" x="165" y="480.5" text-anchor="start" dominant-baseline="central" transform="matrix(1 0 0 1 -150 -246)">+createOrder_api(info: const QVariantMap&amp;)</text></g></g><g><g><path fill="none" stroke="none"/><text fill="#000000" stroke="none" font-family="Arial" font-size="13px" font-style="normal" font-weight="normal" text-decoration="undefined" x="165" y="495.5" text-anchor="start" dominant-baseline="central" transform="matrix(1 0 0 1 -150 -246)">+isPassengerEditable_api(info: const QVariantMap&amp;)</text></g></g><g><g><path fill="none" stroke="none"/><text fill="#000000" stroke="none" font-family="Arial" font-size="13px" font-style="normal" font-weight="normal" text-decoration="undefined" x="165" y="510.5" text-anchor="start" dominant-baseline="central" transform="matrix(1 0 0 1 -150 -246)">+deleteUser_api(info: const QVariantMap&amp;)</text></g></g><g><g><path fill="none" stroke="none"/><text fill="#000000" stroke="none" font-family="Arial" font-size="13px" font-style="normal" font-weight="normal" text-decoration="undefined" x="165" y="525.5" text-anchor="start" dominant-baseline="central" transform="matrix(1 0 0 1 -150 -246)">+updateTimetableAndTrainNumber_api(info: const QVariantMap&amp;)</text></g></g><g><g><path fill="none" stroke="none"/><text fill="#000000" stroke="none" font-family="Arial" font-size="13px" font-style="normal" font-weight="normal" text-decoration="undefined" x="165" y="540.5" text-anchor="start" dominant-baseline="central" transform="matrix(1 0 0 1 -150 -246)">+isTrainEditable_api(info: const QVariantMap&amp;)</text></g></g><g><g><path fill="none" stroke="none"/><text fill="#000000" stroke="none" font-family="Arial" font-size="13px" font-style="normal" font-weight="normal" text-decoration="undefined" x="165" y="555.5" text-anchor="start" dominant-baseline="central" transform="matrix(1 0 0 1 -150 -246)">+updateSeatTemplate_api(info: const QVariantMap&amp;)</text></g></g><g><g><path fill="none" stroke="none"/><text fill="#000000" stroke="none" font-family="Arial" font-size="13px" font-style="normal" font-weight="normal" text-decoration="undefined" x="165" y="570.5" text-anchor="start" dominant-baseline="central" transform="matrix(1 0 0 1 -150 -246)">-computePrice(trainNumber: const QString&amp;, startStation: Station&amp;, endStation: Station&amp;)</text></g></g></g></svg>