<svg version="1.1" xmlns="http://www.w3.org/2000/svg" xmlns:xlink="http://www.w3.org/1999/xlink" width="657.34228515625" height="226"><defs/><g><g><rect fill="#C0C0C0" stroke="none" x="279" y="327" width="636.34228515625" height="206" transform="matrix(1 0 0 1 -262 -310)" fill-opacity="0.2"/></g><g><rect fill="#ffffff" stroke="none" x="272" y="320" width="636.34228515625" height="206" transform="matrix(1 0 0 1 -262 -310)"/></g><g><path fill="none" stroke="#000000" paint-order="fill stroke markers" d=" M 10 10 L 646.34228515625 10 L 646.34228515625 216 L 10 216 L 10 10 Z Z" stroke-miterlimit="10" stroke-dasharray=""/></g><g><path fill="none" stroke="#000000" paint-order="fill stroke markers" d=" M 10 35 L 646.34228515625 35" stroke-miterlimit="10" stroke-dasharray=""/></g><g><path fill="none" stroke="#000000" paint-order="fill stroke markers" d=" M 10 73 L 646.34228515625 73" stroke-miterlimit="10" stroke-dasharray=""/></g><g><g><path fill="none" stroke="none"/><text fill="#000000" stroke="none" font-family="Arial" font-size="13px" font-style="normal" font-weight="bold" text-decoration="undefined" x="590.671142578125" y="333.5" text-anchor="middle" dominant-baseline="central" transform="matrix(1 0 0 1 -262 -310)">StationManager</text></g></g><g><g><path fill="none" stroke="none"/><text fill="#000000" stroke="none" font-family="Arial" font-size="13px" font-style="normal" font-weight="normal" text-decoration="undefined" x="277" y="356.5" text-anchor="start" dominant-baseline="central" transform="matrix(1 0 0 1 -262 -310)">-stations: vector&lt;Station&gt; = ""</text></g></g><g><g><path fill="none" stroke="none"/><text fill="#000000" stroke="none" font-family="Arial" font-size="13px" font-style="normal" font-weight="normal" text-decoration="undefined" x="277" y="371.5" text-anchor="start" dominant-baseline="central" transform="matrix(1 0 0 1 -262 -310)">-cities: vector&lt;City&gt; = ""</text></g></g><g><g><path fill="none" stroke="none"/><text fill="#000000" stroke="none" font-family="Arial" font-size="13px" font-style="normal" font-weight="normal" text-decoration="undefined" x="277" y="394.5" text-anchor="start" dominant-baseline="central" transform="matrix(1 0 0 1 -262 -310)">+getCitiesName_api()</text></g></g><g><g><path fill="none" stroke="none"/><text fill="#000000" stroke="none" font-family="Arial" font-size="13px" font-style="normal" font-weight="normal" text-decoration="undefined" x="277" y="409.5" text-anchor="start" dominant-baseline="central" transform="matrix(1 0 0 1 -262 -310)">+getCitiesByStationNames_api(startStationName: const QString&amp;, endStatoinName: const QString&amp;)</text></g></g><g><g><path fill="none" stroke="none"/><text fill="#000000" stroke="none" font-family="Arial" font-size="13px" font-style="normal" font-weight="normal" text-decoration="undefined" x="277" y="424.5" text-anchor="start" dominant-baseline="central" transform="matrix(1 0 0 1 -262 -310)">+getAllStationNames_api()</text></g></g><g><g><path fill="none" stroke="none"/><text fill="#000000" stroke="none" font-family="Arial" font-size="13px" font-style="normal" font-weight="normal" text-decoration="undefined" x="277" y="439.5" text-anchor="start" dominant-baseline="central" transform="matrix(1 0 0 1 -262 -310)">+computeDistance(c1: City&amp;, c2: City&amp;)</text></g></g><g><g><path fill="none" stroke="none"/><text fill="#000000" stroke="none" font-family="Arial" font-size="13px" font-style="normal" font-weight="normal" text-decoration="undefined" x="277" y="454.5" text-anchor="start" dominant-baseline="central" transform="matrix(1 0 0 1 -262 -310)">+getStationByStationName(stationName: const QString&amp;)</text></g></g><g><g><path fill="none" stroke="none"/><text fill="#000000" stroke="none" font-family="Arial" font-size="13px" font-style="normal" font-weight="normal" text-decoration="undefined" x="277" y="469.5" text-anchor="start" dominant-baseline="central" transform="matrix(1 0 0 1 -262 -310)">+getCityByCityName(cityName: const QString&amp;)</text></g></g><g><g><path fill="none" stroke="none"/><text fill="#000000" stroke="none" font-family="Arial" font-size="13px" font-style="normal" font-weight="normal" text-decoration="undefined" x="277" y="484.5" text-anchor="start" dominant-baseline="central" transform="matrix(1 0 0 1 -262 -310)">-readFromFileStations(filename: const char[])</text></g></g><g><g><path fill="none" stroke="none"/><text fill="#000000" stroke="none" font-family="Arial" font-size="13px" font-style="normal" font-weight="normal" text-decoration="undefined" x="277" y="499.5" text-anchor="start" dominant-baseline="central" transform="matrix(1 0 0 1 -262 -310)">-readFromFileCities(filename: const char[])</text></g></g><g><g><path fill="none" stroke="none"/><text fill="#000000" stroke="none" font-family="Arial" font-size="13px" font-style="normal" font-weight="normal" text-decoration="undefined" x="277" y="514.5" text-anchor="start" dominant-baseline="central" transform="matrix(1 0 0 1 -262 -310)">-readFromFile(filenameStations: const char[], filenameCities: const char[])</text></g></g></g></svg>