<svg version="1.1" xmlns="http://www.w3.org/2000/svg" xmlns:xlink="http://www.w3.org/1999/xlink" width="789.42431640625" height="241"><defs/><g><g><rect fill="#C0C0C0" stroke="none" x="71" y="175" width="768.42431640625" height="221" transform="matrix(1 0 0 1 -54 -158)" fill-opacity="0.2"/></g><g><rect fill="#ffffff" stroke="none" x="64" y="168" width="768.42431640625" height="221" transform="matrix(1 0 0 1 -54 -158)"/></g><g><path fill="none" stroke="#000000" paint-order="fill stroke markers" d=" M 10 10 L 778.42431640625 10 L 778.42431640625 231 L 10 231 L 10 10 Z Z" stroke-miterlimit="10" stroke-dasharray=""/></g><g><path fill="none" stroke="#000000" paint-order="fill stroke markers" d=" M 10 35 L 778.42431640625 35" stroke-miterlimit="10" stroke-dasharray=""/></g><g><path fill="none" stroke="#000000" paint-order="fill stroke markers" d=" M 10 58 L 778.42431640625 58" stroke-miterlimit="10" stroke-dasharray=""/></g><g><g><path fill="none" stroke="none"/><text fill="#000000" stroke="none" font-family="Arial" font-size="13px" font-style="normal" font-weight="bold" text-decoration="undefined" x="448.712158203125" y="181.5" text-anchor="middle" dominant-baseline="central" transform="matrix(1 0 0 1 -54 -158)">Timetable</text></g></g><g><g><path fill="none" stroke="none"/><text fill="#000000" stroke="none" font-family="Arial" font-size="13px" font-style="normal" font-weight="normal" text-decoration="undefined" x="69" y="204.5" text-anchor="start" dominant-baseline="central" transform="matrix(1 0 0 1 -54 -158)">-table: vector&lt;tuple&lt;Station,Time,Time,int,int&gt;&gt;</text></g></g><g><g><path fill="none" stroke="none"/><text fill="#000000" stroke="none" font-family="Arial" font-size="13px" font-style="normal" font-weight="normal" text-decoration="undefined" x="69" y="227.5" text-anchor="start" dominant-baseline="central" transform="matrix(1 0 0 1 -54 -158)">+getStationInfo(stationName: const QString&amp;)</text></g></g><g><g><path fill="none" stroke="none"/><text fill="#000000" stroke="none" font-family="Arial" font-size="13px" font-style="normal" font-weight="normal" text-decoration="undefined" x="69" y="242.5" text-anchor="start" dominant-baseline="central" transform="matrix(1 0 0 1 -54 -158)">+getInterval(station1: Station&amp;, station2: Station&amp;)</text></g></g><g><g><path fill="none" stroke="none"/><text fill="#000000" stroke="none" font-family="Arial" font-size="13px" font-style="normal" font-weight="normal" text-decoration="undefined" x="69" y="257.5" text-anchor="start" dominant-baseline="central" transform="matrix(1 0 0 1 -54 -158)">+getStationPairsBetween(stationCityName: const QString&amp;, endCityName: const QString&amp;)</text></g></g><g><g><path fill="none" stroke="none"/><text fill="#000000" stroke="none" font-family="Arial" font-size="13px" font-style="normal" font-weight="normal" text-decoration="undefined" x="69" y="272.5" text-anchor="start" dominant-baseline="central" transform="matrix(1 0 0 1 -54 -158)">+getIndxByStationName(stationName: const QString&amp;)</text></g></g><g><g><path fill="none" stroke="none"/><text fill="#000000" stroke="none" font-family="Arial" font-size="13px" font-style="normal" font-weight="normal" text-decoration="undefined" x="69" y="287.5" text-anchor="start" dominant-baseline="central" transform="matrix(1 0 0 1 -54 -158)">+getStationsBetweenStations(startStation: const Station&amp;, endStation: const Station&amp;)</text></g></g><g><g><path fill="none" stroke="none"/><text fill="#000000" stroke="none" font-family="Arial" font-size="13px" font-style="normal" font-weight="normal" text-decoration="undefined" x="69" y="302.5" text-anchor="start" dominant-baseline="central" transform="matrix(1 0 0 1 -54 -158)">+getInfo(startStationName: const Station&amp;, endStationName: const Station&amp;)</text></g></g><g><g><path fill="none" stroke="none"/><text fill="#000000" stroke="none" font-family="Arial" font-size="13px" font-style="normal" font-weight="normal" text-decoration="undefined" x="69" y="317.5" text-anchor="start" dominant-baseline="central" transform="matrix(1 0 0 1 -54 -158)">+getInfo()</text></g></g><g><g><path fill="none" stroke="none"/><text fill="#000000" stroke="none" font-family="Arial" font-size="13px" font-style="normal" font-weight="normal" text-decoration="undefined" x="69" y="332.5" text-anchor="start" dominant-baseline="central" transform="matrix(1 0 0 1 -54 -158)">+getStartStationInfo()</text></g></g><g><g><path fill="none" stroke="none"/><text fill="#000000" stroke="none" font-family="Arial" font-size="13px" font-style="normal" font-weight="normal" text-decoration="undefined" x="69" y="347.5" text-anchor="start" dominant-baseline="central" transform="matrix(1 0 0 1 -54 -158)">+getEndStationInfo()</text></g></g><g><g><path fill="none" stroke="none"/><text fill="#000000" stroke="none" font-family="Arial" font-size="13px" font-style="normal" font-weight="normal" text-decoration="undefined" x="69" y="362.5" text-anchor="start" dominant-baseline="central" transform="matrix(1 0 0 1 -54 -158)">+insertPassingStationAtEnd(station: Station&amp;, arriveTime: Time&amp;, departureTime: Time&amp;, arriveDay: int, departureDay: int)</text></g></g><g><g><path fill="none" stroke="none"/><text fill="#000000" stroke="none" font-family="Arial" font-size="13px" font-style="normal" font-weight="normal" text-decoration="undefined" x="69" y="377.5" text-anchor="start" dominant-baseline="central" transform="matrix(1 0 0 1 -54 -158)">+operator()</text></g></g></g></svg>