<svg version="1.1" xmlns="http://www.w3.org/2000/svg" xmlns:xlink="http://www.w3.org/1999/xlink" width="251.517578125" height="136"><defs/><g><g><rect fill="#C0C0C0" stroke="none" x="223" y="159" width="230.517578125" height="116" transform="matrix(1 0 0 1 -206 -142)" fill-opacity="0.2"/></g><g><rect fill="#ffffff" stroke="none" x="216" y="152" width="230.517578125" height="116" transform="matrix(1 0 0 1 -206 -142)"/></g><g><path fill="none" stroke="#000000" paint-order="fill stroke markers" d=" M 10 10 L 240.517578125 10 L 240.517578125 126 L 10 126 L 10 10 Z Z" stroke-miterlimit="10" stroke-dasharray=""/></g><g><path fill="none" stroke="#000000" paint-order="fill stroke markers" d=" M 10 35 L 240.517578125 35" stroke-miterlimit="10" stroke-dasharray=""/></g><g><path fill="none" stroke="#000000" paint-order="fill stroke markers" d=" M 10 73 L 240.517578125 73" stroke-miterlimit="10" stroke-dasharray=""/></g><g><g><path fill="none" stroke="none"/><text fill="#000000" stroke="none" font-family="Arial" font-size="13px" font-style="normal" font-weight="bold" text-decoration="undefined" x="331.7587890625" y="165.5" text-anchor="middle" dominant-baseline="central" transform="matrix(1 0 0 1 -206 -142)">Station</text></g></g><g><g><path fill="none" stroke="none"/><text fill="#000000" stroke="none" font-family="Arial" font-size="13px" font-style="normal" font-weight="normal" text-decoration="undefined" x="221" y="188.5" text-anchor="start" dominant-baseline="central" transform="matrix(1 0 0 1 -206 -142)">-station_name: const QString&amp; = ""</text></g></g><g><g><path fill="none" stroke="none"/><text fill="#000000" stroke="none" font-family="Arial" font-size="13px" font-style="normal" font-weight="normal" text-decoration="undefined" x="221" y="203.5" text-anchor="start" dominant-baseline="central" transform="matrix(1 0 0 1 -206 -142)">-city_name: const QString&amp; = ""</text></g></g><g><g><path fill="none" stroke="none"/><text fill="#000000" stroke="none" font-family="Arial" font-size="13px" font-style="normal" font-weight="normal" text-decoration="undefined" x="221" y="226.5" text-anchor="start" dominant-baseline="central" transform="matrix(1 0 0 1 -206 -142)">+getter()</text></g></g><g><g><path fill="none" stroke="none"/><text fill="#000000" stroke="none" font-family="Arial" font-size="13px" font-style="normal" font-weight="normal" text-decoration="undefined" x="221" y="241.5" text-anchor="start" dominant-baseline="central" transform="matrix(1 0 0 1 -206 -142)">+setter()</text></g></g><g><g><path fill="none" stroke="none"/><text fill="#000000" stroke="none" font-family="Arial" font-size="13px" font-style="normal" font-weight="normal" text-decoration="undefined" x="221" y="256.5" text-anchor="start" dominant-baseline="central" transform="matrix(1 0 0 1 -206 -142)">+operator()</text></g></g></g></svg>