<svg version="1.1" xmlns="http://www.w3.org/2000/svg" xmlns:xlink="http://www.w3.org/1999/xlink" width="798.29833984375" height="376"><defs/><g><g><rect fill="#C0C0C0" stroke="none" x="87" y="175" width="777.29833984375" height="356" transform="matrix(1 0 0 1 -70 -158)" fill-opacity="0.2"/></g><g><rect fill="#ffffff" stroke="none" x="80" y="168" width="777.29833984375" height="356" transform="matrix(1 0 0 1 -70 -158)"/></g><g><path fill="none" stroke="#000000" paint-order="fill stroke markers" d=" M 10 10 L 787.29833984375 10 L 787.29833984375 366 L 10 366 L 10 10 Z Z" stroke-miterlimit="10" stroke-dasharray=""/></g><g><path fill="none" stroke="#000000" paint-order="fill stroke markers" d=" M 10 35 L 787.29833984375 35" stroke-miterlimit="10" stroke-dasharray=""/></g><g><path fill="none" stroke="#000000" paint-order="fill stroke markers" d=" M 10 73 L 787.29833984375 73" stroke-miterlimit="10" stroke-dasharray=""/></g><g><g><path fill="none" stroke="none"/><text fill="#000000" stroke="none" font-family="Arial" font-size="13px" font-style="normal" font-weight="bold" text-decoration="undefined" x="469.149169921875" y="181.5" text-anchor="middle" dominant-baseline="central" transform="matrix(1 0 0 1 -70 -158)">AccountManager</text></g></g><g><g><path fill="none" stroke="none"/><text fill="#000000" stroke="none" font-family="Arial" font-size="13px" font-style="normal" font-weight="normal" text-decoration="undefined" x="85" y="204.5" text-anchor="start" dominant-baseline="central" transform="matrix(1 0 0 1 -70 -158)">-users: vector&lt;User&gt;</text></g></g><g><g><path fill="none" stroke="none"/><text fill="#000000" stroke="none" font-family="Arial" font-size="13px" font-style="normal" font-weight="normal" text-decoration="undefined" x="85" y="219.5" text-anchor="start" dominant-baseline="central" transform="matrix(1 0 0 1 -70 -158)">-admins: vector&lt;Admin&gt;</text></g></g><g><g><path fill="none" stroke="none"/><text fill="#000000" stroke="none" font-family="Arial" font-size="13px" font-style="normal" font-weight="normal" text-decoration="undefined" x="85" y="242.5" text-anchor="start" dominant-baseline="central" transform="matrix(1 0 0 1 -70 -158)">+loginUser_api(username, password: const QString&amp;)</text></g></g><g><g><path fill="none" stroke="none"/><text fill="#000000" stroke="none" font-family="Arial" font-size="13px" font-style="normal" font-weight="normal" text-decoration="undefined" x="85" y="257.5" text-anchor="start" dominant-baseline="central" transform="matrix(1 0 0 1 -70 -158)">+loginAdmin_api(username: const QString&amp;, password: const QString&amp;)</text></g></g><g><g><path fill="none" stroke="none"/><text fill="#000000" stroke="none" font-family="Arial" font-size="13px" font-style="normal" font-weight="normal" text-decoration="undefined" x="85" y="272.5" text-anchor="start" dominant-baseline="central" transform="matrix(1 0 0 1 -70 -158)">+getUserProfile_api(username: const QString&amp;)</text></g></g><g><g><path fill="none" stroke="none"/><text fill="#000000" stroke="none" font-family="Arial" font-size="13px" font-style="normal" font-weight="normal" text-decoration="undefined" x="85" y="287.5" text-anchor="start" dominant-baseline="central" transform="matrix(1 0 0 1 -70 -158)">+getAccounts_api()</text></g></g><g><g><path fill="none" stroke="none"/><text fill="#000000" stroke="none" font-family="Arial" font-size="13px" font-style="normal" font-weight="normal" text-decoration="undefined" x="85" y="302.5" text-anchor="start" dominant-baseline="central" transform="matrix(1 0 0 1 -70 -158)">+lockUser_api(username: const QString&amp;)</text></g></g><g><g><path fill="none" stroke="none"/><text fill="#000000" stroke="none" font-family="Arial" font-size="13px" font-style="normal" font-weight="normal" text-decoration="undefined" x="85" y="317.5" text-anchor="start" dominant-baseline="central" transform="matrix(1 0 0 1 -70 -158)">+lockAdmin_api(username: const QString&amp;)</text></g></g><g><g><path fill="none" stroke="none"/><text fill="#000000" stroke="none" font-family="Arial" font-size="13px" font-style="normal" font-weight="normal" text-decoration="undefined" x="85" y="332.5" text-anchor="start" dominant-baseline="central" transform="matrix(1 0 0 1 -70 -158)">+unlockUser_api(username: const QString&amp;)</text></g></g><g><g><path fill="none" stroke="none"/><text fill="#000000" stroke="none" font-family="Arial" font-size="13px" font-style="normal" font-weight="normal" text-decoration="undefined" x="85" y="347.5" text-anchor="start" dominant-baseline="central" transform="matrix(1 0 0 1 -70 -158)">+unlockAdmin_api(username: const QString&amp;)</text></g></g><g><g><path fill="none" stroke="none"/><text fill="#000000" stroke="none" font-family="Arial" font-size="13px" font-style="normal" font-weight="normal" text-decoration="undefined" x="85" y="362.5" text-anchor="start" dominant-baseline="central" transform="matrix(1 0 0 1 -70 -158)">+editUserProfile_api(username: const QString&amp;, name: const QString&amp;, phoneNumber: const QString&amp;, id: const QString&amp;)</text></g></g><g><g><path fill="none" stroke="none"/><text fill="#000000" stroke="none" font-family="Arial" font-size="13px" font-style="normal" font-weight="normal" text-decoration="undefined" x="85" y="377.5" text-anchor="start" dominant-baseline="central" transform="matrix(1 0 0 1 -70 -158)">+registerUser_api(info: QVariantMap)</text></g></g><g><g><path fill="none" stroke="none"/><text fill="#000000" stroke="none" font-family="Arial" font-size="13px" font-style="normal" font-weight="normal" text-decoration="undefined" x="85" y="392.5" text-anchor="start" dominant-baseline="central" transform="matrix(1 0 0 1 -70 -158)">+resetPassword_api(info: QVariantMap)</text></g></g><g><g><path fill="none" stroke="none"/><text fill="#000000" stroke="none" font-family="Arial" font-size="13px" font-style="normal" font-weight="normal" text-decoration="undefined" x="85" y="407.5" text-anchor="start" dominant-baseline="central" transform="matrix(1 0 0 1 -70 -158)">+deleteUser(username: const QString&amp;)</text></g></g><g><g><path fill="none" stroke="none"/><text fill="#000000" stroke="none" font-family="Arial" font-size="13px" font-style="normal" font-weight="normal" text-decoration="undefined" x="85" y="422.5" text-anchor="start" dominant-baseline="central" transform="matrix(1 0 0 1 -70 -158)">+getUserByUsername(username: const QString&amp;)</text></g></g><g><g><path fill="none" stroke="none"/><text fill="#000000" stroke="none" font-family="Arial" font-size="13px" font-style="normal" font-weight="normal" text-decoration="undefined" x="85" y="437.5" text-anchor="start" dominant-baseline="central" transform="matrix(1 0 0 1 -70 -158)">+getAdminByUsername(username: const QString&amp;)</text></g></g><g><g><path fill="none" stroke="none"/><text fill="#000000" stroke="none" font-family="Arial" font-size="13px" font-style="normal" font-weight="normal" text-decoration="undefined" x="85" y="452.5" text-anchor="start" dominant-baseline="central" transform="matrix(1 0 0 1 -70 -158)">-findAdminByUsername(username: const QString&amp;)</text></g></g><g><g><path fill="none" stroke="none"/><text fill="#000000" stroke="none" font-family="Arial" font-size="13px" font-style="normal" font-weight="normal" text-decoration="undefined" x="85" y="467.5" text-anchor="start" dominant-baseline="central" transform="matrix(1 0 0 1 -70 -158)">-findUserById(id: const QString&amp;)</text></g></g><g><g><path fill="none" stroke="none"/><text fill="#000000" stroke="none" font-family="Arial" font-size="13px" font-style="normal" font-weight="normal" text-decoration="undefined" x="85" y="482.5" text-anchor="start" dominant-baseline="central" transform="matrix(1 0 0 1 -70 -158)">-readFromFileUser(filename: const char[])</text></g></g><g><g><path fill="none" stroke="none"/><text fill="#000000" stroke="none" font-family="Arial" font-size="13px" font-style="normal" font-weight="normal" text-decoration="undefined" x="85" y="497.5" text-anchor="start" dominant-baseline="central" transform="matrix(1 0 0 1 -70 -158)">-readFromFileAdmin(filename: const char[])</text></g></g><g><g><path fill="none" stroke="none"/><text fill="#000000" stroke="none" font-family="Arial" font-size="13px" font-style="normal" font-weight="normal" text-decoration="undefined" x="85" y="512.5" text-anchor="start" dominant-baseline="central" transform="matrix(1 0 0 1 -70 -158)">-readFromFile(filenameUser, filenameAdmin[]: const char[])</text></g></g></g></svg>