<svg version="1.1" xmlns="http://www.w3.org/2000/svg" xmlns:xlink="http://www.w3.org/1999/xlink" width="263.50830078125" height="181"><defs/><g><g><rect fill="#C0C0C0" stroke="none" x="127" y="199" width="242.50830078125" height="161" transform="matrix(1 0 0 1 -110 -182)" fill-opacity="0.2"/></g><g><rect fill="#ffffff" stroke="none" x="120" y="192" width="242.50830078125" height="161" transform="matrix(1 0 0 1 -110 -182)"/></g><g><path fill="none" stroke="#000000" paint-order="fill stroke markers" d=" M 10 10 L 252.50830078125 10 L 252.50830078125 171 L 10 171 L 10 10 Z Z" stroke-miterlimit="10" stroke-dasharray=""/></g><g><path fill="none" stroke="#000000" paint-order="fill stroke markers" d=" M 10 35 L 252.50830078125 35" stroke-miterlimit="10" stroke-dasharray=""/></g><g><path fill="none" stroke="#000000" paint-order="fill stroke markers" d=" M 10 118 L 252.50830078125 118" stroke-miterlimit="10" stroke-dasharray=""/></g><g><g><path fill="none" stroke="none"/><text fill="#000000" stroke="none" font-family="Arial" font-size="13px" font-style="normal" font-weight="bold" text-decoration="undefined" x="241.754150390625" y="205.5" text-anchor="middle" dominant-baseline="central" transform="matrix(1 0 0 1 -110 -182)">Passenger</text></g></g><g><g><path fill="none" stroke="none"/><text fill="#000000" stroke="none" font-family="Arial" font-size="13px" font-style="normal" font-weight="normal" text-decoration="undefined" x="125" y="228.5" text-anchor="start" dominant-baseline="central" transform="matrix(1 0 0 1 -110 -182)">-name: const QString&amp; = ""</text></g></g><g><g><path fill="none" stroke="none"/><text fill="#000000" stroke="none" font-family="Arial" font-size="13px" font-style="normal" font-weight="normal" text-decoration="undefined" x="125" y="243.5" text-anchor="start" dominant-baseline="central" transform="matrix(1 0 0 1 -110 -182)">-phone_number: const QString&amp; = ""</text></g></g><g><g><path fill="none" stroke="none"/><text fill="#000000" stroke="none" font-family="Arial" font-size="13px" font-style="normal" font-weight="normal" text-decoration="undefined" x="125" y="258.5" text-anchor="start" dominant-baseline="central" transform="matrix(1 0 0 1 -110 -182)">-id: const QString&amp; = ""</text></g></g><g><g><path fill="none" stroke="none"/><text fill="#000000" stroke="none" font-family="Arial" font-size="13px" font-style="normal" font-weight="normal" text-decoration="undefined" x="125" y="273.5" text-anchor="start" dominant-baseline="central" transform="matrix(1 0 0 1 -110 -182)">-type: const QString&amp; = ""</text></g></g><g><g><path fill="none" stroke="none"/><text fill="#000000" stroke="none" font-family="Arial" font-size="13px" font-style="normal" font-weight="normal" text-decoration="undefined" x="125" y="288.5" text-anchor="start" dominant-baseline="central" transform="matrix(1 0 0 1 -110 -182)">-username: const QString&amp; = ""</text></g></g><g><g><path fill="none" stroke="none"/><text fill="#000000" stroke="none" font-family="Arial" font-size="13px" font-style="normal" font-weight="normal" text-decoration="undefined" x="125" y="311.5" text-anchor="start" dominant-baseline="central" transform="matrix(1 0 0 1 -110 -182)">+getter()</text></g></g><g><g><path fill="none" stroke="none"/><text fill="#000000" stroke="none" font-family="Arial" font-size="13px" font-style="normal" font-weight="normal" text-decoration="undefined" x="125" y="326.5" text-anchor="start" dominant-baseline="central" transform="matrix(1 0 0 1 -110 -182)">+setter()</text></g></g><g><g><path fill="none" stroke="none"/><text fill="#000000" stroke="none" font-family="Arial" font-size="13px" font-style="normal" font-weight="normal" text-decoration="undefined" x="125" y="341.5" text-anchor="start" dominant-baseline="central" transform="matrix(1 0 0 1 -110 -182)">+opeartor()</text></g></g></g></svg>