<svg version="1.1" xmlns="http://www.w3.org/2000/svg" xmlns:xlink="http://www.w3.org/1999/xlink" width="135" height="166"><defs/><g><g><rect fill="#C0C0C0" stroke="none" x="175" y="135" width="114" height="146" transform="matrix(1 0 0 1 -158 -118)" fill-opacity="0.2"/></g><g><rect fill="#ffffff" stroke="none" x="168" y="128" width="114" height="146" transform="matrix(1 0 0 1 -158 -118)"/></g><g><path fill="none" stroke="#000000" paint-order="fill stroke markers" d=" M 10 10 L 124 10 L 124 156 L 10 156 L 10 10 Z Z" stroke-miterlimit="10" stroke-dasharray=""/></g><g><path fill="none" stroke="#000000" paint-order="fill stroke markers" d=" M 10 35 L 124 35" stroke-miterlimit="10" stroke-dasharray=""/></g><g><path fill="none" stroke="#000000" paint-order="fill stroke markers" d=" M 10 88 L 124 88" stroke-miterlimit="10" stroke-dasharray=""/></g><g><g><path fill="none" stroke="none"/><text fill="#000000" stroke="none" font-family="Arial" font-size="13px" font-style="normal" font-weight="bold" text-decoration="undefined" x="225.5" y="141.5" text-anchor="middle" dominant-baseline="central" transform="matrix(1 0 0 1 -158 -118)">Time</text></g></g><g><g><path fill="none" stroke="none"/><text fill="#000000" stroke="none" font-family="Arial" font-size="13px" font-style="normal" font-weight="normal" text-decoration="undefined" x="173" y="164.5" text-anchor="start" dominant-baseline="central" transform="matrix(1 0 0 1 -158 -118)">-hour: int = -1</text></g></g><g><g><path fill="none" stroke="none"/><text fill="#000000" stroke="none" font-family="Arial" font-size="13px" font-style="normal" font-weight="normal" text-decoration="undefined" x="173" y="179.5" text-anchor="start" dominant-baseline="central" transform="matrix(1 0 0 1 -158 -118)">-minute: int = -1</text></g></g><g><g><path fill="none" stroke="none"/><text fill="#000000" stroke="none" font-family="Arial" font-size="13px" font-style="normal" font-weight="normal" text-decoration="undefined" x="173" y="194.5" text-anchor="start" dominant-baseline="central" transform="matrix(1 0 0 1 -158 -118)">-second: int = -1</text></g></g><g><g><path fill="none" stroke="none"/><text fill="#000000" stroke="none" font-family="Arial" font-size="13px" font-style="normal" font-weight="normal" text-decoration="undefined" x="173" y="217.5" text-anchor="start" dominant-baseline="central" transform="matrix(1 0 0 1 -158 -118)">+getter()</text></g></g><g><g><path fill="none" stroke="none"/><text fill="#000000" stroke="none" font-family="Arial" font-size="13px" font-style="normal" font-weight="normal" text-decoration="undefined" x="173" y="232.5" text-anchor="start" dominant-baseline="central" transform="matrix(1 0 0 1 -158 -118)">+setter()</text></g></g><g><g><path fill="none" stroke="none"/><text fill="#000000" stroke="none" font-family="Arial" font-size="13px" font-style="normal" font-weight="normal" text-decoration="undefined" x="173" y="247.5" text-anchor="start" dominant-baseline="central" transform="matrix(1 0 0 1 -158 -118)">+operator()</text></g></g><g><g><path fill="none" stroke="none"/><text fill="#000000" stroke="none" font-family="Arial" font-size="13px" font-style="normal" font-weight="normal" text-decoration="undefined" x="173" y="262.5" text-anchor="start" dominant-baseline="central" transform="matrix(1 0 0 1 -158 -118)">+now()</text></g></g></g></svg>