<svg version="1.1" xmlns="http://www.w3.org/2000/svg" xmlns:xlink="http://www.w3.org/1999/xlink" width="177.96728515625" height="166"><defs/><g><g><rect fill="#C0C0C0" stroke="none" x="231" y="183" width="156.96728515625" height="146" transform="matrix(1 0 0 1 -214 -166)" fill-opacity="0.2"/></g><g><rect fill="#ffffff" stroke="none" x="224" y="176" width="156.96728515625" height="146" transform="matrix(1 0 0 1 -214 -166)"/></g><g><path fill="none" stroke="#000000" paint-order="fill stroke markers" d=" M 10 10 L 166.96728515625 10 L 166.96728515625 156 L 10 156 L 10 10 Z Z" stroke-miterlimit="10" stroke-dasharray=""/></g><g><path fill="none" stroke="#000000" paint-order="fill stroke markers" d=" M 10 35 L 166.96728515625 35" stroke-miterlimit="10" stroke-dasharray=""/></g><g><path fill="none" stroke="#000000" paint-order="fill stroke markers" d=" M 10 103 L 166.96728515625 103" stroke-miterlimit="10" stroke-dasharray=""/></g><g><g><path fill="none" stroke="none"/><text fill="#000000" stroke="none" font-family="Arial" font-size="13px" font-style="normal" font-weight="bold" text-decoration="undefined" x="302.983642578125" y="189.5" text-anchor="middle" dominant-baseline="central" transform="matrix(1 0 0 1 -214 -166)">City</text></g></g><g><g><path fill="none" stroke="none"/><text fill="#000000" stroke="none" font-family="Arial" font-size="13px" font-style="normal" font-weight="normal" text-decoration="undefined" x="229" y="212.5" text-anchor="start" dominant-baseline="central" transform="matrix(1 0 0 1 -214 -166)">-name: QString = ""</text></g></g><g><g><path fill="none" stroke="none"/><text fill="#000000" stroke="none" font-family="Arial" font-size="13px" font-style="normal" font-weight="normal" text-decoration="undefined" x="229" y="227.5" text-anchor="start" dominant-baseline="central" transform="matrix(1 0 0 1 -214 -166)">-longitude: double = -1</text></g></g><g><g><path fill="none" stroke="none"/><text fill="#000000" stroke="none" font-family="Arial" font-size="13px" font-style="normal" font-weight="normal" text-decoration="undefined" x="229" y="242.5" text-anchor="start" dominant-baseline="central" transform="matrix(1 0 0 1 -214 -166)">-latitude: double = -1</text></g></g><g><g><path fill="none" stroke="none"/><text fill="#000000" stroke="none" font-family="Arial" font-size="13px" font-style="normal" font-weight="normal" text-decoration="undefined" x="229" y="257.5" text-anchor="start" dominant-baseline="central" transform="matrix(1 0 0 1 -214 -166)">-province: QString = ""</text></g></g><g><g><path fill="none" stroke="none"/><text fill="#000000" stroke="none" font-family="Arial" font-size="13px" font-style="normal" font-weight="normal" text-decoration="undefined" x="229" y="280.5" text-anchor="start" dominant-baseline="central" transform="matrix(1 0 0 1 -214 -166)">+getter()</text></g></g><g><g><path fill="none" stroke="none"/><text fill="#000000" stroke="none" font-family="Arial" font-size="13px" font-style="normal" font-weight="normal" text-decoration="undefined" x="229" y="295.5" text-anchor="start" dominant-baseline="central" transform="matrix(1 0 0 1 -214 -166)">+setter()</text></g></g><g><g><path fill="none" stroke="none"/><text fill="#000000" stroke="none" font-family="Arial" font-size="13px" font-style="normal" font-weight="normal" text-decoration="undefined" x="229" y="310.5" text-anchor="start" dominant-baseline="central" transform="matrix(1 0 0 1 -214 -166)">+operator()</text></g></g></g></svg>