<svg version="1.1" xmlns="http://www.w3.org/2000/svg" xmlns:xlink="http://www.w3.org/1999/xlink" width="131.80078125" height="151"><defs/><g><g><rect fill="#C0C0C0" stroke="none" x="119" y="79" width="110.80078125" height="131" transform="matrix(1 0 0 1 -102 -62)" fill-opacity="0.2"/></g><g><rect fill="#ffffff" stroke="none" x="112" y="72" width="110.80078125" height="131" transform="matrix(1 0 0 1 -102 -62)"/></g><g><path fill="none" stroke="#000000" paint-order="fill stroke markers" d=" M 10 10 L 120.80078125 10 L 120.80078125 141 L 10 141 L 10 10 Z Z" stroke-miterlimit="10" stroke-dasharray=""/></g><g><path fill="none" stroke="#000000" paint-order="fill stroke markers" d=" M 10 35 L 120.80078125 35" stroke-miterlimit="10" stroke-dasharray=""/></g><g><path fill="none" stroke="#000000" paint-order="fill stroke markers" d=" M 10 88 L 120.80078125 88" stroke-miterlimit="10" stroke-dasharray=""/></g><g><g><path fill="none" stroke="none"/><text fill="#000000" stroke="none" font-family="Arial" font-size="13px" font-style="normal" font-weight="bold" text-decoration="undefined" x="167.900390625" y="85.5" text-anchor="middle" dominant-baseline="central" transform="matrix(1 0 0 1 -102 -62)">Date</text></g></g><g><g><path fill="none" stroke="none"/><text fill="#000000" stroke="none" font-family="Arial" font-size="13px" font-style="normal" font-weight="normal" text-decoration="undefined" x="117" y="108.5" text-anchor="start" dominant-baseline="central" transform="matrix(1 0 0 1 -102 -62)">-year: int = -1</text></g></g><g><g><path fill="none" stroke="none"/><text fill="#000000" stroke="none" font-family="Arial" font-size="13px" font-style="normal" font-weight="normal" text-decoration="undefined" x="117" y="123.5" text-anchor="start" dominant-baseline="central" transform="matrix(1 0 0 1 -102 -62)">-month: int = -1</text></g></g><g><g><path fill="none" stroke="none"/><text fill="#000000" stroke="none" font-family="Arial" font-size="13px" font-style="normal" font-weight="normal" text-decoration="undefined" x="117" y="138.5" text-anchor="start" dominant-baseline="central" transform="matrix(1 0 0 1 -102 -62)">-day: int = -1</text></g></g><g><g><path fill="none" stroke="none"/><text fill="#000000" stroke="none" font-family="Arial" font-size="13px" font-style="normal" font-weight="normal" text-decoration="undefined" x="117" y="161.5" text-anchor="start" dominant-baseline="central" transform="matrix(1 0 0 1 -102 -62)">+getter()</text></g></g><g><g><path fill="none" stroke="none"/><text fill="#000000" stroke="none" font-family="Arial" font-size="13px" font-style="normal" font-weight="normal" text-decoration="undefined" x="117" y="176.5" text-anchor="start" dominant-baseline="central" transform="matrix(1 0 0 1 -102 -62)">+setter()</text></g></g><g><g><path fill="none" stroke="none"/><text fill="#000000" stroke="none" font-family="Arial" font-size="13px" font-style="normal" font-weight="normal" text-decoration="undefined" x="117" y="191.5" text-anchor="start" dominant-baseline="central" transform="matrix(1 0 0 1 -102 -62)">+operator()</text></g></g></g></svg>