<svg version="1.1" xmlns="http://www.w3.org/2000/svg" xmlns:xlink="http://www.w3.org/1999/xlink" width="1109.9873046875" height="226"><defs/><g><g><rect fill="#C0C0C0" stroke="none" x="87" y="303" width="1088.9873046875" height="206" transform="matrix(1 0 0 1 -70 -286)" fill-opacity="0.2"/></g><g><rect fill="#ffffff" stroke="none" x="80" y="296" width="1088.9873046875" height="206" transform="matrix(1 0 0 1 -70 -286)"/></g><g><path fill="none" stroke="#000000" paint-order="fill stroke markers" d=" M 10 10 L 1098.9873046875 10 L 1098.9873046875 216 L 10 216 L 10 10 Z Z" stroke-miterlimit="10" stroke-dasharray=""/></g><g><path fill="none" stroke="#000000" paint-order="fill stroke markers" d=" M 10 35 L 1098.9873046875 35" stroke-miterlimit="10" stroke-dasharray=""/></g><g><path fill="none" stroke="#000000" paint-order="fill stroke markers" d=" M 10 58 L 1098.9873046875 58" stroke-miterlimit="10" stroke-dasharray=""/></g><g><g><path fill="none" stroke="none"/><text fill="#000000" stroke="none" font-family="Arial" font-size="13px" font-style="normal" font-weight="bold" text-decoration="undefined" x="624.99365234375" y="309.5" text-anchor="middle" dominant-baseline="central" transform="matrix(1 0 0 1 -70 -286)">PassengerManager</text></g></g><g><g><path fill="none" stroke="none"/><text fill="#000000" stroke="none" font-family="Arial" font-size="13px" font-style="normal" font-weight="normal" text-decoration="undefined" x="85" y="332.5" text-anchor="start" dominant-baseline="central" transform="matrix(1 0 0 1 -70 -286)">+passengers: vector&lt;Passenger&gt;</text></g></g><g><g><path fill="none" stroke="none"/><text fill="#000000" stroke="none" font-family="Arial" font-size="13px" font-style="normal" font-weight="normal" text-decoration="undefined" x="85" y="355.5" text-anchor="start" dominant-baseline="central" transform="matrix(1 0 0 1 -70 -286)">+getPassengersByUsername_api(username: const QString&amp;)</text></g></g><g><g><path fill="none" stroke="none"/><text fill="#000000" stroke="none" font-family="Arial" font-size="13px" font-style="normal" font-weight="normal" text-decoration="undefined" x="85" y="370.5" text-anchor="start" dominant-baseline="central" transform="matrix(1 0 0 1 -70 -286)">+deletePassengerByUsernameAndId_api(username: const QString&amp;, id: const QString&amp;)</text></g></g><g><g><path fill="none" stroke="none"/><text fill="#000000" stroke="none" font-family="Arial" font-size="13px" font-style="normal" font-weight="normal" text-decoration="undefined" x="85" y="385.5" text-anchor="start" dominant-baseline="central" transform="matrix(1 0 0 1 -70 -286)">+editPassenger_api(username: const QString&amp;, id_old: const QString&amp;, name: const QString&amp;, phoneNumber: const QString&amp;, id_new: const QString&amp;, type: const QString&amp;)</text></g></g><g><g><path fill="none" stroke="none"/><text fill="#000000" stroke="none" font-family="Arial" font-size="13px" font-style="normal" font-weight="normal" text-decoration="undefined" x="85" y="400.5" text-anchor="start" dominant-baseline="central" transform="matrix(1 0 0 1 -70 -286)">+addPassenger_api(info: QVariantMap)</text></g></g><g><g><path fill="none" stroke="none"/><text fill="#000000" stroke="none" font-family="Arial" font-size="13px" font-style="normal" font-weight="normal" text-decoration="undefined" x="85" y="415.5" text-anchor="start" dominant-baseline="central" transform="matrix(1 0 0 1 -70 -286)">+getPassengersByUsername(username: const QString&amp;)</text></g></g><g><g><path fill="none" stroke="none"/><text fill="#000000" stroke="none" font-family="Arial" font-size="13px" font-style="normal" font-weight="normal" text-decoration="undefined" x="85" y="430.5" text-anchor="start" dominant-baseline="central" transform="matrix(1 0 0 1 -70 -286)">+getPassengerByUsernameAndId(username: const QString&amp;, id: const QString&amp;)</text></g></g><g><g><path fill="none" stroke="none"/><text fill="#000000" stroke="none" font-family="Arial" font-size="13px" font-style="normal" font-weight="normal" text-decoration="undefined" x="85" y="445.5" text-anchor="start" dominant-baseline="central" transform="matrix(1 0 0 1 -70 -286)">+deletePassengersByUsername(username: const QString&amp;)</text></g></g><g><g><path fill="none" stroke="none"/><text fill="#000000" stroke="none" font-family="Arial" font-size="13px" font-style="normal" font-weight="normal" text-decoration="undefined" x="85" y="460.5" text-anchor="start" dominant-baseline="central" transform="matrix(1 0 0 1 -70 -286)">+getPassengersById(id: const QString&amp;)</text></g></g><g><g><path fill="none" stroke="none"/><text fill="#000000" stroke="none" font-family="Arial" font-size="13px" font-style="normal" font-weight="normal" text-decoration="undefined" x="85" y="475.5" text-anchor="start" dominant-baseline="central" transform="matrix(1 0 0 1 -70 -286)">-readFromFile(filename: const char[])</text></g></g><g><g><path fill="none" stroke="none"/><text fill="#000000" stroke="none" font-family="Arial" font-size="13px" font-style="normal" font-weight="normal" text-decoration="undefined" x="85" y="490.5" text-anchor="start" dominant-baseline="central" transform="matrix(1 0 0 1 -70 -286)">-writeToFile(filename: const char[])</text></g></g></g></svg>