<svg version="1.1" xmlns="http://www.w3.org/2000/svg" xmlns:xlink="http://www.w3.org/1999/xlink" width="180.59521484375" height="151"><defs/><g><g><rect fill="#C0C0C0" stroke="none" x="215" y="175" width="159.59521484375" height="131" transform="matrix(1 0 0 1 -198 -158)" fill-opacity="0.2"/></g><g><rect fill="#ffffff" stroke="none" x="208" y="168" width="159.59521484375" height="131" transform="matrix(1 0 0 1 -198 -158)"/></g><g><path fill="none" stroke="#000000" paint-order="fill stroke markers" d=" M 10 10 L 169.59521484375 10 L 169.59521484375 141 L 10 141 L 10 10 Z Z" stroke-miterlimit="10" stroke-dasharray=""/></g><g><path fill="none" stroke="#000000" paint-order="fill stroke markers" d=" M 10 35 L 169.59521484375 35" stroke-miterlimit="10" stroke-dasharray=""/></g><g><path fill="none" stroke="#000000" paint-order="fill stroke markers" d=" M 10 88 L 169.59521484375 88" stroke-miterlimit="10" stroke-dasharray=""/></g><g><g><path fill="none" stroke="none"/><text fill="#000000" stroke="none" font-family="Arial" font-size="13px" font-style="normal" font-weight="bold" text-decoration="undefined" x="288.297607421875" y="181.5" text-anchor="middle" dominant-baseline="central" transform="matrix(1 0 0 1 -198 -158)">Admin</text></g></g><g><g><path fill="none" stroke="none"/><text fill="#000000" stroke="none" font-family="Arial" font-size="13px" font-style="normal" font-weight="normal" text-decoration="undefined" x="213" y="204.5" text-anchor="start" dominant-baseline="central" transform="matrix(1 0 0 1 -198 -158)">-username: QString = ""</text></g></g><g><g><path fill="none" stroke="none"/><text fill="#000000" stroke="none" font-family="Arial" font-size="13px" font-style="normal" font-weight="normal" text-decoration="undefined" x="213" y="219.5" text-anchor="start" dominant-baseline="central" transform="matrix(1 0 0 1 -198 -158)">-password: QString = ""</text></g></g><g><g><path fill="none" stroke="none"/><text fill="#000000" stroke="none" font-family="Arial" font-size="13px" font-style="normal" font-weight="normal" text-decoration="undefined" x="213" y="234.5" text-anchor="start" dominant-baseline="central" transform="matrix(1 0 0 1 -198 -158)">-lcoked: bool = false</text></g></g><g><g><path fill="none" stroke="none"/><text fill="#000000" stroke="none" font-family="Arial" font-size="13px" font-style="normal" font-weight="normal" text-decoration="undefined" x="213" y="257.5" text-anchor="start" dominant-baseline="central" transform="matrix(1 0 0 1 -198 -158)">+getter()</text></g></g><g><g><path fill="none" stroke="none"/><text fill="#000000" stroke="none" font-family="Arial" font-size="13px" font-style="normal" font-weight="normal" text-decoration="undefined" x="213" y="272.5" text-anchor="start" dominant-baseline="central" transform="matrix(1 0 0 1 -198 -158)">+setter()</text></g></g><g><g><path fill="none" stroke="none"/><text fill="#000000" stroke="none" font-family="Arial" font-size="13px" font-style="normal" font-weight="normal" text-decoration="undefined" x="213" y="287.5" text-anchor="start" dominant-baseline="central" transform="matrix(1 0 0 1 -198 -158)">+opeartor()</text></g></g></g></svg>