<svg version="1.1" xmlns="http://www.w3.org/2000/svg" xmlns:xlink="http://www.w3.org/1999/xlink" width="294.8720703125" height="151"><defs/><g><g><rect fill="#C0C0C0" stroke="none" x="239" y="239" width="273.8720703125" height="131" transform="matrix(1 0 0 1 -222 -222)" fill-opacity="0.2"/></g><g><rect fill="#ffffff" stroke="none" x="232" y="232" width="273.8720703125" height="131" transform="matrix(1 0 0 1 -222 -222)"/></g><g><path fill="none" stroke="#000000" paint-order="fill stroke markers" d=" M 10 10 L 283.8720703125 10 L 283.8720703125 141 L 10 141 L 10 10 Z Z" stroke-miterlimit="10" stroke-dasharray=""/></g><g><path fill="none" stroke="#000000" paint-order="fill stroke markers" d=" M 10 35 L 283.8720703125 35" stroke-miterlimit="10" stroke-dasharray=""/></g><g><path fill="none" stroke="#000000" paint-order="fill stroke markers" d=" M 10 88 L 283.8720703125 88" stroke-miterlimit="10" stroke-dasharray=""/></g><g><g><path fill="none" stroke="none"/><text fill="#000000" stroke="none" font-family="Arial" font-size="13px" font-style="normal" font-weight="bold" text-decoration="undefined" x="369.43603515625" y="245.5" text-anchor="middle" dominant-baseline="central" transform="matrix(1 0 0 1 -222 -222)">Train</text></g></g><g><g><path fill="none" stroke="none"/><text fill="#000000" stroke="none" font-family="Arial" font-size="13px" font-style="normal" font-weight="normal" text-decoration="undefined" x="237" y="268.5" text-anchor="start" dominant-baseline="central" transform="matrix(1 0 0 1 -222 -222)">-number: QString</text></g></g><g><g><path fill="none" stroke="none"/><text fill="#000000" stroke="none" font-family="Arial" font-size="13px" font-style="normal" font-weight="normal" text-decoration="undefined" x="237" y="283.5" text-anchor="start" dominant-baseline="central" transform="matrix(1 0 0 1 -222 -222)">-timetable: Timetable</text></g></g><g><g><path fill="none" stroke="none"/><text fill="#000000" stroke="none" font-family="Arial" font-size="13px" font-style="normal" font-weight="normal" text-decoration="undefined" x="237" y="298.5" text-anchor="start" dominant-baseline="central" transform="matrix(1 0 0 1 -222 -222)">-carriages: vector&lt;tuple&lt;QString,int,int&gt;&gt;</text></g></g><g><g><path fill="none" stroke="none"/><text fill="#000000" stroke="none" font-family="Arial" font-size="13px" font-style="normal" font-weight="normal" text-decoration="undefined" x="237" y="321.5" text-anchor="start" dominant-baseline="central" transform="matrix(1 0 0 1 -222 -222)">+getter()</text></g></g><g><g><path fill="none" stroke="none"/><text fill="#000000" stroke="none" font-family="Arial" font-size="13px" font-style="normal" font-weight="normal" text-decoration="undefined" x="237" y="336.5" text-anchor="start" dominant-baseline="central" transform="matrix(1 0 0 1 -222 -222)">+setter()</text></g></g><g><g><path fill="none" stroke="none"/><text fill="#000000" stroke="none" font-family="Arial" font-size="13px" font-style="normal" font-weight="normal" text-decoration="undefined" x="237" y="351.5" text-anchor="start" dominant-baseline="central" transform="matrix(1 0 0 1 -222 -222)">+operator()</text></g></g></g></svg>