<svg version="1.1" xmlns="http://www.w3.org/2000/svg" xmlns:xlink="http://www.w3.org/1999/xlink" width="884" height="983"><defs/><g><g><path fill="#C0C0C0" stroke="none" paint-order="stroke fill markers" d=" M 245 178.5 C 245 168.835016 267.8334752 161 296 161 C 324.1665248 161 347 168.835016 347 178.5 C 347 188.164984 324.1665248 196 296 196 C 267.8334752 196 245 188.164984 245 178.5 Z" fill-opacity="0.2"/></g><g><path fill="#ffffff" stroke="none" paint-order="stroke fill markers" d=" M 238 171.5 C 238 161.835016 260.8334752 154 289 154 C 317.1665248 154 340 161.835016 340 171.5 C 340 181.164984 317.1665248 189 289 189 C 260.8334752 189 238 181.164984 238 171.5 Z"/></g><g><path fill="none" stroke="#000000" paint-order="fill stroke markers" d=" M 238 171.5 C 238 161.835016 260.8334752 154 289 154 C 317.1665248 154 340 161.835016 340 171.5 C 340 181.164984 317.1665248 189 289 189 C 260.8334752 189 238 181.164984 238 171.5 Z" stroke-miterlimit="10" stroke-dasharray=""/></g><g><g><path fill="none" stroke="none"/><text fill="#000000" stroke="none" font-family="Arial" font-size="13px" font-style="normal" font-weight="bold" text-decoration="undefined" x="359" y="226.5" text-anchor="middle" dominant-baseline="central" transform="matrix(1 0 0 1 -70 -54)">查询余票</text></g></g><g><path fill="#C0C0C0" stroke="none" paint-order="stroke fill markers" d=" M 411 66.5 C 411 56.835015999999996 433.8334752 49 462 49 C 490.16652480000005 49 513 56.835015999999996 513 66.5 C 513 76.164984 490.16652480000005 84 462 84 C 433.8334752 84 411 76.164984 411 66.5 Z" fill-opacity="0.2"/></g><g><path fill="#ffffff" stroke="none" paint-order="stroke fill markers" d=" M 404 59.5 C 404 49.835015999999996 426.8334752 42 455 42 C 483.16652480000005 42 506 49.835015999999996 506 59.5 C 506 69.164984 483.16652480000005 77 455 77 C 426.8334752 77 404 69.164984 404 59.5 Z"/></g><g><path fill="none" stroke="#000000" paint-order="fill stroke markers" d=" M 404 59.5 C 404 49.835015999999996 426.8334752 42 455 42 C 483.16652480000005 42 506 49.835015999999996 506 59.5 C 506 69.164984 483.16652480000005 77 455 77 C 426.8334752 77 404 69.164984 404 59.5 Z" stroke-miterlimit="10" stroke-dasharray=""/></g><g><g><path fill="none" stroke="none"/><text fill="#000000" stroke="none" font-family="Arial" font-size="13px" font-style="normal" font-weight="bold" text-decoration="undefined" x="525" y="114.5" text-anchor="middle" dominant-baseline="central" transform="matrix(1 0 0 1 -70 -54)">查询</text></g></g><g><path fill="#C0C0C0" stroke="none" paint-order="stroke fill markers" d=" M 586 34.5 C 586 24.835015999999996 609.7289056 17 639 17 C 668.2710944 17 692 24.835015999999996 692 34.5 C 692 44.164984000000004 668.2710944 52 639 52 C 609.7289056 52 586 44.164984000000004 586 34.5 Z" fill-opacity="0.2"/></g><g><path fill="#ffffff" stroke="none" paint-order="stroke fill markers" d=" M 579 27.5 C 579 17.835015999999996 602.7289056 10 632 10 C 661.2710944 10 685 17.835015999999996 685 27.5 C 685 37.164984000000004 661.2710944 45 632 45 C 602.7289056 45 579 37.164984000000004 579 27.5 Z"/></g><g><path fill="none" stroke="#000000" paint-order="fill stroke markers" d=" M 579 27.5 C 579 17.835015999999996 602.7289056 10 632 10 C 661.2710944 10 685 17.835015999999996 685 27.5 C 685 37.164984000000004 661.2710944 45 632 45 C 602.7289056 45 579 37.164984000000004 579 27.5 Z" stroke-miterlimit="10" stroke-dasharray=""/></g><g><g><path fill="none" stroke="none"/><text fill="#000000" stroke="none" font-family="Arial" font-size="13px" font-style="normal" font-weight="bold" text-decoration="undefined" x="702" y="82.5" text-anchor="middle" dominant-baseline="central" transform="matrix(1 0 0 1 -70 -54)">始发站</text></g></g><g><path fill="#C0C0C0" stroke="none" paint-order="stroke fill markers" d=" M 588 76.5 C 588 66.835016 610.8334752 59 639 59 C 667.1665248 59 690 66.835016 690 76.5 C 690 86.164984 667.1665248 94 639 94 C 610.8334752 94 588 86.164984 588 76.5 Z" fill-opacity="0.2"/></g><g><path fill="#ffffff" stroke="none" paint-order="stroke fill markers" d=" M 581 69.5 C 581 59.835015999999996 603.8334752 52 632 52 C 660.1665248 52 683 59.835015999999996 683 69.5 C 683 79.164984 660.1665248 87 632 87 C 603.8334752 87 581 79.164984 581 69.5 Z"/></g><g><path fill="none" stroke="#000000" paint-order="fill stroke markers" d=" M 581 69.5 C 581 59.835015999999996 603.8334752 52 632 52 C 660.1665248 52 683 59.835015999999996 683 69.5 C 683 79.164984 660.1665248 87 632 87 C 603.8334752 87 581 79.164984 581 69.5 Z" stroke-miterlimit="10" stroke-dasharray=""/></g><g><g><path fill="none" stroke="none"/><text fill="#000000" stroke="none" font-family="Arial" font-size="13px" font-style="normal" font-weight="bold" text-decoration="undefined" x="702" y="124.5" text-anchor="middle" dominant-baseline="central" transform="matrix(1 0 0 1 -70 -54)">终点站</text></g></g><g><path fill="#C0C0C0" stroke="none" paint-order="stroke fill markers" d=" M 588 114.5 C 588 104.835016 610.8334752 97 639 97 C 667.1665248 97 690 104.835016 690 114.5 C 690 124.164984 667.1665248 132 639 132 C 610.8334752 132 588 124.164984 588 114.5 Z" fill-opacity="0.2"/></g><g><path fill="#ffffff" stroke="none" paint-order="stroke fill markers" d=" M 581 107.5 C 581 97.835016 603.8334752 90 632 90 C 660.1665248 90 683 97.835016 683 107.5 C 683 117.164984 660.1665248 125 632 125 C 603.8334752 125 581 117.164984 581 107.5 Z"/></g><g><path fill="none" stroke="#000000" paint-order="fill stroke markers" d=" M 581 107.5 C 581 97.835016 603.8334752 90 632 90 C 660.1665248 90 683 97.835016 683 107.5 C 683 117.164984 660.1665248 125 632 125 C 603.8334752 125 581 117.164984 581 107.5 Z" stroke-miterlimit="10" stroke-dasharray=""/></g><g><g><path fill="none" stroke="none"/><text fill="#000000" stroke="none" font-family="Arial" font-size="13px" font-style="normal" font-weight="bold" text-decoration="undefined" x="702" y="162.5" text-anchor="middle" dominant-baseline="central" transform="matrix(1 0 0 1 -70 -54)">日期</text></g></g><g><path fill="#C0C0C0" stroke="none" paint-order="stroke fill markers" d=" M 549 162.5 C 549 152.835016 589.0705104 145 638.5 145 C 687.9294896 145 728 152.835016 728 162.5 C 728 172.164984 687.9294896 180 638.5 180 C 589.0705104 180 549 172.164984 549 162.5 Z" fill-opacity="0.2"/></g><g><path fill="#ffffff" stroke="none" paint-order="stroke fill markers" d=" M 542 155.5 C 542 145.835016 582.0705104 138 631.5 138 C 680.9294896 138 721 145.835016 721 155.5 C 721 165.164984 680.9294896 173 631.5 173 C 582.0705104 173 542 165.164984 542 155.5 Z"/></g><g><path fill="none" stroke="#000000" paint-order="fill stroke markers" d=" M 542 155.5 C 542 145.835016 582.0705104 138 631.5 138 C 680.9294896 138 721 145.835016 721 155.5 C 721 165.164984 680.9294896 173 631.5 173 C 582.0705104 173 542 165.164984 542 155.5 Z" stroke-miterlimit="10" stroke-dasharray=""/></g><g><g><path fill="none" stroke="none"/><text fill="#000000" stroke="none" font-family="Arial" font-size="13px" font-style="normal" font-weight="bold" text-decoration="undefined" x="701.5" y="210.5" text-anchor="middle" dominant-baseline="central" transform="matrix(1 0 0 1 -70 -54)">查看、选择查询历史</text></g></g><g><path fill="#C0C0C0" stroke="none" paint-order="stroke fill markers" d=" M 411 298.5 C 411 288.835016 433.8334752 281 462 281 C 490.16652480000005 281 513 288.835016 513 298.5 C 513 308.164984 490.16652480000005 316 462 316 C 433.8334752 316 411 308.164984 411 298.5 Z" fill-opacity="0.2"/></g><g><path fill="#ffffff" stroke="none" paint-order="stroke fill markers" d=" M 404 291.5 C 404 281.835016 426.8334752 274 455 274 C 483.16652480000005 274 506 281.835016 506 291.5 C 506 301.164984 483.16652480000005 309 455 309 C 426.8334752 309 404 301.164984 404 291.5 Z"/></g><g><path fill="none" stroke="#000000" paint-order="fill stroke markers" d=" M 404 291.5 C 404 281.835016 426.8334752 274 455 274 C 483.16652480000005 274 506 281.835016 506 291.5 C 506 301.164984 483.16652480000005 309 455 309 C 426.8334752 309 404 301.164984 404 291.5 Z" stroke-miterlimit="10" stroke-dasharray=""/></g><g><g><path fill="none" stroke="none"/><text fill="#000000" stroke="none" font-family="Arial" font-size="13px" font-style="normal" font-weight="bold" text-decoration="undefined" x="525" y="346.5" text-anchor="middle" dominant-baseline="central" transform="matrix(1 0 0 1 -70 -54)">查询结果</text></g></g><g><path fill="#C0C0C0" stroke="none" paint-order="stroke fill markers" d=" M 588 250.5 C 588 240.835016 610.8334752 233 639 233 C 667.1665248 233 690 240.835016 690 250.5 C 690 260.164984 667.1665248 268 639 268 C 610.8334752 268 588 260.164984 588 250.5 Z" fill-opacity="0.2"/></g><g><path fill="#ffffff" stroke="none" paint-order="stroke fill markers" d=" M 581 243.5 C 581 233.835016 603.8334752 226 632 226 C 660.1665248 226 683 233.835016 683 243.5 C 683 253.164984 660.1665248 261 632 261 C 603.8334752 261 581 253.164984 581 243.5 Z"/></g><g><path fill="none" stroke="#000000" paint-order="fill stroke markers" d=" M 581 243.5 C 581 233.835016 603.8334752 226 632 226 C 660.1665248 226 683 233.835016 683 243.5 C 683 253.164984 660.1665248 261 632 261 C 603.8334752 261 581 253.164984 581 243.5 Z" stroke-miterlimit="10" stroke-dasharray=""/></g><g><g><path fill="none" stroke="none"/><text fill="#000000" stroke="none" font-family="Arial" font-size="13px" font-style="normal" font-weight="bold" text-decoration="undefined" x="702" y="298.5" text-anchor="middle" dominant-baseline="central" transform="matrix(1 0 0 1 -70 -54)">筛选</text></g></g><g><path fill="#C0C0C0" stroke="none" paint-order="stroke fill markers" d=" M 775 122.5 C 775 112.835016 798.7289056 105 828 105 C 857.2710944 105 881 112.835016 881 122.5 C 881 132.164984 857.2710944 140 828 140 C 798.7289056 140 775 132.164984 775 122.5 Z" fill-opacity="0.2"/></g><g><path fill="#ffffff" stroke="none" paint-order="stroke fill markers" d=" M 768 115.5 C 768 105.835016 791.7289056 98 821 98 C 850.2710944 98 874 105.835016 874 115.5 C 874 125.164984 850.2710944 133 821 133 C 791.7289056 133 768 125.164984 768 115.5 Z"/></g><g><path fill="none" stroke="#000000" paint-order="fill stroke markers" d=" M 768 115.5 C 768 105.835016 791.7289056 98 821 98 C 850.2710944 98 874 105.835016 874 115.5 C 874 125.164984 850.2710944 133 821 133 C 791.7289056 133 768 125.164984 768 115.5 Z" stroke-miterlimit="10" stroke-dasharray=""/></g><g><g><path fill="none" stroke="none"/><text fill="#000000" stroke="none" font-family="Arial" font-size="13px" font-style="normal" font-weight="bold" text-decoration="undefined" x="891" y="170.5" text-anchor="middle" dominant-baseline="central" transform="matrix(1 0 0 1 -70 -54)">只看商务座</text></g></g><g><path fill="#C0C0C0" stroke="none" paint-order="stroke fill markers" d=" M 775 167.5 C 775 157.835016 798.7289056 150 828 150 C 857.2710944 150 881 157.835016 881 167.5 C 881 177.164984 857.2710944 185 828 185 C 798.7289056 185 775 177.164984 775 167.5 Z" fill-opacity="0.2"/></g><g><path fill="#ffffff" stroke="none" paint-order="stroke fill markers" d=" M 768 160.5 C 768 150.835016 791.7289056 143 821 143 C 850.2710944 143 874 150.835016 874 160.5 C 874 170.164984 850.2710944 178 821 178 C 791.7289056 178 768 170.164984 768 160.5 Z"/></g><g><path fill="none" stroke="#000000" paint-order="fill stroke markers" d=" M 768 160.5 C 768 150.835016 791.7289056 143 821 143 C 850.2710944 143 874 150.835016 874 160.5 C 874 170.164984 850.2710944 178 821 178 C 791.7289056 178 768 170.164984 768 160.5 Z" stroke-miterlimit="10" stroke-dasharray=""/></g><g><g><path fill="none" stroke="none"/><text fill="#000000" stroke="none" font-family="Arial" font-size="13px" font-style="normal" font-weight="bold" text-decoration="undefined" x="891" y="215.5" text-anchor="middle" dominant-baseline="central" transform="matrix(1 0 0 1 -70 -54)">只看一等座</text></g></g><g><path fill="#C0C0C0" stroke="none" paint-order="stroke fill markers" d=" M 775 212.5 C 775 202.835016 798.7289056 195 828 195 C 857.2710944 195 881 202.835016 881 212.5 C 881 222.164984 857.2710944 230 828 230 C 798.7289056 230 775 222.164984 775 212.5 Z" fill-opacity="0.2"/></g><g><path fill="#ffffff" stroke="none" paint-order="stroke fill markers" d=" M 768 205.5 C 768 195.835016 791.7289056 188 821 188 C 850.2710944 188 874 195.835016 874 205.5 C 874 215.164984 850.2710944 223 821 223 C 791.7289056 223 768 215.164984 768 205.5 Z"/></g><g><path fill="none" stroke="#000000" paint-order="fill stroke markers" d=" M 768 205.5 C 768 195.835016 791.7289056 188 821 188 C 850.2710944 188 874 195.835016 874 205.5 C 874 215.164984 850.2710944 223 821 223 C 791.7289056 223 768 215.164984 768 205.5 Z" stroke-miterlimit="10" stroke-dasharray=""/></g><g><g><path fill="none" stroke="none"/><text fill="#000000" stroke="none" font-family="Arial" font-size="13px" font-style="normal" font-weight="bold" text-decoration="undefined" x="891" y="260.5" text-anchor="middle" dominant-baseline="central" transform="matrix(1 0 0 1 -70 -54)">只看二等座</text></g></g><g><path fill="#C0C0C0" stroke="none" paint-order="stroke fill markers" d=" M 777 302.5 C 777 292.835016 799.8334752 285 828 285 C 856.1665248 285 879 292.835016 879 302.5 C 879 312.164984 856.1665248 320 828 320 C 799.8334752 320 777 312.164984 777 302.5 Z" fill-opacity="0.2"/></g><g><path fill="#ffffff" stroke="none" paint-order="stroke fill markers" d=" M 770 295.5 C 770 285.835016 792.8334752 278 821 278 C 849.1665248 278 872 285.835016 872 295.5 C 872 305.164984 849.1665248 313 821 313 C 792.8334752 313 770 305.164984 770 295.5 Z"/></g><g><path fill="none" stroke="#000000" paint-order="fill stroke markers" d=" M 770 295.5 C 770 285.835016 792.8334752 278 821 278 C 849.1665248 278 872 285.835016 872 295.5 C 872 305.164984 849.1665248 313 821 313 C 792.8334752 313 770 305.164984 770 295.5 Z" stroke-miterlimit="10" stroke-dasharray=""/></g><g><g><path fill="none" stroke="none"/><text fill="#000000" stroke="none" font-family="Arial" font-size="13px" font-style="normal" font-weight="bold" text-decoration="undefined" x="891" y="350.5" text-anchor="middle" dominant-baseline="central" transform="matrix(1 0 0 1 -70 -54)">下午出发</text></g></g><g><path fill="#C0C0C0" stroke="none" paint-order="stroke fill markers" d=" M 777 347.5 C 777 337.835016 799.8334752 330 828 330 C 856.1665248 330 879 337.835016 879 347.5 C 879 357.164984 856.1665248 365 828 365 C 799.8334752 365 777 357.164984 777 347.5 Z" fill-opacity="0.2"/></g><g><path fill="#ffffff" stroke="none" paint-order="stroke fill markers" d=" M 770 340.5 C 770 330.835016 792.8334752 323 821 323 C 849.1665248 323 872 330.835016 872 340.5 C 872 350.164984 849.1665248 358 821 358 C 792.8334752 358 770 350.164984 770 340.5 Z"/></g><g><path fill="none" stroke="#000000" paint-order="fill stroke markers" d=" M 770 340.5 C 770 330.835016 792.8334752 323 821 323 C 849.1665248 323 872 330.835016 872 340.5 C 872 350.164984 849.1665248 358 821 358 C 792.8334752 358 770 350.164984 770 340.5 Z" stroke-miterlimit="10" stroke-dasharray=""/></g><g><g><path fill="none" stroke="none"/><text fill="#000000" stroke="none" font-family="Arial" font-size="13px" font-style="normal" font-weight="bold" text-decoration="undefined" x="891" y="395.5" text-anchor="middle" dominant-baseline="central" transform="matrix(1 0 0 1 -70 -54)">只看高铁</text></g></g><g><path fill="#C0C0C0" stroke="none" paint-order="stroke fill markers" d=" M 588 332.5 C 588 322.835016 610.8334752 315 639 315 C 667.1665248 315 690 322.835016 690 332.5 C 690 342.164984 667.1665248 350 639 350 C 610.8334752 350 588 342.164984 588 332.5 Z" fill-opacity="0.2"/></g><g><path fill="#ffffff" stroke="none" paint-order="stroke fill markers" d=" M 581 325.5 C 581 315.835016 603.8334752 308 632 308 C 660.1665248 308 683 315.835016 683 325.5 C 683 335.164984 660.1665248 343 632 343 C 603.8334752 343 581 335.164984 581 325.5 Z"/></g><g><path fill="none" stroke="#000000" paint-order="fill stroke markers" d=" M 581 325.5 C 581 315.835016 603.8334752 308 632 308 C 660.1665248 308 683 315.835016 683 325.5 C 683 335.164984 660.1665248 343 632 343 C 603.8334752 343 581 335.164984 581 325.5 Z" stroke-miterlimit="10" stroke-dasharray=""/></g><g><g><path fill="none" stroke="none"/><text fill="#000000" stroke="none" font-family="Arial" font-size="13px" font-style="normal" font-weight="bold" text-decoration="undefined" x="702" y="380.5" text-anchor="middle" dominant-baseline="central" transform="matrix(1 0 0 1 -70 -54)">排序</text></g></g><g><path fill="#C0C0C0" stroke="none" paint-order="stroke fill markers" d=" M 777 392.5 C 777 382.835016 799.8334752 375 828 375 C 856.1665248 375 879 382.835016 879 392.5 C 879 402.164984 856.1665248 410 828 410 C 799.8334752 410 777 402.164984 777 392.5 Z" fill-opacity="0.2"/></g><g><path fill="#ffffff" stroke="none" paint-order="stroke fill markers" d=" M 770 385.5 C 770 375.835016 792.8334752 368 821 368 C 849.1665248 368 872 375.835016 872 385.5 C 872 395.164984 849.1665248 403 821 403 C 792.8334752 403 770 395.164984 770 385.5 Z"/></g><g><path fill="none" stroke="#000000" paint-order="fill stroke markers" d=" M 770 385.5 C 770 375.835016 792.8334752 368 821 368 C 849.1665248 368 872 375.835016 872 385.5 C 872 395.164984 849.1665248 403 821 403 C 792.8334752 403 770 395.164984 770 385.5 Z" stroke-miterlimit="10" stroke-dasharray=""/></g><g><g><path fill="none" stroke="none"/><text fill="#000000" stroke="none" font-family="Arial" font-size="13px" font-style="normal" font-weight="bold" text-decoration="undefined" x="891" y="440.5" text-anchor="middle" dominant-baseline="central" transform="matrix(1 0 0 1 -70 -54)">耗时最短</text></g></g><g><path fill="#C0C0C0" stroke="none" paint-order="stroke fill markers" d=" M 777 437.5 C 777 427.835016 799.8334752 420 828 420 C 856.1665248 420 879 427.835016 879 437.5 C 879 447.164984 856.1665248 455 828 455 C 799.8334752 455 777 447.164984 777 437.5 Z" fill-opacity="0.2"/></g><g><path fill="#ffffff" stroke="none" paint-order="stroke fill markers" d=" M 770 430.5 C 770 420.835016 792.8334752 413 821 413 C 849.1665248 413 872 420.835016 872 430.5 C 872 440.164984 849.1665248 448 821 448 C 792.8334752 448 770 440.164984 770 430.5 Z"/></g><g><path fill="none" stroke="#000000" paint-order="fill stroke markers" d=" M 770 430.5 C 770 420.835016 792.8334752 413 821 413 C 849.1665248 413 872 420.835016 872 430.5 C 872 440.164984 849.1665248 448 821 448 C 792.8334752 448 770 440.164984 770 430.5 Z" stroke-miterlimit="10" stroke-dasharray=""/></g><g><g><path fill="none" stroke="none"/><text fill="#000000" stroke="none" font-family="Arial" font-size="13px" font-style="normal" font-weight="bold" text-decoration="undefined" x="891" y="485.5" text-anchor="middle" dominant-baseline="central" transform="matrix(1 0 0 1 -70 -54)">发时最早</text></g></g><g><path fill="#C0C0C0" stroke="none" paint-order="stroke fill markers" d=" M 777 482.5 C 777 472.835016 799.8334752 465 828 465 C 856.1665248 465 879 472.835016 879 482.5 C 879 492.164984 856.1665248 500 828 500 C 799.8334752 500 777 492.164984 777 482.5 Z" fill-opacity="0.2"/></g><g><path fill="#ffffff" stroke="none" paint-order="stroke fill markers" d=" M 770 475.5 C 770 465.835016 792.8334752 458 821 458 C 849.1665248 458 872 465.835016 872 475.5 C 872 485.164984 849.1665248 493 821 493 C 792.8334752 493 770 485.164984 770 475.5 Z"/></g><g><path fill="none" stroke="#000000" paint-order="fill stroke markers" d=" M 770 475.5 C 770 465.835016 792.8334752 458 821 458 C 849.1665248 458 872 465.835016 872 475.5 C 872 485.164984 849.1665248 493 821 493 C 792.8334752 493 770 485.164984 770 475.5 Z" stroke-miterlimit="10" stroke-dasharray=""/></g><g><g><path fill="none" stroke="none"/><text fill="#000000" stroke="none" font-family="Arial" font-size="13px" font-style="normal" font-weight="bold" text-decoration="undefined" x="891" y="530.5" text-anchor="middle" dominant-baseline="central" transform="matrix(1 0 0 1 -70 -54)">到时最早</text></g></g><g><path fill="#C0C0C0" stroke="none" paint-order="stroke fill markers" d=" M 777 527.5 C 777 517.835016 799.8334752 510 828 510 C 856.1665248 510 879 517.835016 879 527.5 C 879 537.164984 856.1665248 545 828 545 C 799.8334752 545 777 537.164984 777 527.5 Z" fill-opacity="0.2"/></g><g><path fill="#ffffff" stroke="none" paint-order="stroke fill markers" d=" M 770 520.5 C 770 510.835016 792.8334752 503 821 503 C 849.1665248 503 872 510.835016 872 520.5 C 872 530.164984 849.1665248 538 821 538 C 792.8334752 538 770 530.164984 770 520.5 Z"/></g><g><path fill="none" stroke="#000000" paint-order="fill stroke markers" d=" M 770 520.5 C 770 510.835016 792.8334752 503 821 503 C 849.1665248 503 872 510.835016 872 520.5 C 872 530.164984 849.1665248 538 821 538 C 792.8334752 538 770 530.164984 770 520.5 Z" stroke-miterlimit="10" stroke-dasharray=""/></g><g><g><path fill="none" stroke="none"/><text fill="#000000" stroke="none" font-family="Arial" font-size="13px" font-style="normal" font-weight="bold" text-decoration="undefined" x="891" y="575.5" text-anchor="middle" dominant-baseline="central" transform="matrix(1 0 0 1 -70 -54)">价格最低</text></g></g><g><path fill="#C0C0C0" stroke="none" paint-order="stroke fill markers" d=" M 237 326.5 C 237 316.835016 259.8334752 309 288 309 C 316.1665248 309 339 316.835016 339 326.5 C 339 336.164984 316.1665248 344 288 344 C 259.8334752 344 237 336.164984 237 326.5 Z" fill-opacity="0.2"/></g><g><path fill="#ffffff" stroke="none" paint-order="stroke fill markers" d=" M 230 319.5 C 230 309.835016 252.8334752 302 281 302 C 309.1665248 302 332 309.835016 332 319.5 C 332 329.164984 309.1665248 337 281 337 C 252.8334752 337 230 329.164984 230 319.5 Z"/></g><g><path fill="none" stroke="#000000" paint-order="fill stroke markers" d=" M 230 319.5 C 230 309.835016 252.8334752 302 281 302 C 309.1665248 302 332 309.835016 332 319.5 C 332 329.164984 309.1665248 337 281 337 C 252.8334752 337 230 329.164984 230 319.5 Z" stroke-miterlimit="10" stroke-dasharray=""/></g><g><g><path fill="none" stroke="none"/><text fill="#000000" stroke="none" font-family="Arial" font-size="13px" font-style="normal" font-weight="bold" text-decoration="undefined" x="351" y="374.5" text-anchor="middle" dominant-baseline="central" transform="matrix(1 0 0 1 -70 -54)">订票</text></g></g><g><path fill="#C0C0C0" stroke="none" paint-order="stroke fill markers" d=" M 193 450.5 C 193 440.835016 224.7877792 433 264 433 C 303.2122208 433 335 440.835016 335 450.5 C 335 460.164984 303.2122208 468 264 468 C 224.7877792 468 193 460.164984 193 450.5 Z" fill-opacity="0.2"/></g><g><path fill="#ffffff" stroke="none" paint-order="stroke fill markers" d=" M 186 443.5 C 186 433.835016 217.7877792 426 257 426 C 296.2122208 426 328 433.835016 328 443.5 C 328 453.164984 296.2122208 461 257 461 C 217.7877792 461 186 453.164984 186 443.5 Z"/></g><g><path fill="none" stroke="#000000" paint-order="fill stroke markers" d=" M 186 443.5 C 186 433.835016 217.7877792 426 257 426 C 296.2122208 426 328 433.835016 328 443.5 C 328 453.164984 296.2122208 461 257 461 C 217.7877792 461 186 453.164984 186 443.5 Z" stroke-miterlimit="10" stroke-dasharray=""/></g><g><g><path fill="none" stroke="none"/><text fill="#000000" stroke="none" font-family="Arial" font-size="13px" font-style="normal" font-weight="bold" text-decoration="undefined" x="327" y="498.5" text-anchor="middle" dominant-baseline="central" transform="matrix(1 0 0 1 -70 -54)">管理乘车人信息</text></g></g><g><path fill="#C0C0C0" stroke="none" paint-order="stroke fill markers" d=" M 218 650.5 C 218 640.835016 245.7583424 633 280 633 C 314.2416576 633 342 640.835016 342 650.5 C 342 660.164984 314.2416576 668 280 668 C 245.7583424 668 218 660.164984 218 650.5 Z" fill-opacity="0.2"/></g><g><path fill="#ffffff" stroke="none" paint-order="stroke fill markers" d=" M 211 643.5 C 211 633.835016 238.7583424 626 273 626 C 307.2416576 626 335 633.835016 335 643.5 C 335 653.164984 307.2416576 661 273 661 C 238.7583424 661 211 653.164984 211 643.5 Z"/></g><g><path fill="none" stroke="#000000" paint-order="fill stroke markers" d=" M 211 643.5 C 211 633.835016 238.7583424 626 273 626 C 307.2416576 626 335 633.835016 335 643.5 C 335 653.164984 307.2416576 661 273 661 C 238.7583424 661 211 653.164984 211 643.5 Z" stroke-miterlimit="10" stroke-dasharray=""/></g><g><g><path fill="none" stroke="none"/><text fill="#000000" stroke="none" font-family="Arial" font-size="13px" font-style="normal" font-weight="bold" text-decoration="undefined" x="343" y="698.5" text-anchor="middle" dominant-baseline="central" transform="matrix(1 0 0 1 -70 -54)">管理个人信息</text></g></g><g><path fill="#C0C0C0" stroke="none" paint-order="stroke fill markers" d=" M 393 610.5 C 393 600.835016 420.7583424 593 455 593 C 489.24165760000005 593 517 600.835016 517 610.5 C 517 620.164984 489.24165760000005 628 455 628 C 420.7583424 628 393 620.164984 393 610.5 Z" fill-opacity="0.2"/></g><g><path fill="#ffffff" stroke="none" paint-order="stroke fill markers" d=" M 386 603.5 C 386 593.835016 413.7583424 586 448 586 C 482.24165760000005 586 510 593.835016 510 603.5 C 510 613.164984 482.24165760000005 621 448 621 C 413.7583424 621 386 613.164984 386 603.5 Z"/></g><g><path fill="none" stroke="#000000" paint-order="fill stroke markers" d=" M 386 603.5 C 386 593.835016 413.7583424 586 448 586 C 482.24165760000005 586 510 593.835016 510 603.5 C 510 613.164984 482.24165760000005 621 448 621 C 413.7583424 621 386 613.164984 386 603.5 Z" stroke-miterlimit="10" stroke-dasharray=""/></g><g><g><path fill="none" stroke="none"/><text fill="#000000" stroke="none" font-family="Arial" font-size="13px" font-style="normal" font-weight="bold" text-decoration="undefined" x="518" y="658.5" text-anchor="middle" dominant-baseline="central" transform="matrix(1 0 0 1 -70 -54)">修改个人信息</text></g></g><g><path fill="#C0C0C0" stroke="none" paint-order="stroke fill markers" d=" M 409 666.5 C 409 656.835016 431.8334752 649 460 649 C 488.16652480000005 649 511 656.835016 511 666.5 C 511 676.164984 488.16652480000005 684 460 684 C 431.8334752 684 409 676.164984 409 666.5 Z" fill-opacity="0.2"/></g><g><path fill="#ffffff" stroke="none" paint-order="stroke fill markers" d=" M 402 659.5 C 402 649.835016 424.8334752 642 453 642 C 481.16652480000005 642 504 649.835016 504 659.5 C 504 669.164984 481.16652480000005 677 453 677 C 424.8334752 677 402 669.164984 402 659.5 Z"/></g><g><path fill="none" stroke="#000000" paint-order="fill stroke markers" d=" M 402 659.5 C 402 649.835016 424.8334752 642 453 642 C 481.16652480000005 642 504 649.835016 504 659.5 C 504 669.164984 481.16652480000005 677 453 677 C 424.8334752 677 402 669.164984 402 659.5 Z" stroke-miterlimit="10" stroke-dasharray=""/></g><g><g><path fill="none" stroke="none"/><text fill="#000000" stroke="none" font-family="Arial" font-size="13px" font-style="normal" font-weight="bold" text-decoration="undefined" x="523" y="714.5" text-anchor="middle" dominant-baseline="central" transform="matrix(1 0 0 1 -70 -54)">退出登录</text></g></g><g><path fill="#C0C0C0" stroke="none" paint-order="stroke fill markers" d=" M 409 714.5 C 409 704.835016 431.8334752 697 460 697 C 488.16652480000005 697 511 704.835016 511 714.5 C 511 724.164984 488.16652480000005 732 460 732 C 431.8334752 732 409 724.164984 409 714.5 Z" fill-opacity="0.2"/></g><g><path fill="#ffffff" stroke="none" paint-order="stroke fill markers" d=" M 402 707.5 C 402 697.835016 424.8334752 690 453 690 C 481.16652480000005 690 504 697.835016 504 707.5 C 504 717.164984 481.16652480000005 725 453 725 C 424.8334752 725 402 717.164984 402 707.5 Z"/></g><g><path fill="none" stroke="#000000" paint-order="fill stroke markers" d=" M 402 707.5 C 402 697.835016 424.8334752 690 453 690 C 481.16652480000005 690 504 697.835016 504 707.5 C 504 717.164984 481.16652480000005 725 453 725 C 424.8334752 725 402 717.164984 402 707.5 Z" stroke-miterlimit="10" stroke-dasharray=""/></g><g><g><path fill="none" stroke="none"/><text fill="#000000" stroke="none" font-family="Arial" font-size="13px" font-style="normal" font-weight="bold" text-decoration="undefined" x="523" y="762.5" text-anchor="middle" dominant-baseline="central" transform="matrix(1 0 0 1 -70 -54)">注销账号</text></g></g><g><path fill="#ffffff" stroke="none" paint-order="stroke fill markers" d=" M 26.748623046874997 275.85 C 26.748623046874997 270.96227952000004 30.706425414875 267 35.588623046875 267 C 40.470820678875 267 44.428623046875 270.96227952000004 44.428623046875 275.85 C 44.428623046875 280.73772048 40.470820678875 284.7 35.588623046875 284.7 C 30.706425414875 284.7 26.748623046874997 280.73772048 26.748623046874997 275.85 Z"/></g><g><path fill="none" stroke="#000000" paint-order="fill stroke markers" d=" M 26.748623046874997 275.85 C 26.748623046874997 270.96227952000004 30.706425414875 267 35.588623046875 267 C 40.470820678875 267 44.428623046875 270.96227952000004 44.428623046875 275.85 C 44.428623046875 280.73772048 40.470820678875 284.7 35.588623046875 284.7 C 30.706425414875 284.7 26.748623046874997 280.73772048 26.748623046874997 275.85 Z" stroke-miterlimit="10" stroke-dasharray=""/></g><g><path fill="none" stroke="#000000" paint-order="fill stroke markers" d=" M 35.588623046875 284.7 L 35.588623046875 302.3" stroke-miterlimit="10" stroke-dasharray=""/></g><g><path fill="none" stroke="#000000" paint-order="fill stroke markers" d=" M 26.228623046875 291.3 L 44.948623046875 291.3" stroke-miterlimit="10" stroke-dasharray=""/></g><g><path fill="none" stroke="#000000" paint-order="fill stroke markers" d=" M 35.588623046875 302.3 L 22.588623046875 320" stroke-miterlimit="10" stroke-dasharray=""/></g><g><path fill="none" stroke="#000000" paint-order="fill stroke markers" d=" M 35.588623046875 302.3 L 48.588623046875 320" stroke-miterlimit="10" stroke-dasharray=""/></g><g><g><path fill="none" stroke="none"/><text fill="#000000" stroke="none" font-family="Arial" font-size="13px" font-style="normal" font-weight="bold" text-decoration="undefined" x="106.088623046875" y="388.5" text-anchor="middle" dominant-baseline="central" transform="matrix(1 0 0 1 -70 -54)">用户</text></g></g><g><path fill="none" stroke="#000000" paint-order="fill stroke markers" d=" M 62 307 L 229 316" stroke-miterlimit="10" stroke-dasharray=""/></g><g><path fill="none" stroke="#000000" paint-order="fill stroke markers" d=" M 62 292 L 253 190" stroke-miterlimit="10" stroke-dasharray=""/></g><g><path fill="#C0C0C0" stroke="none" paint-order="stroke fill markers" d=" M 241 42.5 C 241 32.835015999999996 263.8334752 25 292 25 C 320.1665248 25 343 32.835015999999996 343 42.5 C 343 52.164984000000004 320.1665248 60 292 60 C 263.8334752 60 241 52.164984000000004 241 42.5 Z" fill-opacity="0.2"/></g><g><path fill="#ffffff" stroke="none" paint-order="stroke fill markers" d=" M 234 35.5 C 234 25.835015999999996 256.8334752 18 285 18 C 313.1665248 18 336 25.835015999999996 336 35.5 C 336 45.164984000000004 313.1665248 53 285 53 C 256.8334752 53 234 45.164984000000004 234 35.5 Z"/></g><g><path fill="none" stroke="#000000" paint-order="fill stroke markers" d=" M 234 35.5 C 234 25.835015999999996 256.8334752 18 285 18 C 313.1665248 18 336 25.835015999999996 336 35.5 C 336 45.164984000000004 313.1665248 53 285 53 C 256.8334752 53 234 45.164984000000004 234 35.5 Z" stroke-miterlimit="10" stroke-dasharray=""/></g><g><g><path fill="none" stroke="none"/><text fill="#000000" stroke="none" font-family="Arial" font-size="13px" font-style="normal" font-weight="bold" text-decoration="undefined" x="355" y="90.5" text-anchor="middle" dominant-baseline="central" transform="matrix(1 0 0 1 -70 -54)">登录</text></g></g><g><path fill="#C0C0C0" stroke="none" paint-order="stroke fill markers" d=" M 241 114.5 C 241 104.835016 263.8334752 97 292 97 C 320.1665248 97 343 104.835016 343 114.5 C 343 124.164984 320.1665248 132 292 132 C 263.8334752 132 241 124.164984 241 114.5 Z" fill-opacity="0.2"/></g><g><path fill="#ffffff" stroke="none" paint-order="stroke fill markers" d=" M 234 107.5 C 234 97.835016 256.8334752 90 285 90 C 313.1665248 90 336 97.835016 336 107.5 C 336 117.164984 313.1665248 125 285 125 C 256.8334752 125 234 117.164984 234 107.5 Z"/></g><g><path fill="none" stroke="#000000" paint-order="fill stroke markers" d=" M 234 107.5 C 234 97.835016 256.8334752 90 285 90 C 313.1665248 90 336 97.835016 336 107.5 C 336 117.164984 313.1665248 125 285 125 C 256.8334752 125 234 117.164984 234 107.5 Z" stroke-miterlimit="10" stroke-dasharray=""/></g><g><g><path fill="none" stroke="none"/><text fill="#000000" stroke="none" font-family="Arial" font-size="13px" font-style="normal" font-weight="bold" text-decoration="undefined" x="355" y="162.5" text-anchor="middle" dominant-baseline="central" transform="matrix(1 0 0 1 -70 -54)">注册</text></g></g><g><path fill="none" stroke="#000000" paint-order="fill stroke markers" d=" M 62 284 L 261 126" stroke-miterlimit="10" stroke-dasharray=""/></g><g><path fill="none" stroke="#000000" paint-order="fill stroke markers" d=" M 62 277 L 267 54" stroke-miterlimit="10" stroke-dasharray=""/></g><g><path fill="none" stroke="#000000" paint-order="fill stroke markers" d=" M 62 323 L 228 425" stroke-miterlimit="10" stroke-dasharray=""/></g><g><path fill="none" stroke="#000000" paint-order="fill stroke markers" d=" M 62 344 L 260 625" stroke-miterlimit="10" stroke-dasharray=""/></g><g><path fill="none" stroke="#000000" paint-order="fill stroke markers" d=" M 316 153 L 427 78" stroke-miterlimit="10" stroke-dasharray=""/></g><g><path fill="none" stroke="#000000" paint-order="fill stroke markers" d=" M 315 190 L 430 273" stroke-miterlimit="10" stroke-dasharray=""/></g><g><path fill="none" stroke="#000000" paint-order="fill stroke markers" d=" M 507 50 L 578 37" stroke-miterlimit="10" stroke-dasharray=""/></g><g><path fill="none" stroke="#000000" paint-order="fill stroke markers" d=" M 507 62 L 580 66" stroke-miterlimit="10" stroke-dasharray=""/></g><g><path fill="none" stroke="#000000" paint-order="fill stroke markers" d=" M 507 73 L 580 93" stroke-miterlimit="10" stroke-dasharray=""/></g><g><path fill="none" stroke="#000000" paint-order="fill stroke markers" d=" M 490 78 L 598 137" stroke-miterlimit="10" stroke-dasharray=""/></g><g><path fill="none" stroke="#000000" paint-order="fill stroke markers" d=" M 659 225 L 793 134" stroke-miterlimit="10" stroke-dasharray=""/></g><g><path fill="none" stroke="#000000" paint-order="fill stroke markers" d=" M 673 225 L 778 179" stroke-miterlimit="10" stroke-dasharray=""/></g><g><path fill="none" stroke="#000000" paint-order="fill stroke markers" d=" M 684 233 L 767 216" stroke-miterlimit="10" stroke-dasharray=""/></g><g><path fill="none" stroke="#000000" paint-order="fill stroke markers" d=" M 684 257 L 769 281" stroke-miterlimit="10" stroke-dasharray=""/></g><g><path fill="none" stroke="#000000" paint-order="fill stroke markers" d=" M 669 262 L 786 322" stroke-miterlimit="10" stroke-dasharray=""/></g><g><path fill="#C0C0C0" stroke="none" paint-order="stroke fill markers" d=" M 777 258.5 C 777 248.835016 799.8334752 241 828 241 C 856.1665248 241 879 248.835016 879 258.5 C 879 268.164984 856.1665248 276 828 276 C 799.8334752 276 777 268.164984 777 258.5 Z" fill-opacity="0.2"/></g><g><path fill="#ffffff" stroke="none" paint-order="stroke fill markers" d=" M 770 251.5 C 770 241.835016 792.8334752 234 821 234 C 849.1665248 234 872 241.835016 872 251.5 C 872 261.164984 849.1665248 269 821 269 C 792.8334752 269 770 261.164984 770 251.5 Z"/></g><g><path fill="none" stroke="#000000" paint-order="fill stroke markers" d=" M 770 251.5 C 770 241.835016 792.8334752 234 821 234 C 849.1665248 234 872 241.835016 872 251.5 C 872 261.164984 849.1665248 269 821 269 C 792.8334752 269 770 261.164984 770 251.5 Z" stroke-miterlimit="10" stroke-dasharray=""/></g><g><g><path fill="none" stroke="none"/><text fill="#000000" stroke="none" font-family="Arial" font-size="13px" font-style="normal" font-weight="bold" text-decoration="undefined" x="891" y="306.5" text-anchor="middle" dominant-baseline="central" transform="matrix(1 0 0 1 -70 -54)">上午出发</text></g></g><g><path fill="none" stroke="#000000" paint-order="fill stroke markers" d=" M 684 342 L 769 368" stroke-miterlimit="10" stroke-dasharray=""/></g><g><path fill="none" stroke="#000000" paint-order="fill stroke markers" d=" M 666 344 L 789 412" stroke-miterlimit="10" stroke-dasharray=""/></g><g><path fill="none" stroke="#000000" paint-order="fill stroke markers" d=" M 656 344 L 798 457" stroke-miterlimit="10" stroke-dasharray=""/></g><g><path fill="none" stroke="#000000" paint-order="fill stroke markers" d=" M 650 344 L 804 502" stroke-miterlimit="10" stroke-dasharray=""/></g><g><path fill="none" stroke="#000000" paint-order="fill stroke markers" d=" M 507 277 L 580 257" stroke-miterlimit="10" stroke-dasharray=""/></g><g><path fill="none" stroke="#000000" paint-order="fill stroke markers" d=" M 507 301 L 580 315" stroke-miterlimit="10" stroke-dasharray=""/></g><g><path fill="none" stroke="#000000" paint-order="fill stroke markers" d=" M 336 629 L 385 617" stroke-miterlimit="10" stroke-dasharray=""/></g><g><path fill="none" stroke="#000000" paint-order="fill stroke markers" d=" M 336 649 L 401 654" stroke-miterlimit="10" stroke-dasharray=""/></g><g><path fill="none" stroke="#000000" paint-order="fill stroke markers" d=" M 326 662 L 402 689" stroke-miterlimit="10" stroke-dasharray=""/></g><g><path fill="#C0C0C0" stroke="none" paint-order="stroke fill markers" d=" M 393 370.5 C 393 360.835016 416.7289056 353 446 353 C 475.27109440000004 353 499 360.835016 499 370.5 C 499 380.164984 475.27109440000004 388 446 388 C 416.7289056 388 393 380.164984 393 370.5 Z" fill-opacity="0.2"/></g><g><path fill="#ffffff" stroke="none" paint-order="stroke fill markers" d=" M 386 363.5 C 386 353.835016 409.7289056 346 439 346 C 468.27109440000004 346 492 353.835016 492 363.5 C 492 373.164984 468.27109440000004 381 439 381 C 409.7289056 381 386 373.164984 386 363.5 Z"/></g><g><path fill="none" stroke="#000000" paint-order="fill stroke markers" d=" M 386 363.5 C 386 353.835016 409.7289056 346 439 346 C 468.27109440000004 346 492 353.835016 492 363.5 C 492 373.164984 468.27109440000004 381 439 381 C 409.7289056 381 386 373.164984 386 363.5 Z" stroke-miterlimit="10" stroke-dasharray=""/></g><g><g><path fill="none" stroke="none"/><text fill="#000000" stroke="none" font-family="Arial" font-size="13px" font-style="normal" font-weight="bold" text-decoration="undefined" x="509" y="418.5" text-anchor="middle" dominant-baseline="central" transform="matrix(1 0 0 1 -70 -54)">添加乘车人</text></g></g><g><path fill="#C0C0C0" stroke="none" paint-order="stroke fill markers" d=" M 393 429.5 C 393 419.835016 416.7289056 412 446 412 C 475.27109440000004 412 499 419.835016 499 429.5 C 499 439.164984 475.27109440000004 447 446 447 C 416.7289056 447 393 439.164984 393 429.5 Z" fill-opacity="0.2"/></g><g><path fill="#ffffff" stroke="none" paint-order="stroke fill markers" d=" M 386 422.5 C 386 412.835016 409.7289056 405 439 405 C 468.27109440000004 405 492 412.835016 492 422.5 C 492 432.164984 468.27109440000004 440 439 440 C 409.7289056 440 386 432.164984 386 422.5 Z"/></g><g><path fill="none" stroke="#000000" paint-order="fill stroke markers" d=" M 386 422.5 C 386 412.835016 409.7289056 405 439 405 C 468.27109440000004 405 492 412.835016 492 422.5 C 492 432.164984 468.27109440000004 440 439 440 C 409.7289056 440 386 432.164984 386 422.5 Z" stroke-miterlimit="10" stroke-dasharray=""/></g><g><g><path fill="none" stroke="none"/><text fill="#000000" stroke="none" font-family="Arial" font-size="13px" font-style="normal" font-weight="bold" text-decoration="undefined" x="509" y="477.5" text-anchor="middle" dominant-baseline="central" transform="matrix(1 0 0 1 -70 -54)">修改乘车人</text></g></g><g><path fill="#C0C0C0" stroke="none" paint-order="stroke fill markers" d=" M 393 488.5 C 393 478.835016 416.7289056 471 446 471 C 475.27109440000004 471 499 478.835016 499 488.5 C 499 498.164984 475.27109440000004 506 446 506 C 416.7289056 506 393 498.164984 393 488.5 Z" fill-opacity="0.2"/></g><g><path fill="#ffffff" stroke="none" paint-order="stroke fill markers" d=" M 386 481.5 C 386 471.835016 409.7289056 464 439 464 C 468.27109440000004 464 492 471.835016 492 481.5 C 492 491.164984 468.27109440000004 499 439 499 C 409.7289056 499 386 491.164984 386 481.5 Z"/></g><g><path fill="none" stroke="#000000" paint-order="fill stroke markers" d=" M 386 481.5 C 386 471.835016 409.7289056 464 439 464 C 468.27109440000004 464 492 471.835016 492 481.5 C 492 491.164984 468.27109440000004 499 439 499 C 409.7289056 499 386 491.164984 386 481.5 Z" stroke-miterlimit="10" stroke-dasharray=""/></g><g><g><path fill="none" stroke="none"/><text fill="#000000" stroke="none" font-family="Arial" font-size="13px" font-style="normal" font-weight="bold" text-decoration="undefined" x="509" y="536.5" text-anchor="middle" dominant-baseline="central" transform="matrix(1 0 0 1 -70 -54)">删除乘车人</text></g></g><g><path fill="#C0C0C0" stroke="none" paint-order="stroke fill markers" d=" M 393 547.5 C 393 537.835016 416.7289056 530 446 530 C 475.27109440000004 530 499 537.835016 499 547.5 C 499 557.164984 475.27109440000004 565 446 565 C 416.7289056 565 393 557.164984 393 547.5 Z" fill-opacity="0.2"/></g><g><path fill="#ffffff" stroke="none" paint-order="stroke fill markers" d=" M 386 540.5 C 386 530.835016 409.7289056 523 439 523 C 468.27109440000004 523 492 530.835016 492 540.5 C 492 550.164984 468.27109440000004 558 439 558 C 409.7289056 558 386 550.164984 386 540.5 Z"/></g><g><path fill="none" stroke="#000000" paint-order="fill stroke markers" d=" M 386 540.5 C 386 530.835016 409.7289056 523 439 523 C 468.27109440000004 523 492 530.835016 492 540.5 C 492 550.164984 468.27109440000004 558 439 558 C 409.7289056 558 386 550.164984 386 540.5 Z" stroke-miterlimit="10" stroke-dasharray=""/></g><g><g><path fill="none" stroke="none"/><text fill="#000000" stroke="none" font-family="Arial" font-size="13px" font-style="normal" font-weight="bold" text-decoration="undefined" x="509" y="595.5" text-anchor="middle" dominant-baseline="central" transform="matrix(1 0 0 1 -70 -54)">查找乘车人</text></g></g><g><path fill="#C0C0C0" stroke="none" paint-order="stroke fill markers" d=" M 572 466.5 C 572 456.835016 599.7583424 449 634 449 C 668.2416576 449 696 456.835016 696 466.5 C 696 476.164984 668.2416576 484 634 484 C 599.7583424 484 572 476.164984 572 466.5 Z" fill-opacity="0.2"/></g><g><path fill="#ffffff" stroke="none" paint-order="stroke fill markers" d=" M 565 459.5 C 565 449.835016 592.7583424 442 627 442 C 661.2416576 442 689 449.835016 689 459.5 C 689 469.164984 661.2416576 477 627 477 C 592.7583424 477 565 469.164984 565 459.5 Z"/></g><g><path fill="none" stroke="#000000" paint-order="fill stroke markers" d=" M 565 459.5 C 565 449.835016 592.7583424 442 627 442 C 661.2416576 442 689 449.835016 689 459.5 C 689 469.164984 661.2416576 477 627 477 C 592.7583424 477 565 469.164984 565 459.5 Z" stroke-miterlimit="10" stroke-dasharray=""/></g><g><g><path fill="none" stroke="none"/><text fill="#000000" stroke="none" font-family="Arial" font-size="13px" font-style="normal" font-weight="bold" text-decoration="undefined" x="697" y="514.5" text-anchor="middle" dominant-baseline="central" transform="matrix(1 0 0 1 -70 -54)">根据姓名查找</text></g></g><g><path fill="#C0C0C0" stroke="none" paint-order="stroke fill markers" d=" M 553 526.5 C 553 516.835016 589.0410736 509 633.5 509 C 677.9589264 509 714 516.835016 714 526.5 C 714 536.164984 677.9589264 544 633.5 544 C 589.0410736 544 553 536.164984 553 526.5 Z" fill-opacity="0.2"/></g><g><path fill="#ffffff" stroke="none" paint-order="stroke fill markers" d=" M 546 519.5 C 546 509.835016 582.0410736 502 626.5 502 C 670.9589264 502 707 509.835016 707 519.5 C 707 529.164984 670.9589264 537 626.5 537 C 582.0410736 537 546 529.164984 546 519.5 Z"/></g><g><path fill="none" stroke="#000000" paint-order="fill stroke markers" d=" M 546 519.5 C 546 509.835016 582.0410736 502 626.5 502 C 670.9589264 502 707 509.835016 707 519.5 C 707 529.164984 670.9589264 537 626.5 537 C 582.0410736 537 546 529.164984 546 519.5 Z" stroke-miterlimit="10" stroke-dasharray=""/></g><g><g><path fill="none" stroke="none"/><text fill="#000000" stroke="none" font-family="Arial" font-size="13px" font-style="normal" font-weight="bold" text-decoration="undefined" x="696.5" y="574.5" text-anchor="middle" dominant-baseline="central" transform="matrix(1 0 0 1 -70 -54)">根据联系方式查找</text></g></g><g><path fill="#C0C0C0" stroke="none" paint-order="stroke fill markers" d=" M 553 586.5 C 553 576.835016 589.0410736 569 633.5 569 C 677.9589264 569 714 576.835016 714 586.5 C 714 596.164984 677.9589264 604 633.5 604 C 589.0410736 604 553 596.164984 553 586.5 Z" fill-opacity="0.2"/></g><g><path fill="#ffffff" stroke="none" paint-order="stroke fill markers" d=" M 546 579.5 C 546 569.835016 582.0410736 562 626.5 562 C 670.9589264 562 707 569.835016 707 579.5 C 707 589.164984 670.9589264 597 626.5 597 C 582.0410736 597 546 589.164984 546 579.5 Z"/></g><g><path fill="none" stroke="#000000" paint-order="fill stroke markers" d=" M 546 579.5 C 546 569.835016 582.0410736 562 626.5 562 C 670.9589264 562 707 569.835016 707 579.5 C 707 589.164984 670.9589264 597 626.5 597 C 582.0410736 597 546 589.164984 546 579.5 Z" stroke-miterlimit="10" stroke-dasharray=""/></g><g><g><path fill="none" stroke="none"/><text fill="#000000" stroke="none" font-family="Arial" font-size="13px" font-style="normal" font-weight="bold" text-decoration="undefined" x="696.5" y="634.5" text-anchor="middle" dominant-baseline="central" transform="matrix(1 0 0 1 -70 -54)">根据身份证号查找</text></g></g><g><path fill="none" stroke="#000000" paint-order="fill stroke markers" d=" M 298 425 L 396 382" stroke-miterlimit="10" stroke-dasharray=""/></g><g><path fill="none" stroke="#000000" paint-order="fill stroke markers" d=" M 329 435 L 385 428" stroke-miterlimit="10" stroke-dasharray=""/></g><g><path fill="none" stroke="#000000" paint-order="fill stroke markers" d=" M 329 435 L 385 428" stroke-miterlimit="10" stroke-dasharray=""/></g><g><path fill="none" stroke="#000000" paint-order="fill stroke markers" d=" M 329 458 L 385 470" stroke-miterlimit="10" stroke-dasharray=""/></g><g><path fill="none" stroke="#000000" paint-order="fill stroke markers" d=" M 293 462 L 405 522" stroke-miterlimit="10" stroke-dasharray=""/></g><g><path fill="none" stroke="#000000" paint-order="fill stroke markers" d=" M 481 522 L 583 478" stroke-miterlimit="10" stroke-dasharray=""/></g><g><path fill="none" stroke="#000000" paint-order="fill stroke markers" d=" M 493 534 L 545 528" stroke-miterlimit="10" stroke-dasharray=""/></g><g><path fill="none" stroke="#000000" paint-order="fill stroke markers" d=" M 493 551 L 545 562" stroke-miterlimit="10" stroke-dasharray=""/></g><g><path fill="#C0C0C0" stroke="none" paint-order="stroke fill markers" d=" M 233 778.5 C 233 768.835016 255.8334752 761 284 761 C 312.1665248 761 335 768.835016 335 778.5 C 335 788.164984 312.1665248 796 284 796 C 255.8334752 796 233 788.164984 233 778.5 Z" fill-opacity="0.2"/></g><g><path fill="#ffffff" stroke="none" paint-order="stroke fill markers" d=" M 226 771.5 C 226 761.835016 248.8334752 754 277 754 C 305.1665248 754 328 761.835016 328 771.5 C 328 781.164984 305.1665248 789 277 789 C 248.8334752 789 226 781.164984 226 771.5 Z"/></g><g><path fill="none" stroke="#000000" paint-order="fill stroke markers" d=" M 226 771.5 C 226 761.835016 248.8334752 754 277 754 C 305.1665248 754 328 761.835016 328 771.5 C 328 781.164984 305.1665248 789 277 789 C 248.8334752 789 226 781.164984 226 771.5 Z" stroke-miterlimit="10" stroke-dasharray=""/></g><g><g><path fill="none" stroke="none"/><text fill="#000000" stroke="none" font-family="Arial" font-size="13px" font-style="normal" font-weight="bold" text-decoration="undefined" x="347" y="826.5" text-anchor="middle" dominant-baseline="central" transform="matrix(1 0 0 1 -70 -54)">管理订单</text></g></g><g><path fill="#C0C0C0" stroke="none" paint-order="stroke fill markers" d=" M 409 786.5 C 409 776.835016 431.8334752 769 460 769 C 488.16652480000005 769 511 776.835016 511 786.5 C 511 796.164984 488.16652480000005 804 460 804 C 431.8334752 804 409 796.164984 409 786.5 Z" fill-opacity="0.2"/></g><g><path fill="#ffffff" stroke="none" paint-order="stroke fill markers" d=" M 402 779.5 C 402 769.835016 424.8334752 762 453 762 C 481.16652480000005 762 504 769.835016 504 779.5 C 504 789.164984 481.16652480000005 797 453 797 C 424.8334752 797 402 789.164984 402 779.5 Z"/></g><g><path fill="none" stroke="#000000" paint-order="fill stroke markers" d=" M 402 779.5 C 402 769.835016 424.8334752 762 453 762 C 481.16652480000005 762 504 769.835016 504 779.5 C 504 789.164984 481.16652480000005 797 453 797 C 424.8334752 797 402 789.164984 402 779.5 Z" stroke-miterlimit="10" stroke-dasharray=""/></g><g><g><path fill="none" stroke="none"/><text fill="#000000" stroke="none" font-family="Arial" font-size="13px" font-style="normal" font-weight="bold" text-decoration="undefined" x="523" y="834.5" text-anchor="middle" dominant-baseline="central" transform="matrix(1 0 0 1 -70 -54)">查找订单</text></g></g><g><path fill="#C0C0C0" stroke="none" paint-order="stroke fill markers" d=" M 409 842.5 C 409 832.835016 431.8334752 825 460 825 C 488.16652480000005 825 511 832.835016 511 842.5 C 511 852.164984 488.16652480000005 860 460 860 C 431.8334752 860 409 852.164984 409 842.5 Z" fill-opacity="0.2"/></g><g><path fill="#ffffff" stroke="none" paint-order="stroke fill markers" d=" M 402 835.5 C 402 825.835016 424.8334752 818 453 818 C 481.16652480000005 818 504 825.835016 504 835.5 C 504 845.164984 481.16652480000005 853 453 853 C 424.8334752 853 402 845.164984 402 835.5 Z"/></g><g><path fill="none" stroke="#000000" paint-order="fill stroke markers" d=" M 402 835.5 C 402 825.835016 424.8334752 818 453 818 C 481.16652480000005 818 504 825.835016 504 835.5 C 504 845.164984 481.16652480000005 853 453 853 C 424.8334752 853 402 845.164984 402 835.5 Z" stroke-miterlimit="10" stroke-dasharray=""/></g><g><g><path fill="none" stroke="none"/><text fill="#000000" stroke="none" font-family="Arial" font-size="13px" font-style="normal" font-weight="bold" text-decoration="undefined" x="523" y="890.5" text-anchor="middle" dominant-baseline="central" transform="matrix(1 0 0 1 -70 -54)">取消订单</text></g></g><g><path fill="#C0C0C0" stroke="none" paint-order="stroke fill markers" d=" M 409 898.5 C 409 888.835016 431.8334752 881 460 881 C 488.16652480000005 881 511 888.835016 511 898.5 C 511 908.164984 488.16652480000005 916 460 916 C 431.8334752 916 409 908.164984 409 898.5 Z" fill-opacity="0.2"/></g><g><path fill="#ffffff" stroke="none" paint-order="stroke fill markers" d=" M 402 891.5 C 402 881.835016 424.8334752 874 453 874 C 481.16652480000005 874 504 881.835016 504 891.5 C 504 901.164984 481.16652480000005 909 453 909 C 424.8334752 909 402 901.164984 402 891.5 Z"/></g><g><path fill="none" stroke="#000000" paint-order="fill stroke markers" d=" M 402 891.5 C 402 881.835016 424.8334752 874 453 874 C 481.16652480000005 874 504 881.835016 504 891.5 C 504 901.164984 481.16652480000005 909 453 909 C 424.8334752 909 402 901.164984 402 891.5 Z" stroke-miterlimit="10" stroke-dasharray=""/></g><g><g><path fill="none" stroke="none"/><text fill="#000000" stroke="none" font-family="Arial" font-size="13px" font-style="normal" font-weight="bold" text-decoration="undefined" x="523" y="946.5" text-anchor="middle" dominant-baseline="central" transform="matrix(1 0 0 1 -70 -54)">改签</text></g></g><g><path fill="#C0C0C0" stroke="none" paint-order="stroke fill markers" d=" M 545 402.5 C 545 392.835016 568.7289056 385 598 385 C 627.2710944 385 651 392.835016 651 402.5 C 651 412.164984 627.2710944 420 598 420 C 568.7289056 420 545 412.164984 545 402.5 Z" fill-opacity="0.2"/></g><g><path fill="#ffffff" stroke="none" paint-order="stroke fill markers" d=" M 538 395.5 C 538 385.835016 561.7289056 378 591 378 C 620.2710944 378 644 385.835016 644 395.5 C 644 405.164984 620.2710944 413 591 413 C 561.7289056 413 538 405.164984 538 395.5 Z"/></g><g><path fill="none" stroke="#000000" paint-order="fill stroke markers" d=" M 538 395.5 C 538 385.835016 561.7289056 378 591 378 C 620.2710944 378 644 385.835016 644 395.5 C 644 405.164984 620.2710944 413 591 413 C 561.7289056 413 538 405.164984 538 395.5 Z" stroke-miterlimit="10" stroke-dasharray=""/></g><g><g><path fill="none" stroke="none"/><text fill="#000000" stroke="none" font-family="Arial" font-size="13px" font-style="normal" font-weight="bold" text-decoration="undefined" x="661" y="450.5" text-anchor="middle" dominant-baseline="central" transform="matrix(1 0 0 1 -70 -54)">查看时刻表</text></g></g><g><path fill="none" stroke="#000000" paint-order="fill stroke markers" d=" M 480 310 L 567 377" stroke-miterlimit="10" stroke-dasharray=""/></g><g><path fill="none" stroke="#000000" paint-order="fill stroke markers" d=" M 329 773 L 401 777" stroke-miterlimit="10" stroke-dasharray=""/></g><g><path fill="none" stroke="#000000" paint-order="fill stroke markers" d=" M 329 790 L 404 817" stroke-miterlimit="10" stroke-dasharray=""/></g><g><path fill="none" stroke="#000000" paint-order="fill stroke markers" d=" M 305 790 L 427 873" stroke-miterlimit="10" stroke-dasharray=""/></g><g><path fill="#C0C0C0" stroke="none" paint-order="stroke fill markers" d=" M 605 642.5 C 605 632.835016 641.0410736 625 685.5 625 C 729.9589264 625 766 632.835016 766 642.5 C 766 652.164984 729.9589264 660 685.5 660 C 641.0410736 660 605 652.164984 605 642.5 Z" fill-opacity="0.2"/></g><g><path fill="#ffffff" stroke="none" paint-order="stroke fill markers" d=" M 598 635.5 C 598 625.835016 634.0410736 618 678.5 618 C 722.9589264 618 759 625.835016 759 635.5 C 759 645.164984 722.9589264 653 678.5 653 C 634.0410736 653 598 645.164984 598 635.5 Z"/></g><g><path fill="none" stroke="#000000" paint-order="fill stroke markers" d=" M 598 635.5 C 598 625.835016 634.0410736 618 678.5 618 C 722.9589264 618 759 625.835016 759 635.5 C 759 645.164984 722.9589264 653 678.5 653 C 634.0410736 653 598 645.164984 598 635.5 Z" stroke-miterlimit="10" stroke-dasharray=""/></g><g><g><path fill="none" stroke="none"/><text fill="#000000" stroke="none" font-family="Arial" font-size="13px" font-style="normal" font-weight="bold" text-decoration="undefined" x="748.5" y="690.5" text-anchor="middle" dominant-baseline="central" transform="matrix(1 0 0 1 -70 -54)">根据订单号查找</text></g></g><g><path fill="#C0C0C0" stroke="none" paint-order="stroke fill markers" d=" M 624 690.5 C 624 680.835016 651.7583424 673 686 673 C 720.2416576 673 748 680.835016 748 690.5 C 748 700.164984 720.2416576 708 686 708 C 651.7583424 708 624 700.164984 624 690.5 Z" fill-opacity="0.2"/></g><g><path fill="#ffffff" stroke="none" paint-order="stroke fill markers" d=" M 617 683.5 C 617 673.835016 644.7583424 666 679 666 C 713.2416576 666 741 673.835016 741 683.5 C 741 693.164984 713.2416576 701 679 701 C 644.7583424 701 617 693.164984 617 683.5 Z"/></g><g><path fill="none" stroke="#000000" paint-order="fill stroke markers" d=" M 617 683.5 C 617 673.835016 644.7583424 666 679 666 C 713.2416576 666 741 673.835016 741 683.5 C 741 693.164984 713.2416576 701 679 701 C 644.7583424 701 617 693.164984 617 683.5 Z" stroke-miterlimit="10" stroke-dasharray=""/></g><g><g><path fill="none" stroke="none"/><text fill="#000000" stroke="none" font-family="Arial" font-size="13px" font-style="normal" font-weight="bold" text-decoration="undefined" x="749" y="738.5" text-anchor="middle" dominant-baseline="central" transform="matrix(1 0 0 1 -70 -54)">根据车次查找</text></g></g><g><path fill="#C0C0C0" stroke="none" paint-order="stroke fill markers" d=" M 605 738.5 C 605 728.835016 641.0410736 721 685.5 721 C 729.9589264 721 766 728.835016 766 738.5 C 766 748.164984 729.9589264 756 685.5 756 C 641.0410736 756 605 748.164984 605 738.5 Z" fill-opacity="0.2"/></g><g><path fill="#ffffff" stroke="none" paint-order="stroke fill markers" d=" M 598 731.5 C 598 721.835016 634.0410736 714 678.5 714 C 722.9589264 714 759 721.835016 759 731.5 C 759 741.164984 722.9589264 749 678.5 749 C 634.0410736 749 598 741.164984 598 731.5 Z"/></g><g><path fill="none" stroke="#000000" paint-order="fill stroke markers" d=" M 598 731.5 C 598 721.835016 634.0410736 714 678.5 714 C 722.9589264 714 759 721.835016 759 731.5 C 759 741.164984 722.9589264 749 678.5 749 C 634.0410736 749 598 741.164984 598 731.5 Z" stroke-miterlimit="10" stroke-dasharray=""/></g><g><g><path fill="none" stroke="none"/><text fill="#000000" stroke="none" font-family="Arial" font-size="13px" font-style="normal" font-weight="bold" text-decoration="undefined" x="748.5" y="786.5" text-anchor="middle" dominant-baseline="central" transform="matrix(1 0 0 1 -70 -54)">根据出发日期查找</text></g></g><g><path fill="#C0C0C0" stroke="none" paint-order="stroke fill markers" d=" M 615 786.5 C 615 776.835016 646.7877792 769 686 769 C 725.2122208 769 757 776.835016 757 786.5 C 757 796.164984 725.2122208 804 686 804 C 646.7877792 804 615 796.164984 615 786.5 Z" fill-opacity="0.2"/></g><g><path fill="#ffffff" stroke="none" paint-order="stroke fill markers" d=" M 608 779.5 C 608 769.835016 639.7877792 762 679 762 C 718.2122208 762 750 769.835016 750 779.5 C 750 789.164984 718.2122208 797 679 797 C 639.7877792 797 608 789.164984 608 779.5 Z"/></g><g><path fill="none" stroke="#000000" paint-order="fill stroke markers" d=" M 608 779.5 C 608 769.835016 639.7877792 762 679 762 C 718.2122208 762 750 769.835016 750 779.5 C 750 789.164984 718.2122208 797 679 797 C 639.7877792 797 608 789.164984 608 779.5 Z" stroke-miterlimit="10" stroke-dasharray=""/></g><g><g><path fill="none" stroke="none"/><text fill="#000000" stroke="none" font-family="Arial" font-size="13px" font-style="normal" font-weight="bold" text-decoration="undefined" x="749" y="834.5" text-anchor="middle" dominant-baseline="central" transform="matrix(1 0 0 1 -70 -54)">根据乘车人查找</text></g></g><g><path fill="#C0C0C0" stroke="none" paint-order="stroke fill markers" d=" M 615 834.5 C 615 824.835016 646.7877792 817 686 817 C 725.2122208 817 757 824.835016 757 834.5 C 757 844.164984 725.2122208 852 686 852 C 646.7877792 852 615 844.164984 615 834.5 Z" fill-opacity="0.2"/></g><g><path fill="#ffffff" stroke="none" paint-order="stroke fill markers" d=" M 608 827.5 C 608 817.835016 639.7877792 810 679 810 C 718.2122208 810 750 817.835016 750 827.5 C 750 837.164984 718.2122208 845 679 845 C 639.7877792 845 608 837.164984 608 827.5 Z"/></g><g><path fill="none" stroke="#000000" paint-order="fill stroke markers" d=" M 608 827.5 C 608 817.835016 639.7877792 810 679 810 C 718.2122208 810 750 817.835016 750 827.5 C 750 837.164984 718.2122208 845 679 845 C 639.7877792 845 608 837.164984 608 827.5 Z" stroke-miterlimit="10" stroke-dasharray=""/></g><g><g><path fill="none" stroke="none"/><text fill="#000000" stroke="none" font-family="Arial" font-size="13px" font-style="normal" font-weight="bold" text-decoration="undefined" x="749" y="882.5" text-anchor="middle" dominant-baseline="central" transform="matrix(1 0 0 1 -70 -54)">根据出发站查找</text></g></g><g><path fill="#C0C0C0" stroke="none" paint-order="stroke fill markers" d=" M 615 882.5 C 615 872.835016 646.7877792 865 686 865 C 725.2122208 865 757 872.835016 757 882.5 C 757 892.164984 725.2122208 900 686 900 C 646.7877792 900 615 892.164984 615 882.5 Z" fill-opacity="0.2"/></g><g><path fill="#ffffff" stroke="none" paint-order="stroke fill markers" d=" M 608 875.5 C 608 865.835016 639.7877792 858 679 858 C 718.2122208 858 750 865.835016 750 875.5 C 750 885.164984 718.2122208 893 679 893 C 639.7877792 893 608 885.164984 608 875.5 Z"/></g><g><path fill="none" stroke="#000000" paint-order="fill stroke markers" d=" M 608 875.5 C 608 865.835016 639.7877792 858 679 858 C 718.2122208 858 750 865.835016 750 875.5 C 750 885.164984 718.2122208 893 679 893 C 639.7877792 893 608 885.164984 608 875.5 Z" stroke-miterlimit="10" stroke-dasharray=""/></g><g><g><path fill="none" stroke="none"/><text fill="#000000" stroke="none" font-family="Arial" font-size="13px" font-style="normal" font-weight="bold" text-decoration="undefined" x="749" y="930.5" text-anchor="middle" dominant-baseline="central" transform="matrix(1 0 0 1 -70 -54)">根据终点站查找</text></g></g><g><path fill="none" stroke="#000000" paint-order="fill stroke markers" d=" M 481 761 L 648 654" stroke-miterlimit="10" stroke-dasharray=""/></g><g><path fill="none" stroke="#000000" paint-order="fill stroke markers" d=" M 495 761 L 634 702" stroke-miterlimit="10" stroke-dasharray=""/></g><g><path fill="none" stroke="#000000" paint-order="fill stroke markers" d=" M 505 768 L 597 748" stroke-miterlimit="10" stroke-dasharray=""/></g><g><path fill="none" stroke="#000000" paint-order="fill stroke markers" d=" M 505 779 L 607 779" stroke-miterlimit="10" stroke-dasharray=""/></g><g><path fill="none" stroke="#000000" paint-order="fill stroke markers" d=" M 505 790 L 607 812" stroke-miterlimit="10" stroke-dasharray=""/></g><g><path fill="none" stroke="#000000" paint-order="fill stroke markers" d=" M 498 798 L 637 857" stroke-miterlimit="10" stroke-dasharray=""/></g><g><path fill="none" stroke="#000000" paint-order="fill stroke markers" d=" M 56 347 L 268 753" stroke-miterlimit="10" stroke-dasharray=""/></g><g><path fill="#C0C0C0" stroke="none" paint-order="stroke fill markers" d=" M 401 962.5 C 401 952.835016 424.7289056 945 454 945 C 483.27109440000004 945 507 952.835016 507 962.5 C 507 972.164984 483.27109440000004 980 454 980 C 424.7289056 980 401 972.164984 401 962.5 Z" fill-opacity="0.2"/></g><g><path fill="#ffffff" stroke="none" paint-order="stroke fill markers" d=" M 394 955.5 C 394 945.835016 417.7289056 938 447 938 C 476.27109440000004 938 500 945.835016 500 955.5 C 500 965.164984 476.27109440000004 973 447 973 C 417.7289056 973 394 965.164984 394 955.5 Z"/></g><g><path fill="none" stroke="#000000" paint-order="fill stroke markers" d=" M 394 955.5 C 394 945.835016 417.7289056 938 447 938 C 476.27109440000004 938 500 945.835016 500 955.5 C 500 965.164984 476.27109440000004 973 447 973 C 417.7289056 973 394 965.164984 394 955.5 Z" stroke-miterlimit="10" stroke-dasharray=""/></g><g><g><path fill="none" stroke="none"/><text fill="#000000" stroke="none" font-family="Arial" font-size="13px" font-style="normal" font-weight="bold" text-decoration="undefined" x="517" y="1010.5" text-anchor="middle" dominant-baseline="central" transform="matrix(1 0 0 1 -70 -54)">查看时刻表</text></g></g><g><path fill="none" stroke="#000000" paint-order="fill stroke markers" d=" M 295 790 L 430 937" stroke-miterlimit="10" stroke-dasharray=""/></g></g></svg>