<svg version="1.1" xmlns="http://www.w3.org/2000/svg" xmlns:xlink="http://www.w3.org/1999/xlink" width="775" height="1047"><defs/><g><g><path fill="#C0C0C0" stroke="none" paint-order="stroke fill markers" d=" M 235 218.5 C 235 208.835016 257.8334752 201 286 201 C 314.1665248 201 337 208.835016 337 218.5 C 337 228.164984 314.1665248 236 286 236 C 257.8334752 236 235 228.164984 235 218.5 Z" fill-opacity="0.2"/></g><g><path fill="#ffffff" stroke="none" paint-order="stroke fill markers" d=" M 228 211.5 C 228 201.835016 250.8334752 194 279 194 C 307.1665248 194 330 201.835016 330 211.5 C 330 221.164984 307.1665248 229 279 229 C 250.8334752 229 228 221.164984 228 211.5 Z"/></g><g><path fill="none" stroke="#000000" paint-order="fill stroke markers" d=" M 228 211.5 C 228 201.835016 250.8334752 194 279 194 C 307.1665248 194 330 201.835016 330 211.5 C 330 221.164984 307.1665248 229 279 229 C 250.8334752 229 228 221.164984 228 211.5 Z" stroke-miterlimit="10" stroke-dasharray=""/></g><g><g><path fill="none" stroke="none"/><text fill="#000000" stroke="none" font-family="Arial" font-size="13px" font-style="normal" font-weight="bold" text-decoration="undefined" x="381" y="266.5" text-anchor="middle" dominant-baseline="central" transform="matrix(1 0 0 1 -102 -54)">登录</text></g></g><g><path fill="#C0C0C0" stroke="none" paint-order="stroke fill markers" d=" M 238 338.5 C 238 328.835016 260.8334752 321 289 321 C 317.1665248 321 340 328.835016 340 338.5 C 340 348.164984 317.1665248 356 289 356 C 260.8334752 356 238 348.164984 238 338.5 Z" fill-opacity="0.2"/></g><g><path fill="#ffffff" stroke="none" paint-order="stroke fill markers" d=" M 231 331.5 C 231 321.835016 253.8334752 314 282 314 C 310.1665248 314 333 321.835016 333 331.5 C 333 341.164984 310.1665248 349 282 349 C 253.8334752 349 231 341.164984 231 331.5 Z"/></g><g><path fill="none" stroke="#000000" paint-order="fill stroke markers" d=" M 231 331.5 C 231 321.835016 253.8334752 314 282 314 C 310.1665248 314 333 321.835016 333 331.5 C 333 341.164984 310.1665248 349 282 349 C 253.8334752 349 231 341.164984 231 331.5 Z" stroke-miterlimit="10" stroke-dasharray=""/></g><g><g><path fill="none" stroke="none"/><text fill="#000000" stroke="none" font-family="Arial" font-size="13px" font-style="normal" font-weight="bold" text-decoration="undefined" x="384" y="386.5" text-anchor="middle" dominant-baseline="central" transform="matrix(1 0 0 1 -102 -54)">车次管理</text></g></g><g><path fill="#C0C0C0" stroke="none" paint-order="stroke fill markers" d=" M 423 274.5 C 423 264.835016 446.72890559999996 257 476 257 C 505.27109440000004 257 529 264.835016 529 274.5 C 529 284.164984 505.27109440000004 292 476 292 C 446.72890559999996 292 423 284.164984 423 274.5 Z" fill-opacity="0.2"/></g><g><path fill="#ffffff" stroke="none" paint-order="stroke fill markers" d=" M 416 267.5 C 416 257.835016 439.72890559999996 250 469 250 C 498.27109440000004 250 522 257.835016 522 267.5 C 522 277.164984 498.27109440000004 285 469 285 C 439.72890559999996 285 416 277.164984 416 267.5 Z"/></g><g><path fill="none" stroke="#000000" paint-order="fill stroke markers" d=" M 416 267.5 C 416 257.835016 439.72890559999996 250 469 250 C 498.27109440000004 250 522 257.835016 522 267.5 C 522 277.164984 498.27109440000004 285 469 285 C 439.72890559999996 285 416 277.164984 416 267.5 Z" stroke-miterlimit="10" stroke-dasharray=""/></g><g><g><path fill="none" stroke="none"/><text fill="#000000" stroke="none" font-family="Arial" font-size="13px" font-style="normal" font-weight="bold" text-decoration="undefined" x="571" y="322.5" text-anchor="middle" dominant-baseline="central" transform="matrix(1 0 0 1 -102 -54)">修改时刻表</text></g></g><g><path fill="#C0C0C0" stroke="none" paint-order="stroke fill markers" d=" M 414 314.5 C 414 304.835016 441.75834239999995 297 476 297 C 510.24165760000005 297 538 304.835016 538 314.5 C 538 324.164984 510.24165760000005 332 476 332 C 441.75834239999995 332 414 324.164984 414 314.5 Z" fill-opacity="0.2"/></g><g><path fill="#ffffff" stroke="none" paint-order="stroke fill markers" d=" M 407 307.5 C 407 297.835016 434.75834239999995 290 469 290 C 503.24165760000005 290 531 297.835016 531 307.5 C 531 317.164984 503.24165760000005 325 469 325 C 434.75834239999995 325 407 317.164984 407 307.5 Z"/></g><g><path fill="none" stroke="#000000" paint-order="fill stroke markers" d=" M 407 307.5 C 407 297.835016 434.75834239999995 290 469 290 C 503.24165760000005 290 531 297.835016 531 307.5 C 531 317.164984 503.24165760000005 325 469 325 C 434.75834239999995 325 407 317.164984 407 307.5 Z" stroke-miterlimit="10" stroke-dasharray=""/></g><g><g><path fill="none" stroke="none"/><text fill="#000000" stroke="none" font-family="Arial" font-size="13px" font-style="normal" font-weight="bold" text-decoration="undefined" x="571" y="362.5" text-anchor="middle" dominant-baseline="central" transform="matrix(1 0 0 1 -102 -54)">修改座位模板</text></g></g><g><path fill="#C0C0C0" stroke="none" paint-order="stroke fill markers" d=" M 425 362.5 C 425 352.835016 447.83347519999995 345 476 345 C 504.16652480000005 345 527 352.835016 527 362.5 C 527 372.164984 504.16652480000005 380 476 380 C 447.83347519999995 380 425 372.164984 425 362.5 Z" fill-opacity="0.2"/></g><g><path fill="#ffffff" stroke="none" paint-order="stroke fill markers" d=" M 418 355.5 C 418 345.835016 440.83347519999995 338 469 338 C 497.16652480000005 338 520 345.835016 520 355.5 C 520 365.164984 497.16652480000005 373 469 373 C 440.83347519999995 373 418 365.164984 418 355.5 Z"/></g><g><path fill="none" stroke="#000000" paint-order="fill stroke markers" d=" M 418 355.5 C 418 345.835016 440.83347519999995 338 469 338 C 497.16652480000005 338 520 345.835016 520 355.5 C 520 365.164984 497.16652480000005 373 469 373 C 440.83347519999995 373 418 365.164984 418 355.5 Z" stroke-miterlimit="10" stroke-dasharray=""/></g><g><g><path fill="none" stroke="none"/><text fill="#000000" stroke="none" font-family="Arial" font-size="13px" font-style="normal" font-weight="bold" text-decoration="undefined" x="571" y="410.5" text-anchor="middle" dominant-baseline="central" transform="matrix(1 0 0 1 -102 -54)">删除车次</text></g></g><g><path fill="#C0C0C0" stroke="none" paint-order="stroke fill markers" d=" M 425 410.5 C 425 400.835016 447.83347519999995 393 476 393 C 504.16652480000005 393 527 400.835016 527 410.5 C 527 420.164984 504.16652480000005 428 476 428 C 447.83347519999995 428 425 420.164984 425 410.5 Z" fill-opacity="0.2"/></g><g><path fill="#ffffff" stroke="none" paint-order="stroke fill markers" d=" M 418 403.5 C 418 393.835016 440.83347519999995 386 469 386 C 497.16652480000005 386 520 393.835016 520 403.5 C 520 413.164984 497.16652480000005 421 469 421 C 440.83347519999995 421 418 413.164984 418 403.5 Z"/></g><g><path fill="none" stroke="#000000" paint-order="fill stroke markers" d=" M 418 403.5 C 418 393.835016 440.83347519999995 386 469 386 C 497.16652480000005 386 520 393.835016 520 403.5 C 520 413.164984 497.16652480000005 421 469 421 C 440.83347519999995 421 418 413.164984 418 403.5 Z" stroke-miterlimit="10" stroke-dasharray=""/></g><g><g><path fill="none" stroke="none"/><text fill="#000000" stroke="none" font-family="Arial" font-size="13px" font-style="normal" font-weight="bold" text-decoration="undefined" x="571" y="458.5" text-anchor="middle" dominant-baseline="central" transform="matrix(1 0 0 1 -102 -54)">增加车次</text></g></g><g><path fill="#C0C0C0" stroke="none" paint-order="stroke fill markers" d=" M 425 466.5 C 425 456.835016 447.83347519999995 449 476 449 C 504.16652480000005 449 527 456.835016 527 466.5 C 527 476.164984 504.16652480000005 484 476 484 C 447.83347519999995 484 425 476.164984 425 466.5 Z" fill-opacity="0.2"/></g><g><path fill="#ffffff" stroke="none" paint-order="stroke fill markers" d=" M 418 459.5 C 418 449.835016 440.83347519999995 442 469 442 C 497.16652480000005 442 520 449.835016 520 459.5 C 520 469.164984 497.16652480000005 477 469 477 C 440.83347519999995 477 418 469.164984 418 459.5 Z"/></g><g><path fill="none" stroke="#000000" paint-order="fill stroke markers" d=" M 418 459.5 C 418 449.835016 440.83347519999995 442 469 442 C 497.16652480000005 442 520 449.835016 520 459.5 C 520 469.164984 497.16652480000005 477 469 477 C 440.83347519999995 477 418 469.164984 418 459.5 Z" stroke-miterlimit="10" stroke-dasharray=""/></g><g><g><path fill="none" stroke="none"/><text fill="#000000" stroke="none" font-family="Arial" font-size="13px" font-style="normal" font-weight="bold" text-decoration="undefined" x="571" y="514.5" text-anchor="middle" dominant-baseline="central" transform="matrix(1 0 0 1 -102 -54)">查找车次</text></g></g><g><path fill="#C0C0C0" stroke="none" paint-order="stroke fill markers" d=" M 641 34.5 C 641 24.835015999999996 663.8334752 17 692 17 C 720.1665248 17 743 24.835015999999996 743 34.5 C 743 44.164984000000004 720.1665248 52 692 52 C 663.8334752 52 641 44.164984000000004 641 34.5 Z" fill-opacity="0.2"/></g><g><path fill="#ffffff" stroke="none" paint-order="stroke fill markers" d=" M 634 27.5 C 634 17.835015999999996 656.8334752 10 685 10 C 713.1665248 10 736 17.835015999999996 736 27.5 C 736 37.164984000000004 713.1665248 45 685 45 C 656.8334752 45 634 37.164984000000004 634 27.5 Z"/></g><g><path fill="none" stroke="#000000" paint-order="fill stroke markers" d=" M 634 27.5 C 634 17.835015999999996 656.8334752 10 685 10 C 713.1665248 10 736 17.835015999999996 736 27.5 C 736 37.164984000000004 713.1665248 45 685 45 C 656.8334752 45 634 37.164984000000004 634 27.5 Z" stroke-miterlimit="10" stroke-dasharray=""/></g><g><g><path fill="none" stroke="none"/><text fill="#000000" stroke="none" font-family="Arial" font-size="13px" font-style="normal" font-weight="bold" text-decoration="undefined" x="787" y="82.5" text-anchor="middle" dominant-baseline="central" transform="matrix(1 0 0 1 -102 -54)">修改站名</text></g></g><g><path fill="#C0C0C0" stroke="none" paint-order="stroke fill markers" d=" M 641 82.5 C 641 72.835016 663.8334752 65 692 65 C 720.1665248 65 743 72.835016 743 82.5 C 743 92.164984 720.1665248 100 692 100 C 663.8334752 100 641 92.164984 641 82.5 Z" fill-opacity="0.2"/></g><g><path fill="#ffffff" stroke="none" paint-order="stroke fill markers" d=" M 634 75.5 C 634 65.835016 656.8334752 58 685 58 C 713.1665248 58 736 65.835016 736 75.5 C 736 85.164984 713.1665248 93 685 93 C 656.8334752 93 634 85.164984 634 75.5 Z"/></g><g><path fill="none" stroke="#000000" paint-order="fill stroke markers" d=" M 634 75.5 C 634 65.835016 656.8334752 58 685 58 C 713.1665248 58 736 65.835016 736 75.5 C 736 85.164984 713.1665248 93 685 93 C 656.8334752 93 634 85.164984 634 75.5 Z" stroke-miterlimit="10" stroke-dasharray=""/></g><g><g><path fill="none" stroke="none"/><text fill="#000000" stroke="none" font-family="Arial" font-size="13px" font-style="normal" font-weight="bold" text-decoration="undefined" x="787" y="130.5" text-anchor="middle" dominant-baseline="central" transform="matrix(1 0 0 1 -102 -54)">修改到时</text></g></g><g><path fill="#C0C0C0" stroke="none" paint-order="stroke fill markers" d=" M 641 142.5 C 641 132.835016 663.8334752 125 692 125 C 720.1665248 125 743 132.835016 743 142.5 C 743 152.164984 720.1665248 160 692 160 C 663.8334752 160 641 152.164984 641 142.5 Z" fill-opacity="0.2"/></g><g><path fill="#ffffff" stroke="none" paint-order="stroke fill markers" d=" M 634 135.5 C 634 125.835016 656.8334752 118 685 118 C 713.1665248 118 736 125.835016 736 135.5 C 736 145.164984 713.1665248 153 685 153 C 656.8334752 153 634 145.164984 634 135.5 Z"/></g><g><path fill="none" stroke="#000000" paint-order="fill stroke markers" d=" M 634 135.5 C 634 125.835016 656.8334752 118 685 118 C 713.1665248 118 736 125.835016 736 135.5 C 736 145.164984 713.1665248 153 685 153 C 656.8334752 153 634 145.164984 634 135.5 Z" stroke-miterlimit="10" stroke-dasharray=""/></g><g><g><path fill="none" stroke="none"/><text fill="#000000" stroke="none" font-family="Arial" font-size="13px" font-style="normal" font-weight="bold" text-decoration="undefined" x="787" y="190.5" text-anchor="middle" dominant-baseline="central" transform="matrix(1 0 0 1 -102 -54)">修改发时</text></g></g><g><path fill="#C0C0C0" stroke="none" paint-order="stroke fill markers" d=" M 639 196.5 C 639 186.835016 662.7289056 179 692 179 C 721.2710944 179 745 186.835016 745 196.5 C 745 206.164984 721.2710944 214 692 214 C 662.7289056 214 639 206.164984 639 196.5 Z" fill-opacity="0.2"/></g><g><path fill="#ffffff" stroke="none" paint-order="stroke fill markers" d=" M 632 189.5 C 632 179.835016 655.7289056 172 685 172 C 714.2710944 172 738 179.835016 738 189.5 C 738 199.164984 714.2710944 207 685 207 C 655.7289056 207 632 199.164984 632 189.5 Z"/></g><g><path fill="none" stroke="#000000" paint-order="fill stroke markers" d=" M 632 189.5 C 632 179.835016 655.7289056 172 685 172 C 714.2710944 172 738 179.835016 738 189.5 C 738 199.164984 714.2710944 207 685 207 C 655.7289056 207 632 199.164984 632 189.5 Z" stroke-miterlimit="10" stroke-dasharray=""/></g><g><g><path fill="none" stroke="none"/><text fill="#000000" stroke="none" font-family="Arial" font-size="13px" font-style="normal" font-weight="bold" text-decoration="undefined" x="787" y="244.5" text-anchor="middle" dominant-baseline="central" transform="matrix(1 0 0 1 -102 -54)">删除某一站</text></g></g><g><path fill="#C0C0C0" stroke="none" paint-order="stroke fill markers" d=" M 641 250.5 C 641 240.835016 663.8334752 233 692 233 C 720.1665248 233 743 240.835016 743 250.5 C 743 260.164984 720.1665248 268 692 268 C 663.8334752 268 641 260.164984 641 250.5 Z" fill-opacity="0.2"/></g><g><path fill="#ffffff" stroke="none" paint-order="stroke fill markers" d=" M 634 243.5 C 634 233.835016 656.8334752 226 685 226 C 713.1665248 226 736 233.835016 736 243.5 C 736 253.164984 713.1665248 261 685 261 C 656.8334752 261 634 253.164984 634 243.5 Z"/></g><g><path fill="none" stroke="#000000" paint-order="fill stroke markers" d=" M 634 243.5 C 634 233.835016 656.8334752 226 685 226 C 713.1665248 226 736 233.835016 736 243.5 C 736 253.164984 713.1665248 261 685 261 C 656.8334752 261 634 253.164984 634 243.5 Z" stroke-miterlimit="10" stroke-dasharray=""/></g><g><g><path fill="none" stroke="none"/><text fill="#000000" stroke="none" font-family="Arial" font-size="13px" font-style="normal" font-weight="bold" text-decoration="undefined" x="787" y="298.5" text-anchor="middle" dominant-baseline="central" transform="matrix(1 0 0 1 -102 -54)">增加站点</text></g></g><g><path fill="#C0C0C0" stroke="none" paint-order="stroke fill markers" d=" M 633 306.5 C 633 296.835016 655.8334752 289 684 289 C 712.1665248 289 735 296.835016 735 306.5 C 735 316.164984 712.1665248 324 684 324 C 655.8334752 324 633 316.164984 633 306.5 Z" fill-opacity="0.2"/></g><g><path fill="#ffffff" stroke="none" paint-order="stroke fill markers" d=" M 626 299.5 C 626 289.835016 648.8334752 282 677 282 C 705.1665248 282 728 289.835016 728 299.5 C 728 309.164984 705.1665248 317 677 317 C 648.8334752 317 626 309.164984 626 299.5 Z"/></g><g><path fill="none" stroke="#000000" paint-order="fill stroke markers" d=" M 626 299.5 C 626 289.835016 648.8334752 282 677 282 C 705.1665248 282 728 289.835016 728 299.5 C 728 309.164984 705.1665248 317 677 317 C 648.8334752 317 626 309.164984 626 299.5 Z" stroke-miterlimit="10" stroke-dasharray=""/></g><g><g><path fill="none" stroke="none"/><text fill="#000000" stroke="none" font-family="Arial" font-size="13px" font-style="normal" font-weight="bold" text-decoration="undefined" x="779" y="354.5" text-anchor="middle" dominant-baseline="central" transform="matrix(1 0 0 1 -102 -54)">车厢数</text></g></g><g><path fill="#C0C0C0" stroke="none" paint-order="stroke fill markers" d=" M 611 354.5 C 611 344.835016 647.0410736 337 691.5 337 C 735.9589264 337 772 344.835016 772 354.5 C 772 364.164984 735.9589264 372 691.5 372 C 647.0410736 372 611 364.164984 611 354.5 Z" fill-opacity="0.2"/></g><g><path fill="#ffffff" stroke="none" paint-order="stroke fill markers" d=" M 604 347.5 C 604 337.835016 640.0410736 330 684.5 330 C 728.9589264 330 765 337.835016 765 347.5 C 765 357.164984 728.9589264 365 684.5 365 C 640.0410736 365 604 357.164984 604 347.5 Z"/></g><g><path fill="none" stroke="#000000" paint-order="fill stroke markers" d=" M 604 347.5 C 604 337.835016 640.0410736 330 684.5 330 C 728.9589264 330 765 337.835016 765 347.5 C 765 357.164984 728.9589264 365 684.5 365 C 640.0410736 365 604 357.164984 604 347.5 Z" stroke-miterlimit="10" stroke-dasharray=""/></g><g><g><path fill="none" stroke="none"/><text fill="#000000" stroke="none" font-family="Arial" font-size="13px" font-style="normal" font-weight="bold" text-decoration="undefined" x="786.5" y="402.5" text-anchor="middle" dominant-baseline="central" transform="matrix(1 0 0 1 -102 -54)">某一等级座位车厢</text></g></g><g><path fill="#C0C0C0" stroke="none" paint-order="stroke fill markers" d=" M 611 402.5 C 611 392.835016 647.0410736 385 691.5 385 C 735.9589264 385 772 392.835016 772 402.5 C 772 412.164984 735.9589264 420 691.5 420 C 647.0410736 420 611 412.164984 611 402.5 Z" fill-opacity="0.2"/></g><g><path fill="#ffffff" stroke="none" paint-order="stroke fill markers" d=" M 604 395.5 C 604 385.835016 640.0410736 378 684.5 378 C 728.9589264 378 765 385.835016 765 395.5 C 765 405.164984 728.9589264 413 684.5 413 C 640.0410736 413 604 405.164984 604 395.5 Z"/></g><g><path fill="none" stroke="#000000" paint-order="fill stroke markers" d=" M 604 395.5 C 604 385.835016 640.0410736 378 684.5 378 C 728.9589264 378 765 385.835016 765 395.5 C 765 405.164984 728.9589264 413 684.5 413 C 640.0410736 413 604 405.164984 604 395.5 Z" stroke-miterlimit="10" stroke-dasharray=""/></g><g><g><path fill="none" stroke="none"/><text fill="#000000" stroke="none" font-family="Arial" font-size="13px" font-style="normal" font-weight="bold" text-decoration="undefined" x="786.5" y="450.5" text-anchor="middle" dominant-baseline="central" transform="matrix(1 0 0 1 -102 -54)">车厢内座位行列数</text></g></g><g><path fill="#C0C0C0" stroke="none" paint-order="stroke fill markers" d=" M 238 634.5 C 238 624.835016 260.8334752 617 289 617 C 317.1665248 617 340 624.835016 340 634.5 C 340 644.164984 317.1665248 652 289 652 C 260.8334752 652 238 644.164984 238 634.5 Z" fill-opacity="0.2"/></g><g><path fill="#ffffff" stroke="none" paint-order="stroke fill markers" d=" M 231 627.5 C 231 617.835016 253.8334752 610 282 610 C 310.1665248 610 333 617.835016 333 627.5 C 333 637.164984 310.1665248 645 282 645 C 253.8334752 645 231 637.164984 231 627.5 Z"/></g><g><path fill="none" stroke="#000000" paint-order="fill stroke markers" d=" M 231 627.5 C 231 617.835016 253.8334752 610 282 610 C 310.1665248 610 333 617.835016 333 627.5 C 333 637.164984 310.1665248 645 282 645 C 253.8334752 645 231 637.164984 231 627.5 Z" stroke-miterlimit="10" stroke-dasharray=""/></g><g><g><path fill="none" stroke="none"/><text fill="#000000" stroke="none" font-family="Arial" font-size="13px" font-style="normal" font-weight="bold" text-decoration="undefined" x="384" y="682.5" text-anchor="middle" dominant-baseline="central" transform="matrix(1 0 0 1 -102 -54)">订单管理</text></g></g><g><path fill="#C0C0C0" stroke="none" paint-order="stroke fill markers" d=" M 405 562.5 C 405 552.835016 427.83347519999995 545 456 545 C 484.16652480000005 545 507 552.835016 507 562.5 C 507 572.164984 484.16652480000005 580 456 580 C 427.83347519999995 580 405 572.164984 405 562.5 Z" fill-opacity="0.2"/></g><g><path fill="#ffffff" stroke="none" paint-order="stroke fill markers" d=" M 398 555.5 C 398 545.835016 420.83347519999995 538 449 538 C 477.16652480000005 538 500 545.835016 500 555.5 C 500 565.164984 477.16652480000005 573 449 573 C 420.83347519999995 573 398 565.164984 398 555.5 Z"/></g><g><path fill="none" stroke="#000000" paint-order="fill stroke markers" d=" M 398 555.5 C 398 545.835016 420.83347519999995 538 449 538 C 477.16652480000005 538 500 545.835016 500 555.5 C 500 565.164984 477.16652480000005 573 449 573 C 420.83347519999995 573 398 565.164984 398 555.5 Z" stroke-miterlimit="10" stroke-dasharray=""/></g><g><g><path fill="none" stroke="none"/><text fill="#000000" stroke="none" font-family="Arial" font-size="13px" font-style="normal" font-weight="bold" text-decoration="undefined" x="551" y="610.5" text-anchor="middle" dominant-baseline="central" transform="matrix(1 0 0 1 -102 -54)">改签</text></g></g><g><path fill="#C0C0C0" stroke="none" paint-order="stroke fill markers" d=" M 405 642.5 C 405 632.835016 427.83347519999995 625 456 625 C 484.16652480000005 625 507 632.835016 507 642.5 C 507 652.164984 484.16652480000005 660 456 660 C 427.83347519999995 660 405 652.164984 405 642.5 Z" fill-opacity="0.2"/></g><g><path fill="#ffffff" stroke="none" paint-order="stroke fill markers" d=" M 398 635.5 C 398 625.835016 420.83347519999995 618 449 618 C 477.16652480000005 618 500 625.835016 500 635.5 C 500 645.164984 477.16652480000005 653 449 653 C 420.83347519999995 653 398 645.164984 398 635.5 Z"/></g><g><path fill="none" stroke="#000000" paint-order="fill stroke markers" d=" M 398 635.5 C 398 625.835016 420.83347519999995 618 449 618 C 477.16652480000005 618 500 625.835016 500 635.5 C 500 645.164984 477.16652480000005 653 449 653 C 420.83347519999995 653 398 645.164984 398 635.5 Z" stroke-miterlimit="10" stroke-dasharray=""/></g><g><g><path fill="none" stroke="none"/><text fill="#000000" stroke="none" font-family="Arial" font-size="13px" font-style="normal" font-weight="bold" text-decoration="undefined" x="551" y="690.5" text-anchor="middle" dominant-baseline="central" transform="matrix(1 0 0 1 -102 -54)">退票</text></g></g><g><path fill="#C0C0C0" stroke="none" paint-order="stroke fill markers" d=" M 405 722.5 C 405 712.835016 427.83347519999995 705 456 705 C 484.16652480000005 705 507 712.835016 507 722.5 C 507 732.164984 484.16652480000005 740 456 740 C 427.83347519999995 740 405 732.164984 405 722.5 Z" fill-opacity="0.2"/></g><g><path fill="#ffffff" stroke="none" paint-order="stroke fill markers" d=" M 398 715.5 C 398 705.835016 420.83347519999995 698 449 698 C 477.16652480000005 698 500 705.835016 500 715.5 C 500 725.164984 477.16652480000005 733 449 733 C 420.83347519999995 733 398 725.164984 398 715.5 Z"/></g><g><path fill="none" stroke="#000000" paint-order="fill stroke markers" d=" M 398 715.5 C 398 705.835016 420.83347519999995 698 449 698 C 477.16652480000005 698 500 705.835016 500 715.5 C 500 725.164984 477.16652480000005 733 449 733 C 420.83347519999995 733 398 725.164984 398 715.5 Z" stroke-miterlimit="10" stroke-dasharray=""/></g><g><g><path fill="none" stroke="none"/><text fill="#000000" stroke="none" font-family="Arial" font-size="13px" font-style="normal" font-weight="bold" text-decoration="undefined" x="551" y="770.5" text-anchor="middle" dominant-baseline="central" transform="matrix(1 0 0 1 -102 -54)">查找订单</text></g></g><g><path fill="#C0C0C0" stroke="none" paint-order="stroke fill markers" d=" M 233 938.5 C 233 928.835016 255.8334752 921 284 921 C 312.1665248 921 335 928.835016 335 938.5 C 335 948.164984 312.1665248 956 284 956 C 255.8334752 956 233 948.164984 233 938.5 Z" fill-opacity="0.2"/></g><g><path fill="#ffffff" stroke="none" paint-order="stroke fill markers" d=" M 226 931.5 C 226 921.835016 248.8334752 914 277 914 C 305.1665248 914 328 921.835016 328 931.5 C 328 941.164984 305.1665248 949 277 949 C 248.8334752 949 226 941.164984 226 931.5 Z"/></g><g><path fill="none" stroke="#000000" paint-order="fill stroke markers" d=" M 226 931.5 C 226 921.835016 248.8334752 914 277 914 C 305.1665248 914 328 921.835016 328 931.5 C 328 941.164984 305.1665248 949 277 949 C 248.8334752 949 226 941.164984 226 931.5 Z" stroke-miterlimit="10" stroke-dasharray=""/></g><g><g><path fill="none" stroke="none"/><text fill="#000000" stroke="none" font-family="Arial" font-size="13px" font-style="normal" font-weight="bold" text-decoration="undefined" x="379" y="986.5" text-anchor="middle" dominant-baseline="central" transform="matrix(1 0 0 1 -102 -54)">用户管理</text></g></g><g><path fill="#C0C0C0" stroke="none" paint-order="stroke fill markers" d=" M 413 890.5 C 413 880.835016 435.83347519999995 873 464 873 C 492.16652480000005 873 515 880.835016 515 890.5 C 515 900.164984 492.16652480000005 908 464 908 C 435.83347519999995 908 413 900.164984 413 890.5 Z" fill-opacity="0.2"/></g><g><path fill="#ffffff" stroke="none" paint-order="stroke fill markers" d=" M 406 883.5 C 406 873.835016 428.83347519999995 866 457 866 C 485.16652480000005 866 508 873.835016 508 883.5 C 508 893.164984 485.16652480000005 901 457 901 C 428.83347519999995 901 406 893.164984 406 883.5 Z"/></g><g><path fill="none" stroke="#000000" paint-order="fill stroke markers" d=" M 406 883.5 C 406 873.835016 428.83347519999995 866 457 866 C 485.16652480000005 866 508 873.835016 508 883.5 C 508 893.164984 485.16652480000005 901 457 901 C 428.83347519999995 901 406 893.164984 406 883.5 Z" stroke-miterlimit="10" stroke-dasharray=""/></g><g><g><path fill="none" stroke="none"/><text fill="#000000" stroke="none" font-family="Arial" font-size="13px" font-style="normal" font-weight="bold" text-decoration="undefined" x="559" y="938.5" text-anchor="middle" dominant-baseline="central" transform="matrix(1 0 0 1 -102 -54)">重置密码</text></g></g><g><path fill="#C0C0C0" stroke="none" paint-order="stroke fill markers" d=" M 413 935.5 C 413 925.835016 435.83347519999995 918 464 918 C 492.16652480000005 918 515 925.835016 515 935.5 C 515 945.164984 492.16652480000005 953 464 953 C 435.83347519999995 953 413 945.164984 413 935.5 Z" fill-opacity="0.2"/></g><g><path fill="#ffffff" stroke="none" paint-order="stroke fill markers" d=" M 406 928.5 C 406 918.835016 428.83347519999995 911 457 911 C 485.16652480000005 911 508 918.835016 508 928.5 C 508 938.164984 485.16652480000005 946 457 946 C 428.83347519999995 946 406 938.164984 406 928.5 Z"/></g><g><path fill="none" stroke="#000000" paint-order="fill stroke markers" d=" M 406 928.5 C 406 918.835016 428.83347519999995 911 457 911 C 485.16652480000005 911 508 918.835016 508 928.5 C 508 938.164984 485.16652480000005 946 457 946 C 428.83347519999995 946 406 938.164984 406 928.5 Z" stroke-miterlimit="10" stroke-dasharray=""/></g><g><g><path fill="none" stroke="none"/><text fill="#000000" stroke="none" font-family="Arial" font-size="13px" font-style="normal" font-weight="bold" text-decoration="undefined" x="559" y="983.5" text-anchor="middle" dominant-baseline="central" transform="matrix(1 0 0 1 -102 -54)">锁定用户</text></g></g><g><path fill="#C0C0C0" stroke="none" paint-order="stroke fill markers" d=" M 413 980.5 C 413 970.835016 435.83347519999995 963 464 963 C 492.16652480000005 963 515 970.835016 515 980.5 C 515 990.164984 492.16652480000005 998 464 998 C 435.83347519999995 998 413 990.164984 413 980.5 Z" fill-opacity="0.2"/></g><g><path fill="#ffffff" stroke="none" paint-order="stroke fill markers" d=" M 406 973.5 C 406 963.835016 428.83347519999995 956 457 956 C 485.16652480000005 956 508 963.835016 508 973.5 C 508 983.164984 485.16652480000005 991 457 991 C 428.83347519999995 991 406 983.164984 406 973.5 Z"/></g><g><path fill="none" stroke="#000000" paint-order="fill stroke markers" d=" M 406 973.5 C 406 963.835016 428.83347519999995 956 457 956 C 485.16652480000005 956 508 963.835016 508 973.5 C 508 983.164984 485.16652480000005 991 457 991 C 428.83347519999995 991 406 983.164984 406 973.5 Z" stroke-miterlimit="10" stroke-dasharray=""/></g><g><g><path fill="none" stroke="none"/><text fill="#000000" stroke="none" font-family="Arial" font-size="13px" font-style="normal" font-weight="bold" text-decoration="undefined" x="559" y="1028.5" text-anchor="middle" dominant-baseline="central" transform="matrix(1 0 0 1 -102 -54)">解锁用户</text></g></g><g><path fill="#C0C0C0" stroke="none" paint-order="stroke fill markers" d=" M 413 1025.5 C 413 1015.835016 435.83347519999995 1008 464 1008 C 492.16652480000005 1008 515 1015.835016 515 1025.5 C 515 1035.164984 492.16652480000005 1043 464 1043 C 435.83347519999995 1043 413 1035.164984 413 1025.5 Z" fill-opacity="0.2"/></g><g><path fill="#ffffff" stroke="none" paint-order="stroke fill markers" d=" M 406 1018.5 C 406 1008.835016 428.83347519999995 1001 457 1001 C 485.16652480000005 1001 508 1008.835016 508 1018.5 C 508 1028.164984 485.16652480000005 1036 457 1036 C 428.83347519999995 1036 406 1028.164984 406 1018.5 Z"/></g><g><path fill="none" stroke="#000000" paint-order="fill stroke markers" d=" M 406 1018.5 C 406 1008.835016 428.83347519999995 1001 457 1001 C 485.16652480000005 1001 508 1008.835016 508 1018.5 C 508 1028.164984 485.16652480000005 1036 457 1036 C 428.83347519999995 1036 406 1028.164984 406 1018.5 Z" stroke-miterlimit="10" stroke-dasharray=""/></g><g><g><path fill="none" stroke="none"/><text fill="#000000" stroke="none" font-family="Arial" font-size="13px" font-style="normal" font-weight="bold" text-decoration="undefined" x="559" y="1073.5" text-anchor="middle" dominant-baseline="central" transform="matrix(1 0 0 1 -102 -54)">查找用户</text></g></g><g><path fill="none" stroke="#000000" paint-order="fill stroke markers" d=" M 334 313 L 415 285" stroke-miterlimit="10" stroke-dasharray=""/></g><g><path fill="none" stroke="#000000" paint-order="fill stroke markers" d=" M 334 324 L 406 315" stroke-miterlimit="10" stroke-dasharray=""/></g><g><path fill="none" stroke="#000000" paint-order="fill stroke markers" d=" M 331 350 L 422 385" stroke-miterlimit="10" stroke-dasharray=""/></g><g><path fill="none" stroke="#000000" paint-order="fill stroke markers" d=" M 310 350 L 443 441" stroke-miterlimit="10" stroke-dasharray=""/></g><g><path fill="none" stroke="#000000" paint-order="fill stroke markers" d=" M 485 249 L 668 46" stroke-miterlimit="10" stroke-dasharray=""/></g><g><path fill="none" stroke="#000000" paint-order="fill stroke markers" d=" M 489 249 L 664 94" stroke-miterlimit="10" stroke-dasharray=""/></g><g><path fill="none" stroke="#000000" paint-order="fill stroke markers" d=" M 498 249 L 654 154" stroke-miterlimit="10" stroke-dasharray=""/></g><g><path fill="none" stroke="#000000" paint-order="fill stroke markers" d=" M 519 249 L 632 208" stroke-miterlimit="10" stroke-dasharray=""/></g><g><path fill="none" stroke="#000000" paint-order="fill stroke markers" d=" M 523 261 L 633 249" stroke-miterlimit="10" stroke-dasharray=""/></g><g><path fill="none" stroke="#000000" paint-order="fill stroke markers" d=" M 532 305 L 625 301" stroke-miterlimit="10" stroke-dasharray=""/></g><g><path fill="none" stroke="#000000" paint-order="fill stroke markers" d=" M 515 326 L 640 377" stroke-miterlimit="10" stroke-dasharray=""/></g><g><path fill="none" stroke="#000000" paint-order="fill stroke markers" d=" M 324 609 L 405 574" stroke-miterlimit="10" stroke-dasharray=""/></g><g><path fill="none" stroke="#000000" paint-order="fill stroke markers" d=" M 334 629 L 397 633" stroke-miterlimit="10" stroke-dasharray=""/></g><g><path fill="none" stroke="#000000" paint-order="fill stroke markers" d=" M 318 646 L 415 697" stroke-miterlimit="10" stroke-dasharray=""/></g><g><path fill="none" stroke="#000000" paint-order="fill stroke markers" d=" M 329 917 L 405 897" stroke-miterlimit="10" stroke-dasharray=""/></g><g><path fill="none" stroke="#000000" paint-order="fill stroke markers" d=" M 329 930 L 405 929" stroke-miterlimit="10" stroke-dasharray=""/></g><g><path fill="none" stroke="#000000" paint-order="fill stroke markers" d=" M 329 943 L 405 961" stroke-miterlimit="10" stroke-dasharray=""/></g><g><path fill="none" stroke="#000000" paint-order="fill stroke markers" d=" M 316 950 L 420 1000" stroke-miterlimit="10" stroke-dasharray=""/></g><g><path fill="none" stroke="#000000" paint-order="fill stroke markers" d=" M 334 338 L 417 348" stroke-miterlimit="10" stroke-dasharray=""/></g><g><path fill="none" stroke="#000000" paint-order="fill stroke markers" d=" M 532 319 L 603 332" stroke-miterlimit="10" stroke-dasharray=""/></g><g><path fill="#ffffff" stroke="none" paint-order="stroke fill markers" d=" M 26.748623046874997 491.85 C 26.748623046874997 486.96227952000004 30.706425414874985 483 35.588623046875 483 C 40.470820678875015 483 44.428623046875 486.96227952000004 44.428623046875 491.85 C 44.428623046875 496.73772048 40.470820678875015 500.70000000000005 35.588623046875 500.70000000000005 C 30.706425414874985 500.70000000000005 26.748623046874997 496.73772048 26.748623046874997 491.85 Z"/></g><g><path fill="none" stroke="#000000" paint-order="fill stroke markers" d=" M 26.748623046874997 491.85 C 26.748623046874997 486.96227952000004 30.706425414874985 483 35.588623046875 483 C 40.470820678875015 483 44.428623046875 486.96227952000004 44.428623046875 491.85 C 44.428623046875 496.73772048 40.470820678875015 500.70000000000005 35.588623046875 500.70000000000005 C 30.706425414874985 500.70000000000005 26.748623046874997 496.73772048 26.748623046874997 491.85 Z" stroke-miterlimit="10" stroke-dasharray=""/></g><g><path fill="none" stroke="#000000" paint-order="fill stroke markers" d=" M 35.588623046875 500.70000000000005 L 35.588623046875 518.3" stroke-miterlimit="10" stroke-dasharray=""/></g><g><path fill="none" stroke="#000000" paint-order="fill stroke markers" d=" M 26.228623046874986 507.29999999999995 L 44.948623046875014 507.29999999999995" stroke-miterlimit="10" stroke-dasharray=""/></g><g><path fill="none" stroke="#000000" paint-order="fill stroke markers" d=" M 35.588623046875 518.3 L 22.588623046875 536" stroke-miterlimit="10" stroke-dasharray=""/></g><g><path fill="none" stroke="#000000" paint-order="fill stroke markers" d=" M 35.588623046875 518.3 L 48.588623046875 536" stroke-miterlimit="10" stroke-dasharray=""/></g><g><g><path fill="none" stroke="none"/><text fill="#000000" stroke="none" font-family="Arial" font-size="13px" font-style="normal" font-weight="bold" text-decoration="undefined" x="138.088623046875" y="604.5" text-anchor="middle" dominant-baseline="central" transform="matrix(1 0 0 1 -102 -54)">管理员</text></g></g><g><path fill="none" stroke="#000000" paint-order="fill stroke markers" d=" M 62 487 L 264 230" stroke-miterlimit="10" stroke-dasharray=""/></g><g><path fill="none" stroke="#000000" paint-order="fill stroke markers" d=" M 62 501 L 257 350" stroke-miterlimit="10" stroke-dasharray=""/></g><g><path fill="none" stroke="#000000" paint-order="fill stroke markers" d=" M 62 534 L 240 609" stroke-miterlimit="10" stroke-dasharray=""/></g><g><path fill="none" stroke="#000000" paint-order="fill stroke markers" d=" M 59 563 L 266 913" stroke-miterlimit="10" stroke-dasharray=""/></g><g><path fill="#C0C0C0" stroke="none" paint-order="stroke fill markers" d=" M 605 450.5 C 605 440.835016 636.7877792 433 676 433 C 715.2122208 433 747 440.835016 747 450.5 C 747 460.164984 715.2122208 468 676 468 C 636.7877792 468 605 460.164984 605 450.5 Z" fill-opacity="0.2"/></g><g><path fill="#ffffff" stroke="none" paint-order="stroke fill markers" d=" M 598 443.5 C 598 433.835016 629.7877792 426 669 426 C 708.2122208 426 740 433.835016 740 443.5 C 740 453.164984 708.2122208 461 669 461 C 629.7877792 461 598 453.164984 598 443.5 Z"/></g><g><path fill="none" stroke="#000000" paint-order="fill stroke markers" d=" M 598 443.5 C 598 433.835016 629.7877792 426 669 426 C 708.2122208 426 740 433.835016 740 443.5 C 740 453.164984 708.2122208 461 669 461 C 629.7877792 461 598 453.164984 598 443.5 Z" stroke-miterlimit="10" stroke-dasharray=""/></g><g><g><path fill="none" stroke="none"/><text fill="#000000" stroke="none" font-family="Arial" font-size="13px" font-style="normal" font-weight="bold" text-decoration="undefined" x="771" y="498.5" text-anchor="middle" dominant-baseline="central" transform="matrix(1 0 0 1 -102 -54)">根据车次号查找</text></g></g><g><path fill="#C0C0C0" stroke="none" paint-order="stroke fill markers" d=" M 605 498.5 C 605 488.835016 636.7877792 481 676 481 C 715.2122208 481 747 488.835016 747 498.5 C 747 508.164984 715.2122208 516 676 516 C 636.7877792 516 605 508.164984 605 498.5 Z" fill-opacity="0.2"/></g><g><path fill="#ffffff" stroke="none" paint-order="stroke fill markers" d=" M 598 491.5 C 598 481.835016 629.7877792 474 669 474 C 708.2122208 474 740 481.835016 740 491.5 C 740 501.164984 708.2122208 509 669 509 C 629.7877792 509 598 501.164984 598 491.5 Z"/></g><g><path fill="none" stroke="#000000" paint-order="fill stroke markers" d=" M 598 491.5 C 598 481.835016 629.7877792 474 669 474 C 708.2122208 474 740 481.835016 740 491.5 C 740 501.164984 708.2122208 509 669 509 C 629.7877792 509 598 501.164984 598 491.5 Z" stroke-miterlimit="10" stroke-dasharray=""/></g><g><g><path fill="none" stroke="none"/><text fill="#000000" stroke="none" font-family="Arial" font-size="13px" font-style="normal" font-weight="bold" text-decoration="undefined" x="771" y="546.5" text-anchor="middle" dominant-baseline="central" transform="matrix(1 0 0 1 -102 -54)">根据始发站查找</text></g></g><g><path fill="#C0C0C0" stroke="none" paint-order="stroke fill markers" d=" M 605 546.5 C 605 536.835016 636.7877792 529 676 529 C 715.2122208 529 747 536.835016 747 546.5 C 747 556.164984 715.2122208 564 676 564 C 636.7877792 564 605 556.164984 605 546.5 Z" fill-opacity="0.2"/></g><g><path fill="#ffffff" stroke="none" paint-order="stroke fill markers" d=" M 598 539.5 C 598 529.835016 629.7877792 522 669 522 C 708.2122208 522 740 529.835016 740 539.5 C 740 549.164984 708.2122208 557 669 557 C 629.7877792 557 598 549.164984 598 539.5 Z"/></g><g><path fill="none" stroke="#000000" paint-order="fill stroke markers" d=" M 598 539.5 C 598 529.835016 629.7877792 522 669 522 C 708.2122208 522 740 529.835016 740 539.5 C 740 549.164984 708.2122208 557 669 557 C 629.7877792 557 598 549.164984 598 539.5 Z" stroke-miterlimit="10" stroke-dasharray=""/></g><g><g><path fill="none" stroke="none"/><text fill="#000000" stroke="none" font-family="Arial" font-size="13px" font-style="normal" font-weight="bold" text-decoration="undefined" x="771" y="594.5" text-anchor="middle" dominant-baseline="central" transform="matrix(1 0 0 1 -102 -54)">根据终点站查找</text></g></g><g><path fill="none" stroke="#000000" paint-order="fill stroke markers" d=" M 521 455 L 597 449" stroke-miterlimit="10" stroke-dasharray=""/></g><g><path fill="none" stroke="#000000" paint-order="fill stroke markers" d=" M 521 467 L 597 479" stroke-miterlimit="10" stroke-dasharray=""/></g><g><path fill="none" stroke="#000000" paint-order="fill stroke markers" d=" M 517 478 L 624 521" stroke-miterlimit="10" stroke-dasharray=""/></g><g><path fill="#C0C0C0" stroke="none" paint-order="stroke fill markers" d=" M 585 594.5 C 585 584.835016 616.7877792 577 656 577 C 695.2122208 577 727 584.835016 727 594.5 C 727 604.164984 695.2122208 612 656 612 C 616.7877792 612 585 604.164984 585 594.5 Z" fill-opacity="0.2"/></g><g><path fill="#ffffff" stroke="none" paint-order="stroke fill markers" d=" M 578 587.5 C 578 577.835016 609.7877792 570 649 570 C 688.2122208 570 720 577.835016 720 587.5 C 720 597.164984 688.2122208 605 649 605 C 609.7877792 605 578 597.164984 578 587.5 Z"/></g><g><path fill="none" stroke="#000000" paint-order="fill stroke markers" d=" M 578 587.5 C 578 577.835016 609.7877792 570 649 570 C 688.2122208 570 720 577.835016 720 587.5 C 720 597.164984 688.2122208 605 649 605 C 609.7877792 605 578 597.164984 578 587.5 Z" stroke-miterlimit="10" stroke-dasharray=""/></g><g><g><path fill="none" stroke="none"/><text fill="#000000" stroke="none" font-family="Arial" font-size="13px" font-style="normal" font-weight="bold" text-decoration="undefined" x="751" y="642.5" text-anchor="middle" dominant-baseline="central" transform="matrix(1 0 0 1 -102 -54)">根据订单号查找</text></g></g><g><path fill="#C0C0C0" stroke="none" paint-order="stroke fill markers" d=" M 585 647.5 C 585 637.835016 616.7877792 630 656 630 C 695.2122208 630 727 637.835016 727 647.5 C 727 657.164984 695.2122208 665 656 665 C 616.7877792 665 585 657.164984 585 647.5 Z" fill-opacity="0.2"/></g><g><path fill="#ffffff" stroke="none" paint-order="stroke fill markers" d=" M 578 640.5 C 578 630.835016 609.7877792 623 649 623 C 688.2122208 623 720 630.835016 720 640.5 C 720 650.164984 688.2122208 658 649 658 C 609.7877792 658 578 650.164984 578 640.5 Z"/></g><g><path fill="none" stroke="#000000" paint-order="fill stroke markers" d=" M 578 640.5 C 578 630.835016 609.7877792 623 649 623 C 688.2122208 623 720 630.835016 720 640.5 C 720 650.164984 688.2122208 658 649 658 C 609.7877792 658 578 650.164984 578 640.5 Z" stroke-miterlimit="10" stroke-dasharray=""/></g><g><g><path fill="none" stroke="none"/><text fill="#000000" stroke="none" font-family="Arial" font-size="13px" font-style="normal" font-weight="bold" text-decoration="undefined" x="751" y="695.5" text-anchor="middle" dominant-baseline="central" transform="matrix(1 0 0 1 -102 -54)">根据车次号查找</text></g></g><g><path fill="#C0C0C0" stroke="none" paint-order="stroke fill markers" d=" M 575 700.5 C 575 690.835016 611.0410736 683 655.5 683 C 699.9589264 683 736 690.835016 736 700.5 C 736 710.164984 699.9589264 718 655.5 718 C 611.0410736 718 575 710.164984 575 700.5 Z" fill-opacity="0.2"/></g><g><path fill="#ffffff" stroke="none" paint-order="stroke fill markers" d=" M 568 693.5 C 568 683.835016 604.0410736 676 648.5 676 C 692.9589264 676 729 683.835016 729 693.5 C 729 703.164984 692.9589264 711 648.5 711 C 604.0410736 711 568 703.164984 568 693.5 Z"/></g><g><path fill="none" stroke="#000000" paint-order="fill stroke markers" d=" M 568 693.5 C 568 683.835016 604.0410736 676 648.5 676 C 692.9589264 676 729 683.835016 729 693.5 C 729 703.164984 692.9589264 711 648.5 711 C 604.0410736 711 568 703.164984 568 693.5 Z" stroke-miterlimit="10" stroke-dasharray=""/></g><g><g><path fill="none" stroke="none"/><text fill="#000000" stroke="none" font-family="Arial" font-size="13px" font-style="normal" font-weight="bold" text-decoration="undefined" x="750.5" y="748.5" text-anchor="middle" dominant-baseline="central" transform="matrix(1 0 0 1 -102 -54)">根据出发日期查找</text></g></g><g><path fill="#C0C0C0" stroke="none" paint-order="stroke fill markers" d=" M 585 753.5 C 585 743.835016 616.7877792 736 656 736 C 695.2122208 736 727 743.835016 727 753.5 C 727 763.164984 695.2122208 771 656 771 C 616.7877792 771 585 763.164984 585 753.5 Z" fill-opacity="0.2"/></g><g><path fill="#ffffff" stroke="none" paint-order="stroke fill markers" d=" M 578 746.5 C 578 736.835016 609.7877792 729 649 729 C 688.2122208 729 720 736.835016 720 746.5 C 720 756.164984 688.2122208 764 649 764 C 609.7877792 764 578 756.164984 578 746.5 Z"/></g><g><path fill="none" stroke="#000000" paint-order="fill stroke markers" d=" M 578 746.5 C 578 736.835016 609.7877792 729 649 729 C 688.2122208 729 720 736.835016 720 746.5 C 720 756.164984 688.2122208 764 649 764 C 609.7877792 764 578 756.164984 578 746.5 Z" stroke-miterlimit="10" stroke-dasharray=""/></g><g><g><path fill="none" stroke="none"/><text fill="#000000" stroke="none" font-family="Arial" font-size="13px" font-style="normal" font-weight="bold" text-decoration="undefined" x="751" y="801.5" text-anchor="middle" dominant-baseline="central" transform="matrix(1 0 0 1 -102 -54)">根据乘车人查找</text></g></g><g><path fill="#C0C0C0" stroke="none" paint-order="stroke fill markers" d=" M 585 806.5 C 585 796.835016 616.7877792 789 656 789 C 695.2122208 789 727 796.835016 727 806.5 C 727 816.164984 695.2122208 824 656 824 C 616.7877792 824 585 816.164984 585 806.5 Z" fill-opacity="0.2"/></g><g><path fill="#ffffff" stroke="none" paint-order="stroke fill markers" d=" M 578 799.5 C 578 789.835016 609.7877792 782 649 782 C 688.2122208 782 720 789.835016 720 799.5 C 720 809.164984 688.2122208 817 649 817 C 609.7877792 817 578 809.164984 578 799.5 Z"/></g><g><path fill="none" stroke="#000000" paint-order="fill stroke markers" d=" M 578 799.5 C 578 789.835016 609.7877792 782 649 782 C 688.2122208 782 720 789.835016 720 799.5 C 720 809.164984 688.2122208 817 649 817 C 609.7877792 817 578 809.164984 578 799.5 Z" stroke-miterlimit="10" stroke-dasharray=""/></g><g><g><path fill="none" stroke="none"/><text fill="#000000" stroke="none" font-family="Arial" font-size="13px" font-style="normal" font-weight="bold" text-decoration="undefined" x="751" y="854.5" text-anchor="middle" dominant-baseline="central" transform="matrix(1 0 0 1 -102 -54)">根据出发站查找</text></g></g><g><path fill="#C0C0C0" stroke="none" paint-order="stroke fill markers" d=" M 585 859.5 C 585 849.835016 616.7877792 842 656 842 C 695.2122208 842 727 849.835016 727 859.5 C 727 869.164984 695.2122208 877 656 877 C 616.7877792 877 585 869.164984 585 859.5 Z" fill-opacity="0.2"/></g><g><path fill="#ffffff" stroke="none" paint-order="stroke fill markers" d=" M 578 852.5 C 578 842.835016 609.7877792 835 649 835 C 688.2122208 835 720 842.835016 720 852.5 C 720 862.164984 688.2122208 870 649 870 C 609.7877792 870 578 862.164984 578 852.5 Z"/></g><g><path fill="none" stroke="#000000" paint-order="fill stroke markers" d=" M 578 852.5 C 578 842.835016 609.7877792 835 649 835 C 688.2122208 835 720 842.835016 720 852.5 C 720 862.164984 688.2122208 870 649 870 C 609.7877792 870 578 862.164984 578 852.5 Z" stroke-miterlimit="10" stroke-dasharray=""/></g><g><g><path fill="none" stroke="none"/><text fill="#000000" stroke="none" font-family="Arial" font-size="13px" font-style="normal" font-weight="bold" text-decoration="undefined" x="751" y="907.5" text-anchor="middle" dominant-baseline="central" transform="matrix(1 0 0 1 -102 -54)">根据终点站查找</text></g></g><g><path fill="none" stroke="#000000" paint-order="fill stroke markers" d=" M 477 697 L 619 606" stroke-miterlimit="10" stroke-dasharray=""/></g><g><path fill="none" stroke="#000000" paint-order="fill stroke markers" d=" M 497 697 L 598 659" stroke-miterlimit="10" stroke-dasharray=""/></g><g><path fill="none" stroke="#000000" paint-order="fill stroke markers" d=" M 501 709 L 567 702" stroke-miterlimit="10" stroke-dasharray=""/></g><g><path fill="none" stroke="#000000" paint-order="fill stroke markers" d=" M 501 723 L 577 735" stroke-miterlimit="10" stroke-dasharray=""/></g><g><path fill="none" stroke="#000000" paint-order="fill stroke markers" d=" M 494 734 L 606 781" stroke-miterlimit="10" stroke-dasharray=""/></g><g><path fill="none" stroke="#000000" paint-order="fill stroke markers" d=" M 477 734 L 623 834" stroke-miterlimit="10" stroke-dasharray=""/></g><g><path fill="#C0C0C0" stroke="none" paint-order="stroke fill markers" d=" M 409 794.5 C 409 784.835016 432.72890559999996 777 462 777 C 491.27109440000004 777 515 784.835016 515 794.5 C 515 804.164984 491.27109440000004 812 462 812 C 432.72890559999996 812 409 804.164984 409 794.5 Z" fill-opacity="0.2"/></g><g><path fill="#ffffff" stroke="none" paint-order="stroke fill markers" d=" M 402 787.5 C 402 777.835016 425.72890559999996 770 455 770 C 484.27109440000004 770 508 777.835016 508 787.5 C 508 797.164984 484.27109440000004 805 455 805 C 425.72890559999996 805 402 797.164984 402 787.5 Z"/></g><g><path fill="none" stroke="#000000" paint-order="fill stroke markers" d=" M 402 787.5 C 402 777.835016 425.72890559999996 770 455 770 C 484.27109440000004 770 508 777.835016 508 787.5 C 508 797.164984 484.27109440000004 805 455 805 C 425.72890559999996 805 402 797.164984 402 787.5 Z" stroke-miterlimit="10" stroke-dasharray=""/></g><g><g><path fill="none" stroke="none"/><text fill="#000000" stroke="none" font-family="Arial" font-size="13px" font-style="normal" font-weight="bold" text-decoration="undefined" x="557" y="842.5" text-anchor="middle" dominant-baseline="central" transform="matrix(1 0 0 1 -102 -54)">查看时刻表</text></g></g><g><path fill="none" stroke="#000000" paint-order="fill stroke markers" d=" M 303 646 L 436 769" stroke-miterlimit="10" stroke-dasharray=""/></g><g><path fill="#C0C0C0" stroke="none" paint-order="stroke fill markers" d=" M 561 1026.5 C 561 1016.835016 592.7877792 1009 632 1009 C 671.2122208 1009 703 1016.835016 703 1026.5 C 703 1036.164984 671.2122208 1044 632 1044 C 592.7877792 1044 561 1036.164984 561 1026.5 Z" fill-opacity="0.2"/></g><g><path fill="#ffffff" stroke="none" paint-order="stroke fill markers" d=" M 554 1019.5 C 554 1009.835016 585.7877792 1002 625 1002 C 664.2122208 1002 696 1009.835016 696 1019.5 C 696 1029.164984 664.2122208 1037 625 1037 C 585.7877792 1037 554 1029.164984 554 1019.5 Z"/></g><g><path fill="none" stroke="#000000" paint-order="fill stroke markers" d=" M 554 1019.5 C 554 1009.835016 585.7877792 1002 625 1002 C 664.2122208 1002 696 1009.835016 696 1019.5 C 696 1029.164984 664.2122208 1037 625 1037 C 585.7877792 1037 554 1029.164984 554 1019.5 Z" stroke-miterlimit="10" stroke-dasharray=""/></g><g><g><path fill="none" stroke="none"/><text fill="#000000" stroke="none" font-family="Arial" font-size="13px" font-style="normal" font-weight="bold" text-decoration="undefined" x="727" y="1074.5" text-anchor="middle" dominant-baseline="central" transform="matrix(1 0 0 1 -102 -54)">根据用户名查找</text></g></g><g><path fill="none" stroke="#000000" paint-order="fill stroke markers" d=" M 509 1018 L 553 1019" stroke-miterlimit="10" stroke-dasharray=""/></g></g></svg>