<svg version="1.1" xmlns="http://www.w3.org/2000/svg" xmlns:xlink="http://www.w3.org/1999/xlink" width="484" height="540"><defs/><g><g><path fill="none" stroke="#000000" paint-order="fill stroke markers" d=" M 10 10 L 474 10 L 474 530 L 10 530 L 10 10" stroke-miterlimit="10" stroke-dasharray=""/></g><g><path fill="#ffffff" stroke="none" paint-order="stroke fill markers" d=" M 10 10 L 10 33 L 135.05908203125 33 L 146.55908203125 21.5 L 146.55908203125 10 L 10 10"/></g><g><path fill="none" stroke="#000000" paint-order="fill stroke markers" d=" M 10 10 L 10 33 L 135.05908203125 33 L 146.55908203125 21.5 L 146.55908203125 10 L 10 10 L 10 10" stroke-miterlimit="10" stroke-dasharray=""/></g><g><g><path fill="none" stroke="none"/><text fill="#000000" stroke="none" font-family="Arial" font-size="13px" font-style="normal" font-weight="normal" text-decoration="undefined" x="128.39453125" y="11.5" text-anchor="middle" dominant-baseline="central" transform="matrix(1 0 0 1 -46 10)">顺序图-查询历史</text></g></g><g><g><path fill="none" stroke="none"/><text fill="#000000" stroke="none" font-family="Arial" font-size="13px" font-style="normal" font-weight="bold" text-decoration="undefined" x="67.864990234375" y="11.5" text-anchor="middle" dominant-baseline="central" transform="matrix(1 0 0 1 -46 10)">sd</text></g></g><g><rect fill="#C0C0C0" stroke="none" x="119" y="47" width="72.736328125" height="40" transform="matrix(1 0 0 1 -46 10)" fill-opacity="0.2"/></g><g><rect fill="#ffffff" stroke="none" x="112" y="40" width="72.736328125" height="40" transform="matrix(1 0 0 1 -46 10)"/></g><g><path fill="none" stroke="#000000" paint-order="fill stroke markers" d=" M 66 50 L 138.736328125 50 L 138.736328125 90 L 66 90 L 66 50 Z Z" stroke-miterlimit="10" stroke-dasharray=""/></g><g><g><path fill="none" stroke="none"/><text fill="#000000" stroke="none" font-family="Arial" font-size="13px" font-style="normal" font-weight="bold" text-decoration="undefined" x="148.8681640625" y="53.5" text-anchor="middle" dominant-baseline="central" transform="matrix(1 0 0 1 -46 10)">用户</text></g></g><g><path fill="none" stroke="#000000" paint-order="fill stroke markers" d=" M 102.5 91 L 102.5 498" stroke-miterlimit="10" stroke-dasharray="3"/></g><g><rect fill="#C0C0C0" stroke="none" x="223" y="47" width="118.24267578125" height="40" transform="matrix(1 0 0 1 -46 10)" fill-opacity="0.2"/></g><g><rect fill="#ffffff" stroke="none" x="216" y="40" width="118.24267578125" height="40" transform="matrix(1 0 0 1 -46 10)"/></g><g><path fill="none" stroke="#000000" paint-order="fill stroke markers" d=" M 170 50 L 288.24267578125 50 L 288.24267578125 90 L 170 90 L 170 50 Z Z" stroke-miterlimit="10" stroke-dasharray=""/></g><g><g><path fill="none" stroke="none"/><text fill="#000000" stroke="none" font-family="Arial" font-size="13px" font-style="normal" font-weight="bold" text-decoration="undefined" x="275.621337890625" y="53.5" text-anchor="middle" dominant-baseline="central" transform="matrix(1 0 0 1 -46 10)">前端</text></g></g><g><path fill="none" stroke="#000000" paint-order="fill stroke markers" d=" M 229.5 91 L 229.5 498" stroke-miterlimit="10" stroke-dasharray="3"/></g><g><rect fill="#C0C0C0" stroke="none" x="375" y="47" width="121.64501953125" height="40" transform="matrix(1 0 0 1 -46 10)" fill-opacity="0.2"/></g><g><rect fill="#ffffff" stroke="none" x="368" y="40" width="121.64501953125" height="40" transform="matrix(1 0 0 1 -46 10)"/></g><g><path fill="none" stroke="#000000" paint-order="fill stroke markers" d=" M 322 50 L 443.64501953125 50 L 443.64501953125 90 L 322 90 L 322 50 Z Z" stroke-miterlimit="10" stroke-dasharray=""/></g><g><g><path fill="none" stroke="none"/><text fill="#000000" stroke="none" font-family="Arial" font-size="13px" font-style="normal" font-weight="bold" text-decoration="undefined" x="429.322509765625" y="53.5" text-anchor="middle" dominant-baseline="central" transform="matrix(1 0 0 1 -46 10)">BookingSystem</text></g></g><g><path fill="none" stroke="#000000" paint-order="fill stroke markers" d=" M 383.5 91 L 383.5 482" stroke-miterlimit="10" stroke-dasharray="3"/></g><g><path fill="none" stroke="#000000" paint-order="fill stroke markers" d=" M 103 122 L 222 122" stroke-miterlimit="10" stroke-dasharray=""/></g><g><path fill="#000000" stroke="none" paint-order="stroke fill markers" d=" M 211.83732514237585 126.20951775601598 L 222 122 L 211.83732514237585 117.79048224398402"/></g><g><path fill="none" stroke="#000000" paint-order="fill stroke markers" d=" M 211.83732514237585 126.20951775601598 L 222 122 L 211.83732514237585 117.79048224398402 L 211.83732514237585 126.20951775601598" stroke-miterlimit="10" stroke-dasharray=""/></g><g><rect fill="#ffffff" stroke="none" x="169" y="96" width="78.04443359375" height="13" transform="matrix(1 0 0 1 -46 10)"/></g><g><g><path fill="none" stroke="none"/><text fill="#000000" stroke="none" font-family="Arial" font-size="13px" font-style="normal" font-weight="normal" text-decoration="undefined" x="208.022216796875" y="102.5" text-anchor="middle" dominant-baseline="central" transform="matrix(1 0 0 1 -46 10)">1 : 点击查询</text></g></g><g><rect fill="#ffffff" stroke="none" x="268" y="112" width="14" height="136" transform="matrix(1 0 0 1 -46 10)"/></g><g><path fill="none" stroke="#000000" paint-order="fill stroke markers" d=" M 222 122 L 236 122 L 236 258 L 222 258 L 222 122 Z Z" stroke-miterlimit="10" stroke-dasharray=""/></g><g><path fill="none" stroke="#000000" paint-order="fill stroke markers" d=" M 236 133 L 376 133" stroke-miterlimit="10" stroke-dasharray=""/></g><g><path fill="none" stroke="#000000" paint-order="fill stroke markers" d=" M 365.83732514237585 137.209517756016 L 376 133 L 365.83732514237585 128.790482243984" stroke-miterlimit="10" stroke-dasharray=""/></g><g><rect fill="#ffffff" stroke="none" x="277" y="107" width="150.36962890625" height="13" transform="matrix(1 0 0 1 -46 10)"/></g><g><g><path fill="none" stroke="none"/><text fill="#000000" stroke="none" font-family="Arial" font-size="13px" font-style="normal" font-weight="normal" text-decoration="undefined" x="352.184814453125" y="113.5" text-anchor="middle" dominant-baseline="central" transform="matrix(1 0 0 1 -46 10)">2 : addQueryHistory_api</text></g></g><g><rect fill="#ffffff" stroke="none" x="422" y="123" width="14" height="37" transform="matrix(1 0 0 1 -46 10)"/></g><g><path fill="none" stroke="#000000" paint-order="fill stroke markers" d=" M 376 133 L 390 133 L 390 170 L 376 170 L 376 133 Z Z" stroke-miterlimit="10" stroke-dasharray=""/></g><g><path fill="none" stroke="#000000" paint-order="fill stroke markers" d=" M 376 147 L 236 147" stroke-miterlimit="10" stroke-dasharray="3"/></g><g><path fill="none" stroke="#000000" paint-order="fill stroke markers" d=" M 246.16267485762415 142.790482243984 L 236 147 L 246.16267485762415 151.209517756016" stroke-miterlimit="10" stroke-dasharray=""/></g><g><rect fill="#ffffff" stroke="none" x="274" y="141" width="155.4033203125" height="13" transform="matrix(1 0 0 1 -46 10)"/></g><g><g><path fill="none" stroke="none"/><text fill="#000000" stroke="none" font-family="Arial" font-size="13px" font-style="normal" font-weight="normal" text-decoration="undefined" x="351.70166015625" y="147.5" text-anchor="middle" dominant-baseline="central" transform="matrix(1 0 0 1 -46 10)">3 : queryHistoryChanged</text></g></g><g><path fill="none" stroke="#000000" paint-order="fill stroke markers" d=" M 236 194 L 376 194" stroke-miterlimit="10" stroke-dasharray=""/></g><g><path fill="none" stroke="#000000" paint-order="fill stroke markers" d=" M 365.83732514237585 198.209517756016 L 376 194 L 365.83732514237585 189.790482243984" stroke-miterlimit="10" stroke-dasharray=""/></g><g><rect fill="#ffffff" stroke="none" x="279" y="168" width="147.087890625" height="13" transform="matrix(1 0 0 1 -46 10)"/></g><g><g><path fill="none" stroke="none"/><text fill="#000000" stroke="none" font-family="Arial" font-size="13px" font-style="normal" font-weight="normal" text-decoration="undefined" x="352.5439453125" y="174.5" text-anchor="middle" dominant-baseline="central" transform="matrix(1 0 0 1 -46 10)">4 : getQueryHistory_api</text></g></g><g><rect fill="#ffffff" stroke="none" x="422" y="184" width="14" height="48" transform="matrix(1 0 0 1 -46 10)"/></g><g><path fill="none" stroke="#000000" paint-order="fill stroke markers" d=" M 376 194 L 390 194 L 390 242 L 376 242 L 376 194 Z Z" stroke-miterlimit="10" stroke-dasharray=""/></g><g><path fill="none" stroke="#000000" paint-order="fill stroke markers" d=" M 376 218 L 236 218" stroke-miterlimit="10" stroke-dasharray="3"/></g><g><path fill="none" stroke="#000000" paint-order="fill stroke markers" d=" M 246.16267485762415 213.790482243984 L 236 218 L 246.16267485762415 222.209517756016" stroke-miterlimit="10" stroke-dasharray=""/></g><g><rect fill="#ffffff" stroke="none" x="302" y="212" width="99.49951171875" height="13" transform="matrix(1 0 0 1 -46 10)"/></g><g><g><path fill="none" stroke="none"/><text fill="#000000" stroke="none" font-family="Arial" font-size="13px" font-style="normal" font-weight="normal" text-decoration="undefined" x="351.749755859375" y="218.5" text-anchor="middle" dominant-baseline="central" transform="matrix(1 0 0 1 -46 10)">5 : queryHistory</text></g></g><g><path fill="none" stroke="#000000" paint-order="fill stroke markers" d=" M 222 237 L 103 237" stroke-miterlimit="10" stroke-dasharray="3"/></g><g><path fill="none" stroke="#000000" paint-order="fill stroke markers" d=" M 113.16267485762415 232.790482243984 L 103 237 L 113.16267485762415 241.209517756016" stroke-miterlimit="10" stroke-dasharray=""/></g><g><rect fill="#ffffff" stroke="none" x="159" y="231" width="96.4462890625" height="13" transform="matrix(1 0 0 1 -46 10)"/></g><g><g><path fill="none" stroke="none"/><text fill="#000000" stroke="none" font-family="Arial" font-size="13px" font-style="normal" font-weight="normal" text-decoration="undefined" x="207.22314453125" y="237.5" text-anchor="middle" dominant-baseline="central" transform="matrix(1 0 0 1 -46 10)">6 : 显示查询历史</text></g></g><g><path fill="none" stroke="#000000" paint-order="fill stroke markers" d=" M 103 298 L 222 298" stroke-miterlimit="10" stroke-dasharray=""/></g><g><path fill="#000000" stroke="none" paint-order="stroke fill markers" d=" M 211.83732514237585 302.209517756016 L 222 298 L 211.83732514237585 293.790482243984"/></g><g><path fill="none" stroke="#000000" paint-order="fill stroke markers" d=" M 211.83732514237585 302.209517756016 L 222 298 L 211.83732514237585 293.790482243984 L 211.83732514237585 302.209517756016" stroke-miterlimit="10" stroke-dasharray=""/></g><g><rect fill="#ffffff" stroke="none" x="160" y="272" width="96.4462890625" height="13" transform="matrix(1 0 0 1 -46 10)"/></g><g><g><path fill="none" stroke="none"/><text fill="#000000" stroke="none" font-family="Arial" font-size="13px" font-style="normal" font-weight="normal" text-decoration="undefined" x="208.22314453125" y="278.5" text-anchor="middle" dominant-baseline="central" transform="matrix(1 0 0 1 -46 10)">7 : 点击查询历史</text></g></g><g><rect fill="#ffffff" stroke="none" x="268" y="288" width="14" height="48" transform="matrix(1 0 0 1 -46 10)"/></g><g><path fill="none" stroke="#000000" paint-order="fill stroke markers" d=" M 222 298 L 236 298 L 236 346 L 222 346 L 222 298 Z Z" stroke-miterlimit="10" stroke-dasharray=""/></g><g><path fill="none" stroke="#000000" paint-order="fill stroke markers" d=" M 222 333 L 103 333" stroke-miterlimit="10" stroke-dasharray="3"/></g><g><path fill="none" stroke="#000000" paint-order="fill stroke markers" d=" M 113.16267485762415 328.790482243984 L 103 333 L 113.16267485762415 337.209517756016" stroke-miterlimit="10" stroke-dasharray=""/></g><g><rect fill="#ffffff" stroke="none" x="166" y="327" width="83.4462890625" height="13" transform="matrix(1 0 0 1 -46 10)"/></g><g><g><path fill="none" stroke="none"/><text fill="#000000" stroke="none" font-family="Arial" font-size="13px" font-style="normal" font-weight="normal" text-decoration="undefined" x="207.72314453125" y="333.5" text-anchor="middle" dominant-baseline="central" transform="matrix(1 0 0 1 -46 10)">8 : 更改起末站</text></g></g><g><path fill="none" stroke="#000000" paint-order="fill stroke markers" d=" M 103 386 L 222 386" stroke-miterlimit="10" stroke-dasharray=""/></g><g><path fill="#000000" stroke="none" paint-order="stroke fill markers" d=" M 211.83732514237585 390.209517756016 L 222 386 L 211.83732514237585 381.790482243984"/></g><g><path fill="none" stroke="#000000" paint-order="fill stroke markers" d=" M 211.83732514237585 390.209517756016 L 222 386 L 211.83732514237585 381.790482243984 L 211.83732514237585 390.209517756016" stroke-miterlimit="10" stroke-dasharray=""/></g><g><rect fill="#ffffff" stroke="none" x="160" y="360" width="96.4462890625" height="13" transform="matrix(1 0 0 1 -46 10)"/></g><g><g><path fill="none" stroke="none"/><text fill="#000000" stroke="none" font-family="Arial" font-size="13px" font-style="normal" font-weight="normal" text-decoration="undefined" x="208.22314453125" y="366.5" text-anchor="middle" dominant-baseline="central" transform="matrix(1 0 0 1 -46 10)">9 : 点击清除历史</text></g></g><g><rect fill="#ffffff" stroke="none" x="268" y="376" width="14" height="88" transform="matrix(1 0 0 1 -46 10)"/></g><g><path fill="none" stroke="#000000" paint-order="fill stroke markers" d=" M 222 386 L 236 386 L 236 474 L 222 474 L 222 386 Z Z" stroke-miterlimit="10" stroke-dasharray=""/></g><g><path fill="none" stroke="#000000" paint-order="fill stroke markers" d=" M 236 394 L 376 394" stroke-miterlimit="10" stroke-dasharray=""/></g><g><path fill="none" stroke="#000000" paint-order="fill stroke markers" d=" M 365.83732514237585 398.209517756016 L 376 394 L 365.83732514237585 389.790482243984" stroke-miterlimit="10" stroke-dasharray=""/></g><g><rect fill="#ffffff" stroke="none" x="271" y="368" width="163.6806640625" height="13" transform="matrix(1 0 0 1 -46 10)"/></g><g><g><path fill="none" stroke="none"/><text fill="#000000" stroke="none" font-family="Arial" font-size="13px" font-style="normal" font-weight="normal" text-decoration="undefined" x="352.84033203125" y="374.5" text-anchor="middle" dominant-baseline="central" transform="matrix(1 0 0 1 -46 10)">10 : clearQueryHistory_api</text></g></g><g><rect fill="#ffffff" stroke="none" x="422" y="384" width="14" height="48" transform="matrix(1 0 0 1 -46 10)"/></g><g><path fill="none" stroke="#000000" paint-order="fill stroke markers" d=" M 376 394 L 390 394 L 390 442 L 376 442 L 376 394 Z Z" stroke-miterlimit="10" stroke-dasharray=""/></g><g><path fill="none" stroke="#000000" paint-order="fill stroke markers" d=" M 376 433 L 236 433" stroke-miterlimit="10" stroke-dasharray="3"/></g><g><path fill="none" stroke="#000000" paint-order="fill stroke markers" d=" M 246.16267485762415 428.790482243984 L 236 433 L 246.16267485762415 437.209517756016" stroke-miterlimit="10" stroke-dasharray=""/></g><g><rect fill="#ffffff" stroke="none" x="315" y="427" width="72.54736328125" height="13" transform="matrix(1 0 0 1 -46 10)"/></g><g><g><path fill="none" stroke="none"/><text fill="#000000" stroke="none" font-family="Arial" font-size="13px" font-style="normal" font-weight="normal" text-decoration="undefined" x="351.273681640625" y="433.5" text-anchor="middle" dominant-baseline="central" transform="matrix(1 0 0 1 -46 10)">11 : success</text></g></g><g><path fill="none" stroke="#000000" paint-order="fill stroke markers" d=" M 222 466 L 103 466" stroke-miterlimit="10" stroke-dasharray="3"/></g><g><path fill="none" stroke="#000000" paint-order="fill stroke markers" d=" M 113.16267485762415 461.790482243984 L 103 466 L 113.16267485762415 470.209517756016" stroke-miterlimit="10" stroke-dasharray=""/></g><g><rect fill="#ffffff" stroke="none" x="155" y="460" width="104.06982421875" height="13" transform="matrix(1 0 0 1 -46 10)"/></g><g><g><path fill="none" stroke="none"/><text fill="#000000" stroke="none" font-family="Arial" font-size="13px" font-style="normal" font-weight="normal" text-decoration="undefined" x="207.034912109375" y="466.5" text-anchor="middle" dominant-baseline="central" transform="matrix(1 0 0 1 -46 10)">12 : 清除查询历史</text></g></g></g></svg>