<svg version="1.1" xmlns="http://www.w3.org/2000/svg" xmlns:xlink="http://www.w3.org/1999/xlink" width="760.0029296875" height="376"><defs/><g><g><rect fill="#C0C0C0" stroke="none" x="135" y="527" width="739.0029296875" height="356" transform="matrix(1 0 0 1 -118 -510)" fill-opacity="0.2"/></g><g><rect fill="#ffffff" stroke="none" x="128" y="520" width="739.0029296875" height="356" transform="matrix(1 0 0 1 -118 -510)"/></g><g><path fill="none" stroke="#000000" paint-order="fill stroke markers" d=" M 10 10 L 749.0029296875 10 L 749.0029296875 366 L 10 366 L 10 10 Z Z" stroke-miterlimit="10" stroke-dasharray=""/></g><g><path fill="none" stroke="#000000" paint-order="fill stroke markers" d=" M 10 35 L 749.0029296875 35" stroke-miterlimit="10" stroke-dasharray=""/></g><g><path fill="none" stroke="#000000" paint-order="fill stroke markers" d=" M 10 253 L 749.0029296875 253" stroke-miterlimit="10" stroke-dasharray=""/></g><g><g><path fill="none" stroke="none"/><text fill="#000000" stroke="none" font-family="Arial" font-size="13px" font-style="normal" font-weight="bold" text-decoration="undefined" x="498.00146484375" y="533.5" text-anchor="middle" dominant-baseline="central" transform="matrix(1 0 0 1 -118 -510)">Order</text></g></g><g><g><path fill="none" stroke="none"/><text fill="#000000" stroke="none" font-family="Arial" font-size="13px" font-style="normal" font-weight="normal" text-decoration="undefined" x="133" y="556.5" text-anchor="start" dominant-baseline="central" transform="matrix(1 0 0 1 -118 -510)">-order_number: QString = ""</text></g></g><g><g><path fill="none" stroke="none"/><text fill="#000000" stroke="none" font-family="Arial" font-size="13px" font-style="normal" font-weight="normal" text-decoration="undefined" x="133" y="571.5" text-anchor="start" dominant-baseline="central" transform="matrix(1 0 0 1 -118 -510)">-trainNumber: QString = ""</text></g></g><g><g><path fill="none" stroke="none"/><text fill="#000000" stroke="none" font-family="Arial" font-size="13px" font-style="normal" font-weight="normal" text-decoration="undefined" x="133" y="586.5" text-anchor="start" dominant-baseline="central" transform="matrix(1 0 0 1 -118 -510)">-passenger: Passenger = ""</text></g></g><g><g><path fill="none" stroke="none"/><text fill="#000000" stroke="none" font-family="Arial" font-size="13px" font-style="normal" font-weight="normal" text-decoration="undefined" x="133" y="601.5" text-anchor="start" dominant-baseline="central" transform="matrix(1 0 0 1 -118 -510)">-price: double = -1</text></g></g><g><g><path fill="none" stroke="none"/><text fill="#000000" stroke="none" font-family="Arial" font-size="13px" font-style="normal" font-weight="normal" text-decoration="undefined" x="133" y="616.5" text-anchor="start" dominant-baseline="central" transform="matrix(1 0 0 1 -118 -510)">-date: Date</text></g></g><g><g><path fill="none" stroke="none"/><text fill="#000000" stroke="none" font-family="Arial" font-size="13px" font-style="normal" font-weight="normal" text-decoration="undefined" x="133" y="631.5" text-anchor="start" dominant-baseline="central" transform="matrix(1 0 0 1 -118 -510)">-start_station: Station</text></g></g><g><g><path fill="none" stroke="none"/><text fill="#000000" stroke="none" font-family="Arial" font-size="13px" font-style="normal" font-weight="normal" text-decoration="undefined" x="133" y="646.5" text-anchor="start" dominant-baseline="central" transform="matrix(1 0 0 1 -118 -510)">-end_station: Station</text></g></g><g><g><path fill="none" stroke="none"/><text fill="#000000" stroke="none" font-family="Arial" font-size="13px" font-style="normal" font-weight="normal" text-decoration="undefined" x="133" y="661.5" text-anchor="start" dominant-baseline="central" transform="matrix(1 0 0 1 -118 -510)">-timetable: Timetable</text></g></g><g><g><path fill="none" stroke="none"/><text fill="#000000" stroke="none" font-family="Arial" font-size="13px" font-style="normal" font-weight="normal" text-decoration="undefined" x="133" y="676.5" text-anchor="start" dominant-baseline="central" transform="matrix(1 0 0 1 -118 -510)">-seat_level: QString = ""</text></g></g><g><g><path fill="none" stroke="none"/><text fill="#000000" stroke="none" font-family="Arial" font-size="13px" font-style="normal" font-weight="normal" text-decoration="undefined" x="133" y="691.5" text-anchor="start" dominant-baseline="central" transform="matrix(1 0 0 1 -118 -510)">-carriage_number: int = -1</text></g></g><g><g><path fill="none" stroke="none"/><text fill="#000000" stroke="none" font-family="Arial" font-size="13px" font-style="normal" font-weight="normal" text-decoration="undefined" x="133" y="706.5" text-anchor="start" dominant-baseline="central" transform="matrix(1 0 0 1 -118 -510)">-seat_row: int = -1</text></g></g><g><g><path fill="none" stroke="none"/><text fill="#000000" stroke="none" font-family="Arial" font-size="13px" font-style="normal" font-weight="normal" text-decoration="undefined" x="133" y="721.5" text-anchor="start" dominant-baseline="central" transform="matrix(1 0 0 1 -118 -510)">-seat_col: int = -1</text></g></g><g><g><path fill="none" stroke="none"/><text fill="#000000" stroke="none" font-family="Arial" font-size="13px" font-style="normal" font-weight="normal" text-decoration="undefined" x="133" y="736.5" text-anchor="start" dominant-baseline="central" transform="matrix(1 0 0 1 -118 -510)">-status: QString = ""</text></g></g><g><g><path fill="none" stroke="none"/><text fill="#000000" stroke="none" font-family="Arial" font-size="13px" font-style="normal" font-weight="normal" text-decoration="undefined" x="133" y="751.5" text-anchor="start" dominant-baseline="central" transform="matrix(1 0 0 1 -118 -510)">-username: QString = ""</text></g></g><g><g><path fill="none" stroke="none"/><text fill="#000000" stroke="none" font-family="Arial" font-size="13px" font-style="normal" font-weight="normal" text-decoration="undefined" x="133" y="774.5" text-anchor="start" dominant-baseline="central" transform="matrix(1 0 0 1 -118 -510)">+getter()</text></g></g><g><g><path fill="none" stroke="none"/><text fill="#000000" stroke="none" font-family="Arial" font-size="13px" font-style="normal" font-weight="normal" text-decoration="undefined" x="133" y="789.5" text-anchor="start" dominant-baseline="central" transform="matrix(1 0 0 1 -118 -510)">+setter()</text></g></g><g><g><path fill="none" stroke="none"/><text fill="#000000" stroke="none" font-family="Arial" font-size="13px" font-style="normal" font-weight="normal" text-decoration="undefined" x="133" y="804.5" text-anchor="start" dominant-baseline="central" transform="matrix(1 0 0 1 -118 -510)">+operator()</text></g></g><g><g><path fill="none" stroke="none"/><text fill="#000000" stroke="none" font-family="Arial" font-size="13px" font-style="normal" font-weight="normal" text-decoration="undefined" x="133" y="819.5" text-anchor="start" dominant-baseline="central" transform="matrix(1 0 0 1 -118 -510)">+getEndDate()</text></g></g><g><g><path fill="none" stroke="none"/><text fill="#000000" stroke="none" font-family="Arial" font-size="13px" font-style="normal" font-weight="normal" text-decoration="undefined" x="133" y="834.5" text-anchor="start" dominant-baseline="central" transform="matrix(1 0 0 1 -118 -510)">+getStartTime()</text></g></g><g><g><path fill="none" stroke="none"/><text fill="#000000" stroke="none" font-family="Arial" font-size="13px" font-style="normal" font-weight="normal" text-decoration="undefined" x="133" y="849.5" text-anchor="start" dominant-baseline="central" transform="matrix(1 0 0 1 -118 -510)">+getEndTime()</text></g></g><g><g><path fill="none" stroke="none"/><text fill="#000000" stroke="none" font-family="Arial" font-size="13px" font-style="normal" font-weight="normal" text-decoration="undefined" x="133" y="864.5" text-anchor="start" dominant-baseline="central" transform="matrix(1 0 0 1 -118 -510)">+isTimeRangeOverlap(queryStartDate: Date&amp;, queryStartTime: Time&amp;, queryEndDate: Date&amp;, queryEndTime: Time&amp;)</text></g></g></g></svg>