<svg version="1.1" xmlns="http://www.w3.org/2000/svg" xmlns:xlink="http://www.w3.org/1999/xlink" width="926.20361328125" height="241"><defs/><g><g><rect fill="#C0C0C0" stroke="none" x="135" y="183" width="905.20361328125" height="221" transform="matrix(1 0 0 1 -118 -166)" fill-opacity="0.2"/></g><g><rect fill="#ffffff" stroke="none" x="128" y="176" width="905.20361328125" height="221" transform="matrix(1 0 0 1 -118 -166)"/></g><g><path fill="none" stroke="#000000" paint-order="fill stroke markers" d=" M 10 10 L 915.20361328125 10 L 915.20361328125 231 L 10 231 L 10 10 Z Z" stroke-miterlimit="10" stroke-dasharray=""/></g><g><path fill="none" stroke="#000000" paint-order="fill stroke markers" d=" M 10 35 L 915.20361328125 35" stroke-miterlimit="10" stroke-dasharray=""/></g><g><path fill="none" stroke="#000000" paint-order="fill stroke markers" d=" M 10 58 L 915.20361328125 58" stroke-miterlimit="10" stroke-dasharray=""/></g><g><g><path fill="none" stroke="none"/><text fill="#000000" stroke="none" font-family="Arial" font-size="13px" font-style="normal" font-weight="bold" text-decoration="undefined" x="581.101806640625" y="189.5" text-anchor="middle" dominant-baseline="central" transform="matrix(1 0 0 1 -118 -166)">TrainManager</text></g></g><g><g><path fill="none" stroke="none"/><text fill="#000000" stroke="none" font-family="Arial" font-size="13px" font-style="normal" font-weight="normal" text-decoration="undefined" x="133" y="212.5" text-anchor="start" dominant-baseline="central" transform="matrix(1 0 0 1 -118 -166)">-trains: vector&lt;Train&gt;</text></g></g><g><g><path fill="none" stroke="none"/><text fill="#000000" stroke="none" font-family="Arial" font-size="13px" font-style="normal" font-weight="normal" text-decoration="undefined" x="133" y="235.5" text-anchor="start" dominant-baseline="central" transform="matrix(1 0 0 1 -118 -166)">+getTrains_api()</text></g></g><g><g><path fill="none" stroke="none"/><text fill="#000000" stroke="none" font-family="Arial" font-size="13px" font-style="normal" font-weight="normal" text-decoration="undefined" x="133" y="250.5" text-anchor="start" dominant-baseline="central" transform="matrix(1 0 0 1 -118 -166)">+deleteTrain_api(trainNumber: const QString&amp;)</text></g></g><g><g><path fill="none" stroke="none"/><text fill="#000000" stroke="none" font-family="Arial" font-size="13px" font-style="normal" font-weight="normal" text-decoration="undefined" x="133" y="265.5" text-anchor="start" dominant-baseline="central" transform="matrix(1 0 0 1 -118 -166)">+getTimetableInfo_api(trainNumber: const QString&amp;)</text></g></g><g><g><path fill="none" stroke="none"/><text fill="#000000" stroke="none" font-family="Arial" font-size="13px" font-style="normal" font-weight="normal" text-decoration="undefined" x="133" y="280.5" text-anchor="start" dominant-baseline="central" transform="matrix(1 0 0 1 -118 -166)">+getTimetableInfo_api(trainNumber: const QString&amp;, startStationName: const QString&amp;, endStationName: const QString&amp;)</text></g></g><g><g><path fill="none" stroke="none"/><text fill="#000000" stroke="none" font-family="Arial" font-size="13px" font-style="normal" font-weight="normal" text-decoration="undefined" x="133" y="295.5" text-anchor="start" dominant-baseline="central" transform="matrix(1 0 0 1 -118 -166)">+getCarriages_api(trainNumber: const QString&amp;)</text></g></g><g><g><path fill="none" stroke="none"/><text fill="#000000" stroke="none" font-family="Arial" font-size="13px" font-style="normal" font-weight="normal" text-decoration="undefined" x="133" y="310.5" text-anchor="start" dominant-baseline="central" transform="matrix(1 0 0 1 -118 -166)">+updateTimetableAndTrainNumberByTrainNumber(oldTrainNumber: const QString&amp;, timetable: Timetable&amp;, newTrainNumber: const QString&amp;)</text></g></g><g><g><path fill="none" stroke="none"/><text fill="#000000" stroke="none" font-family="Arial" font-size="13px" font-style="normal" font-weight="normal" text-decoration="undefined" x="133" y="325.5" text-anchor="start" dominant-baseline="central" transform="matrix(1 0 0 1 -118 -166)">+updateSeatTemplateByTrainNumber(trainNumber: const QString&amp;, carriages: vector&lt;tuple&lt;QString,int,int&gt;&gt;)</text></g></g><g><g><path fill="none" stroke="none"/><text fill="#000000" stroke="none" font-family="Arial" font-size="13px" font-style="normal" font-weight="normal" text-decoration="undefined" x="133" y="340.5" text-anchor="start" dominant-baseline="central" transform="matrix(1 0 0 1 -118 -166)">+getRoutesByCities(startCityName: const QString&amp;, endCityName: const QString&amp;)</text></g></g><g><g><path fill="none" stroke="none"/><text fill="#000000" stroke="none" font-family="Arial" font-size="13px" font-style="normal" font-weight="normal" text-decoration="undefined" x="133" y="355.5" text-anchor="start" dominant-baseline="central" transform="matrix(1 0 0 1 -118 -166)">+getTrainByTrainNUmber(trainNumber: const QString&amp;)</text></g></g><g><g><path fill="none" stroke="none"/><text fill="#000000" stroke="none" font-family="Arial" font-size="13px" font-style="normal" font-weight="normal" text-decoration="undefined" x="133" y="370.5" text-anchor="start" dominant-baseline="central" transform="matrix(1 0 0 1 -118 -166)">-readFromFile(filename: const char[])</text></g></g><g><g><path fill="none" stroke="none"/><text fill="#000000" stroke="none" font-family="Arial" font-size="13px" font-style="normal" font-weight="normal" text-decoration="undefined" x="133" y="385.5" text-anchor="start" dominant-baseline="central" transform="matrix(1 0 0 1 -118 -166)">-writeToFile(filename: const char[])</text></g></g></g></svg>