<svg version="1.1" xmlns="http://www.w3.org/2000/svg" xmlns:xlink="http://www.w3.org/1999/xlink" width="294.8720703125" height="151"><defs/><g><g><rect fill="#C0C0C0" stroke="none" x="199" y="215" width="273.8720703125" height="131" transform="matrix(1 0 0 1 -182 -198)" fill-opacity="0.2"/></g><g><rect fill="#ffffff" stroke="none" x="192" y="208" width="273.8720703125" height="131" transform="matrix(1 0 0 1 -182 -198)"/></g><g><path fill="none" stroke="#000000" paint-order="fill stroke markers" d=" M 10 10 L 283.8720703125 10 L 283.8720703125 141 L 10 141 L 10 10 Z Z" stroke-miterlimit="10" stroke-dasharray=""/></g><g><path fill="none" stroke="#000000" paint-order="fill stroke markers" d=" M 10 35 L 283.8720703125 35" stroke-miterlimit="10" stroke-dasharray=""/></g><g><path fill="none" stroke="#000000" paint-order="fill stroke markers" d=" M 10 88 L 283.8720703125 88" stroke-miterlimit="10" stroke-dasharray=""/></g><g><g><path fill="none" stroke="none"/><text fill="#000000" stroke="none" font-family="Arial" font-size="13px" font-style="normal" font-weight="bold" text-decoration="undefined" x="329.43603515625" y="221.5" text-anchor="middle" dominant-baseline="central" transform="matrix(1 0 0 1 -182 -198)">Train</text></g></g><g><g><path fill="none" stroke="none"/><text fill="#000000" stroke="none" font-family="Arial" font-size="13px" font-style="normal" font-weight="normal" text-decoration="undefined" x="197" y="244.5" text-anchor="start" dominant-baseline="central" transform="matrix(1 0 0 1 -182 -198)">-number: QString</text></g></g><g><g><path fill="none" stroke="none"/><text fill="#000000" stroke="none" font-family="Arial" font-size="13px" font-style="normal" font-weight="normal" text-decoration="undefined" x="197" y="259.5" text-anchor="start" dominant-baseline="central" transform="matrix(1 0 0 1 -182 -198)">-timetable: Timetable</text></g></g><g><g><path fill="none" stroke="none"/><text fill="#000000" stroke="none" font-family="Arial" font-size="13px" font-style="normal" font-weight="normal" text-decoration="undefined" x="197" y="274.5" text-anchor="start" dominant-baseline="central" transform="matrix(1 0 0 1 -182 -198)">-carriages: vector&lt;tuple&lt;QString,int,int&gt;&gt;</text></g></g><g><g><path fill="none" stroke="none"/><text fill="#000000" stroke="none" font-family="Arial" font-size="13px" font-style="normal" font-weight="normal" text-decoration="undefined" x="197" y="297.5" text-anchor="start" dominant-baseline="central" transform="matrix(1 0 0 1 -182 -198)">+getter()</text></g></g><g><g><path fill="none" stroke="none"/><text fill="#000000" stroke="none" font-family="Arial" font-size="13px" font-style="normal" font-weight="normal" text-decoration="undefined" x="197" y="312.5" text-anchor="start" dominant-baseline="central" transform="matrix(1 0 0 1 -182 -198)">+setter()</text></g></g><g><g><path fill="none" stroke="none"/><text fill="#000000" stroke="none" font-family="Arial" font-size="13px" font-style="normal" font-weight="normal" text-decoration="undefined" x="197" y="327.5" text-anchor="start" dominant-baseline="central" transform="matrix(1 0 0 1 -182 -198)">+operator()</text></g></g></g></svg>