<svg version="1.1" xmlns="http://www.w3.org/2000/svg" xmlns:xlink="http://www.w3.org/1999/xlink" width="214.69482421875" height="151"><defs/><g><g><rect fill="#C0C0C0" stroke="none" x="191" y="183" width="193.69482421875" height="131" transform="matrix(1 0 0 1 -174 -166)" fill-opacity="0.2"/></g><g><rect fill="#ffffff" stroke="none" x="184" y="176" width="193.69482421875" height="131" transform="matrix(1 0 0 1 -174 -166)"/></g><g><path fill="none" stroke="#000000" paint-order="fill stroke markers" d=" M 10 10 L 203.69482421875 10 L 203.69482421875 141 L 10 141 L 10 10 Z Z" stroke-miterlimit="10" stroke-dasharray=""/></g><g><path fill="none" stroke="#000000" paint-order="fill stroke markers" d=" M 10 35 L 203.69482421875 35" stroke-miterlimit="10" stroke-dasharray=""/></g><g><path fill="none" stroke="#000000" paint-order="fill stroke markers" d=" M 10 88 L 203.69482421875 88" stroke-miterlimit="10" stroke-dasharray=""/></g><g><g><path fill="none" stroke="none"/><text fill="#000000" stroke="none" font-family="Arial" font-size="13px" font-style="normal" font-weight="bold" text-decoration="undefined" x="281.347412109375" y="189.5" text-anchor="middle" dominant-baseline="central" transform="matrix(1 0 0 1 -174 -166)">UserProfile</text></g></g><g><g><path fill="none" stroke="none"/><text fill="#000000" stroke="none" font-family="Arial" font-size="13px" font-style="normal" font-weight="normal" text-decoration="undefined" x="189" y="212.5" text-anchor="start" dominant-baseline="central" transform="matrix(1 0 0 1 -174 -166)">-name: QString = ""</text></g></g><g><g><path fill="none" stroke="none"/><text fill="#000000" stroke="none" font-family="Arial" font-size="13px" font-style="normal" font-weight="normal" text-decoration="undefined" x="189" y="227.5" text-anchor="start" dominant-baseline="central" transform="matrix(1 0 0 1 -174 -166)">-phone_number: QString = ""</text></g></g><g><g><path fill="none" stroke="none"/><text fill="#000000" stroke="none" font-family="Arial" font-size="13px" font-style="normal" font-weight="normal" text-decoration="undefined" x="189" y="242.5" text-anchor="start" dominant-baseline="central" transform="matrix(1 0 0 1 -174 -166)">-id: QString = ""</text></g></g><g><g><path fill="none" stroke="none"/><text fill="#000000" stroke="none" font-family="Arial" font-size="13px" font-style="normal" font-weight="normal" text-decoration="undefined" x="189" y="265.5" text-anchor="start" dominant-baseline="central" transform="matrix(1 0 0 1 -174 -166)">+getter()</text></g></g><g><g><path fill="none" stroke="none"/><text fill="#000000" stroke="none" font-family="Arial" font-size="13px" font-style="normal" font-weight="normal" text-decoration="undefined" x="189" y="280.5" text-anchor="start" dominant-baseline="central" transform="matrix(1 0 0 1 -174 -166)">+setter()</text></g></g><g><g><path fill="none" stroke="none"/><text fill="#000000" stroke="none" font-family="Arial" font-size="13px" font-style="normal" font-weight="normal" text-decoration="undefined" x="189" y="295.5" text-anchor="start" dominant-baseline="central" transform="matrix(1 0 0 1 -174 -166)">+operator()</text></g></g></g></svg>