<svg version="1.1" xmlns="http://www.w3.org/2000/svg" xmlns:xlink="http://www.w3.org/1999/xlink" width="180.59521484375" height="181"><defs/><g><g><rect fill="#C0C0C0" stroke="none" x="223" y="159" width="159.59521484375" height="161" transform="matrix(1 0 0 1 -206 -142)" fill-opacity="0.2"/></g><g><rect fill="#ffffff" stroke="none" x="216" y="152" width="159.59521484375" height="161" transform="matrix(1 0 0 1 -206 -142)"/></g><g><path fill="none" stroke="#000000" paint-order="fill stroke markers" d=" M 10 10 L 169.59521484375 10 L 169.59521484375 171 L 10 171 L 10 10 Z Z" stroke-miterlimit="10" stroke-dasharray=""/></g><g><path fill="none" stroke="#000000" paint-order="fill stroke markers" d=" M 10 35 L 169.59521484375 35" stroke-miterlimit="10" stroke-dasharray=""/></g><g><path fill="none" stroke="#000000" paint-order="fill stroke markers" d=" M 10 103 L 169.59521484375 103" stroke-miterlimit="10" stroke-dasharray=""/></g><g><g><path fill="none" stroke="none"/><text fill="#000000" stroke="none" font-family="Arial" font-size="13px" font-style="normal" font-weight="bold" text-decoration="undefined" x="296.297607421875" y="165.5" text-anchor="middle" dominant-baseline="central" transform="matrix(1 0 0 1 -206 -142)">User</text></g></g><g><g><path fill="none" stroke="none"/><text fill="#000000" stroke="none" font-family="Arial" font-size="13px" font-style="normal" font-weight="normal" text-decoration="undefined" x="221" y="188.5" text-anchor="start" dominant-baseline="central" transform="matrix(1 0 0 1 -206 -142)">-profile: Profile</text></g></g><g><g><path fill="none" stroke="none"/><text fill="#000000" stroke="none" font-family="Arial" font-size="13px" font-style="normal" font-weight="normal" text-decoration="undefined" x="221" y="203.5" text-anchor="start" dominant-baseline="central" transform="matrix(1 0 0 1 -206 -142)">-locked: bool = false</text></g></g><g><g><path fill="none" stroke="none"/><text fill="#000000" stroke="none" font-family="Arial" font-size="13px" font-style="normal" font-weight="normal" text-decoration="undefined" x="221" y="218.5" text-anchor="start" dominant-baseline="central" transform="matrix(1 0 0 1 -206 -142)">-username: QString = ""</text></g></g><g><g><path fill="none" stroke="none"/><text fill="#000000" stroke="none" font-family="Arial" font-size="13px" font-style="normal" font-weight="normal" text-decoration="undefined" x="221" y="233.5" text-anchor="start" dominant-baseline="central" transform="matrix(1 0 0 1 -206 -142)">-password: QString = ""</text></g></g><g><g><path fill="none" stroke="none"/><text fill="#000000" stroke="none" font-family="Arial" font-size="13px" font-style="normal" font-weight="normal" text-decoration="undefined" x="221" y="256.5" text-anchor="start" dominant-baseline="central" transform="matrix(1 0 0 1 -206 -142)">+getter()</text></g></g><g><g><path fill="none" stroke="none"/><text fill="#000000" stroke="none" font-family="Arial" font-size="13px" font-style="normal" font-weight="normal" text-decoration="undefined" x="221" y="271.5" text-anchor="start" dominant-baseline="central" transform="matrix(1 0 0 1 -206 -142)">+setter()</text></g></g><g><g><path fill="none" stroke="none"/><text fill="#000000" stroke="none" font-family="Arial" font-size="13px" font-style="normal" font-weight="normal" text-decoration="undefined" x="221" y="286.5" text-anchor="start" dominant-baseline="central" transform="matrix(1 0 0 1 -206 -142)">+operator()</text></g></g></g></svg>