<svg version="1.1" xmlns="http://www.w3.org/2000/svg" xmlns:xlink="http://www.w3.org/1999/xlink" width="611" height="581"><defs/><g><g><path fill="#C0C0C0" stroke="none" paint-order="stroke fill markers" d=" M 65 35 C 65 29.477152000000004 69.477152 25 75 25 C 80.522848 25 85 29.477152000000004 85 35 C 85 40.522847999999996 80.522848 45 75 45 C 69.477152 45 65 40.522847999999996 65 35 Z" fill-opacity="0.2"/></g><g><path fill="#000000" stroke="none" paint-order="stroke fill markers" d=" M 58 28 C 58 22.477152000000004 62.477152000000004 18 68 18 C 73.522848 18 78 22.477152000000004 78 28 C 78 33.522847999999996 73.522848 38 68 38 C 62.477152000000004 38 58 33.522847999999996 58 28 Z"/></g><g><path fill="#C0C0C0" stroke="none" paint-order="stroke fill markers" d=" M 123 17 L 165 17 Q 175 17 175 27 L 175 48 Q 175 58 165 58 L 123 58 Q 113 58 113 48 L 113 27 Q 113 17 123 17 Z" fill-opacity="0.2"/></g><g><path fill="#ffffff" stroke="none" paint-order="stroke fill markers" d=" M 116 10 L 158 10 Q 168 10 168 20 L 168 41 Q 168 51 158 51 L 116 51 Q 106 51 106 41 L 106 20 Q 106 10 116 10 Z"/></g><g><path fill="none" stroke="#000000" paint-order="fill stroke markers" d=" M 116 10 L 158 10 Q 168 10 168 20 L 168 41 Q 168 51 158 51 L 116 51 Q 106 51 106 41 L 106 20 Q 106 10 116 10 Z" stroke-miterlimit="10" stroke-dasharray=""/></g><g><g><path fill="none" stroke="none"/><text fill="#000000" stroke="none" font-family="Arial" font-size="13px" font-style="normal" font-weight="bold" text-decoration="undefined" x="167.5" y="85.5" text-anchor="middle" dominant-baseline="central" transform="matrix(1 0 0 1 -30 -62)">进入系统</text></g></g><g><path fill="none" stroke="#000000" paint-order="fill stroke markers" d=" M 79 28 L 105 29" stroke-miterlimit="10" stroke-dasharray=""/></g><g><path fill="none" stroke="#000000" paint-order="fill stroke markers" d=" M 94.68304867447021 32.81582433383001 L 105 29 L 95.00661849427851 24.40300901881419" stroke-miterlimit="10" stroke-dasharray=""/></g><g><path fill="#C0C0C0" stroke="none" paint-order="stroke fill markers" d=" M 233 109 L 253 89 L 273 109 L 253 129 L 233 109" fill-opacity="0.2"/></g><g><path fill="#ffffff" stroke="none" paint-order="stroke fill markers" d=" M 226 102 L 246 82 L 266 102 L 246 122 L 226 102"/></g><g><path fill="none" stroke="#000000" paint-order="fill stroke markers" d=" M 226 102 L 246 82 L 266 102 L 246 122 L 226 102 L 226 102" stroke-miterlimit="10" stroke-dasharray=""/></g><g><g><path fill="none" stroke="none"/><text fill="#000000" stroke="none" font-family="Arial" font-size="13px" font-style="normal" font-weight="normal" text-decoration="undefined" x="189" y="157" text-anchor="start" dominant-baseline="text-before-edge" transform="matrix(1 0 0 1 -30 -62)">有无账号</text></g></g><g><path fill="#C0C0C0" stroke="none" paint-order="stroke fill markers" d=" M 355 89 L 395 89 Q 405 89 405 99 L 405 120 Q 405 130 395 130 L 355 130 Q 345 130 345 120 L 345 99 Q 345 89 355 89 Z" fill-opacity="0.2"/></g><g><path fill="#ffffff" stroke="none" paint-order="stroke fill markers" d=" M 348 82 L 388 82 Q 398 82 398 92 L 398 113 Q 398 123 388 123 L 348 123 Q 338 123 338 113 L 338 92 Q 338 82 348 82 Z"/></g><g><path fill="none" stroke="#000000" paint-order="fill stroke markers" d=" M 348 82 L 388 82 Q 398 82 398 92 L 398 113 Q 398 123 388 123 L 348 123 Q 338 123 338 113 L 338 92 Q 338 82 348 82 Z" stroke-miterlimit="10" stroke-dasharray=""/></g><g><g><path fill="none" stroke="none"/><text fill="#000000" stroke="none" font-family="Arial" font-size="13px" font-style="normal" font-weight="bold" text-decoration="undefined" x="398.5" y="157.5" text-anchor="middle" dominant-baseline="central" transform="matrix(1 0 0 1 -30 -62)">注册</text></g></g><g><path fill="none" stroke="#000000" paint-order="fill stroke markers" d=" M 267 102 L 337 102" stroke-miterlimit="10" stroke-dasharray=""/></g><g><path fill="none" stroke="#000000" paint-order="fill stroke markers" d=" M 326.83732514237585 106.209517756016 L 337 102 L 326.83732514237585 97.790482243984" stroke-miterlimit="10" stroke-dasharray=""/></g><g><rect fill="#ffffff" stroke="none" x="326" y="143" width="13" height="13" transform="matrix(1 0 0 1 -30 -62)"/></g><g><g><path fill="none" stroke="none"/><text fill="#000000" stroke="none" font-family="Arial" font-size="13px" font-style="normal" font-weight="normal" text-decoration="undefined" x="332.5" y="149.5" text-anchor="middle" dominant-baseline="central" transform="matrix(1 0 0 1 -30 -62)">无</text></g></g><g><path fill="#C0C0C0" stroke="none" paint-order="stroke fill markers" d=" M 227 169 L 267 169 Q 277 169 277 179 L 277 200 Q 277 210 267 210 L 227 210 Q 217 210 217 200 L 217 179 Q 217 169 227 169 Z" fill-opacity="0.2"/></g><g><path fill="#ffffff" stroke="none" paint-order="stroke fill markers" d=" M 220 162 L 260 162 Q 270 162 270 172 L 270 193 Q 270 203 260 203 L 220 203 Q 210 203 210 193 L 210 172 Q 210 162 220 162 Z"/></g><g><path fill="none" stroke="#000000" paint-order="fill stroke markers" d=" M 220 162 L 260 162 Q 270 162 270 172 L 270 193 Q 270 203 260 203 L 220 203 Q 210 203 210 193 L 210 172 Q 210 162 220 162 Z" stroke-miterlimit="10" stroke-dasharray=""/></g><g><g><path fill="none" stroke="none"/><text fill="#000000" stroke="none" font-family="Arial" font-size="13px" font-style="normal" font-weight="bold" text-decoration="undefined" x="270.5" y="237.5" text-anchor="middle" dominant-baseline="central" transform="matrix(1 0 0 1 -30 -62)">登录</text></g></g><g><path fill="none" stroke="#000000" paint-order="fill stroke markers" d=" M 244 123 L 242 161" stroke-miterlimit="10" stroke-dasharray=""/></g><g><path fill="none" stroke="#000000" paint-order="fill stroke markers" d=" M 238.33043884787344 150.63012435220153 L 242 161 L 246.7378378159721 151.07261903473304" stroke-miterlimit="10" stroke-dasharray=""/></g><g><rect fill="#ffffff" stroke="none" x="281" y="198" width="13" height="13" transform="matrix(1 0 0 1 -30 -62)"/></g><g><g><path fill="none" stroke="none"/><text fill="#000000" stroke="none" font-family="Arial" font-size="13px" font-style="normal" font-weight="normal" text-decoration="undefined" x="287.5" y="204.5" text-anchor="middle" dominant-baseline="central" transform="matrix(1 0 0 1 -30 -62)">有</text></g></g><g><path fill="#C0C0C0" stroke="none" paint-order="stroke fill markers" d=" M 329 189 L 349 169 L 369 189 L 349 209 L 329 189" fill-opacity="0.2"/></g><g><path fill="#ffffff" stroke="none" paint-order="stroke fill markers" d=" M 322 182 L 342 162 L 362 182 L 342 202 L 322 182"/></g><g><path fill="none" stroke="#000000" paint-order="fill stroke markers" d=" M 322 182 L 342 162 L 362 182 L 342 202 L 322 182 L 322 182" stroke-miterlimit="10" stroke-dasharray=""/></g><g><path fill="none" stroke="#000000" paint-order="fill stroke markers" d=" M 271 182 L 321 182" stroke-miterlimit="10" stroke-dasharray=""/></g><g><path fill="none" stroke="#000000" paint-order="fill stroke markers" d=" M 310.83732514237585 186.209517756016 L 321 182 L 310.83732514237585 177.790482243984" stroke-miterlimit="10" stroke-dasharray=""/></g><g><g><path fill="none" stroke="none"/><text fill="#000000" stroke="none" font-family="Arial" font-size="13px" font-style="normal" font-weight="normal" text-decoration="undefined" x="413" y="229" text-anchor="start" dominant-baseline="text-before-edge" transform="matrix(1 0 0 1 -30 -62)">用户or管理员？</text></g></g><g><path fill="#C0C0C0" stroke="none" paint-order="stroke fill markers" d=" M 132 249 L 196 249 Q 199 249 199 252 L 199 252 Q 199 255 196 255 L 132 255 Q 129 255 129 252 L 129 252 Q 129 249 132 249 Z" fill-opacity="0.2"/></g><g><path fill="#000000" stroke="none" paint-order="stroke fill markers" d=" M 125 242 L 189 242 Q 192 242 192 245 L 192 245 Q 192 248 189 248 L 125 248 Q 122 248 122 245 L 122 245 Q 122 242 125 242 Z"/></g><g><path fill="#C0C0C0" stroke="none" paint-order="stroke fill markers" d=" M 27 297 L 69 297 Q 79 297 79 307 L 79 328 Q 79 338 69 338 L 27 338 Q 17 338 17 328 L 17 307 Q 17 297 27 297 Z" fill-opacity="0.2"/></g><g><path fill="#ffffff" stroke="none" paint-order="stroke fill markers" d=" M 20 290 L 62 290 Q 72 290 72 300 L 72 321 Q 72 331 62 331 L 20 331 Q 10 331 10 321 L 10 300 Q 10 290 20 290 Z"/></g><g><path fill="none" stroke="#000000" paint-order="fill stroke markers" d=" M 20 290 L 62 290 Q 72 290 72 300 L 72 321 Q 72 331 62 331 L 20 331 Q 10 331 10 321 L 10 300 Q 10 290 20 290 Z" stroke-miterlimit="10" stroke-dasharray=""/></g><g><g><path fill="none" stroke="none"/><text fill="#000000" stroke="none" font-family="Arial" font-size="13px" font-style="normal" font-weight="bold" text-decoration="undefined" x="71.5" y="365.5" text-anchor="middle" dominant-baseline="central" transform="matrix(1 0 0 1 -30 -62)">查询余票</text></g></g><g><path fill="#C0C0C0" stroke="none" paint-order="stroke fill markers" d=" M 107 297 L 149 297 Q 159 297 159 307 L 159 328 Q 159 338 149 338 L 107 338 Q 97 338 97 328 L 97 307 Q 97 297 107 297 Z" fill-opacity="0.2"/></g><g><path fill="#ffffff" stroke="none" paint-order="stroke fill markers" d=" M 100 290 L 142 290 Q 152 290 152 300 L 152 321 Q 152 331 142 331 L 100 331 Q 90 331 90 321 L 90 300 Q 90 290 100 290 Z"/></g><g><path fill="none" stroke="#000000" paint-order="fill stroke markers" d=" M 100 290 L 142 290 Q 152 290 152 300 L 152 321 Q 152 331 142 331 L 100 331 Q 90 331 90 321 L 90 300 Q 90 290 100 290 Z" stroke-miterlimit="10" stroke-dasharray=""/></g><g><g><path fill="none" stroke="none"/><text fill="#000000" stroke="none" font-family="Arial" font-size="13px" font-style="normal" font-weight="bold" text-decoration="undefined" x="151.5" y="365.5" text-anchor="middle" dominant-baseline="central" transform="matrix(1 0 0 1 -30 -62)">我的订单</text></g></g><g><path fill="#C0C0C0" stroke="none" paint-order="stroke fill markers" d=" M 187 297 L 242 297 Q 252 297 252 307 L 252 328 Q 252 338 242 338 L 187 338 Q 177 338 177 328 L 177 307 Q 177 297 187 297 Z" fill-opacity="0.2"/></g><g><path fill="#ffffff" stroke="none" paint-order="stroke fill markers" d=" M 180 290 L 235 290 Q 245 290 245 300 L 245 321 Q 245 331 235 331 L 180 331 Q 170 331 170 321 L 170 300 Q 170 290 180 290 Z"/></g><g><path fill="none" stroke="#000000" paint-order="fill stroke markers" d=" M 180 290 L 235 290 Q 245 290 245 300 L 245 321 Q 245 331 235 331 L 180 331 Q 170 331 170 321 L 170 300 Q 170 290 180 290 Z" stroke-miterlimit="10" stroke-dasharray=""/></g><g><g><path fill="none" stroke="none"/><text fill="#000000" stroke="none" font-family="Arial" font-size="13px" font-style="normal" font-weight="bold" text-decoration="undefined" x="238" y="365.5" text-anchor="middle" dominant-baseline="central" transform="matrix(1 0 0 1 -30 -62)">乘车人信息</text></g></g><g><path fill="#C0C0C0" stroke="none" paint-order="stroke fill markers" d=" M 275 297 L 317 297 Q 327 297 327 307 L 327 328 Q 327 338 317 338 L 275 338 Q 265 338 265 328 L 265 307 Q 265 297 275 297 Z" fill-opacity="0.2"/></g><g><path fill="#ffffff" stroke="none" paint-order="stroke fill markers" d=" M 268 290 L 310 290 Q 320 290 320 300 L 320 321 Q 320 331 310 331 L 268 331 Q 258 331 258 321 L 258 300 Q 258 290 268 290 Z"/></g><g><path fill="none" stroke="#000000" paint-order="fill stroke markers" d=" M 268 290 L 310 290 Q 320 290 320 300 L 320 321 Q 320 331 310 331 L 268 331 Q 258 331 258 321 L 258 300 Q 258 290 268 290 Z" stroke-miterlimit="10" stroke-dasharray=""/></g><g><g><path fill="none" stroke="none"/><text fill="#000000" stroke="none" font-family="Arial" font-size="13px" font-style="normal" font-weight="bold" text-decoration="undefined" x="319.5" y="365.5" text-anchor="middle" dominant-baseline="central" transform="matrix(1 0 0 1 -30 -62)">个人中心</text></g></g><g><path fill="none" stroke="#000000" paint-order="fill stroke markers" d=" M 150 249 L 73 292" stroke-miterlimit="10" stroke-dasharray=""/></g><g><path fill="none" stroke="#000000" paint-order="fill stroke markers" d=" M 79.82046084718466 283.3697442777157 L 73 292 L 83.92530646046286 290.7202817712604" stroke-miterlimit="10" stroke-dasharray=""/></g><g><path fill="none" stroke="#000000" paint-order="fill stroke markers" d=" M 155 249 L 133 289" stroke-miterlimit="10" stroke-dasharray=""/></g><g><path fill="none" stroke="#000000" paint-order="fill stroke markers" d=" M 134.20913713604912 278.0666570809186 L 133 289 L 141.5860299874052 282.12394814916445" stroke-miterlimit="10" stroke-dasharray=""/></g><g><path fill="none" stroke="#000000" paint-order="fill stroke markers" d=" M 160 249 L 191 289" stroke-miterlimit="10" stroke-dasharray=""/></g><g><path fill="none" stroke="#000000" paint-order="fill stroke markers" d=" M 181.4473671404285 283.5459001246553 L 191 289 L 188.1018995339365 278.38863751968665" stroke-miterlimit="10" stroke-dasharray=""/></g><g><path fill="none" stroke="#000000" paint-order="fill stroke markers" d=" M 165 249 L 257 294" stroke-miterlimit="10" stroke-dasharray=""/></g><g><path fill="none" stroke="#000000" paint-order="fill stroke markers" d=" M 246.02128210362315 293.31607503936823 L 257 294 L 249.72048210422332 285.75326614925234" stroke-miterlimit="10" stroke-dasharray=""/></g><g><path fill="none" stroke="#000000" paint-order="fill stroke markers" d=" M 321 189 L 169 241" stroke-miterlimit="10" stroke-dasharray=""/></g><g><path fill="none" stroke="#000000" paint-order="fill stroke markers" d=" M 177.25298790865568 233.72757326749985 L 169 241 L 179.9781259734942 241.69336145702783" stroke-miterlimit="10" stroke-dasharray=""/></g><g><rect fill="#ffffff" stroke="none" x="266" y="285" width="26" height="13" transform="matrix(1 0 0 1 -30 -62)"/></g><g><g><path fill="none" stroke="none"/><text fill="#000000" stroke="none" font-family="Arial" font-size="13px" font-style="normal" font-weight="normal" text-decoration="undefined" x="279" y="291.5" text-anchor="middle" dominant-baseline="central" transform="matrix(1 0 0 1 -30 -62)">用户</text></g></g><g><path fill="#C0C0C0" stroke="none" paint-order="stroke fill markers" d=" M 27 385 L 67 385 Q 77 385 77 395 L 77 416 Q 77 426 67 426 L 27 426 Q 17 426 17 416 L 17 395 Q 17 385 27 385 Z" fill-opacity="0.2"/></g><g><path fill="#ffffff" stroke="none" paint-order="stroke fill markers" d=" M 20 378 L 60 378 Q 70 378 70 388 L 70 409 Q 70 419 60 419 L 20 419 Q 10 419 10 409 L 10 388 Q 10 378 20 378 Z"/></g><g><path fill="none" stroke="#000000" paint-order="fill stroke markers" d=" M 20 378 L 60 378 Q 70 378 70 388 L 70 409 Q 70 419 60 419 L 20 419 Q 10 419 10 409 L 10 388 Q 10 378 20 378 Z" stroke-miterlimit="10" stroke-dasharray=""/></g><g><g><path fill="none" stroke="none"/><text fill="#000000" stroke="none" font-family="Arial" font-size="13px" font-style="normal" font-weight="bold" text-decoration="undefined" x="70.5" y="453.5" text-anchor="middle" dominant-baseline="central" transform="matrix(1 0 0 1 -30 -62)">订票</text></g></g><g><path fill="#C0C0C0" stroke="none" paint-order="stroke fill markers" d=" M 99 385 L 193 385 Q 203 385 203 395 L 203 416 Q 203 426 193 426 L 99 426 Q 89 426 89 416 L 89 395 Q 89 385 99 385 Z" fill-opacity="0.2"/></g><g><path fill="#ffffff" stroke="none" paint-order="stroke fill markers" d=" M 92 378 L 186 378 Q 196 378 196 388 L 196 409 Q 196 419 186 419 L 92 419 Q 82 419 82 409 L 82 388 Q 82 378 92 378 Z"/></g><g><path fill="none" stroke="#000000" paint-order="fill stroke markers" d=" M 92 378 L 186 378 Q 196 378 196 388 L 196 409 Q 196 419 186 419 L 92 419 Q 82 419 82 409 L 82 388 Q 82 378 92 378 Z" stroke-miterlimit="10" stroke-dasharray=""/></g><g><g><path fill="none" stroke="none"/><text fill="#000000" stroke="none" font-family="Arial" font-size="13px" font-style="normal" font-weight="bold" text-decoration="undefined" x="169.5" y="453.5" text-anchor="middle" dominant-baseline="central" transform="matrix(1 0 0 1 -30 -62)">删除、改签、取消</text></g></g><g><path fill="none" stroke="#000000" paint-order="fill stroke markers" d=" M 126 332 L 135 377" stroke-miterlimit="10" stroke-dasharray=""/></g><g><path fill="none" stroke="#000000" paint-order="fill stroke markers" d=" M 128.87916371872967 367.8602317743892 L 135 377 L 137.13470724978384 366.20912306817837" stroke-miterlimit="10" stroke-dasharray=""/></g><g><path fill="none" stroke="#000000" paint-order="fill stroke markers" d=" M 41 332 L 40 377" stroke-miterlimit="10" stroke-dasharray=""/></g><g><path fill="none" stroke="#000000" paint-order="fill stroke markers" d=" M 36.01730272371063 366.74631176573826 L 40 377 L 44.43426023114178 366.9333552659034" stroke-miterlimit="10" stroke-dasharray=""/></g><g><path fill="#C0C0C0" stroke="none" paint-order="stroke fill markers" d=" M 219 385 L 261 385 Q 271 385 271 395 L 271 416 Q 271 426 261 426 L 219 426 Q 209 426 209 416 L 209 395 Q 209 385 219 385 Z" fill-opacity="0.2"/></g><g><path fill="#ffffff" stroke="none" paint-order="stroke fill markers" d=" M 212 378 L 254 378 Q 264 378 264 388 L 264 409 Q 264 419 254 419 L 212 419 Q 202 419 202 409 L 202 388 Q 202 378 212 378 Z"/></g><g><path fill="none" stroke="#000000" paint-order="fill stroke markers" d=" M 212 378 L 254 378 Q 264 378 264 388 L 264 409 Q 264 419 254 419 L 212 419 Q 202 419 202 409 L 202 388 Q 202 378 212 378 Z" stroke-miterlimit="10" stroke-dasharray=""/></g><g><g><path fill="none" stroke="none"/><text fill="#000000" stroke="none" font-family="Arial" font-size="13px" font-style="normal" font-weight="bold" text-decoration="undefined" x="263.5" y="453.5" text-anchor="middle" dominant-baseline="central" transform="matrix(1 0 0 1 -30 -62)">增删改查</text></g></g><g><path fill="none" stroke="#000000" paint-order="fill stroke markers" d=" M 214 332 L 227 377" stroke-miterlimit="10" stroke-dasharray=""/></g><g><path fill="none" stroke="#000000" paint-order="fill stroke markers" d=" M 220.1353113371584 368.4048822252249 L 227 377 L 228.22359815941076 366.0682660321298" stroke-miterlimit="10" stroke-dasharray=""/></g><g><path fill="#C0C0C0" stroke="none" paint-order="stroke fill markers" d=" M 299 385 L 406 385 Q 416 385 416 395 L 416 416 Q 416 426 406 426 L 299 426 Q 289 426 289 416 L 289 395 Q 289 385 299 385 Z" fill-opacity="0.2"/></g><g><path fill="#ffffff" stroke="none" paint-order="stroke fill markers" d=" M 292 378 L 399 378 Q 409 378 409 388 L 409 409 Q 409 419 399 419 L 292 419 Q 282 419 282 409 L 282 388 Q 282 378 292 378 Z"/></g><g><path fill="none" stroke="#000000" paint-order="fill stroke markers" d=" M 292 378 L 399 378 Q 409 378 409 388 L 409 409 Q 409 419 399 419 L 292 419 Q 282 419 282 409 L 282 388 Q 282 378 292 378 Z" stroke-miterlimit="10" stroke-dasharray=""/></g><g><g><path fill="none" stroke="none"/><text fill="#000000" stroke="none" font-family="Arial" font-size="13px" font-style="normal" font-weight="bold" text-decoration="undefined" x="376" y="453.5" text-anchor="middle" dominant-baseline="central" transform="matrix(1 0 0 1 -30 -62)">修改资料、账号管理</text></g></g><g><path fill="none" stroke="#000000" paint-order="fill stroke markers" d=" M 303 332 L 332 377" stroke-miterlimit="10" stroke-dasharray=""/></g><g><path fill="none" stroke="#000000" paint-order="fill stroke markers" d=" M 322.9564667779717 370.7378512583882 L 332 377 L 330.03326417281045 366.17724849282547" stroke-miterlimit="10" stroke-dasharray=""/></g><g><path fill="#C0C0C0" stroke="none" paint-order="stroke fill markers" d=" M 436 249 L 500 249 Q 503 249 503 252 L 503 252 Q 503 255 500 255 L 436 255 Q 433 255 433 252 L 433 252 Q 433 249 436 249 Z" fill-opacity="0.2"/></g><g><path fill="#000000" stroke="none" paint-order="stroke fill markers" d=" M 429 242 L 493 242 Q 496 242 496 245 L 496 245 Q 496 248 493 248 L 429 248 Q 426 248 426 245 L 426 245 Q 426 242 429 242 Z"/></g><g><path fill="none" stroke="#000000" paint-order="fill stroke markers" d=" M 363 193 L 453 241" stroke-miterlimit="10" stroke-dasharray=""/></g><g><path fill="none" stroke="#000000" paint-order="fill stroke markers" d=" M 442.0519844169123 239.93184514583805 L 453 241 L 446.01388348139795 232.50328439992745" stroke-miterlimit="10" stroke-dasharray=""/></g><g><rect fill="#ffffff" stroke="none" x="426" y="259" width="39" height="13" transform="matrix(1 0 0 1 -30 -62)"/></g><g><g><path fill="none" stroke="none"/><text fill="#000000" stroke="none" font-family="Arial" font-size="13px" font-style="normal" font-weight="normal" text-decoration="undefined" x="445.5" y="265.5" text-anchor="middle" dominant-baseline="central" transform="matrix(1 0 0 1 -30 -62)">管理员</text></g></g><g><path fill="#C0C0C0" stroke="none" paint-order="stroke fill markers" d=" M 387 289 L 429 289 Q 439 289 439 299 L 439 320 Q 439 330 429 330 L 387 330 Q 377 330 377 320 L 377 299 Q 377 289 387 289 Z" fill-opacity="0.2"/></g><g><path fill="#ffffff" stroke="none" paint-order="stroke fill markers" d=" M 380 282 L 422 282 Q 432 282 432 292 L 432 313 Q 432 323 422 323 L 380 323 Q 370 323 370 313 L 370 292 Q 370 282 380 282 Z"/></g><g><path fill="none" stroke="#000000" paint-order="fill stroke markers" d=" M 380 282 L 422 282 Q 432 282 432 292 L 432 313 Q 432 323 422 323 L 380 323 Q 370 323 370 313 L 370 292 Q 370 282 380 282 Z" stroke-miterlimit="10" stroke-dasharray=""/></g><g><g><path fill="none" stroke="none"/><text fill="#000000" stroke="none" font-family="Arial" font-size="13px" font-style="normal" font-weight="bold" text-decoration="undefined" x="431.5" y="357.5" text-anchor="middle" dominant-baseline="central" transform="matrix(1 0 0 1 -30 -62)">车次管理</text></g></g><g><path fill="#C0C0C0" stroke="none" paint-order="stroke fill markers" d=" M 467 289 L 509 289 Q 519 289 519 299 L 519 320 Q 519 330 509 330 L 467 330 Q 457 330 457 320 L 457 299 Q 457 289 467 289 Z" fill-opacity="0.2"/></g><g><path fill="#ffffff" stroke="none" paint-order="stroke fill markers" d=" M 460 282 L 502 282 Q 512 282 512 292 L 512 313 Q 512 323 502 323 L 460 323 Q 450 323 450 313 L 450 292 Q 450 282 460 282 Z"/></g><g><path fill="none" stroke="#000000" paint-order="fill stroke markers" d=" M 460 282 L 502 282 Q 512 282 512 292 L 512 313 Q 512 323 502 323 L 460 323 Q 450 323 450 313 L 450 292 Q 450 282 460 282 Z" stroke-miterlimit="10" stroke-dasharray=""/></g><g><g><path fill="none" stroke="none"/><text fill="#000000" stroke="none" font-family="Arial" font-size="13px" font-style="normal" font-weight="bold" text-decoration="undefined" x="511.5" y="357.5" text-anchor="middle" dominant-baseline="central" transform="matrix(1 0 0 1 -30 -62)">订单管理</text></g></g><g><path fill="#C0C0C0" stroke="none" paint-order="stroke fill markers" d=" M 555 289 L 597 289 Q 607 289 607 299 L 607 320 Q 607 330 597 330 L 555 330 Q 545 330 545 320 L 545 299 Q 545 289 555 289 Z" fill-opacity="0.2"/></g><g><path fill="#ffffff" stroke="none" paint-order="stroke fill markers" d=" M 548 282 L 590 282 Q 600 282 600 292 L 600 313 Q 600 323 590 323 L 548 323 Q 538 323 538 313 L 538 292 Q 538 282 548 282 Z"/></g><g><path fill="none" stroke="#000000" paint-order="fill stroke markers" d=" M 548 282 L 590 282 Q 600 282 600 292 L 600 313 Q 600 323 590 323 L 548 323 Q 538 323 538 313 L 538 292 Q 538 282 548 282 Z" stroke-miterlimit="10" stroke-dasharray=""/></g><g><g><path fill="none" stroke="none"/><text fill="#000000" stroke="none" font-family="Arial" font-size="13px" font-style="normal" font-weight="bold" text-decoration="undefined" x="599.5" y="357.5" text-anchor="middle" dominant-baseline="central" transform="matrix(1 0 0 1 -30 -62)">账户管理</text></g></g><g><path fill="none" stroke="#000000" paint-order="fill stroke markers" d=" M 457 249 L 423 281" stroke-miterlimit="10" stroke-dasharray=""/></g><g><path fill="none" stroke="#000000" paint-order="fill stroke markers" d=" M 427.51540488725317 270.9694906059478 L 423 281 L 433.2855146268693 277.1002322042899" stroke-miterlimit="10" stroke-dasharray=""/></g><g><path fill="none" stroke="#000000" paint-order="fill stroke markers" d=" M 462 249 L 474 281" stroke-miterlimit="10" stroke-dasharray=""/></g><g><path fill="none" stroke="#000000" paint-order="fill stroke markers" d=" M 466.49015232979445 272.96245137057895 L 474 281 L 474.37314092669993 270.0063306467394" stroke-miterlimit="10" stroke-dasharray=""/></g><g><path fill="none" stroke="#000000" paint-order="fill stroke markers" d=" M 469 249 L 537 285" stroke-miterlimit="10" stroke-dasharray=""/></g><g><path fill="none" stroke="#000000" paint-order="fill stroke markers" d=" M 526.0487690961419 283.96533015392174 L 537 285 L 529.9879324299934 276.5246883010911" stroke-miterlimit="10" stroke-dasharray=""/></g><g><path fill="#C0C0C0" stroke="none" paint-order="stroke fill markers" d=" M 227 17 L 295 17 Q 305 17 305 27 L 305 48 Q 305 58 295 58 L 227 58 Q 217 58 217 48 L 217 27 Q 217 17 227 17 Z" fill-opacity="0.2"/></g><g><path fill="#ffffff" stroke="none" paint-order="stroke fill markers" d=" M 220 10 L 288 10 Q 298 10 298 20 L 298 41 Q 298 51 288 51 L 220 51 Q 210 51 210 41 L 210 20 Q 210 10 220 10 Z"/></g><g><path fill="none" stroke="#000000" paint-order="fill stroke markers" d=" M 220 10 L 288 10 Q 298 10 298 20 L 298 41 Q 298 51 288 51 L 220 51 Q 210 51 210 41 L 210 20 Q 210 10 220 10 Z" stroke-miterlimit="10" stroke-dasharray=""/></g><g><g><path fill="none" stroke="none"/><text fill="#000000" stroke="none" font-family="Arial" font-size="13px" font-style="normal" font-weight="bold" text-decoration="undefined" x="284.5" y="85.5" text-anchor="middle" dominant-baseline="central" transform="matrix(1 0 0 1 -30 -62)">载入文件信息</text></g></g><g><path fill="none" stroke="#000000" paint-order="fill stroke markers" d=" M 169 30 L 209 30" stroke-miterlimit="10" stroke-dasharray=""/></g><g><path fill="none" stroke="#000000" paint-order="fill stroke markers" d=" M 198.83732514237585 34.209517756015984 L 209 30 L 198.83732514237585 25.790482243984016" stroke-miterlimit="10" stroke-dasharray=""/></g><g><path fill="none" stroke="#000000" paint-order="fill stroke markers" d=" M 252 52 L 248 81" stroke-miterlimit="10" stroke-dasharray=""/></g><g><path fill="none" stroke="#000000" paint-order="fill stroke markers" d=" M 245.2185642074607 70.35746200702195 L 248 81 L 253.5586386735307 71.50781710579022" stroke-miterlimit="10" stroke-dasharray=""/></g><g><path fill="#C0C0C0" stroke="none" paint-order="stroke fill markers" d=" M 196 505 L 382 505 Q 385 505 385 508 L 385 508 Q 385 511 382 511 L 196 511 Q 193 511 193 508 L 193 508 Q 193 505 196 505 Z" fill-opacity="0.2"/></g><g><path fill="#000000" stroke="none" paint-order="stroke fill markers" d=" M 189 498 L 375 498 Q 378 498 378 501 L 378 501 Q 378 504 375 504 L 189 504 Q 186 504 186 501 L 186 501 Q 186 498 189 498 Z"/></g><g><path fill="none" stroke="#000000" paint-order="fill stroke markers" d=" M 71 411 L 273 497" stroke-miterlimit="10" stroke-dasharray=""/></g><g><path fill="none" stroke="#000000" paint-order="fill stroke markers" d=" M 262.00052825508214 496.89219771452247 L 273 497 L 265.29842666678735 489.1459712126102" stroke-miterlimit="10" stroke-dasharray=""/></g><g><path fill="none" stroke="#000000" paint-order="fill stroke markers" d=" M 170 420 L 276 497" stroke-miterlimit="10" stroke-dasharray=""/></g><g><path fill="none" stroke="#000000" paint-order="fill stroke markers" d=" M 265.3037167206003 494.43299318138145 L 276 497 L 270.2517334884414 487.6214376308469" stroke-miterlimit="10" stroke-dasharray=""/></g><g><path fill="none" stroke="#000000" paint-order="fill stroke markers" d=" M 243 420 L 280 497" stroke-miterlimit="10" stroke-dasharray=""/></g><g><path fill="none" stroke="#000000" paint-order="fill stroke markers" d=" M 271.8042197927182 489.6631623437663 L 280 497 L 279.3926358975042 486.016780579129" stroke-miterlimit="10" stroke-dasharray=""/></g><g><path fill="none" stroke="#000000" paint-order="fill stroke markers" d=" M 332 420 L 284 497" stroke-miterlimit="10" stroke-dasharray=""/></g><g><path fill="none" stroke="#000000" paint-order="fill stroke markers" d=" M 285.8038677219121 486.14891428280816 L 284 497 L 292.9484033923904 490.6026508046648" stroke-miterlimit="10" stroke-dasharray=""/></g><g><path fill="none" stroke="#000000" paint-order="fill stroke markers" d=" M 459 324 L 286 497" stroke-miterlimit="10" stroke-dasharray=""/></g><g><path fill="none" stroke="#000000" paint-order="fill stroke markers" d=" M 290.209517756016 486.8373251423759 L 286 497 L 296.16267485762415 492.790482243984" stroke-miterlimit="10" stroke-dasharray=""/></g><g><path fill="none" stroke="#000000" paint-order="fill stroke markers" d=" M 388 324 L 284 497" stroke-miterlimit="10" stroke-dasharray=""/></g><g><path fill="none" stroke="#000000" paint-order="fill stroke markers" d=" M 285.6282648047986 486.1211786610196 L 284 497 L 292.8438454251504 490.45886874493056" stroke-miterlimit="10" stroke-dasharray=""/></g><g><path fill="none" stroke="#000000" paint-order="fill stroke markers" d=" M 537 324 L 288 497" stroke-miterlimit="10" stroke-dasharray=""/></g><g><path fill="none" stroke="#000000" paint-order="fill stroke markers" d=" M 293.94413529129065 487.74433926513984 L 288 497 L 298.7478788427436 494.65839790278017" stroke-miterlimit="10" stroke-dasharray=""/></g><g><path fill="#C0C0C0" stroke="none" paint-order="stroke fill markers" d=" M 259 537 L 301 537 Q 311 537 311 547 L 311 568 Q 311 578 301 578 L 259 578 Q 249 578 249 568 L 249 547 Q 249 537 259 537 Z" fill-opacity="0.2"/></g><g><path fill="#ffffff" stroke="none" paint-order="stroke fill markers" d=" M 252 530 L 294 530 Q 304 530 304 540 L 304 561 Q 304 571 294 571 L 252 571 Q 242 571 242 561 L 242 540 Q 242 530 252 530 Z"/></g><g><path fill="none" stroke="#000000" paint-order="fill stroke markers" d=" M 252 530 L 294 530 Q 304 530 304 540 L 304 561 Q 304 571 294 571 L 252 571 Q 242 571 242 561 L 242 540 Q 242 530 252 530 Z" stroke-miterlimit="10" stroke-dasharray=""/></g><g><g><path fill="none" stroke="none"/><text fill="#000000" stroke="none" font-family="Arial" font-size="13px" font-style="normal" font-weight="bold" text-decoration="undefined" x="303.5" y="605.5" text-anchor="middle" dominant-baseline="central" transform="matrix(1 0 0 1 -30 -62)">保存文件</text></g></g><g><path fill="none" stroke="#000000" paint-order="fill stroke markers" d=" M 281 505 L 277 529" stroke-miterlimit="10" stroke-dasharray=""/></g><g><path fill="none" stroke="#000000" paint-order="fill stroke markers" d=" M 274.5184907181093 518.2835588144249 L 277 529 L 282.8229761917047 519.6676397266908" stroke-miterlimit="10" stroke-dasharray=""/></g><g><path fill="#C0C0C0" stroke="none" paint-order="stroke fill markers" d=" M 371 537 L 413 537 Q 423 537 423 547 L 423 568 Q 423 578 413 578 L 371 578 Q 361 578 361 568 L 361 547 Q 361 537 371 537 Z" fill-opacity="0.2"/></g><g><path fill="#ffffff" stroke="none" paint-order="stroke fill markers" d=" M 364 530 L 406 530 Q 416 530 416 540 L 416 561 Q 416 571 406 571 L 364 571 Q 354 571 354 561 L 354 540 Q 354 530 364 530 Z"/></g><g><path fill="none" stroke="#000000" paint-order="fill stroke markers" d=" M 364 530 L 406 530 Q 416 530 416 540 L 416 561 Q 416 571 406 571 L 364 571 Q 354 571 354 561 L 354 540 Q 354 530 364 530 Z" stroke-miterlimit="10" stroke-dasharray=""/></g><g><g><path fill="none" stroke="none"/><text fill="#000000" stroke="none" font-family="Arial" font-size="13px" font-style="normal" font-weight="bold" text-decoration="undefined" x="415.5" y="605.5" text-anchor="middle" dominant-baseline="central" transform="matrix(1 0 0 1 -30 -62)">退出系统</text></g></g><g><path fill="none" stroke="#000000" paint-order="fill stroke markers" d=" M 305 550 L 353 550" stroke-miterlimit="10" stroke-dasharray=""/></g><g><path fill="none" stroke="#000000" paint-order="fill stroke markers" d=" M 342.83732514237585 554.209517756016 L 353 550 L 342.83732514237585 545.790482243984" stroke-miterlimit="10" stroke-dasharray=""/></g><g><path fill="#C0C0C0" stroke="none" paint-order="stroke fill markers" d=" M 473 558 C 473 550.8202976 478.8202976 545 486 545 C 493.1797024 545 499 550.8202976 499 558 C 499 565.1797024 493.1797024 571 486 571 C 478.8202976 571 473 565.1797024 473 558 Z" fill-opacity="0.2"/></g><g><path fill="none" stroke="#000000" paint-order="fill stroke markers" d=" M 466 551 C 466 543.8202976 471.8202976 538 479 538 C 486.1797024 538 492 543.8202976 492 551 C 492 558.1797024 486.1797024 564 479 564 C 471.8202976 564 466 558.1797024 466 551 Z" stroke-miterlimit="10" stroke-dasharray=""/></g><g><path fill="#000000" stroke="none" paint-order="stroke fill markers" d=" M 471 551 C 471 546.5817216 474.5817216 543 479 543 C 483.41827839999996 543 487 546.5817216 487 551 C 487 555.4182784 483.41827839999996 559 479 559 C 474.5817216 559 471 555.4182784 471 551 Z"/></g><g><path fill="none" stroke="#000000" paint-order="fill stroke markers" d=" M 417 550 L 465 551" stroke-miterlimit="10" stroke-dasharray=""/></g><g><path fill="none" stroke="#000000" paint-order="fill stroke markers" d=" M 454.75185060528014 554.9969280683424 L 465 551 L 454.92720912734103 546.5797190094205" stroke-miterlimit="10" stroke-dasharray=""/></g></g></svg>