<svg version="1.1" xmlns="http://www.w3.org/2000/svg" xmlns:xlink="http://www.w3.org/1999/xlink" width="482" height="550"><defs/><g><g><path fill="#C0C0C0" stroke="none" paint-order="stroke fill markers" d=" M 41 35 C 41 29.47715199999999 45.47715199999999 25 51 25 C 56.52284800000001 25 61 29.47715199999999 61 35 C 61 40.52284800000001 56.52284800000001 45 51 45 C 45.47715199999999 45 41 40.52284800000001 41 35 Z" fill-opacity="0.2"/></g><g><path fill="#000000" stroke="none" paint-order="stroke fill markers" d=" M 34 28 C 34 22.47715199999999 38.47715199999999 18 44 18 C 49.52284800000001 18 54 22.47715199999999 54 28 C 54 33.52284800000001 49.52284800000001 38 44 38 C 38.47715199999999 38 34 33.52284800000001 34 28 Z"/></g><g><path fill="#C0C0C0" stroke="none" paint-order="stroke fill markers" d=" M 147 17 L 254 17 Q 264 17 264 27 L 264 48 Q 264 58 254 58 L 147 58 Q 137 58 137 48 L 137 27 Q 137 17 147 17 Z" fill-opacity="0.2"/></g><g><path fill="#ffffff" stroke="none" paint-order="stroke fill markers" d=" M 140 10 L 247 10 Q 257 10 257 20 L 257 41 Q 257 51 247 51 L 140 51 Q 130 51 130 41 L 130 20 Q 130 10 140 10 Z"/></g><g><path fill="none" stroke="#000000" paint-order="fill stroke markers" d=" M 140 10 L 247 10 Q 257 10 257 20 L 257 41 Q 257 51 247 51 L 140 51 Q 130 51 130 41 L 130 20 Q 130 10 140 10 Z" stroke-miterlimit="10" stroke-dasharray=""/></g><g><g><path fill="none" stroke="none"/><text fill="#000000" stroke="none" font-family="Arial" font-size="13px" font-style="normal" font-weight="bold" text-decoration="undefined" x="328" y="229.5" text-anchor="middle" dominant-baseline="central" transform="matrix(1 0 0 1 -134 -206)">点击乘车人删除按钮</text></g></g><g><path fill="none" stroke="#000000" paint-order="fill stroke markers" d=" M 55 28 L 129 29" stroke-miterlimit="10" stroke-dasharray=""/></g><g><path fill="none" stroke="#000000" paint-order="fill stroke markers" d=" M 118.78137276225087 33.071812541845645 L 129 29 L 118.89513312571054 24.653545645829524" stroke-miterlimit="10" stroke-dasharray=""/></g><g><path fill="#C0C0C0" stroke="none" paint-order="stroke fill markers" d=" M 187 89 L 359 89 Q 369 89 369 99 L 369 120 Q 369 130 359 130 L 187 130 Q 177 130 177 120 L 177 99 Q 177 89 187 89 Z" fill-opacity="0.2"/></g><g><path fill="#ffffff" stroke="none" paint-order="stroke fill markers" d=" M 180 82 L 352 82 Q 362 82 362 92 L 362 113 Q 362 123 352 123 L 180 123 Q 170 123 170 113 L 170 92 Q 170 82 180 82 Z"/></g><g><path fill="none" stroke="#000000" paint-order="fill stroke markers" d=" M 180 82 L 352 82 Q 362 82 362 92 L 362 113 Q 362 123 352 123 L 180 123 Q 170 123 170 113 L 170 92 Q 170 82 180 82 Z" stroke-miterlimit="10" stroke-dasharray=""/></g><g><g><path fill="none" stroke="none"/><text fill="#000000" stroke="none" font-family="Arial" font-size="13px" font-style="normal" font-weight="bold" text-decoration="undefined" x="400.5" y="301.5" text-anchor="middle" dominant-baseline="central" transform="matrix(1 0 0 1 -134 -206)">根据身份证号查找该乘车人对象</text></g></g><g><path fill="none" stroke="#000000" paint-order="fill stroke markers" d=" M 215 52 L 245 81" stroke-miterlimit="10" stroke-dasharray=""/></g><g><path fill="none" stroke="#000000" paint-order="fill stroke markers" d=" M 234.76744705029876 76.96331074622276 L 245 81 L 240.61886276530458 70.91012207552711" stroke-miterlimit="10" stroke-dasharray=""/></g><g><path fill="#C0C0C0" stroke="none" paint-order="stroke fill markers" d=" M 228 249 L 292 249 Q 295 249 295 252 L 295 252 Q 295 255 292 255 L 228 255 Q 225 255 225 252 L 225 252 Q 225 249 228 249 Z" fill-opacity="0.2"/></g><g><path fill="#000000" stroke="none" paint-order="stroke fill markers" d=" M 221 242 L 285 242 Q 288 242 288 245 L 288 245 Q 288 248 285 248 L 221 248 Q 218 248 218 245 L 218 245 Q 218 242 221 242 Z"/></g><g><path fill="#C0C0C0" stroke="none" paint-order="stroke fill markers" d=" M 203 169 L 388 169 Q 398 169 398 179 L 398 200 Q 398 210 388 210 L 203 210 Q 193 210 193 200 L 193 179 Q 193 169 203 169 Z" fill-opacity="0.2"/></g><g><path fill="#ffffff" stroke="none" paint-order="stroke fill markers" d=" M 196 162 L 381 162 Q 391 162 391 172 L 391 193 Q 391 203 381 203 L 196 203 Q 186 203 186 193 L 186 172 Q 186 162 196 162 Z"/></g><g><path fill="none" stroke="#000000" paint-order="fill stroke markers" d=" M 196 162 L 381 162 Q 391 162 391 172 L 391 193 Q 391 203 381 203 L 196 203 Q 186 203 186 193 L 186 172 Q 186 162 196 162 Z" stroke-miterlimit="10" stroke-dasharray=""/></g><g><g><path fill="none" stroke="none"/><text fill="#000000" stroke="none" font-family="Arial" font-size="13px" font-style="normal" font-weight="bold" text-decoration="undefined" x="423" y="381.5" text-anchor="middle" dominant-baseline="central" transform="matrix(1 0 0 1 -134 -206)">遍历该乘车人所属用户的所有订单</text></g></g><g><path fill="none" stroke="#000000" paint-order="fill stroke markers" d=" M 272 124 L 282 161" stroke-miterlimit="10" stroke-dasharray=""/></g><g><path fill="none" stroke="#000000" paint-order="fill stroke markers" d=" M 275.284752066094 152.2876268912442 L 282 161 L 283.4121807540146 150.09102454315757" stroke-miterlimit="10" stroke-dasharray=""/></g><g><path fill="none" stroke="#000000" paint-order="fill stroke markers" d=" M 276 204 L 255 241" stroke-miterlimit="10" stroke-dasharray=""/></g><g><path fill="none" stroke="#000000" paint-order="fill stroke markers" d=" M 256.3553940998404 230.0838236165717 L 255 241 L 263.677310704528 234.23950601382683" stroke-miterlimit="10" stroke-dasharray=""/></g><g><path fill="#C0C0C0" stroke="none" paint-order="stroke fill markers" d=" M 67 297 L 213 297 Q 223 297 223 307 L 223 328 Q 223 338 213 338 L 67 338 Q 57 338 57 328 L 57 307 Q 57 297 67 297 Z" fill-opacity="0.2"/></g><g><path fill="#ffffff" stroke="none" paint-order="stroke fill markers" d=" M 60 290 L 206 290 Q 216 290 216 300 L 216 321 Q 216 331 206 331 L 60 331 Q 50 331 50 321 L 50 300 Q 50 290 60 290 Z"/></g><g><path fill="none" stroke="#000000" paint-order="fill stroke markers" d=" M 60 290 L 206 290 Q 216 290 216 300 L 216 321 Q 216 331 206 331 L 60 331 Q 50 331 50 321 L 50 300 Q 50 290 60 290 Z" stroke-miterlimit="10" stroke-dasharray=""/></g><g><g><path fill="none" stroke="none"/><text fill="#000000" stroke="none" font-family="Arial" font-size="13px" font-style="normal" font-weight="bold" text-decoration="undefined" x="267.5" y="509.5" text-anchor="middle" dominant-baseline="central" transform="matrix(1 0 0 1 -134 -206)">判断订单是否是待乘坐状态</text></g></g><g><path fill="#C0C0C0" stroke="none" paint-order="stroke fill markers" d=" M 283 289 L 468 289 Q 478 289 478 299 L 478 320 Q 478 330 468 330 L 283 330 Q 273 330 273 320 L 273 299 Q 273 289 283 289 Z" fill-opacity="0.2"/></g><g><path fill="#ffffff" stroke="none" paint-order="stroke fill markers" d=" M 276 282 L 461 282 Q 471 282 471 292 L 471 313 Q 471 323 461 323 L 276 323 Q 266 323 266 313 L 266 292 Q 266 282 276 282 Z"/></g><g><path fill="none" stroke="#000000" paint-order="fill stroke markers" d=" M 276 282 L 461 282 Q 471 282 471 292 L 471 313 Q 471 323 461 323 L 276 323 Q 266 323 266 313 L 266 292 Q 266 282 276 282 Z" stroke-miterlimit="10" stroke-dasharray=""/></g><g><g><path fill="none" stroke="none"/><text fill="#000000" stroke="none" font-family="Arial" font-size="13px" font-style="normal" font-weight="bold" text-decoration="undefined" x="503" y="501.5" text-anchor="middle" dominant-baseline="central" transform="matrix(1 0 0 1 -134 -206)">判断乘车人是否等于待删除乘车人</text></g></g><g><path fill="none" stroke="#000000" paint-order="fill stroke markers" d=" M 246 249 L 172 289" stroke-miterlimit="10" stroke-dasharray=""/></g><g><path fill="none" stroke="#000000" paint-order="fill stroke markers" d=" M 178.93847386815878 280.46433480150034 L 172 289 L 182.94186866705786 287.87061517946364" stroke-miterlimit="10" stroke-dasharray=""/></g><g><path fill="none" stroke="#000000" paint-order="fill stroke markers" d=" M 261 249 L 326 281" stroke-miterlimit="10" stroke-dasharray=""/></g><g><path fill="none" stroke="#000000" paint-order="fill stroke markers" d=" M 315.0230693812817 280.2879647537905 L 326 281 L 318.7416228739286 272.73465297185146" stroke-miterlimit="10" stroke-dasharray=""/></g><g><path fill="#C0C0C0" stroke="none" paint-order="stroke fill markers" d=" M 225 421 L 253 393 L 281 421 L 253 449 L 225 421" fill-opacity="0.2"/></g><g><path fill="#ffffff" stroke="none" paint-order="stroke fill markers" d=" M 218 414 L 246 386 L 274 414 L 246 442 L 218 414"/></g><g><path fill="none" stroke="#000000" paint-order="fill stroke markers" d=" M 218 414 L 246 386 L 274 414 L 246 442 L 218 414 L 218 414" stroke-miterlimit="10" stroke-dasharray=""/></g><g><path fill="none" stroke="#000000" paint-order="fill stroke markers" d=" M 157 332 L 217 387" stroke-miterlimit="10" stroke-dasharray=""/></g><g><path fill="none" stroke="#000000" paint-order="fill stroke markers" d=" M 206.6640673312673 383.23589374918504 L 217 387 L 212.35301697510943 377.0297668649936" stroke-miterlimit="10" stroke-dasharray=""/></g><g><path fill="none" stroke="#000000" paint-order="fill stroke markers" d=" M 344 324 L 275 387" stroke-miterlimit="10" stroke-dasharray=""/></g><g><path fill="none" stroke="#000000" paint-order="fill stroke markers" d=" M 279.66663910167813 377.03895188774345 L 275 387 L 285.3433368220489 383.2562874862449" stroke-miterlimit="10" stroke-dasharray=""/></g><g><g><path fill="none" stroke="none"/><text fill="#000000" stroke="none" font-family="Arial" font-size="13px" font-style="normal" font-weight="normal" text-decoration="undefined" x="429" y="605" text-anchor="start" dominant-baseline="text-before-edge" transform="matrix(1 0 0 1 -134 -206)">是否有待乘坐订单？</text></g></g><g><path fill="#C0C0C0" stroke="none" paint-order="stroke fill markers" d=" M 75 409 L 117 409 Q 127 409 127 419 L 127 440 Q 127 450 117 450 L 75 450 Q 65 450 65 440 L 65 419 Q 65 409 75 409 Z" fill-opacity="0.2"/></g><g><path fill="#ffffff" stroke="none" paint-order="stroke fill markers" d=" M 68 402 L 110 402 Q 120 402 120 412 L 120 433 Q 120 443 110 443 L 68 443 Q 58 443 58 433 L 58 412 Q 58 402 68 402 Z"/></g><g><path fill="none" stroke="#000000" paint-order="fill stroke markers" d=" M 68 402 L 110 402 Q 120 402 120 412 L 120 433 Q 120 443 110 443 L 68 443 Q 58 443 58 433 L 58 412 Q 58 402 68 402 Z" stroke-miterlimit="10" stroke-dasharray=""/></g><g><g><path fill="none" stroke="none"/><text fill="#000000" stroke="none" font-family="Arial" font-size="13px" font-style="normal" font-weight="bold" text-decoration="undefined" x="223.5" y="621.5" text-anchor="middle" dominant-baseline="central" transform="matrix(1 0 0 1 -134 -206)">拒绝删除</text></g></g><g><path fill="none" stroke="#000000" paint-order="fill stroke markers" d=" M 217 415 L 121 420" stroke-miterlimit="10" stroke-dasharray=""/></g><g><path fill="none" stroke="#000000" paint-order="fill stroke markers" d=" M 130.92996987900466 415.2675906556956 L 121 420 L 131.36786777713064 423.67523029971403" stroke-miterlimit="10" stroke-dasharray=""/></g><g><rect fill="#ffffff" stroke="none" x="297" y="631" width="13" height="13" transform="matrix(1 0 0 1 -134 -206)"/></g><g><g><path fill="none" stroke="none"/><text fill="#000000" stroke="none" font-family="Arial" font-size="13px" font-style="normal" font-weight="normal" text-decoration="undefined" x="303.5" y="637.5" text-anchor="middle" dominant-baseline="central" transform="matrix(1 0 0 1 -134 -206)">是</text></g></g><g><path fill="#C0C0C0" stroke="none" paint-order="stroke fill markers" d=" M 195 497 L 315 497 Q 325 497 325 507 L 325 528 Q 325 538 315 538 L 195 538 Q 185 538 185 528 L 185 507 Q 185 497 195 497 Z" fill-opacity="0.2"/></g><g><path fill="#ffffff" stroke="none" paint-order="stroke fill markers" d=" M 188 490 L 308 490 Q 318 490 318 500 L 318 521 Q 318 531 308 531 L 188 531 Q 178 531 178 521 L 178 500 Q 178 490 188 490 Z"/></g><g><path fill="none" stroke="#000000" paint-order="fill stroke markers" d=" M 188 490 L 308 490 Q 318 490 318 500 L 318 521 Q 318 531 308 531 L 188 531 Q 178 531 178 521 L 178 500 Q 178 490 188 490 Z" stroke-miterlimit="10" stroke-dasharray=""/></g><g><g><path fill="none" stroke="none"/><text fill="#000000" stroke="none" font-family="Arial" font-size="13px" font-style="normal" font-weight="bold" text-decoration="undefined" x="382.5" y="709.5" text-anchor="middle" dominant-baseline="central" transform="matrix(1 0 0 1 -134 -206)">删除该用户的该乘车人</text></g></g><g><path fill="none" stroke="#000000" paint-order="fill stroke markers" d=" M 247 443 L 248 489" stroke-miterlimit="10" stroke-dasharray=""/></g><g><path fill="none" stroke="#000000" paint-order="fill stroke markers" d=" M 243.57060105042297 478.93121531934037 L 248 489 L 251.98764789217512 478.74823604017183" stroke-miterlimit="10" stroke-dasharray=""/></g><g><path fill="#C0C0C0" stroke="none" paint-order="stroke fill markers" d=" M 17 534 C 17 526.8202976 22.820297600000004 521 30 521 C 37.1797024 521 43 526.8202976 43 534 C 43 541.1797024 37.1797024 547 30 547 C 22.820297600000004 547 17 541.1797024 17 534 Z" fill-opacity="0.2"/></g><g><path fill="none" stroke="#000000" paint-order="fill stroke markers" d=" M 10 527 C 10 519.8202976 15.820297600000004 514 23 514 C 30.179702399999996 514 36 519.8202976 36 527 C 36 534.1797024 30.179702399999996 540 23 540 C 15.820297600000004 540 10 534.1797024 10 527 Z" stroke-miterlimit="10" stroke-dasharray=""/></g><g><path fill="#000000" stroke="none" paint-order="stroke fill markers" d=" M 15 527 C 15 522.5817216 18.58172160000001 519 23 519 C 27.41827839999999 519 31 522.5817216 31 527 C 31 531.4182784 27.41827839999999 535 23 535 C 18.58172160000001 535 15 531.4182784 15 527 Z"/></g><g><path fill="none" stroke="#000000" paint-order="fill stroke markers" d=" M 75 444 L 32 513" stroke-miterlimit="10" stroke-dasharray=""/></g><g><path fill="none" stroke="#000000" paint-order="fill stroke markers" d=" M 33.802396770593106 502.1486698565865 L 32 513 L 40.94753610817685 506.60143784957336" stroke-miterlimit="10" stroke-dasharray=""/></g><g><path fill="none" stroke="#000000" paint-order="fill stroke markers" d=" M 177 515 L 37 526" stroke-miterlimit="10" stroke-dasharray=""/></g><g><path fill="none" stroke="#000000" paint-order="fill stroke markers" d=" M 46.801718281524586 521.0073735639819 L 37 526 L 47.4611814729858 529.4005414553066" stroke-miterlimit="10" stroke-dasharray=""/></g></g></svg>