<svg version="1.1" xmlns="http://www.w3.org/2000/svg" xmlns:xlink="http://www.w3.org/1999/xlink" width="466" height="645"><defs/><g><g><path fill="#C0C0C0" stroke="none" paint-order="stroke fill markers" d=" M 17 35 C 17 29.477152000000004 21.47715199999999 25 27 25 C 32.52284800000001 25 37 29.477152000000004 37 35 C 37 40.52284800000001 32.52284800000001 45 27 45 C 21.47715199999999 45 17 40.52284800000001 17 35 Z" fill-opacity="0.2"/></g><g><path fill="#000000" stroke="none" paint-order="stroke fill markers" d=" M 10 28 C 10 22.477152000000004 14.47715199999999 18 20 18 C 25.52284800000001 18 30 22.477152000000004 30 28 C 30 33.522847999999996 25.52284800000001 38 20 38 C 14.47715199999999 38 10 33.522847999999996 10 28 Z"/></g><g><path fill="#C0C0C0" stroke="none" paint-order="stroke fill markers" d=" M 91 17 L 198 17 Q 208 17 208 27 L 208 48 Q 208 58 198 58 L 91 58 Q 81 58 81 48 L 81 27 Q 81 17 91 17 Z" fill-opacity="0.2"/></g><g><path fill="#ffffff" stroke="none" paint-order="stroke fill markers" d=" M 84 10 L 191 10 Q 201 10 201 20 L 201 41 Q 201 51 191 51 L 84 51 Q 74 51 74 41 L 74 20 Q 74 10 84 10 Z"/></g><g><path fill="none" stroke="#000000" paint-order="fill stroke markers" d=" M 84 10 L 191 10 Q 201 10 201 20 L 201 41 Q 201 51 191 51 L 84 51 Q 74 51 74 41 L 74 20 Q 74 10 84 10 Z" stroke-miterlimit="10" stroke-dasharray=""/></g><g><g><path fill="none" stroke="none"/><text fill="#000000" stroke="none" font-family="Arial" font-size="13px" font-style="normal" font-weight="bold" text-decoration="undefined" x="320" y="117.5" text-anchor="middle" dominant-baseline="central" transform="matrix(1 0 0 1 -182 -94)">点击乘车人修改按钮</text></g></g><g><path fill="none" stroke="#000000" paint-order="fill stroke markers" d=" M 31 28 L 73 29" stroke-miterlimit="10" stroke-dasharray=""/></g><g><path fill="none" stroke="#000000" paint-order="fill stroke markers" d=" M 62.74000627858541 32.96642519613482 L 73 29 L 62.940402711400225 24.549775017912452" stroke-miterlimit="10" stroke-dasharray=""/></g><g><path fill="#C0C0C0" stroke="none" paint-order="stroke fill markers" d=" M 139 81 L 311 81 Q 321 81 321 91 L 321 112 Q 321 122 311 122 L 139 122 Q 129 122 129 112 L 129 91 Q 129 81 139 81 Z" fill-opacity="0.2"/></g><g><path fill="#ffffff" stroke="none" paint-order="stroke fill markers" d=" M 132 74 L 304 74 Q 314 74 314 84 L 314 105 Q 314 115 304 115 L 132 115 Q 122 115 122 105 L 122 84 Q 122 74 132 74 Z"/></g><g><path fill="none" stroke="#000000" paint-order="fill stroke markers" d=" M 132 74 L 304 74 Q 314 74 314 84 L 314 105 Q 314 115 304 115 L 132 115 Q 122 115 122 105 L 122 84 Q 122 74 132 74 Z" stroke-miterlimit="10" stroke-dasharray=""/></g><g><g><path fill="none" stroke="none"/><text fill="#000000" stroke="none" font-family="Arial" font-size="13px" font-style="normal" font-weight="bold" text-decoration="undefined" x="400.5" y="181.5" text-anchor="middle" dominant-baseline="central" transform="matrix(1 0 0 1 -182 -94)">根据身份证号查找该乘车人对象</text></g></g><g><path fill="none" stroke="#000000" paint-order="fill stroke markers" d=" M 165 52 L 191 73" stroke-miterlimit="10" stroke-dasharray=""/></g><g><path fill="none" stroke="#000000" paint-order="fill stroke markers" d=" M 180.44904051818412 69.88917149089193 L 191 73 L 185.73903293628223 63.33965706848474" stroke-miterlimit="10" stroke-dasharray=""/></g><g><path fill="#C0C0C0" stroke="none" paint-order="stroke fill markers" d=" M 43 281 L 189 281 Q 199 281 199 291 L 199 312 Q 199 322 189 322 L 43 322 Q 33 322 33 312 L 33 291 Q 33 281 43 281 Z" fill-opacity="0.2"/></g><g><path fill="#ffffff" stroke="none" paint-order="stroke fill markers" d=" M 36 274 L 182 274 Q 192 274 192 284 L 192 305 Q 192 315 182 315 L 36 315 Q 26 315 26 305 L 26 284 Q 26 274 36 274 Z"/></g><g><path fill="none" stroke="#000000" paint-order="fill stroke markers" d=" M 36 274 L 182 274 Q 192 274 192 284 L 192 305 Q 192 315 182 315 L 36 315 Q 26 315 26 305 L 26 284 Q 26 274 36 274 Z" stroke-miterlimit="10" stroke-dasharray=""/></g><g><g><path fill="none" stroke="none"/><text fill="#000000" stroke="none" font-family="Arial" font-size="13px" font-style="normal" font-weight="bold" text-decoration="undefined" x="291.5" y="381.5" text-anchor="middle" dominant-baseline="central" transform="matrix(1 0 0 1 -182 -94)">判断订单是否是待乘坐状态</text></g></g><g><path fill="#C0C0C0" stroke="none" paint-order="stroke fill markers" d=" M 212 233 L 276 233 Q 279 233 279 236 L 279 236 Q 279 239 276 239 L 212 239 Q 209 239 209 236 L 209 236 Q 209 233 212 233 Z" fill-opacity="0.2"/></g><g><path fill="#000000" stroke="none" paint-order="stroke fill markers" d=" M 205 226 L 269 226 Q 272 226 272 229 L 272 229 Q 272 232 269 232 L 205 232 Q 202 232 202 229 L 202 229 Q 202 226 205 226 Z"/></g><g><path fill="#C0C0C0" stroke="none" paint-order="stroke fill markers" d=" M 267 281 L 452 281 Q 462 281 462 291 L 462 312 Q 462 322 452 322 L 267 322 Q 257 322 257 312 L 257 291 Q 257 281 267 281 Z" fill-opacity="0.2"/></g><g><path fill="#ffffff" stroke="none" paint-order="stroke fill markers" d=" M 260 274 L 445 274 Q 455 274 455 284 L 455 305 Q 455 315 445 315 L 260 315 Q 250 315 250 305 L 250 284 Q 250 274 260 274 Z"/></g><g><path fill="none" stroke="#000000" paint-order="fill stroke markers" d=" M 260 274 L 445 274 Q 455 274 455 284 L 455 305 Q 455 315 445 315 L 260 315 Q 250 315 250 305 L 250 284 Q 250 274 260 274 Z" stroke-miterlimit="10" stroke-dasharray=""/></g><g><g><path fill="none" stroke="none"/><text fill="#000000" stroke="none" font-family="Arial" font-size="13px" font-style="normal" font-weight="bold" text-decoration="undefined" x="535" y="381.5" text-anchor="middle" dominant-baseline="central" transform="matrix(1 0 0 1 -182 -94)">判断乘车人是否等于待修改乘车人</text></g></g><g><path fill="none" stroke="#000000" paint-order="fill stroke markers" d=" M 229 233 L 150 273" stroke-miterlimit="10" stroke-dasharray=""/></g><g><path fill="none" stroke="#000000" paint-order="fill stroke markers" d=" M 157.16515810837973 264.6537128445086 L 150 273 L 160.96824813208718 272.1648156413309" stroke-miterlimit="10" stroke-dasharray=""/></g><g><path fill="none" stroke="#000000" paint-order="fill stroke markers" d=" M 244 233 L 315 273" stroke-miterlimit="10" stroke-dasharray=""/></g><g><path fill="none" stroke="#000000" paint-order="fill stroke markers" d=" M 304.07957822529954 271.6792470849366 L 315 273 L 308.2120090522053 264.34418236717886" stroke-miterlimit="10" stroke-dasharray=""/></g><g><path fill="#C0C0C0" stroke="none" paint-order="stroke fill markers" d=" M 217 389 L 237 369 L 257 389 L 237 409 L 217 389" fill-opacity="0.2"/></g><g><path fill="#ffffff" stroke="none" paint-order="stroke fill markers" d=" M 210 382 L 230 362 L 250 382 L 230 402 L 210 382"/></g><g><path fill="none" stroke="#000000" paint-order="fill stroke markers" d=" M 210 382 L 230 362 L 250 382 L 230 402 L 210 382 L 210 382" stroke-miterlimit="10" stroke-dasharray=""/></g><g><g><path fill="none" stroke="none"/><text fill="#000000" stroke="none" font-family="Arial" font-size="13px" font-style="normal" font-weight="normal" text-decoration="undefined" x="453" y="453" text-anchor="start" dominant-baseline="text-before-edge" transform="matrix(1 0 0 1 -182 -94)">是否有待乘坐订单？</text></g></g><g><path fill="none" stroke="#000000" paint-order="fill stroke markers" d=" M 322 316 L 251 367" stroke-miterlimit="10" stroke-dasharray=""/></g><g><path fill="none" stroke="#000000" paint-order="fill stroke markers" d=" M 256.79813557854953 357.65218614794037 L 251 367 L 261.7098035498923 364.48999842177045" stroke-miterlimit="10" stroke-dasharray=""/></g><g><path fill="none" stroke="#000000" paint-order="fill stroke markers" d=" M 139 316 L 209 367" stroke-miterlimit="10" stroke-dasharray=""/></g><g><path fill="none" stroke="#000000" paint-order="fill stroke markers" d=" M 198.30734699535725 364.4179133007771 L 209 367 L 203.26496356617446 357.6133415369103" stroke-miterlimit="10" stroke-dasharray=""/></g><g><path fill="#C0C0C0" stroke="none" paint-order="stroke fill markers" d=" M 91 369 L 133 369 Q 143 369 143 379 L 143 400 Q 143 410 133 410 L 91 410 Q 81 410 81 400 L 81 379 Q 81 369 91 369 Z" fill-opacity="0.2"/></g><g><path fill="#ffffff" stroke="none" paint-order="stroke fill markers" d=" M 84 362 L 126 362 Q 136 362 136 372 L 136 393 Q 136 403 126 403 L 84 403 Q 74 403 74 393 L 74 372 Q 74 362 84 362 Z"/></g><g><path fill="none" stroke="#000000" paint-order="fill stroke markers" d=" M 84 362 L 126 362 Q 136 362 136 372 L 136 393 Q 136 403 126 403 L 84 403 Q 74 403 74 393 L 74 372 Q 74 362 84 362 Z" stroke-miterlimit="10" stroke-dasharray=""/></g><g><g><path fill="none" stroke="none"/><text fill="#000000" stroke="none" font-family="Arial" font-size="13px" font-style="normal" font-weight="bold" text-decoration="undefined" x="287.5" y="469.5" text-anchor="middle" dominant-baseline="central" transform="matrix(1 0 0 1 -182 -94)">拒绝修改</text></g></g><g><path fill="none" stroke="#000000" paint-order="fill stroke markers" d=" M 209 382 L 137 382" stroke-miterlimit="10" stroke-dasharray=""/></g><g><path fill="none" stroke="#000000" paint-order="fill stroke markers" d=" M 147.16267485762415 377.790482243984 L 137 382 L 147.16267485762415 386.209517756016" stroke-miterlimit="10" stroke-dasharray=""/></g><g><rect fill="#ffffff" stroke="none" x="348" y="485" width="13" height="13" transform="matrix(1 0 0 1 -182 -94)"/></g><g><g><path fill="none" stroke="none"/><text fill="#000000" stroke="none" font-family="Arial" font-size="13px" font-style="normal" font-weight="normal" text-decoration="undefined" x="354.5" y="491.5" text-anchor="middle" dominant-baseline="central" transform="matrix(1 0 0 1 -182 -94)">是</text></g></g><g><path fill="#C0C0C0" stroke="none" paint-order="stroke fill markers" d=" M 171 457 L 291 457 Q 301 457 301 467 L 301 488 Q 301 498 291 498 L 171 498 Q 161 498 161 488 L 161 467 Q 161 457 171 457 Z" fill-opacity="0.2"/></g><g><path fill="#ffffff" stroke="none" paint-order="stroke fill markers" d=" M 164 450 L 284 450 Q 294 450 294 460 L 294 481 Q 294 491 284 491 L 164 491 Q 154 491 154 481 L 154 460 Q 154 450 164 450 Z"/></g><g><path fill="none" stroke="#000000" paint-order="fill stroke markers" d=" M 164 450 L 284 450 Q 294 450 294 460 L 294 481 Q 294 491 284 491 L 164 491 Q 154 491 154 481 L 154 460 Q 154 450 164 450 Z" stroke-miterlimit="10" stroke-dasharray=""/></g><g><g><path fill="none" stroke="none"/><text fill="#000000" stroke="none" font-family="Arial" font-size="13px" font-style="normal" font-weight="bold" text-decoration="undefined" x="406.5" y="557.5" text-anchor="middle" dominant-baseline="central" transform="matrix(1 0 0 1 -182 -94)">允许修改，弹出修改窗</text></g></g><g><path fill="none" stroke="#000000" paint-order="fill stroke markers" d=" M 229 403 L 225 449" stroke-miterlimit="10" stroke-dasharray=""/></g><g><path fill="none" stroke="#000000" paint-order="fill stroke markers" d=" M 221.68669617888304 438.51086191391437 L 225 449 L 230.07408106943012 439.2401997304837" stroke-miterlimit="10" stroke-dasharray=""/></g><g><rect fill="#ffffff" stroke="none" x="417" y="515" width="13" height="13" transform="matrix(1 0 0 1 -182 -94)"/></g><g><g><path fill="none" stroke="none"/><text fill="#000000" stroke="none" font-family="Arial" font-size="13px" font-style="normal" font-weight="normal" text-decoration="undefined" x="423.5" y="521.5" text-anchor="middle" dominant-baseline="central" transform="matrix(1 0 0 1 -182 -94)">否</text></g></g><g><path fill="#C0C0C0" stroke="none" paint-order="stroke fill markers" d=" M 171 529 L 278 529 Q 288 529 288 539 L 288 560 Q 288 570 278 570 L 171 570 Q 161 570 161 560 L 161 539 Q 161 529 171 529 Z" fill-opacity="0.2"/></g><g><path fill="#ffffff" stroke="none" paint-order="stroke fill markers" d=" M 164 522 L 271 522 Q 281 522 281 532 L 281 553 Q 281 563 271 563 L 164 563 Q 154 563 154 553 L 154 532 Q 154 522 164 522 Z"/></g><g><path fill="none" stroke="#000000" paint-order="fill stroke markers" d=" M 164 522 L 271 522 Q 281 522 281 532 L 281 553 Q 281 563 271 563 L 164 563 Q 154 563 154 553 L 154 532 Q 154 522 164 522 Z" stroke-miterlimit="10" stroke-dasharray=""/></g><g><g><path fill="none" stroke="none"/><text fill="#000000" stroke="none" font-family="Arial" font-size="13px" font-style="normal" font-weight="bold" text-decoration="undefined" x="400" y="629.5" text-anchor="middle" dominant-baseline="central" transform="matrix(1 0 0 1 -182 -94)">填写信息，点击确认</text></g></g><g><path fill="none" stroke="#000000" paint-order="fill stroke markers" d=" M 222 492 L 219 521" stroke-miterlimit="10" stroke-dasharray=""/></g><g><path fill="none" stroke="#000000" paint-order="fill stroke markers" d=" M 215.85855784773128 510.4581149122205 L 219 521 L 224.2329033834838 511.3244265193672" stroke-miterlimit="10" stroke-dasharray=""/></g><g><path fill="#C0C0C0" stroke="none" paint-order="stroke fill markers" d=" M 187 601 L 268 601 Q 278 601 278 611 L 278 632 Q 278 642 268 642 L 187 642 Q 177 642 177 632 L 177 611 Q 177 601 187 601 Z" fill-opacity="0.2"/></g><g><path fill="#ffffff" stroke="none" paint-order="stroke fill markers" d=" M 180 594 L 261 594 Q 271 594 271 604 L 271 625 Q 271 635 261 635 L 180 635 Q 170 635 170 625 L 170 604 Q 170 594 180 594 Z"/></g><g><path fill="none" stroke="#000000" paint-order="fill stroke markers" d=" M 180 594 L 261 594 Q 271 594 271 604 L 271 625 Q 271 635 261 635 L 180 635 Q 170 635 170 625 L 170 604 Q 170 594 180 594 Z" stroke-miterlimit="10" stroke-dasharray=""/></g><g><g><path fill="none" stroke="none"/><text fill="#000000" stroke="none" font-family="Arial" font-size="13px" font-style="normal" font-weight="bold" text-decoration="undefined" x="403" y="701.5" text-anchor="middle" dominant-baseline="central" transform="matrix(1 0 0 1 -182 -94)">更新乘车人信息</text></g></g><g><path fill="none" stroke="#000000" paint-order="fill stroke markers" d=" M 218 564 L 219 593" stroke-miterlimit="10" stroke-dasharray=""/></g><g><path fill="none" stroke="#000000" paint-order="fill stroke markers" d=" M 214.44275379603874 582.9884313398708 L 219 593 L 222.8567883955344 582.6982922157503" stroke-miterlimit="10" stroke-dasharray=""/></g><g><path fill="#C0C0C0" stroke="none" paint-order="stroke fill markers" d=" M 155 161 L 340 161 Q 350 161 350 171 L 350 192 Q 350 202 340 202 L 155 202 Q 145 202 145 192 L 145 171 Q 145 161 155 161 Z" fill-opacity="0.2"/></g><g><path fill="#ffffff" stroke="none" paint-order="stroke fill markers" d=" M 148 154 L 333 154 Q 343 154 343 164 L 343 185 Q 343 195 333 195 L 148 195 Q 138 195 138 185 L 138 164 Q 138 154 148 154 Z"/></g><g><path fill="none" stroke="#000000" paint-order="fill stroke markers" d=" M 148 154 L 333 154 Q 343 154 343 164 L 343 185 Q 343 195 333 195 L 148 195 Q 138 195 138 185 L 138 164 Q 138 154 148 154 Z" stroke-miterlimit="10" stroke-dasharray=""/></g><g><g><path fill="none" stroke="none"/><text fill="#000000" stroke="none" font-family="Arial" font-size="13px" font-style="normal" font-weight="bold" text-decoration="undefined" x="423" y="261.5" text-anchor="middle" dominant-baseline="central" transform="matrix(1 0 0 1 -182 -94)">遍历该乘车人所属用户的所有订单</text></g></g><g><path fill="none" stroke="#000000" paint-order="fill stroke markers" d=" M 224 116 L 234 153" stroke-miterlimit="10" stroke-dasharray=""/></g><g><path fill="none" stroke="#000000" paint-order="fill stroke markers" d=" M 227.28475206609397 144.28762689124423 L 234 153 L 235.41218075401463 142.09102454315757" stroke-miterlimit="10" stroke-dasharray=""/></g><g><path fill="none" stroke="#000000" paint-order="fill stroke markers" d=" M 239 196 L 237 225" stroke-miterlimit="10" stroke-dasharray=""/></g><g><path fill="none" stroke="#000000" paint-order="fill stroke markers" d=" M 233.49967070517494 214.57178371782646 L 237 225 L 241.89875586804817 215.1510309704384" stroke-miterlimit="10" stroke-dasharray=""/></g><g><path fill="#C0C0C0" stroke="none" paint-order="stroke fill markers" d=" M 25 542 C 25 534.8202976 30.820297600000004 529 38 529 C 45.1797024 529 51 534.8202976 51 542 C 51 549.1797024 45.1797024 555 38 555 C 30.820297600000004 555 25 549.1797024 25 542 Z" fill-opacity="0.2"/></g><g><path fill="none" stroke="#000000" paint-order="fill stroke markers" d=" M 18 535 C 18 527.8202976 23.820297600000004 522 31 522 C 38.1797024 522 44 527.8202976 44 535 C 44 542.1797024 38.1797024 548 31 548 C 23.820297600000004 548 18 542.1797024 18 535 Z" stroke-miterlimit="10" stroke-dasharray=""/></g><g><path fill="#000000" stroke="none" paint-order="stroke fill markers" d=" M 23 535 C 23 530.5817216 26.58172160000001 527 31 527 C 35.41827839999999 527 39 530.5817216 39 535 C 39 539.4182784 35.41827839999999 543 31 543 C 26.58172160000001 543 23 539.4182784 23 535 Z"/></g><g><path fill="none" stroke="#000000" paint-order="fill stroke markers" d=" M 94 404 L 38 521" stroke-miterlimit="10" stroke-dasharray=""/></g><g><path fill="none" stroke="#000000" paint-order="fill stroke markers" d=" M 38.59051341838375 510.0158617132381 L 38 521 L 46.18451471058094 513.6505973744606" stroke-miterlimit="10" stroke-dasharray=""/></g><g><path fill="none" stroke="#000000" paint-order="fill stroke markers" d=" M 170 593 L 45 541" stroke-miterlimit="10" stroke-dasharray=""/></g><g><path fill="none" stroke="#000000" paint-order="fill stroke markers" d=" M 55.999987228244294 541.0167624121965 L 45 541 L 52.76631274672374 548.7900183773902" stroke-miterlimit="10" stroke-dasharray=""/></g></g></svg>