<svg version="1.1" xmlns="http://www.w3.org/2000/svg" xmlns:xlink="http://www.w3.org/1999/xlink" width="1084" height="892"><defs/><g><g><path fill="none" stroke="#000000" paint-order="fill stroke markers" d=" M 10 10 L 1074 10 L 1074 882 L 10 882 L 10 10" stroke-miterlimit="10" stroke-dasharray=""/></g><g><path fill="#ffffff" stroke="none" paint-order="stroke fill markers" d=" M 10 10 L 10 33 L 135.05908203125 33 L 146.55908203125 21.5 L 146.55908203125 10 L 10 10"/></g><g><path fill="none" stroke="#000000" paint-order="fill stroke markers" d=" M 10 10 L 10 33 L 135.05908203125 33 L 146.55908203125 21.5 L 146.55908203125 10 L 10 10 L 10 10" stroke-miterlimit="10" stroke-dasharray=""/></g><g><g><path fill="none" stroke="none"/><text fill="#000000" stroke="none" font-family="Arial" font-size="13px" font-style="normal" font-weight="normal" text-decoration="undefined" x="144.39453125" y="19.5" text-anchor="middle" dominant-baseline="central" transform="matrix(1 0 0 1 -62 2)">顺序图-预订车票</text></g></g><g><g><path fill="none" stroke="none"/><text fill="#000000" stroke="none" font-family="Arial" font-size="13px" font-style="normal" font-weight="bold" text-decoration="undefined" x="83.864990234375" y="19.5" text-anchor="middle" dominant-baseline="central" transform="matrix(1 0 0 1 -62 2)">sd</text></g></g><g><rect fill="#C0C0C0" stroke="none" x="207" y="47" width="72.736328125" height="40" transform="matrix(1 0 0 1 -62 2)" fill-opacity="0.2"/></g><g><rect fill="#ffffff" stroke="none" x="200" y="40" width="72.736328125" height="40" transform="matrix(1 0 0 1 -62 2)"/></g><g><path fill="none" stroke="#000000" paint-order="fill stroke markers" d=" M 138 42 L 210.736328125 42 L 210.736328125 82 L 138 82 L 138 42 Z Z" stroke-miterlimit="10" stroke-dasharray=""/></g><g><g><path fill="none" stroke="none"/><text fill="#000000" stroke="none" font-family="Arial" font-size="13px" font-style="normal" font-weight="bold" text-decoration="undefined" x="236.8681640625" y="53.5" text-anchor="middle" dominant-baseline="central" transform="matrix(1 0 0 1 -62 2)">用户</text></g></g><g><path fill="none" stroke="#000000" paint-order="fill stroke markers" d=" M 174.5 83 L 174.5 865" stroke-miterlimit="10" stroke-dasharray="3"/></g><g><rect fill="#C0C0C0" stroke="none" x="367" y="47" width="72.736328125" height="40" transform="matrix(1 0 0 1 -62 2)" fill-opacity="0.2"/></g><g><rect fill="#ffffff" stroke="none" x="360" y="40" width="72.736328125" height="40" transform="matrix(1 0 0 1 -62 2)"/></g><g><path fill="none" stroke="#000000" paint-order="fill stroke markers" d=" M 298 42 L 370.736328125 42 L 370.736328125 82 L 298 82 L 298 42 Z Z" stroke-miterlimit="10" stroke-dasharray=""/></g><g><g><path fill="none" stroke="none"/><text fill="#000000" stroke="none" font-family="Arial" font-size="13px" font-style="normal" font-weight="bold" text-decoration="undefined" x="396.8681640625" y="53.5" text-anchor="middle" dominant-baseline="central" transform="matrix(1 0 0 1 -62 2)">前端</text></g></g><g><path fill="none" stroke="#000000" paint-order="fill stroke markers" d=" M 334.5 83 L 334.5 865" stroke-miterlimit="10" stroke-dasharray="3"/></g><g><rect fill="#C0C0C0" stroke="none" x="503" y="47" width="121.64501953125" height="40" transform="matrix(1 0 0 1 -62 2)" fill-opacity="0.2"/></g><g><rect fill="#ffffff" stroke="none" x="496" y="40" width="121.64501953125" height="40" transform="matrix(1 0 0 1 -62 2)"/></g><g><path fill="none" stroke="#000000" paint-order="fill stroke markers" d=" M 434 42 L 555.64501953125 42 L 555.64501953125 82 L 434 82 L 434 42 Z Z" stroke-miterlimit="10" stroke-dasharray=""/></g><g><g><path fill="none" stroke="none"/><text fill="#000000" stroke="none" font-family="Arial" font-size="13px" font-style="normal" font-weight="bold" text-decoration="undefined" x="557.322509765625" y="53.5" text-anchor="middle" dominant-baseline="central" transform="matrix(1 0 0 1 -62 2)">BookingSystem</text></g></g><g><path fill="none" stroke="#000000" paint-order="fill stroke markers" d=" M 495.5 83 L 495.5 832" stroke-miterlimit="10" stroke-dasharray="3"/></g><g><rect fill="#C0C0C0" stroke="none" x="727" y="47" width="144.7568359375" height="40" transform="matrix(1 0 0 1 -62 2)" fill-opacity="0.2"/></g><g><rect fill="#ffffff" stroke="none" x="720" y="40" width="144.7568359375" height="40" transform="matrix(1 0 0 1 -62 2)"/></g><g><path fill="none" stroke="#000000" paint-order="fill stroke markers" d=" M 658 42 L 802.7568359375 42 L 802.7568359375 82 L 658 82 L 658 42 Z Z" stroke-miterlimit="10" stroke-dasharray=""/></g><g><g><path fill="none" stroke="none"/><text fill="#000000" stroke="none" font-family="Arial" font-size="13px" font-style="normal" font-weight="bold" text-decoration="undefined" x="792.87841796875" y="53.5" text-anchor="middle" dominant-baseline="central" transform="matrix(1 0 0 1 -62 2)">PassengerManager</text></g></g><g><path fill="none" stroke="#000000" paint-order="fill stroke markers" d=" M 730.5 83 L 730.5 264" stroke-miterlimit="10" stroke-dasharray="3"/></g><g><rect fill="#C0C0C0" stroke="none" x="967" y="47" width="116.32568359375" height="40" transform="matrix(1 0 0 1 -62 2)" fill-opacity="0.2"/></g><g><rect fill="#ffffff" stroke="none" x="960" y="40" width="116.32568359375" height="40" transform="matrix(1 0 0 1 -62 2)"/></g><g><path fill="none" stroke="#000000" paint-order="fill stroke markers" d=" M 898 42 L 1014.32568359375 42 L 1014.32568359375 82 L 898 82 L 898 42 Z Z" stroke-miterlimit="10" stroke-dasharray=""/></g><g><g><path fill="none" stroke="none"/><text fill="#000000" stroke="none" font-family="Arial" font-size="13px" font-style="normal" font-weight="bold" text-decoration="undefined" x="1018.662841796875" y="53.5" text-anchor="middle" dominant-baseline="central" transform="matrix(1 0 0 1 -62 2)">OrderManager</text></g></g><g><path fill="none" stroke="#000000" paint-order="fill stroke markers" d=" M 956.5 83 L 956.5 824" stroke-miterlimit="10" stroke-dasharray="3"/></g><g><path fill="none" stroke="#000000" paint-order="fill stroke markers" d=" M 175 162 L 327 162" stroke-miterlimit="10" stroke-dasharray=""/></g><g><path fill="#000000" stroke="none" paint-order="stroke fill markers" d=" M 316.83732514237585 166.209517756016 L 327 162 L 316.83732514237585 157.790482243984"/></g><g><path fill="none" stroke="#000000" paint-order="fill stroke markers" d=" M 316.83732514237585 166.209517756016 L 327 162 L 316.83732514237585 157.790482243984 L 316.83732514237585 166.209517756016" stroke-miterlimit="10" stroke-dasharray=""/></g><g><rect fill="#ffffff" stroke="none" x="274" y="144" width="78.04443359375" height="13" transform="matrix(1 0 0 1 -62 2)"/></g><g><g><path fill="none" stroke="none"/><text fill="#000000" stroke="none" font-family="Arial" font-size="13px" font-style="normal" font-weight="normal" text-decoration="undefined" x="313.022216796875" y="150.5" text-anchor="middle" dominant-baseline="central" transform="matrix(1 0 0 1 -62 2)">1 : 点击预定</text></g></g><g><rect fill="#ffffff" stroke="none" x="389" y="160" width="14" height="296" transform="matrix(1 0 0 1 -62 2)"/></g><g><path fill="none" stroke="#000000" paint-order="fill stroke markers" d=" M 327 162 L 341 162 L 341 458 L 327 458 L 327 162 Z Z" stroke-miterlimit="10" stroke-dasharray=""/></g><g><path fill="none" stroke="#000000" paint-order="fill stroke markers" d=" M 341 178 L 488 178" stroke-miterlimit="10" stroke-dasharray=""/></g><g><path fill="#000000" stroke="none" paint-order="stroke fill markers" d=" M 477.8373251423759 182.209517756016 L 488 178 L 477.8373251423758 173.790482243984"/></g><g><path fill="none" stroke="#000000" paint-order="fill stroke markers" d=" M 477.8373251423759 182.209517756016 L 488 178 L 477.8373251423758 173.790482243984 L 477.8373251423759 182.209517756016" stroke-miterlimit="10" stroke-dasharray=""/></g><g><rect fill="#ffffff" stroke="none" x="410" y="160" width="132.63427734375" height="13" transform="matrix(1 0 0 1 -62 2)"/></g><g><g><path fill="none" stroke="none"/><text fill="#000000" stroke="none" font-family="Arial" font-size="13px" font-style="normal" font-weight="normal" text-decoration="undefined" x="476.317138671875" y="166.5" text-anchor="middle" dominant-baseline="central" transform="matrix(1 0 0 1 -62 2)">2 : getPassengers_api</text></g></g><g><rect fill="#ffffff" stroke="none" x="550" y="176" width="14" height="232" transform="matrix(1 0 0 1 -62 2)"/></g><g><path fill="none" stroke="#000000" paint-order="fill stroke markers" d=" M 488 178 L 502 178 L 502 410 L 488 410 L 488 178 Z Z" stroke-miterlimit="10" stroke-dasharray=""/></g><g><path fill="none" stroke="#000000" paint-order="fill stroke markers" d=" M 502 194 L 723 194" stroke-miterlimit="10" stroke-dasharray=""/></g><g><path fill="#000000" stroke="none" paint-order="stroke fill markers" d=" M 712.8373251423759 198.209517756016 L 723 194 L 712.8373251423758 189.790482243984"/></g><g><path fill="none" stroke="#000000" paint-order="fill stroke markers" d=" M 712.8373251423759 198.209517756016 L 723 194 L 712.8373251423758 189.790482243984 L 712.8373251423759 198.209517756016" stroke-miterlimit="10" stroke-dasharray=""/></g><g><rect fill="#ffffff" stroke="none" x="582" y="176" width="185.68798828125" height="13" transform="matrix(1 0 0 1 -62 2)"/></g><g><g><path fill="none" stroke="none"/><text fill="#000000" stroke="none" font-family="Arial" font-size="13px" font-style="normal" font-weight="normal" text-decoration="undefined" x="674.843994140625" y="182.5" text-anchor="middle" dominant-baseline="central" transform="matrix(1 0 0 1 -62 2)">3 : getPassengersByUsername</text></g></g><g><rect fill="#ffffff" stroke="none" x="785" y="192" width="14" height="56" transform="matrix(1 0 0 1 -62 2)"/></g><g><path fill="none" stroke="#000000" paint-order="fill stroke markers" d=" M 723 194 L 737 194 L 737 250 L 723 250 L 723 194 Z Z" stroke-miterlimit="10" stroke-dasharray=""/></g><g><path fill="none" stroke="#000000" paint-order="fill stroke markers" d=" M 723 212 L 502 212" stroke-miterlimit="10" stroke-dasharray="3"/></g><g><path fill="none" stroke="#000000" paint-order="fill stroke markers" d=" M 512.1626748576241 207.790482243984 L 502 212 L 512.1626748576241 216.209517756016" stroke-miterlimit="10" stroke-dasharray=""/></g><g><rect fill="#ffffff" stroke="none" x="599" y="214" width="148.4462890625" height="13" transform="matrix(1 0 0 1 -62 2)"/></g><g><g><path fill="none" stroke="none"/><text fill="#000000" stroke="none" font-family="Arial" font-size="13px" font-style="normal" font-weight="normal" text-decoration="undefined" x="673.22314453125" y="220.5" text-anchor="middle" dominant-baseline="central" transform="matrix(1 0 0 1 -62 2)">4 : 该用户所有乘车人信息</text></g></g><g><path fill="none" stroke="#000000" paint-order="fill stroke markers" d=" M 502 306 L 949 306" stroke-miterlimit="10" stroke-dasharray=""/></g><g><path fill="#000000" stroke="none" paint-order="stroke fill markers" d=" M 938.8373251423759 310.209517756016 L 949 306 L 938.8373251423758 301.790482243984"/></g><g><path fill="none" stroke="#000000" paint-order="fill stroke markers" d=" M 938.8373251423759 310.209517756016 L 949 306 L 938.8373251423758 301.790482243984 L 938.8373251423759 310.209517756016" stroke-miterlimit="10" stroke-dasharray=""/></g><g><rect fill="#ffffff" stroke="none" x="714" y="288" width="146.5419921875" height="13" transform="matrix(1 0 0 1 -62 2)"/></g><g><g><path fill="none" stroke="none"/><text fill="#000000" stroke="none" font-family="Arial" font-size="13px" font-style="normal" font-weight="normal" text-decoration="undefined" x="787.27099609375" y="294.5" text-anchor="middle" dominant-baseline="central" transform="matrix(1 0 0 1 -62 2)">5 : isPassengerAvailable</text></g></g><g><rect fill="#ffffff" stroke="none" x="1011" y="304" width="14" height="32" transform="matrix(1 0 0 1 -62 2)"/></g><g><path fill="none" stroke="#000000" paint-order="fill stroke markers" d=" M 949 306 L 963 306 L 963 338 L 949 338 L 949 306 Z Z" stroke-miterlimit="10" stroke-dasharray=""/></g><g><path fill="none" stroke="#000000" paint-order="fill stroke markers" d=" M 949 330 L 502 330" stroke-miterlimit="10" stroke-dasharray="3"/></g><g><path fill="none" stroke="#000000" paint-order="fill stroke markers" d=" M 512.1626748576241 325.790482243984 L 502 330 L 512.1626748576241 334.209517756016" stroke-miterlimit="10" stroke-dasharray=""/></g><g><rect fill="#ffffff" stroke="none" x="725" y="332" width="122.4462890625" height="13" transform="matrix(1 0 0 1 -62 2)"/></g><g><g><path fill="none" stroke="none"/><text fill="#000000" stroke="none" font-family="Arial" font-size="13px" font-style="normal" font-weight="normal" text-decoration="undefined" x="786.22314453125" y="338.5" text-anchor="middle" dominant-baseline="central" transform="matrix(1 0 0 1 -62 2)">6 : 该乘车人是否空闲</text></g></g><g><path fill="none" stroke="#000000" paint-order="fill stroke markers" d=" M 488 388 L 341 388" stroke-miterlimit="10" stroke-dasharray="3"/></g><g><path fill="none" stroke="#000000" paint-order="fill stroke markers" d=" M 351.16267485762415 383.790482243984 L 341 388 L 351.16267485762415 392.209517756016" stroke-miterlimit="10" stroke-dasharray=""/></g><g><rect fill="#ffffff" stroke="none" x="434" y="390" width="83.4462890625" height="13" transform="matrix(1 0 0 1 -62 2)"/></g><g><g><path fill="none" stroke="none"/><text fill="#000000" stroke="none" font-family="Arial" font-size="13px" font-style="normal" font-weight="normal" text-decoration="undefined" x="475.72314453125" y="396.5" text-anchor="middle" dominant-baseline="central" transform="matrix(1 0 0 1 -62 2)">7 : 乘车人信息</text></g></g><g><path fill="none" stroke="#000000" paint-order="fill stroke markers" d=" M 327 418 L 175 418" stroke-miterlimit="10" stroke-dasharray="3"/></g><g><path fill="none" stroke="#000000" paint-order="fill stroke markers" d=" M 185.16267485762415 413.790482243984 L 175 418 L 185.16267485762415 422.209517756016" stroke-miterlimit="10" stroke-dasharray=""/></g><g><rect fill="#ffffff" stroke="none" x="199" y="420" width="226.4462890625" height="13" transform="matrix(1 0 0 1 -62 2)"/></g><g><g><path fill="none" stroke="none"/><text fill="#000000" stroke="none" font-family="Arial" font-size="13px" font-style="normal" font-weight="normal" text-decoration="undefined" x="312.22314453125" y="426.5" text-anchor="middle" dominant-baseline="central" transform="matrix(1 0 0 1 -62 2)">8 : 显示乘车人及空闲情况，由用户选择</text></g></g><g><path fill="none" stroke="#000000" paint-order="fill stroke markers" d=" M 175 498 L 327 498" stroke-miterlimit="10" stroke-dasharray=""/></g><g><path fill="#000000" stroke="none" paint-order="stroke fill markers" d=" M 316.83732514237585 502.209517756016 L 327 498 L 316.83732514237585 493.790482243984"/></g><g><path fill="none" stroke="#000000" paint-order="fill stroke markers" d=" M 316.83732514237585 502.209517756016 L 327 498 L 316.83732514237585 493.790482243984 L 316.83732514237585 502.209517756016" stroke-miterlimit="10" stroke-dasharray=""/></g><g><rect fill="#ffffff" stroke="none" x="233" y="480" width="161.4462890625" height="13" transform="matrix(1 0 0 1 -62 2)"/></g><g><g><path fill="none" stroke="none"/><text fill="#000000" stroke="none" font-family="Arial" font-size="13px" font-style="normal" font-weight="normal" text-decoration="undefined" x="313.72314453125" y="486.5" text-anchor="middle" dominant-baseline="central" transform="matrix(1 0 0 1 -62 2)">9 : 选择乘车人，并点击提交</text></g></g><g><rect fill="#ffffff" stroke="none" x="389" y="496" width="14" height="324" transform="matrix(1 0 0 1 -62 2)"/></g><g><path fill="none" stroke="#000000" paint-order="fill stroke markers" d=" M 327 498 L 341 498 L 341 822 L 327 822 L 327 498 Z Z" stroke-miterlimit="10" stroke-dasharray=""/></g><g><path fill="none" stroke="#000000" paint-order="fill stroke markers" d=" M 341 546 L 488 546" stroke-miterlimit="10" stroke-dasharray=""/></g><g><path fill="#000000" stroke="none" paint-order="stroke fill markers" d=" M 477.8373251423759 550.209517756016 L 488 546 L 477.8373251423758 541.790482243984"/></g><g><path fill="none" stroke="#000000" paint-order="fill stroke markers" d=" M 477.8373251423759 550.209517756016 L 488 546 L 477.8373251423758 541.790482243984 L 477.8373251423759 550.209517756016" stroke-miterlimit="10" stroke-dasharray=""/></g><g><rect fill="#ffffff" stroke="none" x="414" y="528" width="124.845703125" height="13" transform="matrix(1 0 0 1 -62 2)"/></g><g><g><path fill="none" stroke="none"/><text fill="#000000" stroke="none" font-family="Arial" font-size="13px" font-style="normal" font-weight="normal" text-decoration="undefined" x="476.4228515625" y="534.5" text-anchor="middle" dominant-baseline="central" transform="matrix(1 0 0 1 -62 2)">10 : createOrder_api</text></g></g><g><rect fill="#ffffff" stroke="none" x="550" y="544" width="14" height="272" transform="matrix(1 0 0 1 -62 2)"/></g><g><path fill="none" stroke="#000000" paint-order="fill stroke markers" d=" M 488 546 L 502 546 L 502 818 L 488 818 L 488 546 Z Z" stroke-miterlimit="10" stroke-dasharray=""/></g><g><path fill="none" stroke="#000000" paint-order="fill stroke markers" d=" M 502 562 L 949 562" stroke-miterlimit="10" stroke-dasharray=""/></g><g><path fill="#000000" stroke="none" paint-order="stroke fill markers" d=" M 938.8373251423759 566.209517756016 L 949 562 L 938.8373251423758 557.790482243984"/></g><g><path fill="none" stroke="#000000" paint-order="fill stroke markers" d=" M 938.8373251423759 566.209517756016 L 949 562 L 938.8373251423758 557.790482243984 L 938.8373251423759 566.209517756016" stroke-miterlimit="10" stroke-dasharray=""/></g><g><rect fill="#ffffff" stroke="none" x="702" y="544" width="170.015625" height="13" transform="matrix(1 0 0 1 -62 2)"/></g><g><g><path fill="none" stroke="none"/><text fill="#000000" stroke="none" font-family="Arial" font-size="13px" font-style="normal" font-weight="normal" text-decoration="undefined" x="787.0078125" y="550.5" text-anchor="middle" dominant-baseline="central" transform="matrix(1 0 0 1 -62 2)">11 : getUnavailableSeatInfo</text></g></g><g><rect fill="#ffffff" stroke="none" x="1011" y="560" width="14" height="56" transform="matrix(1 0 0 1 -62 2)"/></g><g><path fill="none" stroke="#000000" paint-order="fill stroke markers" d=" M 949 562 L 963 562 L 963 618 L 949 618 L 949 562 Z Z" stroke-miterlimit="10" stroke-dasharray=""/></g><g><path fill="none" stroke="#000000" paint-order="fill stroke markers" d=" M 949 578 L 502 578" stroke-miterlimit="10" stroke-dasharray="3"/></g><g><path fill="none" stroke="#000000" paint-order="fill stroke markers" d=" M 512.1626748576241 573.790482243984 L 502 578 L 512.1626748576241 582.209517756016" stroke-miterlimit="10" stroke-dasharray=""/></g><g><rect fill="#ffffff" stroke="none" x="708" y="580" width="156.06982421875" height="13" transform="matrix(1 0 0 1 -62 2)"/></g><g><g><path fill="none" stroke="none"/><text fill="#000000" stroke="none" font-family="Arial" font-size="13px" font-style="normal" font-weight="normal" text-decoration="undefined" x="786.034912109375" y="586.5" text-anchor="middle" dominant-baseline="central" transform="matrix(1 0 0 1 -62 2)">12 : 获取被占用的座位信息</text></g></g><g><path fill="none" stroke="#000000" paint-order="fill stroke markers" d=" M 502 594 L 532 594 L 532 614 L 509 614" stroke-miterlimit="10" stroke-dasharray=""/></g><g><path fill="#000000" stroke="none" paint-order="stroke fill markers" d=" M 519.1626748576241 609.790482243984 L 509 614 L 519.1626748576241 618.209517756016"/></g><g><path fill="none" stroke="#000000" paint-order="fill stroke markers" d=" M 519.1626748576241 609.790482243984 L 509 614 L 519.1626748576241 618.209517756016 L 519.1626748576241 609.790482243984" stroke-miterlimit="10" stroke-dasharray=""/></g><g><rect fill="#ffffff" stroke="none" x="532" y="595" width="143.06982421875" height="13" transform="matrix(1 0 0 1 -62 2)"/></g><g><g><path fill="none" stroke="none"/><text fill="#000000" stroke="none" font-family="Arial" font-size="13px" font-style="normal" font-weight="normal" text-decoration="undefined" x="603.534912109375" y="601.5" text-anchor="middle" dominant-baseline="central" transform="matrix(1 0 0 1 -62 2)">13 : 标记哪些座位被占用</text></g></g><g><rect fill="#ffffff" stroke="none" x="557" y="612" width="14" height="28" transform="matrix(1 0 0 1 -62 2)"/></g><g><path fill="none" stroke="#000000" paint-order="fill stroke markers" d=" M 495 614 L 509 614 L 509 642 L 495 642 L 495 614 Z Z" stroke-miterlimit="10" stroke-dasharray=""/></g><g><path fill="none" stroke="#000000" paint-order="fill stroke markers" d=" M 502 650 L 532 650 L 532 670 L 509 670" stroke-miterlimit="10" stroke-dasharray=""/></g><g><path fill="#000000" stroke="none" paint-order="stroke fill markers" d=" M 519.1626748576241 665.790482243984 L 509 670 L 519.1626748576241 674.209517756016"/></g><g><path fill="none" stroke="#000000" paint-order="fill stroke markers" d=" M 519.1626748576241 665.790482243984 L 509 670 L 519.1626748576241 674.209517756016 L 519.1626748576241 665.790482243984" stroke-miterlimit="10" stroke-dasharray=""/></g><g><rect fill="#ffffff" stroke="none" x="447" y="651" width="312.06982421875" height="13" transform="matrix(1 0 0 1 -62 2)"/></g><g><g><path fill="none" stroke="none"/><text fill="#000000" stroke="none" font-family="Arial" font-size="13px" font-style="normal" font-weight="normal" text-decoration="undefined" x="603.034912109375" y="657.5" text-anchor="middle" dominant-baseline="central" transform="matrix(1 0 0 1 -62 2)">14 : 从小到达遍历座位，首次适配法分配该订单座位号</text></g></g><g><rect fill="#ffffff" stroke="none" x="557" y="668" width="14" height="28" transform="matrix(1 0 0 1 -62 2)"/></g><g><path fill="none" stroke="#000000" paint-order="fill stroke markers" d=" M 495 670 L 509 670 L 509 698 L 495 698 L 495 670 Z Z" stroke-miterlimit="10" stroke-dasharray=""/></g><g><path fill="none" stroke="#000000" paint-order="fill stroke markers" d=" M 502 714 L 532 714 L 532 734 L 509 734" stroke-miterlimit="10" stroke-dasharray=""/></g><g><path fill="#000000" stroke="none" paint-order="stroke fill markers" d=" M 519.1626748576241 729.790482243984 L 509 734 L 519.1626748576241 738.209517756016"/></g><g><path fill="none" stroke="#000000" paint-order="fill stroke markers" d=" M 519.1626748576241 729.790482243984 L 509 734 L 519.1626748576241 738.209517756016 L 519.1626748576241 729.790482243984" stroke-miterlimit="10" stroke-dasharray=""/></g><g><rect fill="#ffffff" stroke="none" x="561" y="715" width="85.2744140625" height="13" transform="matrix(1 0 0 1 -62 2)"/></g><g><g><path fill="none" stroke="none"/><text fill="#000000" stroke="none" font-family="Arial" font-size="13px" font-style="normal" font-weight="normal" text-decoration="undefined" x="603.63720703125" y="721.5" text-anchor="middle" dominant-baseline="central" transform="matrix(1 0 0 1 -62 2)">15 : 计算票价</text></g></g><g><rect fill="#ffffff" stroke="none" x="557" y="732" width="14" height="28" transform="matrix(1 0 0 1 -62 2)"/></g><g><path fill="none" stroke="#000000" paint-order="fill stroke markers" d=" M 495 734 L 509 734 L 509 762 L 495 762 L 495 734 Z Z" stroke-miterlimit="10" stroke-dasharray=""/></g><g><path fill="none" stroke="#000000" paint-order="fill stroke markers" d=" M 502 770 L 949 770" stroke-miterlimit="10" stroke-dasharray=""/></g><g><path fill="#000000" stroke="none" paint-order="stroke fill markers" d=" M 938.8373251423759 774.209517756016 L 949 770 L 938.8373251423758 765.790482243984"/></g><g><path fill="none" stroke="#000000" paint-order="fill stroke markers" d=" M 938.8373251423759 774.209517756016 L 949 770 L 938.8373251423758 765.790482243984 L 938.8373251423759 774.209517756016" stroke-miterlimit="10" stroke-dasharray=""/></g><g><rect fill="#ffffff" stroke="none" x="737" y="752" width="100.07080078125" height="13" transform="matrix(1 0 0 1 -62 2)"/></g><g><g><path fill="none" stroke="none"/><text fill="#000000" stroke="none" font-family="Arial" font-size="13px" font-style="normal" font-weight="normal" text-decoration="undefined" x="787.035400390625" y="758.5" text-anchor="middle" dominant-baseline="central" transform="matrix(1 0 0 1 -62 2)">16 : createOrder</text></g></g><g><rect fill="#ffffff" stroke="none" x="1011" y="768" width="14" height="40" transform="matrix(1 0 0 1 -62 2)"/></g><g><path fill="none" stroke="#000000" paint-order="fill stroke markers" d=" M 949 770 L 963 770 L 963 810 L 949 810 L 949 770 Z Z" stroke-miterlimit="10" stroke-dasharray=""/></g><g><path fill="none" stroke="#000000" paint-order="fill stroke markers" d=" M 488 788 L 341 788" stroke-miterlimit="10" stroke-dasharray="3"/></g><g><path fill="none" stroke="#000000" paint-order="fill stroke markers" d=" M 351.16267485762415 783.790482243984 L 341 788 L 351.16267485762415 792.209517756016" stroke-miterlimit="10" stroke-dasharray=""/></g><g><rect fill="#ffffff" stroke="none" x="436" y="790" width="78.06982421875" height="13" transform="matrix(1 0 0 1 -62 2)"/></g><g><g><path fill="none" stroke="none"/><text fill="#000000" stroke="none" font-family="Arial" font-size="13px" font-style="normal" font-weight="normal" text-decoration="undefined" x="475.034912109375" y="796.5" text-anchor="middle" dominant-baseline="central" transform="matrix(1 0 0 1 -62 2)">17 : 创建成功</text></g></g><g><path fill="none" stroke="#000000" paint-order="fill stroke markers" d=" M 334 833 L 175 833" stroke-miterlimit="10" stroke-dasharray="3"/></g><g><path fill="none" stroke="#000000" paint-order="fill stroke markers" d=" M 185.16267485762415 828.790482243984 L 175 833 L 185.16267485762415 837.209517756016" stroke-miterlimit="10" stroke-dasharray=""/></g><g><rect fill="#ffffff" stroke="none" x="276" y="835" width="78.06982421875" height="13" transform="matrix(1 0 0 1 -62 2)"/></g><g><g><path fill="none" stroke="none"/><text fill="#000000" stroke="none" font-family="Arial" font-size="13px" font-style="normal" font-weight="normal" text-decoration="undefined" x="315.034912109375" y="841.5" text-anchor="middle" dominant-baseline="central" transform="matrix(1 0 0 1 -62 2)">18 : 预订成功</text></g></g><g><path fill="none" stroke="#000000" paint-order="fill stroke markers" d=" M 442 274 L 1026 274 L 1026 362 L 442 362 L 442 274" stroke-miterlimit="10" stroke-dasharray=""/></g><g><path fill="#ffffff" stroke="none" paint-order="stroke fill markers" d=" M 442 274 L 442 297 L 569.9599609375 297 L 581.4599609375 285.5 L 581.4599609375 274 L 442 274"/></g><g><path fill="none" stroke="#000000" paint-order="fill stroke markers" d=" M 442 274 L 442 297 L 569.9599609375 297 L 581.4599609375 285.5 L 581.4599609375 274 L 442 274 L 442 274" stroke-miterlimit="10" stroke-dasharray=""/></g><g><g><path fill="none" stroke="none"/><text fill="#000000" stroke="none" font-family="Arial" font-size="13px" font-style="normal" font-weight="normal" text-decoration="undefined" x="581.4599609375" y="283.5" text-anchor="middle" dominant-baseline="central" transform="matrix(1 0 0 1 -62 2)">对于每个乘车人</text></g></g><g><g><path fill="none" stroke="none"/><text fill="#000000" stroke="none" font-family="Arial" font-size="13px" font-style="normal" font-weight="bold" text-decoration="undefined" x="519.47998046875" y="283.5" text-anchor="middle" dominant-baseline="central" transform="matrix(1 0 0 1 -62 2)">seq</text></g></g><g><path fill="none" stroke="#000000" paint-order="fill stroke markers" d=" M 290 506 L 1010 506 L 1010 826 L 290 826 L 290 506" stroke-miterlimit="10" stroke-dasharray=""/></g><g><path fill="#ffffff" stroke="none" paint-order="stroke fill markers" d=" M 290 506 L 290 529 L 443.9599609375 529 L 455.4599609375 517.5 L 455.4599609375 506 L 290 506"/></g><g><path fill="none" stroke="#000000" paint-order="fill stroke markers" d=" M 290 506 L 290 529 L 443.9599609375 529 L 455.4599609375 517.5 L 455.4599609375 506 L 290 506 L 290 506" stroke-miterlimit="10" stroke-dasharray=""/></g><g><g><path fill="none" stroke="none"/><text fill="#000000" stroke="none" font-family="Arial" font-size="13px" font-style="normal" font-weight="normal" text-decoration="undefined" x="442.4599609375" y="515.5" text-anchor="middle" dominant-baseline="central" transform="matrix(1 0 0 1 -62 2)">对于每个待提交订单</text></g></g><g><g><path fill="none" stroke="none"/><text fill="#000000" stroke="none" font-family="Arial" font-size="13px" font-style="normal" font-weight="bold" text-decoration="undefined" x="367.47998046875" y="515.5" text-anchor="middle" dominant-baseline="central" transform="matrix(1 0 0 1 -62 2)">seq</text></g></g></g></svg>