<svg version="1.1" xmlns="http://www.w3.org/2000/svg" xmlns:xlink="http://www.w3.org/1999/xlink" width="692" height="492"><defs/><g><g><path fill="none" stroke="#000000" paint-order="fill stroke markers" d=" M 10 10 L 682 10 L 682 482 L 10 482 L 10 10" stroke-miterlimit="10" stroke-dasharray=""/></g><g><path fill="#ffffff" stroke="none" paint-order="stroke fill markers" d=" M 10 10 L 10 33 L 135.05908203125 33 L 146.55908203125 21.5 L 146.55908203125 10 L 10 10"/></g><g><path fill="none" stroke="#000000" paint-order="fill stroke markers" d=" M 10 10 L 10 33 L 135.05908203125 33 L 146.55908203125 21.5 L 146.55908203125 10 L 10 10 L 10 10" stroke-miterlimit="10" stroke-dasharray=""/></g><g><g><path fill="none" stroke="none"/><text fill="#000000" stroke="none" font-family="Arial" font-size="13px" font-style="normal" font-weight="normal" text-decoration="undefined" x="152.39453125" y="19.5" text-anchor="middle" dominant-baseline="central" transform="matrix(1 0 0 1 -70 2)">顺序图-我的订单</text></g></g><g><g><path fill="none" stroke="none"/><text fill="#000000" stroke="none" font-family="Arial" font-size="13px" font-style="normal" font-weight="bold" text-decoration="undefined" x="91.864990234375" y="19.5" text-anchor="middle" dominant-baseline="central" transform="matrix(1 0 0 1 -70 2)">sd</text></g></g><g><rect fill="#C0C0C0" stroke="none" x="135" y="47" width="72.736328125" height="40" transform="matrix(1 0 0 1 -70 2)" fill-opacity="0.2"/></g><g><rect fill="#ffffff" stroke="none" x="128" y="40" width="72.736328125" height="40" transform="matrix(1 0 0 1 -70 2)"/></g><g><path fill="none" stroke="#000000" paint-order="fill stroke markers" d=" M 58 42 L 130.736328125 42 L 130.736328125 82 L 58 82 L 58 42 Z Z" stroke-miterlimit="10" stroke-dasharray=""/></g><g><g><path fill="none" stroke="none"/><text fill="#000000" stroke="none" font-family="Arial" font-size="13px" font-style="normal" font-weight="bold" text-decoration="undefined" x="164.8681640625" y="53.5" text-anchor="middle" dominant-baseline="central" transform="matrix(1 0 0 1 -70 2)">用户</text></g></g><g><path fill="none" stroke="#000000" paint-order="fill stroke markers" d=" M 94.5 83 L 94.5 440" stroke-miterlimit="10" stroke-dasharray="3"/></g><g><rect fill="#C0C0C0" stroke="none" x="295" y="47" width="72.736328125" height="40" transform="matrix(1 0 0 1 -70 2)" fill-opacity="0.2"/></g><g><rect fill="#ffffff" stroke="none" x="288" y="40" width="72.736328125" height="40" transform="matrix(1 0 0 1 -70 2)"/></g><g><path fill="none" stroke="#000000" paint-order="fill stroke markers" d=" M 218 42 L 290.736328125 42 L 290.736328125 82 L 218 82 L 218 42 Z Z" stroke-miterlimit="10" stroke-dasharray=""/></g><g><g><path fill="none" stroke="none"/><text fill="#000000" stroke="none" font-family="Arial" font-size="13px" font-style="normal" font-weight="bold" text-decoration="undefined" x="324.8681640625" y="53.5" text-anchor="middle" dominant-baseline="central" transform="matrix(1 0 0 1 -70 2)">前端</text></g></g><g><path fill="none" stroke="#000000" paint-order="fill stroke markers" d=" M 254.5 83 L 254.5 440" stroke-miterlimit="10" stroke-dasharray="3"/></g><g><rect fill="#C0C0C0" stroke="none" x="575" y="47" width="116.32568359375" height="40" transform="matrix(1 0 0 1 -70 2)" fill-opacity="0.2"/></g><g><rect fill="#ffffff" stroke="none" x="568" y="40" width="116.32568359375" height="40" transform="matrix(1 0 0 1 -70 2)"/></g><g><path fill="none" stroke="#000000" paint-order="fill stroke markers" d=" M 498 42 L 614.32568359375 42 L 614.32568359375 82 L 498 82 L 498 42 Z Z" stroke-miterlimit="10" stroke-dasharray=""/></g><g><g><path fill="none" stroke="none"/><text fill="#000000" stroke="none" font-family="Arial" font-size="13px" font-style="normal" font-weight="bold" text-decoration="undefined" x="626.662841796875" y="53.5" text-anchor="middle" dominant-baseline="central" transform="matrix(1 0 0 1 -70 2)">OrderManager</text></g></g><g><path fill="none" stroke="#000000" paint-order="fill stroke markers" d=" M 556.5 83 L 556.5 418" stroke-miterlimit="10" stroke-dasharray="3"/></g><g><path fill="none" stroke="#000000" paint-order="fill stroke markers" d=" M 95 114 L 247 114" stroke-miterlimit="10" stroke-dasharray=""/></g><g><path fill="#000000" stroke="none" paint-order="stroke fill markers" d=" M 236.83732514237585 118.20951775601598 L 247 114 L 236.83732514237585 109.79048224398402"/></g><g><path fill="none" stroke="#000000" paint-order="fill stroke markers" d=" M 236.83732514237585 118.20951775601598 L 247 114 L 236.83732514237585 109.79048224398402 L 236.83732514237585 118.20951775601598" stroke-miterlimit="10" stroke-dasharray=""/></g><g><rect fill="#ffffff" stroke="none" x="180" y="96" width="122.4462890625" height="13" transform="matrix(1 0 0 1 -70 2)"/></g><g><g><path fill="none" stroke="none"/><text fill="#000000" stroke="none" font-family="Arial" font-size="13px" font-style="normal" font-weight="normal" text-decoration="undefined" x="241.22314453125" y="102.5" text-anchor="middle" dominant-baseline="central" transform="matrix(1 0 0 1 -70 2)">1 : 点击“我的订单”</text></g></g><g><rect fill="#ffffff" stroke="none" x="317" y="112" width="14" height="288" transform="matrix(1 0 0 1 -70 2)"/></g><g><path fill="none" stroke="#000000" paint-order="fill stroke markers" d=" M 247 114 L 261 114 L 261 402 L 247 402 L 247 114 Z Z" stroke-miterlimit="10" stroke-dasharray=""/></g><g><path fill="none" stroke="#000000" paint-order="fill stroke markers" d=" M 261 130 L 291 130 L 291 150 L 268 150" stroke-miterlimit="10" stroke-dasharray=""/></g><g><path fill="#000000" stroke="none" paint-order="stroke fill markers" d=" M 278.16267485762415 145.790482243984 L 268 150 L 278.16267485762415 154.209517756016"/></g><g><path fill="none" stroke="#000000" paint-order="fill stroke markers" d=" M 278.16267485762415 145.790482243984 L 268 150 L 278.16267485762415 154.209517756016 L 278.16267485762415 145.790482243984" stroke-miterlimit="10" stroke-dasharray=""/></g><g><rect fill="#ffffff" stroke="none" x="257" y="131" width="226.28759765625" height="13" transform="matrix(1 0 0 1 -70 2)"/></g><g><g><path fill="none" stroke="none"/><text fill="#000000" stroke="none" font-family="Arial" font-size="13px" font-style="normal" font-weight="normal" text-decoration="undefined" x="370.143798828125" y="137.5" text-anchor="middle" dominant-baseline="central" transform="matrix(1 0 0 1 -70 2)">2 : 从SessionState获取当前登录用户名</text></g></g><g><rect fill="#ffffff" stroke="none" x="324" y="148" width="14" height="28" transform="matrix(1 0 0 1 -70 2)"/></g><g><path fill="none" stroke="#000000" paint-order="fill stroke markers" d=" M 254 150 L 268 150 L 268 178 L 254 178 L 254 150 Z Z" stroke-miterlimit="10" stroke-dasharray=""/></g><g><path fill="none" stroke="#000000" paint-order="fill stroke markers" d=" M 261 202 L 549 202" stroke-miterlimit="10" stroke-dasharray=""/></g><g><path fill="#000000" stroke="none" paint-order="stroke fill markers" d=" M 538.8373251423759 206.209517756016 L 549 202 L 538.8373251423758 197.790482243984"/></g><g><path fill="none" stroke="#000000" paint-order="fill stroke markers" d=" M 538.8373251423759 206.209517756016 L 549 202 L 538.8373251423758 197.790482243984 L 538.8373251423759 206.209517756016" stroke-miterlimit="10" stroke-dasharray=""/></g><g><rect fill="#ffffff" stroke="none" x="384" y="184" width="183.7265625" height="13" transform="matrix(1 0 0 1 -70 2)"/></g><g><g><path fill="none" stroke="none"/><text fill="#000000" stroke="none" font-family="Arial" font-size="13px" font-style="normal" font-weight="normal" text-decoration="undefined" x="475.86328125" y="190.5" text-anchor="middle" dominant-baseline="central" transform="matrix(1 0 0 1 -70 2)">3 : getOrdersByUsername_api</text></g></g><g><rect fill="#ffffff" stroke="none" x="619" y="200" width="14" height="112" transform="matrix(1 0 0 1 -70 2)"/></g><g><path fill="none" stroke="#000000" paint-order="fill stroke markers" d=" M 549 202 L 563 202 L 563 314 L 549 314 L 549 202 Z Z" stroke-miterlimit="10" stroke-dasharray=""/></g><g><path fill="none" stroke="#000000" paint-order="fill stroke markers" d=" M 563 218 L 593 218 L 593 238 L 570 238" stroke-miterlimit="10" stroke-dasharray=""/></g><g><path fill="#000000" stroke="none" paint-order="stroke fill markers" d=" M 580.1626748576241 233.790482243984 L 570 238 L 580.1626748576241 242.209517756016"/></g><g><path fill="none" stroke="#000000" paint-order="fill stroke markers" d=" M 580.1626748576241 233.790482243984 L 570 238 L 580.1626748576241 242.209517756016 L 580.1626748576241 233.790482243984" stroke-miterlimit="10" stroke-dasharray=""/></g><g><rect fill="#ffffff" stroke="none" x="605" y="219" width="135.4462890625" height="13" transform="matrix(1 0 0 1 -70 2)"/></g><g><g><path fill="none" stroke="none"/><text fill="#000000" stroke="none" font-family="Arial" font-size="13px" font-style="normal" font-weight="normal" text-decoration="undefined" x="672.72314453125" y="225.5" text-anchor="middle" dominant-baseline="central" transform="matrix(1 0 0 1 -70 2)">4 : 收集该用户所有订单</text></g></g><g><rect fill="#ffffff" stroke="none" x="626" y="236" width="14" height="28" transform="matrix(1 0 0 1 -70 2)"/></g><g><path fill="none" stroke="#000000" paint-order="fill stroke markers" d=" M 556 238 L 570 238 L 570 266 L 556 266 L 556 238 Z Z" stroke-miterlimit="10" stroke-dasharray=""/></g><g><path fill="none" stroke="#000000" paint-order="fill stroke markers" d=" M 549 286 L 261 286" stroke-miterlimit="10" stroke-dasharray="3"/></g><g><path fill="none" stroke="#000000" paint-order="fill stroke markers" d=" M 271.16267485762415 281.790482243984 L 261 286 L 271.16267485762415 290.209517756016" stroke-miterlimit="10" stroke-dasharray=""/></g><g><rect fill="#ffffff" stroke="none" x="445" y="288" width="58.2587890625" height="13" transform="matrix(1 0 0 1 -70 2)"/></g><g><g><path fill="none" stroke="none"/><text fill="#000000" stroke="none" font-family="Arial" font-size="13px" font-style="normal" font-weight="normal" text-decoration="undefined" x="474.12939453125" y="294.5" text-anchor="middle" dominant-baseline="central" transform="matrix(1 0 0 1 -70 2)">5 : orders</text></g></g><g><path fill="none" stroke="#000000" paint-order="fill stroke markers" d=" M 261 314 L 291 314 L 291 334 L 268 334" stroke-miterlimit="10" stroke-dasharray=""/></g><g><path fill="#000000" stroke="none" paint-order="stroke fill markers" d=" M 278.16267485762415 329.790482243984 L 268 334 L 278.16267485762415 338.209517756016"/></g><g><path fill="none" stroke="#000000" paint-order="fill stroke markers" d=" M 278.16267485762415 329.790482243984 L 268 334 L 278.16267485762415 338.209517756016 L 278.16267485762415 329.790482243984" stroke-miterlimit="10" stroke-dasharray=""/></g><g><rect fill="#ffffff" stroke="none" x="296" y="315" width="148.4462890625" height="13" transform="matrix(1 0 0 1 -70 2)"/></g><g><g><path fill="none" stroke="none"/><text fill="#000000" stroke="none" font-family="Arial" font-size="13px" font-style="normal" font-weight="normal" text-decoration="undefined" x="370.22314453125" y="321.5" text-anchor="middle" dominant-baseline="central" transform="matrix(1 0 0 1 -70 2)">6 : 根据搜索条件进行过滤</text></g></g><g><rect fill="#ffffff" stroke="none" x="324" y="332" width="14" height="28" transform="matrix(1 0 0 1 -70 2)"/></g><g><path fill="none" stroke="#000000" paint-order="fill stroke markers" d=" M 254 334 L 268 334 L 268 362 L 254 362 L 254 334 Z Z" stroke-miterlimit="10" stroke-dasharray=""/></g><g><path fill="none" stroke="#000000" paint-order="fill stroke markers" d=" M 247 380 L 95 380" stroke-miterlimit="10" stroke-dasharray="3"/></g><g><path fill="none" stroke="#000000" paint-order="fill stroke markers" d=" M 105.16267485762415 375.790482243984 L 95 380 L 105.16267485762415 384.209517756016" stroke-miterlimit="10" stroke-dasharray=""/></g><g><rect fill="#ffffff" stroke="none" x="173" y="382" width="135.4462890625" height="13" transform="matrix(1 0 0 1 -70 2)"/></g><g><g><path fill="none" stroke="none"/><text fill="#000000" stroke="none" font-family="Arial" font-size="13px" font-style="normal" font-weight="normal" text-decoration="undefined" x="240.72314453125" y="388.5" text-anchor="middle" dominant-baseline="central" transform="matrix(1 0 0 1 -70 2)">7 : 显示该用户所有订单</text></g></g></g></svg>