<svg version="1.1" xmlns="http://www.w3.org/2000/svg" xmlns:xlink="http://www.w3.org/1999/xlink" width="476" height="404"><defs/><g><g><path fill="none" stroke="#000000" paint-order="fill stroke markers" d=" M 10 10 L 466 10 L 466 394 L 10 394 L 10 10" stroke-miterlimit="10" stroke-dasharray=""/></g><g><path fill="#ffffff" stroke="none" paint-order="stroke fill markers" d=" M 10 10 L 10 33 L 135.05908203125 33 L 146.55908203125 21.5 L 146.55908203125 10 L 10 10"/></g><g><path fill="none" stroke="#000000" paint-order="fill stroke markers" d=" M 10 10 L 10 33 L 135.05908203125 33 L 146.55908203125 21.5 L 146.55908203125 10 L 10 10 L 10 10" stroke-miterlimit="10" stroke-dasharray=""/></g><g><g><path fill="none" stroke="none"/><text fill="#000000" stroke="none" font-family="Arial" font-size="13px" font-style="normal" font-weight="normal" text-decoration="undefined" x="80.39453125" y="11.5" text-anchor="middle" dominant-baseline="central" transform="matrix(1 0 0 1 2 10)">顺序图-车次管理</text></g></g><g><g><path fill="none" stroke="none"/><text fill="#000000" stroke="none" font-family="Arial" font-size="13px" font-style="normal" font-weight="bold" text-decoration="undefined" x="19.864990234375" y="11.5" text-anchor="middle" dominant-baseline="central" transform="matrix(1 0 0 1 2 10)">sd</text></g></g><g><rect fill="#C0C0C0" stroke="none" x="31" y="47" width="72.736328125" height="40" transform="matrix(1 0 0 1 2 10)" fill-opacity="0.2"/></g><g><rect fill="#ffffff" stroke="none" x="24" y="40" width="72.736328125" height="40" transform="matrix(1 0 0 1 2 10)"/></g><g><path fill="none" stroke="#000000" paint-order="fill stroke markers" d=" M 26 50 L 98.736328125 50 L 98.736328125 90 L 26 90 L 26 50 Z Z" stroke-miterlimit="10" stroke-dasharray=""/></g><g><g><path fill="none" stroke="none"/><text fill="#000000" stroke="none" font-family="Arial" font-size="13px" font-style="normal" font-weight="bold" text-decoration="undefined" x="60.8681640625" y="53.5" text-anchor="middle" dominant-baseline="central" transform="matrix(1 0 0 1 2 10)">用户</text></g></g><g><path fill="none" stroke="#000000" paint-order="fill stroke markers" d=" M 62.5 91 L 62.5 362" stroke-miterlimit="10" stroke-dasharray="3"/></g><g><rect fill="#C0C0C0" stroke="none" x="199" y="47" width="72.736328125" height="40" transform="matrix(1 0 0 1 2 10)" fill-opacity="0.2"/></g><g><rect fill="#ffffff" stroke="none" x="192" y="40" width="72.736328125" height="40" transform="matrix(1 0 0 1 2 10)"/></g><g><path fill="none" stroke="#000000" paint-order="fill stroke markers" d=" M 194 50 L 266.736328125 50 L 266.736328125 90 L 194 90 L 194 50 Z Z" stroke-miterlimit="10" stroke-dasharray=""/></g><g><g><path fill="none" stroke="none"/><text fill="#000000" stroke="none" font-family="Arial" font-size="13px" font-style="normal" font-weight="bold" text-decoration="undefined" x="228.8681640625" y="53.5" text-anchor="middle" dominant-baseline="central" transform="matrix(1 0 0 1 2 10)">前端</text></g></g><g><path fill="none" stroke="#000000" paint-order="fill stroke markers" d=" M 230.5 91 L 230.5 362" stroke-miterlimit="10" stroke-dasharray="3"/></g><g><rect fill="#C0C0C0" stroke="none" x="351" y="47" width="109.197265625" height="40" transform="matrix(1 0 0 1 2 10)" fill-opacity="0.2"/></g><g><rect fill="#ffffff" stroke="none" x="344" y="40" width="109.197265625" height="40" transform="matrix(1 0 0 1 2 10)"/></g><g><path fill="none" stroke="#000000" paint-order="fill stroke markers" d=" M 346 50 L 455.197265625 50 L 455.197265625 90 L 346 90 L 346 50 Z Z" stroke-miterlimit="10" stroke-dasharray=""/></g><g><g><path fill="none" stroke="none"/><text fill="#000000" stroke="none" font-family="Arial" font-size="13px" font-style="normal" font-weight="bold" text-decoration="undefined" x="399.0986328125" y="53.5" text-anchor="middle" dominant-baseline="central" transform="matrix(1 0 0 1 2 10)">trainManager</text></g></g><g><path fill="none" stroke="#000000" paint-order="fill stroke markers" d=" M 401.5 91 L 401.5 250" stroke-miterlimit="10" stroke-dasharray="3"/></g><g><path fill="none" stroke="#000000" paint-order="fill stroke markers" d=" M 63 128 L 223 128" stroke-miterlimit="10" stroke-dasharray=""/></g><g><path fill="#000000" stroke="none" paint-order="stroke fill markers" d=" M 212.83732514237585 132.209517756016 L 223 128 L 212.83732514237585 123.79048224398402"/></g><g><path fill="none" stroke="#000000" paint-order="fill stroke markers" d=" M 212.83732514237585 132.209517756016 L 223 128 L 212.83732514237585 123.79048224398402 L 212.83732514237585 132.209517756016" stroke-miterlimit="10" stroke-dasharray=""/></g><g><rect fill="#ffffff" stroke="none" x="67" y="102" width="148.4462890625" height="13" transform="matrix(1 0 0 1 2 10)"/></g><g><g><path fill="none" stroke="none"/><text fill="#000000" stroke="none" font-family="Arial" font-size="13px" font-style="normal" font-weight="normal" text-decoration="undefined" x="141.22314453125" y="108.5" text-anchor="middle" dominant-baseline="central" transform="matrix(1 0 0 1 2 10)">1 : 用户点击“车次管理”</text></g></g><g><rect fill="#ffffff" stroke="none" x="221" y="118" width="14" height="210" transform="matrix(1 0 0 1 2 10)"/></g><g><path fill="none" stroke="#000000" paint-order="fill stroke markers" d=" M 223 128 L 237 128 L 237 338 L 223 338 L 223 128 Z Z" stroke-miterlimit="10" stroke-dasharray=""/></g><g><path fill="none" stroke="#000000" paint-order="fill stroke markers" d=" M 237 134 L 394 134" stroke-miterlimit="10" stroke-dasharray=""/></g><g><path fill="#000000" stroke="none" paint-order="stroke fill markers" d=" M 383.83732514237585 138.209517756016 L 394 134 L 383.83732514237585 129.790482243984"/></g><g><path fill="none" stroke="#000000" paint-order="fill stroke markers" d=" M 383.83732514237585 138.209517756016 L 394 134 L 383.83732514237585 129.790482243984 L 383.83732514237585 138.209517756016" stroke-miterlimit="10" stroke-dasharray=""/></g><g><rect fill="#ffffff" stroke="none" x="264" y="108" width="99.62646484375" height="13" transform="matrix(1 0 0 1 2 10)"/></g><g><g><path fill="none" stroke="none"/><text fill="#000000" stroke="none" font-family="Arial" font-size="13px" font-style="normal" font-weight="normal" text-decoration="undefined" x="313.813232421875" y="114.5" text-anchor="middle" dominant-baseline="central" transform="matrix(1 0 0 1 2 10)">2 : getTrains_api</text></g></g><g><rect fill="#ffffff" stroke="none" x="392" y="124" width="14" height="60" transform="matrix(1 0 0 1 2 10)"/></g><g><path fill="none" stroke="#000000" paint-order="fill stroke markers" d=" M 394 134 L 408 134 L 408 194 L 394 194 L 394 134 Z Z" stroke-miterlimit="10" stroke-dasharray=""/></g><g><path fill="none" stroke="#000000" paint-order="fill stroke markers" d=" M 394 173 L 237 173" stroke-miterlimit="10" stroke-dasharray="3"/></g><g><path fill="none" stroke="#000000" paint-order="fill stroke markers" d=" M 247.16267485762415 168.790482243984 L 237 173 L 247.16267485762415 177.209517756016" stroke-miterlimit="10" stroke-dasharray=""/></g><g><rect fill="#ffffff" stroke="none" x="251" y="167" width="122.4462890625" height="13" transform="matrix(1 0 0 1 2 10)"/></g><g><g><path fill="none" stroke="none"/><text fill="#000000" stroke="none" font-family="Arial" font-size="13px" font-style="normal" font-weight="normal" text-decoration="undefined" x="312.22314453125" y="173.5" text-anchor="middle" dominant-baseline="central" transform="matrix(1 0 0 1 2 10)">3 : 返回所有列车信息</text></g></g><g><path fill="none" stroke="#000000" paint-order="fill stroke markers" d=" M 237 218 L 267 218 L 267 238 L 244 238" stroke-miterlimit="10" stroke-dasharray=""/></g><g><path fill="#000000" stroke="none" paint-order="stroke fill markers" d=" M 254.16267485762415 233.790482243984 L 244 238 L 254.16267485762415 242.209517756016"/></g><g><path fill="none" stroke="#000000" paint-order="fill stroke markers" d=" M 254.16267485762415 233.790482243984 L 244 238 L 254.16267485762415 242.209517756016 L 254.16267485762415 233.790482243984" stroke-miterlimit="10" stroke-dasharray=""/></g><g><rect fill="#ffffff" stroke="none" x="180" y="211" width="188.7919921875" height="13" transform="matrix(1 0 0 1 2 10)"/></g><g><g><path fill="none" stroke="none"/><text fill="#000000" stroke="none" font-family="Arial" font-size="13px" font-style="normal" font-weight="normal" text-decoration="undefined" x="274.39599609375" y="217.5" text-anchor="middle" dominant-baseline="central" transform="matrix(1 0 0 1 2 10)">4 : 过滤搜索条件：filterTrainList</text></g></g><g><rect fill="#ffffff" stroke="none" x="228" y="228" width="14" height="28" transform="matrix(1 0 0 1 2 10)"/></g><g><path fill="none" stroke="#000000" paint-order="fill stroke markers" d=" M 230 238 L 244 238 L 244 266 L 230 266 L 230 238 Z Z" stroke-miterlimit="10" stroke-dasharray=""/></g><g><path fill="none" stroke="#000000" paint-order="fill stroke markers" d=" M 223 310 L 63 310" stroke-miterlimit="10" stroke-dasharray="3"/></g><g><path fill="none" stroke="#000000" paint-order="fill stroke markers" d=" M 73.16267485762415 305.790482243984 L 63 310 L 73.16267485762415 314.209517756016" stroke-miterlimit="10" stroke-dasharray=""/></g><g><rect fill="#ffffff" stroke="none" x="66" y="304" width="148.4462890625" height="13" transform="matrix(1 0 0 1 2 10)"/></g><g><g><path fill="none" stroke="none"/><text fill="#000000" stroke="none" font-family="Arial" font-size="13px" font-style="normal" font-weight="normal" text-decoration="undefined" x="140.22314453125" y="310.5" text-anchor="middle" dominant-baseline="central" transform="matrix(1 0 0 1 2 10)">5 : 显示搜索到的所有列车</text></g></g></g></svg>