<svg version="1.1" xmlns="http://www.w3.org/2000/svg" xmlns:xlink="http://www.w3.org/1999/xlink" width="1060" height="660"><defs/><g><g><path fill="none" stroke="#000000" paint-order="fill stroke markers" d=" M 10 10 L 1050 10 L 1050 650 L 10 650 L 10 10" stroke-miterlimit="10" stroke-dasharray=""/></g><g><path fill="#ffffff" stroke="none" paint-order="stroke fill markers" d=" M 10 10 L 10 33 L 135.05908203125 33 L 146.55908203125 21.5 L 146.55908203125 10 L 10 10"/></g><g><path fill="none" stroke="#000000" paint-order="fill stroke markers" d=" M 10 10 L 10 33 L 135.05908203125 33 L 146.55908203125 21.5 L 146.55908203125 10 L 10 10 L 10 10" stroke-miterlimit="10" stroke-dasharray=""/></g><g><g><path fill="none" stroke="none"/><text fill="#000000" stroke="none" font-family="Arial" font-size="13px" font-style="normal" font-weight="normal" text-decoration="undefined" x="192.39453125" y="19.5" text-anchor="middle" dominant-baseline="central" transform="matrix(1 0 0 1 -110 2)">顺序图-用户注销</text></g></g><g><g><path fill="none" stroke="none"/><text fill="#000000" stroke="none" font-family="Arial" font-size="13px" font-style="normal" font-weight="bold" text-decoration="undefined" x="131.864990234375" y="19.5" text-anchor="middle" dominant-baseline="central" transform="matrix(1 0 0 1 -110 2)">sd</text></g></g><g><rect fill="#C0C0C0" stroke="none" x="175" y="47" width="72.736328125" height="40" transform="matrix(1 0 0 1 -110 2)" fill-opacity="0.2"/></g><g><rect fill="#ffffff" stroke="none" x="168" y="40" width="72.736328125" height="40" transform="matrix(1 0 0 1 -110 2)"/></g><g><path fill="none" stroke="#000000" paint-order="fill stroke markers" d=" M 58 42 L 130.736328125 42 L 130.736328125 82 L 58 82 L 58 42 Z Z" stroke-miterlimit="10" stroke-dasharray=""/></g><g><g><path fill="none" stroke="none"/><text fill="#000000" stroke="none" font-family="Arial" font-size="13px" font-style="normal" font-weight="bold" text-decoration="undefined" x="204.8681640625" y="53.5" text-anchor="middle" dominant-baseline="central" transform="matrix(1 0 0 1 -110 2)">用户</text></g></g><g><path fill="none" stroke="#000000" paint-order="fill stroke markers" d=" M 94.5 83 L 94.5 625" stroke-miterlimit="10" stroke-dasharray="3"/></g><g><rect fill="#C0C0C0" stroke="none" x="327" y="47" width="72.736328125" height="40" transform="matrix(1 0 0 1 -110 2)" fill-opacity="0.2"/></g><g><rect fill="#ffffff" stroke="none" x="320" y="40" width="72.736328125" height="40" transform="matrix(1 0 0 1 -110 2)"/></g><g><path fill="none" stroke="#000000" paint-order="fill stroke markers" d=" M 210 42 L 282.736328125 42 L 282.736328125 82 L 210 82 L 210 42 Z Z" stroke-miterlimit="10" stroke-dasharray=""/></g><g><g><path fill="none" stroke="none"/><text fill="#000000" stroke="none" font-family="Arial" font-size="13px" font-style="normal" font-weight="bold" text-decoration="undefined" x="356.8681640625" y="53.5" text-anchor="middle" dominant-baseline="central" transform="matrix(1 0 0 1 -110 2)">前端</text></g></g><g><path fill="none" stroke="#000000" paint-order="fill stroke markers" d=" M 246.5 83 L 246.5 625" stroke-miterlimit="10" stroke-dasharray="3"/></g><g><rect fill="#C0C0C0" stroke="none" x="479" y="47" width="118.24267578125" height="40" transform="matrix(1 0 0 1 -110 2)" fill-opacity="0.2"/></g><g><rect fill="#ffffff" stroke="none" x="472" y="40" width="118.24267578125" height="40" transform="matrix(1 0 0 1 -110 2)"/></g><g><path fill="none" stroke="#000000" paint-order="fill stroke markers" d=" M 362 42 L 480.24267578125 42 L 480.24267578125 82 L 362 82 L 362 42 Z Z" stroke-miterlimit="10" stroke-dasharray=""/></g><g><g><path fill="none" stroke="none"/><text fill="#000000" stroke="none" font-family="Arial" font-size="13px" font-style="normal" font-weight="bold" text-decoration="undefined" x="531.621337890625" y="53.5" text-anchor="middle" dominant-baseline="central" transform="matrix(1 0 0 1 -110 2)">BookingSystem</text></g></g><g><path fill="none" stroke="#000000" paint-order="fill stroke markers" d=" M 421.5 83 L 421.5 538" stroke-miterlimit="10" stroke-dasharray="3"/></g><g><rect fill="#C0C0C0" stroke="none" x="671" y="47" width="108.86083984375" height="40" transform="matrix(1 0 0 1 -110 2)" fill-opacity="0.2"/></g><g><rect fill="#ffffff" stroke="none" x="664" y="40" width="108.86083984375" height="40" transform="matrix(1 0 0 1 -110 2)"/></g><g><path fill="none" stroke="#000000" paint-order="fill stroke markers" d=" M 554 42 L 662.86083984375 42 L 662.86083984375 82 L 554 82 L 554 42 Z Z" stroke-miterlimit="10" stroke-dasharray=""/></g><g><g><path fill="none" stroke="none"/><text fill="#000000" stroke="none" font-family="Arial" font-size="13px" font-style="normal" font-weight="bold" text-decoration="undefined" x="718.930419921875" y="53.5" text-anchor="middle" dominant-baseline="central" transform="matrix(1 0 0 1 -110 2)">OrderManager</text></g></g><g><path fill="none" stroke="#000000" paint-order="fill stroke markers" d=" M 608.5 83 L 608.5 546" stroke-miterlimit="10" stroke-dasharray="3"/></g><g><rect fill="#C0C0C0" stroke="none" x="847" y="47" width="125.4599609375" height="40" transform="matrix(1 0 0 1 -110 2)" fill-opacity="0.2"/></g><g><rect fill="#ffffff" stroke="none" x="840" y="40" width="125.4599609375" height="40" transform="matrix(1 0 0 1 -110 2)"/></g><g><path fill="none" stroke="#000000" paint-order="fill stroke markers" d=" M 730 42 L 855.4599609375 42 L 855.4599609375 82 L 730 82 L 730 42 Z Z" stroke-miterlimit="10" stroke-dasharray=""/></g><g><g><path fill="none" stroke="none"/><text fill="#000000" stroke="none" font-family="Arial" font-size="13px" font-style="normal" font-weight="bold" text-decoration="undefined" x="903.22998046875" y="53.5" text-anchor="middle" dominant-baseline="central" transform="matrix(1 0 0 1 -110 2)">AccountMaanger</text></g></g><g><path fill="none" stroke="#000000" paint-order="fill stroke markers" d=" M 793.5 83 L 793.5 538" stroke-miterlimit="10" stroke-dasharray="3"/></g><g><rect fill="#C0C0C0" stroke="none" x="1007" y="47" width="139.2216796875" height="40" transform="matrix(1 0 0 1 -110 2)" fill-opacity="0.2"/></g><g><rect fill="#ffffff" stroke="none" x="1000" y="40" width="139.2216796875" height="40" transform="matrix(1 0 0 1 -110 2)"/></g><g><path fill="none" stroke="#000000" paint-order="fill stroke markers" d=" M 890 42 L 1029.2216796875 42 L 1029.2216796875 82 L 890 82 L 890 42 Z Z" stroke-miterlimit="10" stroke-dasharray=""/></g><g><g><path fill="none" stroke="none"/><text fill="#000000" stroke="none" font-family="Arial" font-size="13px" font-style="normal" font-weight="bold" text-decoration="undefined" x="1070.11083984375" y="53.5" text-anchor="middle" dominant-baseline="central" transform="matrix(1 0 0 1 -110 2)">PassengerManager</text></g></g><g><path fill="none" stroke="#000000" paint-order="fill stroke markers" d=" M 960.5 83 L 960.5 554" stroke-miterlimit="10" stroke-dasharray="3"/></g><g><path fill="none" stroke="#000000" paint-order="fill stroke markers" d=" M 95 109 L 239 109" stroke-miterlimit="10" stroke-dasharray=""/></g><g><path fill="#000000" stroke="none" paint-order="stroke fill markers" d=" M 228.83732514237585 113.20951775601598 L 239 109 L 228.83732514237585 104.79048224398402"/></g><g><path fill="none" stroke="#000000" paint-order="fill stroke markers" d=" M 228.83732514237585 113.20951775601598 L 239 109 L 228.83732514237585 104.79048224398402 L 228.83732514237585 113.20951775601598" stroke-miterlimit="10" stroke-dasharray=""/></g><g><rect fill="#ffffff" stroke="none" x="238" y="91" width="78.04443359375" height="13" transform="matrix(1 0 0 1 -110 2)"/></g><g><g><path fill="none" stroke="none"/><text fill="#000000" stroke="none" font-family="Arial" font-size="13px" font-style="normal" font-weight="normal" text-decoration="undefined" x="277.022216796875" y="97.5" text-anchor="middle" dominant-baseline="central" transform="matrix(1 0 0 1 -110 2)">1 : 点击注销</text></g></g><g><rect fill="#ffffff" stroke="none" x="349" y="107" width="14" height="37" transform="matrix(1 0 0 1 -110 2)"/></g><g><path fill="none" stroke="#000000" paint-order="fill stroke markers" d=" M 239 109 L 253 109 L 253 146 L 239 146 L 239 109 Z Z" stroke-miterlimit="10" stroke-dasharray=""/></g><g><path fill="none" stroke="#000000" paint-order="fill stroke markers" d=" M 253 138 L 283 138 L 283 158 L 253 158" stroke-miterlimit="10" stroke-dasharray=""/></g><g><path fill="#000000" stroke="none" paint-order="stroke fill markers" d=" M 263.16267485762415 153.790482243984 L 253 158 L 263.16267485762415 162.209517756016"/></g><g><path fill="none" stroke="#000000" paint-order="fill stroke markers" d=" M 263.16267485762415 153.790482243984 L 253 158 L 263.16267485762415 162.209517756016 L 263.16267485762415 153.790482243984" stroke-miterlimit="10" stroke-dasharray=""/></g><g><rect fill="#ffffff" stroke="none" x="282" y="139" width="240.54443359375" height="13" transform="matrix(1 0 0 1 -110 2)"/></g><g><g><path fill="none" stroke="none"/><text fill="#000000" stroke="none" font-family="Arial" font-size="13px" font-style="normal" font-weight="normal" text-decoration="undefined" x="402.272216796875" y="145.5" text-anchor="middle" dominant-baseline="central" transform="matrix(1 0 0 1 -110 2)">2 : 利用Loader弹出确认框，询问是否注销</text></g></g><g><rect fill="#ffffff" stroke="none" x="349" y="156" width="14" height="28" transform="matrix(1 0 0 1 -110 2)"/></g><g><path fill="none" stroke="#000000" paint-order="fill stroke markers" d=" M 239 158 L 253 158 L 253 186 L 239 186 L 239 158 Z Z" stroke-miterlimit="10" stroke-dasharray=""/></g><g><path fill="none" stroke="#000000" paint-order="fill stroke markers" d=" M 239 180 L 95 180" stroke-miterlimit="10" stroke-dasharray="3"/></g><g><path fill="none" stroke="#000000" paint-order="fill stroke markers" d=" M 105.16267485762415 175.790482243984 L 95 180 L 105.16267485762415 184.209517756016" stroke-miterlimit="10" stroke-dasharray=""/></g><g><rect fill="#ffffff" stroke="none" x="202" y="182" width="148.0654296875" height="13" transform="matrix(1 0 0 1 -110 2)"/></g><g><g><path fill="none" stroke="none"/><text fill="#000000" stroke="none" font-family="Arial" font-size="13px" font-style="normal" font-weight="normal" text-decoration="undefined" x="276.03271484375" y="188.5" text-anchor="middle" dominant-baseline="central" transform="matrix(1 0 0 1 -110 2)">3 : 显示弹窗，待用户确认</text></g></g><g><path fill="none" stroke="#000000" paint-order="fill stroke markers" d=" M 95 234 L 239 234" stroke-miterlimit="10" stroke-dasharray=""/></g><g><path fill="#000000" stroke="none" paint-order="stroke fill markers" d=" M 228.83732514237585 238.209517756016 L 239 234 L 228.83732514237585 229.790482243984"/></g><g><path fill="none" stroke="#000000" paint-order="fill stroke markers" d=" M 228.83732514237585 238.209517756016 L 239 234 L 228.83732514237585 229.790482243984 L 228.83732514237585 238.209517756016" stroke-miterlimit="10" stroke-dasharray=""/></g><g><rect fill="#ffffff" stroke="none" x="229" y="216" width="96.0654296875" height="13" transform="matrix(1 0 0 1 -110 2)"/></g><g><g><path fill="none" stroke="none"/><text fill="#000000" stroke="none" font-family="Arial" font-size="13px" font-style="normal" font-weight="normal" text-decoration="undefined" x="277.03271484375" y="222.5" text-anchor="middle" dominant-baseline="central" transform="matrix(1 0 0 1 -110 2)">4 : 用户点击确认</text></g></g><g><rect fill="#ffffff" stroke="none" x="349" y="232" width="14" height="312" transform="matrix(1 0 0 1 -110 2)"/></g><g><path fill="none" stroke="#000000" paint-order="fill stroke markers" d=" M 239 234 L 253 234 L 253 546 L 239 546 L 239 234 Z Z" stroke-miterlimit="10" stroke-dasharray=""/></g><g><path fill="none" stroke="#000000" paint-order="fill stroke markers" d=" M 253 250 L 414 250" stroke-miterlimit="10" stroke-dasharray=""/></g><g><path fill="#000000" stroke="none" paint-order="stroke fill markers" d=" M 403.8373251423759 254.209517756016 L 414 250 L 403.8373251423758 245.790482243984"/></g><g><path fill="none" stroke="#000000" paint-order="fill stroke markers" d=" M 403.8373251423759 254.209517756016 L 414 250 L 403.8373251423758 245.790482243984 L 403.8373251423759 254.209517756016" stroke-miterlimit="10" stroke-dasharray=""/></g><g><rect fill="#ffffff" stroke="none" x="391" y="232" width="105.5107421875" height="13" transform="matrix(1 0 0 1 -110 2)"/></g><g><g><path fill="none" stroke="none"/><text fill="#000000" stroke="none" font-family="Arial" font-size="13px" font-style="normal" font-weight="normal" text-decoration="undefined" x="443.75537109375" y="238.5" text-anchor="middle" dominant-baseline="central" transform="matrix(1 0 0 1 -110 2)">5 : deleteUser_api</text></g></g><g><rect fill="#ffffff" stroke="none" x="524" y="248" width="14" height="248" transform="matrix(1 0 0 1 -110 2)"/></g><g><path fill="none" stroke="#000000" paint-order="fill stroke markers" d=" M 414 250 L 428 250 L 428 498 L 414 498 L 414 250 Z Z" stroke-miterlimit="10" stroke-dasharray=""/></g><g><path fill="none" stroke="#000000" paint-order="fill stroke markers" d=" M 428 266 L 786 266" stroke-miterlimit="10" stroke-dasharray=""/></g><g><path fill="#000000" stroke="none" paint-order="stroke fill markers" d=" M 775.8373251423759 270.209517756016 L 786 266 L 775.8373251423758 261.790482243984"/></g><g><path fill="none" stroke="#000000" paint-order="fill stroke markers" d=" M 775.8373251423759 270.209517756016 L 786 266 L 775.8373251423758 261.790482243984 L 775.8373251423759 270.209517756016" stroke-miterlimit="10" stroke-dasharray=""/></g><g><rect fill="#ffffff" stroke="none" x="648" y="248" width="138.7216796875" height="13" transform="matrix(1 0 0 1 -110 2)"/></g><g><g><path fill="none" stroke="none"/><text fill="#000000" stroke="none" font-family="Arial" font-size="13px" font-style="normal" font-weight="normal" text-decoration="undefined" x="717.36083984375" y="254.5" text-anchor="middle" dominant-baseline="central" transform="matrix(1 0 0 1 -110 2)">6 : getUserByUsername</text></g></g><g><rect fill="#ffffff" stroke="none" x="896" y="264" width="14" height="28" transform="matrix(1 0 0 1 -110 2)"/></g><g><path fill="none" stroke="#000000" paint-order="fill stroke markers" d=" M 786 266 L 800 266 L 800 294 L 786 294 L 786 266 Z Z" stroke-miterlimit="10" stroke-dasharray=""/></g><g><path fill="none" stroke="#000000" paint-order="fill stroke markers" d=" M 786 285 L 428 285" stroke-miterlimit="10" stroke-dasharray="3"/></g><g><path fill="none" stroke="#000000" paint-order="fill stroke markers" d=" M 438.1626748576241 280.790482243984 L 428 285 L 438.1626748576241 289.209517756016" stroke-miterlimit="10" stroke-dasharray=""/></g><g><rect fill="#ffffff" stroke="none" x="662" y="287" width="109.0654296875" height="13" transform="matrix(1 0 0 1 -110 2)"/></g><g><g><path fill="none" stroke="none"/><text fill="#000000" stroke="none" font-family="Arial" font-size="13px" font-style="normal" font-weight="normal" text-decoration="undefined" x="716.53271484375" y="293.5" text-anchor="middle" dominant-baseline="central" transform="matrix(1 0 0 1 -110 2)">7 : 该用户是否存在</text></g></g><g><path fill="none" stroke="#000000" paint-order="fill stroke markers" d=" M 428 324 L 601 324" stroke-miterlimit="10" stroke-dasharray=""/></g><g><path fill="#000000" stroke="none" paint-order="stroke fill markers" d=" M 590.8373251423759 328.209517756016 L 601 324 L 590.8373251423758 319.790482243984"/></g><g><path fill="none" stroke="#000000" paint-order="fill stroke markers" d=" M 590.8373251423759 328.209517756016 L 601 324 L 590.8373251423758 319.790482243984 L 590.8373251423759 328.209517756016" stroke-miterlimit="10" stroke-dasharray=""/></g><g><rect fill="#ffffff" stroke="none" x="540" y="306" width="168.3525390625" height="13" transform="matrix(1 0 0 1 -110 2)"/></g><g><g><path fill="none" stroke="none"/><text fill="#000000" stroke="none" font-family="Arial" font-size="13px" font-style="normal" font-weight="normal" text-decoration="undefined" x="624.17626953125" y="312.5" text-anchor="middle" dominant-baseline="central" transform="matrix(1 0 0 1 -110 2)">8 : deleteOrdersByUsername</text></g></g><g><rect fill="#ffffff" stroke="none" x="711" y="322" width="14" height="30" transform="matrix(1 0 0 1 -110 2)"/></g><g><path fill="none" stroke="#000000" paint-order="fill stroke markers" d=" M 601 324 L 615 324 L 615 354 L 601 354 L 601 324 Z Z" stroke-miterlimit="10" stroke-dasharray=""/></g><g><path fill="none" stroke="#000000" paint-order="fill stroke markers" d=" M 601 346 L 428 346" stroke-miterlimit="10" stroke-dasharray="3"/></g><g><path fill="none" stroke="#000000" paint-order="fill stroke markers" d=" M 438.1626748576241 341.790482243984 L 428 346 L 438.1626748576241 350.209517756016" stroke-miterlimit="10" stroke-dasharray=""/></g><g><rect fill="#ffffff" stroke="none" x="557" y="348" width="133.62451171875" height="13" transform="matrix(1 0 0 1 -110 2)"/></g><g><g><path fill="none" stroke="none"/><text fill="#000000" stroke="none" font-family="Arial" font-size="13px" font-style="normal" font-weight="normal" text-decoration="undefined" x="623.812255859375" y="354.5" text-anchor="middle" dominant-baseline="central" transform="matrix(1 0 0 1 -110 2)">9 : 订单删除成功or失败</text></g></g><g><path fill="none" stroke="#000000" paint-order="fill stroke markers" d=" M 428 386 L 786 386" stroke-miterlimit="10" stroke-dasharray=""/></g><g><path fill="#000000" stroke="none" paint-order="stroke fill markers" d=" M 775.8373251423759 390.209517756016 L 786 386 L 775.8373251423758 381.790482243984"/></g><g><path fill="none" stroke="#000000" paint-order="fill stroke markers" d=" M 775.8373251423759 390.209517756016 L 786 386 L 775.8373251423758 381.790482243984 L 775.8373251423759 390.209517756016" stroke-miterlimit="10" stroke-dasharray=""/></g><g><rect fill="#ffffff" stroke="none" x="673" y="368" width="88.16259765625" height="13" transform="matrix(1 0 0 1 -110 2)"/></g><g><g><path fill="none" stroke="none"/><text fill="#000000" stroke="none" font-family="Arial" font-size="13px" font-style="normal" font-weight="normal" text-decoration="undefined" x="717.081298828125" y="374.5" text-anchor="middle" dominant-baseline="central" transform="matrix(1 0 0 1 -110 2)">10 : deleteUser</text></g></g><g><rect fill="#ffffff" stroke="none" x="896" y="384" width="14" height="28" transform="matrix(1 0 0 1 -110 2)"/></g><g><path fill="none" stroke="#000000" paint-order="fill stroke markers" d=" M 786 386 L 800 386 L 800 414 L 786 414 L 786 386 Z Z" stroke-miterlimit="10" stroke-dasharray=""/></g><g><path fill="none" stroke="#000000" paint-order="fill stroke markers" d=" M 786 410 L 428 410" stroke-miterlimit="10" stroke-dasharray="3"/></g><g><path fill="none" stroke="#000000" paint-order="fill stroke markers" d=" M 438.1626748576241 405.790482243984 L 428 410 L 438.1626748576241 414.209517756016" stroke-miterlimit="10" stroke-dasharray=""/></g><g><rect fill="#ffffff" stroke="none" x="647" y="412" width="139.8896484375" height="13" transform="matrix(1 0 0 1 -110 2)"/></g><g><g><path fill="none" stroke="none"/><text fill="#000000" stroke="none" font-family="Arial" font-size="13px" font-style="normal" font-weight="normal" text-decoration="undefined" x="716.94482421875" y="418.5" text-anchor="middle" dominant-baseline="central" transform="matrix(1 0 0 1 -110 2)">11 : 用户删除成功or失败</text></g></g><g><path fill="none" stroke="#000000" paint-order="fill stroke markers" d=" M 428 450 L 953 450" stroke-miterlimit="10" stroke-dasharray=""/></g><g><path fill="#000000" stroke="none" paint-order="stroke fill markers" d=" M 942.8373251423759 454.209517756016 L 953 450 L 942.8373251423759 445.790482243984"/></g><g><path fill="none" stroke="#000000" paint-order="fill stroke markers" d=" M 942.8373251423759 454.209517756016 L 953 450 L 942.8373251423759 445.790482243984 L 942.8373251423759 454.209517756016" stroke-miterlimit="10" stroke-dasharray=""/></g><g><rect fill="#ffffff" stroke="none" x="698" y="432" width="204.50244140625" height="13" transform="matrix(1 0 0 1 -110 2)"/></g><g><g><path fill="none" stroke="none"/><text fill="#000000" stroke="none" font-family="Arial" font-size="13px" font-style="normal" font-weight="normal" text-decoration="undefined" x="800.251220703125" y="438.5" text-anchor="middle" dominant-baseline="central" transform="matrix(1 0 0 1 -110 2)">12 : deletePassengersByUsername</text></g></g><g><rect fill="#ffffff" stroke="none" x="1063" y="448" width="14" height="32" transform="matrix(1 0 0 1 -110 2)"/></g><g><path fill="none" stroke="#000000" paint-order="fill stroke markers" d=" M 953 450 L 967 450 L 967 482 L 953 482 L 953 450 Z Z" stroke-miterlimit="10" stroke-dasharray=""/></g><g><path fill="none" stroke="#000000" paint-order="fill stroke markers" d=" M 953 474 L 428 474" stroke-miterlimit="10" stroke-dasharray="3"/></g><g><path fill="none" stroke="#000000" paint-order="fill stroke markers" d=" M 438.1626748576241 469.790482243984 L 428 474 L 438.1626748576241 478.209517756016" stroke-miterlimit="10" stroke-dasharray=""/></g><g><rect fill="#ffffff" stroke="none" x="723" y="476" width="153.8544921875" height="13" transform="matrix(1 0 0 1 -110 2)"/></g><g><g><path fill="none" stroke="none"/><text fill="#000000" stroke="none" font-family="Arial" font-size="13px" font-style="normal" font-weight="normal" text-decoration="undefined" x="799.92724609375" y="482.5" text-anchor="middle" dominant-baseline="central" transform="matrix(1 0 0 1 -110 2)">13 : 乘车人删除成功or失败</text></g></g><g><path fill="none" stroke="#000000" paint-order="fill stroke markers" d=" M 414 490 L 253 490" stroke-miterlimit="10" stroke-dasharray="3"/></g><g><path fill="none" stroke="#000000" paint-order="fill stroke markers" d=" M 263.16267485762415 485.790482243984 L 253 490 L 263.16267485762415 494.209517756016" stroke-miterlimit="10" stroke-dasharray=""/></g><g><rect fill="#ffffff" stroke="none" x="372" y="492" width="140.8544921875" height="13" transform="matrix(1 0 0 1 -110 2)"/></g><g><g><path fill="none" stroke="none"/><text fill="#000000" stroke="none" font-family="Arial" font-size="13px" font-style="normal" font-weight="normal" text-decoration="undefined" x="442.42724609375" y="498.5" text-anchor="middle" dominant-baseline="central" transform="matrix(1 0 0 1 -110 2)">14 : 用户注销成功or失败</text></g></g><g><path fill="none" stroke="#000000" paint-order="fill stroke markers" d=" M 239 511 L 95 511" stroke-miterlimit="10" stroke-dasharray="3"/></g><g><path fill="none" stroke="#000000" paint-order="fill stroke markers" d=" M 105.16267485762415 506.790482243984 L 95 511 L 105.16267485762415 515.209517756016" stroke-miterlimit="10" stroke-dasharray=""/></g><g><rect fill="#ffffff" stroke="none" x="238" y="513" width="77.29541015625" height="13" transform="matrix(1 0 0 1 -110 2)"/></g><g><g><path fill="none" stroke="none"/><text fill="#000000" stroke="none" font-family="Arial" font-size="13px" font-style="normal" font-weight="normal" text-decoration="undefined" x="276.647705078125" y="519.5" text-anchor="middle" dominant-baseline="central" transform="matrix(1 0 0 1 -110 2)">15 : 弹窗回复</text></g></g><g><path fill="none" stroke="#000000" paint-order="fill stroke markers" d=" M 253 538 L 283 538 L 283 558 L 253 558" stroke-miterlimit="10" stroke-dasharray=""/></g><g><path fill="#000000" stroke="none" paint-order="stroke fill markers" d=" M 263.16267485762415 553.790482243984 L 253 558 L 263.16267485762415 562.209517756016"/></g><g><path fill="none" stroke="#000000" paint-order="fill stroke markers" d=" M 263.16267485762415 553.790482243984 L 253 558 L 263.16267485762415 562.209517756016 L 263.16267485762415 553.790482243984" stroke-miterlimit="10" stroke-dasharray=""/></g><g><rect fill="#ffffff" stroke="none" x="287" y="539" width="231.89892578125" height="13" transform="matrix(1 0 0 1 -110 2)"/></g><g><g><path fill="none" stroke="none"/><text fill="#000000" stroke="none" font-family="Arial" font-size="13px" font-style="normal" font-weight="normal" text-decoration="undefined" x="402.949462890625" y="545.5" text-anchor="middle" dominant-baseline="central" transform="matrix(1 0 0 1 -110 2)">16 : 清空SessionState，并返回登录页面</text></g></g><g><rect fill="#ffffff" stroke="none" x="349" y="556" width="14" height="44" transform="matrix(1 0 0 1 -110 2)"/></g><g><path fill="none" stroke="#000000" paint-order="fill stroke markers" d=" M 239 558 L 253 558 L 253 602 L 239 602 L 239 558 Z Z" stroke-miterlimit="10" stroke-dasharray=""/></g><g><path fill="none" stroke="#000000" paint-order="fill stroke markers" d=" M 239 594 L 95 594" stroke-miterlimit="10" stroke-dasharray="3"/></g><g><path fill="none" stroke="#000000" paint-order="fill stroke markers" d=" M 105.16267485762415 589.790482243984 L 95 594 L 105.16267485762415 598.209517756016" stroke-miterlimit="10" stroke-dasharray=""/></g><g><rect fill="#ffffff" stroke="none" x="225" y="596" width="103.29541015625" height="13" transform="matrix(1 0 0 1 -110 2)"/></g><g><g><path fill="none" stroke="none"/><text fill="#000000" stroke="none" font-family="Arial" font-size="13px" font-style="normal" font-weight="normal" text-decoration="undefined" x="276.647705078125" y="602.5" text-anchor="middle" dominant-baseline="central" transform="matrix(1 0 0 1 -110 2)">17 : 显示登录页面</text></g></g></g></svg>