<svg version="1.1" xmlns="http://www.w3.org/2000/svg" xmlns:xlink="http://www.w3.org/1999/xlink" width="588" height="556"><defs/><g><g><path fill="none" stroke="#000000" paint-order="fill stroke markers" d=" M 10 10 L 578 10 L 578 546 L 10 546 L 10 10" stroke-miterlimit="10" stroke-dasharray=""/></g><g><path fill="#ffffff" stroke="none" paint-order="stroke fill markers" d=" M 10 10 L 10 33 L 109.05908203125 33 L 120.55908203125 21.5 L 120.55908203125 10 L 10 10"/></g><g><path fill="none" stroke="#000000" paint-order="fill stroke markers" d=" M 10 10 L 10 33 L 109.05908203125 33 L 120.55908203125 21.5 L 120.55908203125 10 L 10 10 L 10 10" stroke-miterlimit="10" stroke-dasharray=""/></g><g><g><path fill="none" stroke="none"/><text fill="#000000" stroke="none" font-family="Arial" font-size="13px" font-style="normal" font-weight="normal" text-decoration="undefined" x="155.39453125" y="19.5" text-anchor="middle" dominant-baseline="central" transform="matrix(1 0 0 1 -86 2)">顺序图-注册</text></g></g><g><g><path fill="none" stroke="none"/><text fill="#000000" stroke="none" font-family="Arial" font-size="13px" font-style="normal" font-weight="bold" text-decoration="undefined" x="107.864990234375" y="19.5" text-anchor="middle" dominant-baseline="central" transform="matrix(1 0 0 1 -86 2)">sd</text></g></g><g><rect fill="#C0C0C0" stroke="none" x="143" y="47" width="72.736328125" height="40" transform="matrix(1 0 0 1 -86 2)" fill-opacity="0.2"/></g><g><rect fill="#ffffff" stroke="none" x="136" y="40" width="72.736328125" height="40" transform="matrix(1 0 0 1 -86 2)"/></g><g><path fill="none" stroke="#000000" paint-order="fill stroke markers" d=" M 50 42 L 122.736328125 42 L 122.736328125 82 L 50 82 L 50 42 Z Z" stroke-miterlimit="10" stroke-dasharray=""/></g><g><g><path fill="none" stroke="none"/><text fill="#000000" stroke="none" font-family="Arial" font-size="13px" font-style="normal" font-weight="bold" text-decoration="undefined" x="172.8681640625" y="53.5" text-anchor="middle" dominant-baseline="central" transform="matrix(1 0 0 1 -86 2)">用户</text></g></g><g><path fill="none" stroke="#000000" paint-order="fill stroke markers" d=" M 86.5 83 L 86.5 456" stroke-miterlimit="10" stroke-dasharray="3"/></g><g><rect fill="#C0C0C0" stroke="none" x="295" y="47" width="72.736328125" height="40" transform="matrix(1 0 0 1 -86 2)" fill-opacity="0.2"/></g><g><rect fill="#ffffff" stroke="none" x="288" y="40" width="72.736328125" height="40" transform="matrix(1 0 0 1 -86 2)"/></g><g><path fill="none" stroke="#000000" paint-order="fill stroke markers" d=" M 202 42 L 274.736328125 42 L 274.736328125 82 L 202 82 L 202 42 Z Z" stroke-miterlimit="10" stroke-dasharray=""/></g><g><g><path fill="none" stroke="none"/><text fill="#000000" stroke="none" font-family="Arial" font-size="13px" font-style="normal" font-weight="bold" text-decoration="undefined" x="324.8681640625" y="53.5" text-anchor="middle" dominant-baseline="central" transform="matrix(1 0 0 1 -86 2)">前端</text></g></g><g><path fill="none" stroke="#000000" paint-order="fill stroke markers" d=" M 238.5 83 L 238.5 499" stroke-miterlimit="10" stroke-dasharray="3"/></g><g><rect fill="#C0C0C0" stroke="none" x="439" y="47" width="132.505859375" height="40" transform="matrix(1 0 0 1 -86 2)" fill-opacity="0.2"/></g><g><rect fill="#ffffff" stroke="none" x="432" y="40" width="132.505859375" height="40" transform="matrix(1 0 0 1 -86 2)"/></g><g><path fill="none" stroke="#000000" paint-order="fill stroke markers" d=" M 346 42 L 478.505859375 42 L 478.505859375 82 L 346 82 L 346 42 Z Z" stroke-miterlimit="10" stroke-dasharray=""/></g><g><g><path fill="none" stroke="none"/><text fill="#000000" stroke="none" font-family="Arial" font-size="13px" font-style="normal" font-weight="bold" text-decoration="undefined" x="498.7529296875" y="53.5" text-anchor="middle" dominant-baseline="central" transform="matrix(1 0 0 1 -86 2)">AccountManager</text></g></g><g><path fill="none" stroke="#000000" paint-order="fill stroke markers" d=" M 412.5 83 L 412.5 499" stroke-miterlimit="10" stroke-dasharray="3"/></g><g><path fill="none" stroke="#000000" paint-order="fill stroke markers" d=" M 87 114 L 231 114" stroke-miterlimit="10" stroke-dasharray=""/></g><g><path fill="#000000" stroke="none" paint-order="stroke fill markers" d=" M 220.83732514237585 118.20951775601598 L 231 114 L 220.83732514237585 109.79048224398402"/></g><g><path fill="none" stroke="#000000" paint-order="fill stroke markers" d=" M 220.83732514237585 118.20951775601598 L 231 114 L 220.83732514237585 109.79048224398402 L 220.83732514237585 118.20951775601598" stroke-miterlimit="10" stroke-dasharray=""/></g><g><rect fill="#ffffff" stroke="none" x="206" y="96" width="78.04443359375" height="13" transform="matrix(1 0 0 1 -86 2)"/></g><g><g><path fill="none" stroke="none"/><text fill="#000000" stroke="none" font-family="Arial" font-size="13px" font-style="normal" font-weight="normal" text-decoration="undefined" x="245.022216796875" y="102.5" text-anchor="middle" dominant-baseline="central" transform="matrix(1 0 0 1 -86 2)">1 : 点击注册</text></g></g><g><rect fill="#ffffff" stroke="none" x="317" y="112" width="14" height="40" transform="matrix(1 0 0 1 -86 2)"/></g><g><path fill="none" stroke="#000000" paint-order="fill stroke markers" d=" M 231 114 L 245 114 L 245 154 L 231 154 L 231 114 Z Z" stroke-miterlimit="10" stroke-dasharray=""/></g><g><path fill="none" stroke="#000000" paint-order="fill stroke markers" d=" M 231 140 L 87 140" stroke-miterlimit="10" stroke-dasharray="3"/></g><g><path fill="none" stroke="#000000" paint-order="fill stroke markers" d=" M 97.16267485762415 135.790482243984 L 87 140 L 97.16267485762415 144.209517756016" stroke-miterlimit="10" stroke-dasharray=""/></g><g><rect fill="#ffffff" stroke="none" x="203" y="142" width="83.4462890625" height="13" transform="matrix(1 0 0 1 -86 2)"/></g><g><g><path fill="none" stroke="none"/><text fill="#000000" stroke="none" font-family="Arial" font-size="13px" font-style="normal" font-weight="normal" text-decoration="undefined" x="244.72314453125" y="148.5" text-anchor="middle" dominant-baseline="central" transform="matrix(1 0 0 1 -86 2)">2 : 弹窗注册框</text></g></g><g><path fill="none" stroke="#000000" paint-order="fill stroke markers" d=" M 87 182 L 231 182" stroke-miterlimit="10" stroke-dasharray=""/></g><g><path fill="#000000" stroke="none" paint-order="stroke fill markers" d=" M 220.83732514237585 186.209517756016 L 231 182 L 220.83732514237585 177.790482243984"/></g><g><path fill="none" stroke="#000000" paint-order="fill stroke markers" d=" M 220.83732514237585 186.209517756016 L 231 182 L 220.83732514237585 177.790482243984 L 220.83732514237585 186.209517756016" stroke-miterlimit="10" stroke-dasharray=""/></g><g><rect fill="#ffffff" stroke="none" x="178" y="164" width="135.4462890625" height="13" transform="matrix(1 0 0 1 -86 2)"/></g><g><g><path fill="none" stroke="none"/><text fill="#000000" stroke="none" font-family="Arial" font-size="13px" font-style="normal" font-weight="normal" text-decoration="undefined" x="245.72314453125" y="170.5" text-anchor="middle" dominant-baseline="central" transform="matrix(1 0 0 1 -86 2)">3 : 填写信息，点击确认</text></g></g><g><rect fill="#ffffff" stroke="none" x="317" y="180" width="14" height="244" transform="matrix(1 0 0 1 -86 2)"/></g><g><path fill="none" stroke="#000000" paint-order="fill stroke markers" d=" M 231 182 L 245 182 L 245 426 L 231 426 L 231 182 Z Z" stroke-miterlimit="10" stroke-dasharray=""/></g><g><path fill="none" stroke="#000000" paint-order="fill stroke markers" d=" M 245 202 L 275 202 L 275 222 L 252 222" stroke-miterlimit="10" stroke-dasharray=""/></g><g><path fill="#000000" stroke="none" paint-order="stroke fill markers" d=" M 262.16267485762415 217.790482243984 L 252 222 L 262.16267485762415 226.209517756016"/></g><g><path fill="none" stroke="#000000" paint-order="fill stroke markers" d=" M 262.16267485762415 217.790482243984 L 252 222 L 262.16267485762415 226.209517756016 L 262.16267485762415 217.790482243984" stroke-miterlimit="10" stroke-dasharray=""/></g><g><rect fill="#ffffff" stroke="none" x="316" y="203" width="109.4462890625" height="13" transform="matrix(1 0 0 1 -86 2)"/></g><g><g><path fill="none" stroke="none"/><text fill="#000000" stroke="none" font-family="Arial" font-size="13px" font-style="normal" font-weight="normal" text-decoration="undefined" x="370.72314453125" y="209.5" text-anchor="middle" dominant-baseline="central" transform="matrix(1 0 0 1 -86 2)">4 : 验证输入合法性</text></g></g><g><rect fill="#ffffff" stroke="none" x="324" y="220" width="14" height="28" transform="matrix(1 0 0 1 -86 2)"/></g><g><path fill="none" stroke="#000000" paint-order="fill stroke markers" d=" M 238 222 L 252 222 L 252 250 L 238 250 L 238 222 Z Z" stroke-miterlimit="10" stroke-dasharray=""/></g><g><path fill="none" stroke="#000000" paint-order="fill stroke markers" d=" M 245 269 L 405 269" stroke-miterlimit="10" stroke-dasharray=""/></g><g><path fill="none" stroke="#000000" paint-order="fill stroke markers" d=" M 394.83732514237585 273.209517756016 L 405 269 L 394.83732514237585 264.790482243984" stroke-miterlimit="10" stroke-dasharray=""/></g><g><rect fill="#ffffff" stroke="none" x="352" y="251" width="118.3076171875" height="13" transform="matrix(1 0 0 1 -86 2)"/></g><g><g><path fill="none" stroke="none"/><text fill="#000000" stroke="none" font-family="Arial" font-size="13px" font-style="normal" font-weight="normal" text-decoration="undefined" x="411.15380859375" y="257.5" text-anchor="middle" dominant-baseline="central" transform="matrix(1 0 0 1 -86 2)">5 : registerUser_api</text></g></g><g><rect fill="#ffffff" stroke="none" x="491" y="267" width="14" height="117" transform="matrix(1 0 0 1 -86 2)"/></g><g><path fill="none" stroke="#000000" paint-order="fill stroke markers" d=" M 405 269 L 419 269 L 419 386 L 405 386 L 405 269 Z Z" stroke-miterlimit="10" stroke-dasharray=""/></g><g><path fill="none" stroke="#000000" paint-order="fill stroke markers" d=" M 419 282 L 449 282 L 449 302 L 426 302" stroke-miterlimit="10" stroke-dasharray=""/></g><g><path fill="#000000" stroke="none" paint-order="stroke fill markers" d=" M 436.1626748576241 297.790482243984 L 426 302 L 436.1626748576241 306.209517756016"/></g><g><path fill="none" stroke="#000000" paint-order="fill stroke markers" d=" M 436.1626748576241 297.790482243984 L 426 302 L 436.1626748576241 306.209517756016 L 436.1626748576241 297.790482243984" stroke-miterlimit="10" stroke-dasharray=""/></g><g><rect fill="#ffffff" stroke="none" x="503" y="283" width="83.4462890625" height="13" transform="matrix(1 0 0 1 -86 2)"/></g><g><g><path fill="none" stroke="none"/><text fill="#000000" stroke="none" font-family="Arial" font-size="13px" font-style="normal" font-weight="normal" text-decoration="undefined" x="544.72314453125" y="289.5" text-anchor="middle" dominant-baseline="central" transform="matrix(1 0 0 1 -86 2)">6 : 用户名查重</text></g></g><g><rect fill="#ffffff" stroke="none" x="498" y="300" width="14" height="28" transform="matrix(1 0 0 1 -86 2)"/></g><g><path fill="none" stroke="#000000" paint-order="fill stroke markers" d=" M 412 302 L 426 302 L 426 330 L 412 330 L 412 302 Z Z" stroke-miterlimit="10" stroke-dasharray=""/></g><g><path fill="none" stroke="#000000" paint-order="fill stroke markers" d=" M 405 354 L 245 354" stroke-miterlimit="10" stroke-dasharray="3"/></g><g><path fill="none" stroke="#000000" paint-order="fill stroke markers" d=" M 255.16267485762415 349.790482243984 L 245 354 L 255.16267485762415 358.209517756016" stroke-miterlimit="10" stroke-dasharray=""/></g><g><rect fill="#ffffff" stroke="none" x="356" y="356" width="109.4462890625" height="13" transform="matrix(1 0 0 1 -86 2)"/></g><g><g><path fill="none" stroke="none"/><text fill="#000000" stroke="none" font-family="Arial" font-size="13px" font-style="normal" font-weight="normal" text-decoration="undefined" x="410.72314453125" y="362.5" text-anchor="middle" dominant-baseline="central" transform="matrix(1 0 0 1 -86 2)">7 : 注册成功或失败</text></g></g><g><path fill="none" stroke="#000000" paint-order="fill stroke markers" d=" M 231 402 L 87 402" stroke-miterlimit="10" stroke-dasharray="3"/></g><g><path fill="none" stroke="#000000" paint-order="fill stroke markers" d=" M 97.16267485762415 397.790482243984 L 87 402 L 97.16267485762415 406.209517756016" stroke-miterlimit="10" stroke-dasharray=""/></g><g><rect fill="#ffffff" stroke="none" x="183" y="404" width="122.4462890625" height="13" transform="matrix(1 0 0 1 -86 2)"/></g><g><g><path fill="none" stroke="none"/><text fill="#000000" stroke="none" font-family="Arial" font-size="13px" font-style="normal" font-weight="normal" text-decoration="undefined" x="244.22314453125" y="410.5" text-anchor="middle" dominant-baseline="central" transform="matrix(1 0 0 1 -86 2)">8 : 弹窗显示注册情况</text></g></g></g></svg>