<svg version="1.1" xmlns="http://www.w3.org/2000/svg" xmlns:xlink="http://www.w3.org/1999/xlink" width="712" height="484"><defs/><g><g><path fill="none" stroke="#000000" paint-order="fill stroke markers" d=" M 10 10 L 702 10 L 702 474 L 10 474 L 10 10" stroke-miterlimit="10" stroke-dasharray=""/></g><g><path fill="#ffffff" stroke="none" paint-order="stroke fill markers" d=" M 10 10 L 10 33 L 148.05908203125 33 L 159.55908203125 21.5 L 159.55908203125 10 L 10 10"/></g><g><path fill="none" stroke="#000000" paint-order="fill stroke markers" d=" M 10 10 L 10 33 L 148.05908203125 33 L 159.55908203125 21.5 L 159.55908203125 10 L 10 10 L 10 10" stroke-miterlimit="10" stroke-dasharray=""/></g><g><g><path fill="none" stroke="none"/><text fill="#000000" stroke="none" font-family="Arial" font-size="13px" font-style="normal" font-weight="normal" text-decoration="undefined" x="182.89453125" y="19.5" text-anchor="middle" dominant-baseline="central" transform="matrix(1 0 0 1 -94 2)">顺序图-乘车人信息</text></g></g><g><g><path fill="none" stroke="none"/><text fill="#000000" stroke="none" font-family="Arial" font-size="13px" font-style="normal" font-weight="bold" text-decoration="undefined" x="115.864990234375" y="19.5" text-anchor="middle" dominant-baseline="central" transform="matrix(1 0 0 1 -94 2)">sd</text></g></g><g><rect fill="#C0C0C0" stroke="none" x="167" y="47" width="72.736328125" height="40" transform="matrix(1 0 0 1 -94 2)" fill-opacity="0.2"/></g><g><rect fill="#ffffff" stroke="none" x="160" y="40" width="72.736328125" height="40" transform="matrix(1 0 0 1 -94 2)"/></g><g><path fill="none" stroke="#000000" paint-order="fill stroke markers" d=" M 66 42 L 138.736328125 42 L 138.736328125 82 L 66 82 L 66 42 Z Z" stroke-miterlimit="10" stroke-dasharray=""/></g><g><g><path fill="none" stroke="none"/><text fill="#000000" stroke="none" font-family="Arial" font-size="13px" font-style="normal" font-weight="bold" text-decoration="undefined" x="196.8681640625" y="53.5" text-anchor="middle" dominant-baseline="central" transform="matrix(1 0 0 1 -94 2)">用户</text></g></g><g><path fill="none" stroke="#000000" paint-order="fill stroke markers" d=" M 102.5 83 L 102.5 448" stroke-miterlimit="10" stroke-dasharray="3"/></g><g><rect fill="#C0C0C0" stroke="none" x="319" y="47" width="72.736328125" height="40" transform="matrix(1 0 0 1 -94 2)" fill-opacity="0.2"/></g><g><rect fill="#ffffff" stroke="none" x="312" y="40" width="72.736328125" height="40" transform="matrix(1 0 0 1 -94 2)"/></g><g><path fill="none" stroke="#000000" paint-order="fill stroke markers" d=" M 218 42 L 290.736328125 42 L 290.736328125 82 L 218 82 L 218 42 Z Z" stroke-miterlimit="10" stroke-dasharray=""/></g><g><g><path fill="none" stroke="none"/><text fill="#000000" stroke="none" font-family="Arial" font-size="13px" font-style="normal" font-weight="bold" text-decoration="undefined" x="348.8681640625" y="53.5" text-anchor="middle" dominant-baseline="central" transform="matrix(1 0 0 1 -94 2)">前端</text></g></g><g><path fill="none" stroke="#000000" paint-order="fill stroke markers" d=" M 254.5 83 L 254.5 448" stroke-miterlimit="10" stroke-dasharray="3"/></g><g><rect fill="#C0C0C0" stroke="none" x="567" y="47" width="144.7568359375" height="40" transform="matrix(1 0 0 1 -94 2)" fill-opacity="0.2"/></g><g><rect fill="#ffffff" stroke="none" x="560" y="40" width="144.7568359375" height="40" transform="matrix(1 0 0 1 -94 2)"/></g><g><path fill="none" stroke="#000000" paint-order="fill stroke markers" d=" M 466 42 L 610.7568359375 42 L 610.7568359375 82 L 466 82 L 466 42 Z Z" stroke-miterlimit="10" stroke-dasharray=""/></g><g><g><path fill="none" stroke="none"/><text fill="#000000" stroke="none" font-family="Arial" font-size="13px" font-style="normal" font-weight="bold" text-decoration="undefined" x="632.87841796875" y="53.5" text-anchor="middle" dominant-baseline="central" transform="matrix(1 0 0 1 -94 2)">PassengerManager</text></g></g><g><path fill="none" stroke="#000000" paint-order="fill stroke markers" d=" M 538.5 83 L 538.5 450" stroke-miterlimit="10" stroke-dasharray="3"/></g><g><path fill="none" stroke="#000000" paint-order="fill stroke markers" d=" M 103 122 L 247 122" stroke-miterlimit="10" stroke-dasharray=""/></g><g><path fill="#000000" stroke="none" paint-order="stroke fill markers" d=" M 236.83732514237585 126.20951775601598 L 247 122 L 236.83732514237585 117.79048224398402"/></g><g><path fill="none" stroke="#000000" paint-order="fill stroke markers" d=" M 236.83732514237585 126.20951775601598 L 247 122 L 236.83732514237585 117.79048224398402 L 236.83732514237585 126.20951775601598" stroke-miterlimit="10" stroke-dasharray=""/></g><g><rect fill="#ffffff" stroke="none" x="215" y="104" width="109.4462890625" height="13" transform="matrix(1 0 0 1 -94 2)"/></g><g><g><path fill="none" stroke="none"/><text fill="#000000" stroke="none" font-family="Arial" font-size="13px" font-style="normal" font-weight="normal" text-decoration="undefined" x="269.72314453125" y="110.5" text-anchor="middle" dominant-baseline="central" transform="matrix(1 0 0 1 -94 2)">1 : 点击乘车人信息</text></g></g><g><rect fill="#ffffff" stroke="none" x="341" y="120" width="14" height="312" transform="matrix(1 0 0 1 -94 2)"/></g><g><path fill="none" stroke="#000000" paint-order="fill stroke markers" d=" M 247 122 L 261 122 L 261 434 L 247 434 L 247 122 Z Z" stroke-miterlimit="10" stroke-dasharray=""/></g><g><path fill="none" stroke="#000000" paint-order="fill stroke markers" d=" M 261 138 L 291 138 L 291 158 L 268 158" stroke-miterlimit="10" stroke-dasharray=""/></g><g><path fill="#000000" stroke="none" paint-order="stroke fill markers" d=" M 278.16267485762415 153.790482243984 L 268 158 L 278.16267485762415 162.209517756016"/></g><g><path fill="none" stroke="#000000" paint-order="fill stroke markers" d=" M 278.16267485762415 153.790482243984 L 268 158 L 278.16267485762415 162.209517756016 L 278.16267485762415 153.790482243984" stroke-miterlimit="10" stroke-dasharray=""/></g><g><rect fill="#ffffff" stroke="none" x="281" y="139" width="226.28759765625" height="13" transform="matrix(1 0 0 1 -94 2)"/></g><g><g><path fill="none" stroke="none"/><text fill="#000000" stroke="none" font-family="Arial" font-size="13px" font-style="normal" font-weight="normal" text-decoration="undefined" x="394.143798828125" y="145.5" text-anchor="middle" dominant-baseline="central" transform="matrix(1 0 0 1 -94 2)">2 : 从SessionState获取当前登录用户名</text></g></g><g><rect fill="#ffffff" stroke="none" x="348" y="156" width="14" height="28" transform="matrix(1 0 0 1 -94 2)"/></g><g><path fill="none" stroke="#000000" paint-order="fill stroke markers" d=" M 254 158 L 268 158 L 268 186 L 254 186 L 254 158 Z Z" stroke-miterlimit="10" stroke-dasharray=""/></g><g><path fill="none" stroke="#000000" paint-order="fill stroke markers" d=" M 261 210 L 531 210" stroke-miterlimit="10" stroke-dasharray=""/></g><g><path fill="#000000" stroke="none" paint-order="stroke fill markers" d=" M 520.8373251423759 214.209517756016 L 531 210 L 520.8373251423758 205.790482243984"/></g><g><path fill="none" stroke="#000000" paint-order="fill stroke markers" d=" M 520.8373251423759 214.209517756016 L 531 210 L 520.8373251423758 205.790482243984 L 520.8373251423759 214.209517756016" stroke-miterlimit="10" stroke-dasharray=""/></g><g><rect fill="#ffffff" stroke="none" x="385" y="192" width="210.462890625" height="13" transform="matrix(1 0 0 1 -94 2)"/></g><g><g><path fill="none" stroke="none"/><text fill="#000000" stroke="none" font-family="Arial" font-size="13px" font-style="normal" font-weight="normal" text-decoration="undefined" x="490.2314453125" y="198.5" text-anchor="middle" dominant-baseline="central" transform="matrix(1 0 0 1 -94 2)">3 : getPassengersByUsername_api</text></g></g><g><rect fill="#ffffff" stroke="none" x="625" y="208" width="14" height="112" transform="matrix(1 0 0 1 -94 2)"/></g><g><path fill="none" stroke="#000000" paint-order="fill stroke markers" d=" M 531 210 L 545 210 L 545 322 L 531 322 L 531 210 Z Z" stroke-miterlimit="10" stroke-dasharray=""/></g><g><path fill="none" stroke="#000000" paint-order="fill stroke markers" d=" M 545 226 L 575 226 L 575 246 L 552 246" stroke-miterlimit="10" stroke-dasharray=""/></g><g><path fill="#000000" stroke="none" paint-order="stroke fill markers" d=" M 562.1626748576241 241.790482243984 L 552 246 L 562.1626748576241 250.209517756016"/></g><g><path fill="none" stroke="#000000" paint-order="fill stroke markers" d=" M 562.1626748576241 241.790482243984 L 552 246 L 562.1626748576241 250.209517756016 L 562.1626748576241 241.790482243984" stroke-miterlimit="10" stroke-dasharray=""/></g><g><rect fill="#ffffff" stroke="none" x="578" y="227" width="200.4462890625" height="13" transform="matrix(1 0 0 1 -94 2)"/></g><g><g><path fill="none" stroke="none"/><text fill="#000000" stroke="none" font-family="Arial" font-size="13px" font-style="normal" font-weight="normal" text-decoration="undefined" x="678.22314453125" y="233.5" text-anchor="middle" dominant-baseline="central" transform="matrix(1 0 0 1 -94 2)">4 : 遍历并检索用户名匹配的乘车人</text></g></g><g><rect fill="#ffffff" stroke="none" x="632" y="244" width="14" height="28" transform="matrix(1 0 0 1 -94 2)"/></g><g><path fill="none" stroke="#000000" paint-order="fill stroke markers" d=" M 538 246 L 552 246 L 552 274 L 538 274 L 538 246 Z Z" stroke-miterlimit="10" stroke-dasharray=""/></g><g><path fill="none" stroke="#000000" paint-order="fill stroke markers" d=" M 531 299 L 261 299" stroke-miterlimit="10" stroke-dasharray="3"/></g><g><path fill="none" stroke="#000000" paint-order="fill stroke markers" d=" M 271.16267485762415 294.790482243984 L 261 299 L 271.16267485762415 303.209517756016" stroke-miterlimit="10" stroke-dasharray=""/></g><g><rect fill="#ffffff" stroke="none" x="446" y="301" width="87.9404296875" height="13" transform="matrix(1 0 0 1 -94 2)"/></g><g><g><path fill="none" stroke="none"/><text fill="#000000" stroke="none" font-family="Arial" font-size="13px" font-style="normal" font-weight="normal" text-decoration="undefined" x="489.97021484375" y="307.5" text-anchor="middle" dominant-baseline="central" transform="matrix(1 0 0 1 -94 2)">5 : passengers</text></g></g><g><path fill="none" stroke="#000000" paint-order="fill stroke markers" d=" M 261 338 L 291 338 L 291 358 L 268 358" stroke-miterlimit="10" stroke-dasharray=""/></g><g><path fill="#000000" stroke="none" paint-order="stroke fill markers" d=" M 278.16267485762415 353.790482243984 L 268 358 L 278.16267485762415 362.209517756016"/></g><g><path fill="none" stroke="#000000" paint-order="fill stroke markers" d=" M 278.16267485762415 353.790482243984 L 268 358 L 278.16267485762415 362.209517756016 L 278.16267485762415 353.790482243984" stroke-miterlimit="10" stroke-dasharray=""/></g><g><rect fill="#ffffff" stroke="none" x="257" y="339" width="275.0439453125" height="13" transform="matrix(1 0 0 1 -94 2)"/></g><g><g><path fill="none" stroke="none"/><text fill="#000000" stroke="none" font-family="Arial" font-size="13px" font-style="normal" font-weight="normal" text-decoration="undefined" x="394.52197265625" y="345.5" text-anchor="middle" dominant-baseline="central" transform="matrix(1 0 0 1 -94 2)">6 : refreshPassengerList根据搜索条件进行过滤</text></g></g><g><rect fill="#ffffff" stroke="none" x="348" y="356" width="14" height="28" transform="matrix(1 0 0 1 -94 2)"/></g><g><path fill="none" stroke="#000000" paint-order="fill stroke markers" d=" M 254 358 L 268 358 L 268 386 L 254 386 L 254 358 Z Z" stroke-miterlimit="10" stroke-dasharray=""/></g><g><path fill="none" stroke="#000000" paint-order="fill stroke markers" d=" M 247 410 L 103 410" stroke-miterlimit="10" stroke-dasharray="3"/></g><g><path fill="none" stroke="#000000" paint-order="fill stroke markers" d=" M 113.16267485762415 405.790482243984 L 103 410 L 113.16267485762415 414.209517756016" stroke-miterlimit="10" stroke-dasharray=""/></g><g><rect fill="#ffffff" stroke="none" x="175" y="412" width="187.4462890625" height="13" transform="matrix(1 0 0 1 -94 2)"/></g><g><g><path fill="none" stroke="none"/><text fill="#000000" stroke="none" font-family="Arial" font-size="13px" font-style="normal" font-weight="normal" text-decoration="undefined" x="268.72314453125" y="418.5" text-anchor="middle" dominant-baseline="central" transform="matrix(1 0 0 1 -94 2)">7 : 显示当前用户所有乘车人信息</text></g></g></g></svg>