<svg version="1.1" xmlns="http://www.w3.org/2000/svg" xmlns:xlink="http://www.w3.org/1999/xlink" width="712" height="612"><defs/><g><g><path fill="none" stroke="#000000" paint-order="fill stroke markers" d=" M 10 10 L 702 10 L 702 602 L 10 602 L 10 10" stroke-miterlimit="10" stroke-dasharray=""/></g><g><path fill="#ffffff" stroke="none" paint-order="stroke fill markers" d=" M 10 10 L 10 33 L 161.05908203125 33 L 172.55908203125 21.5 L 172.55908203125 10 L 10 10"/></g><g><path fill="none" stroke="#000000" paint-order="fill stroke markers" d=" M 10 10 L 10 33 L 161.05908203125 33 L 172.55908203125 21.5 L 172.55908203125 10 L 10 10 L 10 10" stroke-miterlimit="10" stroke-dasharray=""/></g><g><g><path fill="none" stroke="none"/><text fill="#000000" stroke="none" font-family="Arial" font-size="13px" font-style="normal" font-weight="normal" text-decoration="undefined" x="149.39453125" y="19.5" text-anchor="middle" dominant-baseline="central" transform="matrix(1 0 0 1 -54 2)">顺序图-修改个人信息</text></g></g><g><g><path fill="none" stroke="none"/><text fill="#000000" stroke="none" font-family="Arial" font-size="13px" font-style="normal" font-weight="bold" text-decoration="undefined" x="75.864990234375" y="19.5" text-anchor="middle" dominant-baseline="central" transform="matrix(1 0 0 1 -54 2)">sd</text></g></g><g><rect fill="#C0C0C0" stroke="none" x="127" y="47" width="72.736328125" height="40" transform="matrix(1 0 0 1 -54 2)" fill-opacity="0.2"/></g><g><rect fill="#ffffff" stroke="none" x="120" y="40" width="72.736328125" height="40" transform="matrix(1 0 0 1 -54 2)"/></g><g><path fill="none" stroke="#000000" paint-order="fill stroke markers" d=" M 66 42 L 138.736328125 42 L 138.736328125 82 L 66 82 L 66 42 Z Z" stroke-miterlimit="10" stroke-dasharray=""/></g><g><g><path fill="none" stroke="none"/><text fill="#000000" stroke="none" font-family="Arial" font-size="13px" font-style="normal" font-weight="bold" text-decoration="undefined" x="156.8681640625" y="53.5" text-anchor="middle" dominant-baseline="central" transform="matrix(1 0 0 1 -54 2)">用户</text></g></g><g><path fill="none" stroke="#000000" paint-order="fill stroke markers" d=" M 102.5 83 L 102.5 562" stroke-miterlimit="10" stroke-dasharray="3"/></g><g><rect fill="#C0C0C0" stroke="none" x="319" y="47" width="72.736328125" height="40" transform="matrix(1 0 0 1 -54 2)" fill-opacity="0.2"/></g><g><rect fill="#ffffff" stroke="none" x="312" y="40" width="72.736328125" height="40" transform="matrix(1 0 0 1 -54 2)"/></g><g><path fill="none" stroke="#000000" paint-order="fill stroke markers" d=" M 258 42 L 330.736328125 42 L 330.736328125 82 L 258 82 L 258 42 Z Z" stroke-miterlimit="10" stroke-dasharray=""/></g><g><g><path fill="none" stroke="none"/><text fill="#000000" stroke="none" font-family="Arial" font-size="13px" font-style="normal" font-weight="bold" text-decoration="undefined" x="348.8681640625" y="53.5" text-anchor="middle" dominant-baseline="central" transform="matrix(1 0 0 1 -54 2)">前端</text></g></g><g><path fill="none" stroke="#000000" paint-order="fill stroke markers" d=" M 294.5 83 L 294.5 552" stroke-miterlimit="10" stroke-dasharray="3"/></g><g><rect fill="#C0C0C0" stroke="none" x="559" y="47" width="125.4599609375" height="40" transform="matrix(1 0 0 1 -54 2)" fill-opacity="0.2"/></g><g><rect fill="#ffffff" stroke="none" x="552" y="40" width="125.4599609375" height="40" transform="matrix(1 0 0 1 -54 2)"/></g><g><path fill="none" stroke="#000000" paint-order="fill stroke markers" d=" M 498 42 L 623.4599609375 42 L 623.4599609375 82 L 498 82 L 498 42 Z Z" stroke-miterlimit="10" stroke-dasharray=""/></g><g><g><path fill="none" stroke="none"/><text fill="#000000" stroke="none" font-family="Arial" font-size="13px" font-style="normal" font-weight="bold" text-decoration="undefined" x="615.22998046875" y="53.5" text-anchor="middle" dominant-baseline="central" transform="matrix(1 0 0 1 -54 2)">AccountManager</text></g></g><g><path fill="none" stroke="#000000" paint-order="fill stroke markers" d=" M 561.5 83 L 561.5 538" stroke-miterlimit="10" stroke-dasharray="3"/></g><g><path fill="none" stroke="#000000" paint-order="fill stroke markers" d=" M 103 120 L 287 120" stroke-miterlimit="10" stroke-dasharray=""/></g><g><path fill="#000000" stroke="none" paint-order="stroke fill markers" d=" M 276.83732514237585 124.20951775601598 L 287 120 L 276.83732514237585 115.79048224398402"/></g><g><path fill="none" stroke="#000000" paint-order="fill stroke markers" d=" M 276.83732514237585 124.20951775601598 L 287 120 L 276.83732514237585 115.79048224398402 L 276.83732514237585 124.20951775601598" stroke-miterlimit="10" stroke-dasharray=""/></g><g><rect fill="#ffffff" stroke="none" x="201" y="102" width="96.0654296875" height="13" transform="matrix(1 0 0 1 -54 2)"/></g><g><g><path fill="none" stroke="none"/><text fill="#000000" stroke="none" font-family="Arial" font-size="13px" font-style="normal" font-weight="normal" text-decoration="undefined" x="249.03271484375" y="108.5" text-anchor="middle" dominant-baseline="central" transform="matrix(1 0 0 1 -54 2)">1 : 点击编辑按钮</text></g></g><g><rect fill="#ffffff" stroke="none" x="341" y="118" width="14" height="28" transform="matrix(1 0 0 1 -54 2)"/></g><g><path fill="none" stroke="#000000" paint-order="fill stroke markers" d=" M 287 120 L 301 120 L 301 148 L 287 148 L 287 120 Z Z" stroke-miterlimit="10" stroke-dasharray=""/></g><g><path fill="none" stroke="#000000" paint-order="fill stroke markers" d=" M 301 146 L 331 146 L 331 166 L 301 166" stroke-miterlimit="10" stroke-dasharray=""/></g><g><path fill="#000000" stroke="none" paint-order="stroke fill markers" d=" M 311.16267485762415 161.790482243984 L 301 166 L 311.16267485762415 170.209517756016"/></g><g><path fill="none" stroke="#000000" paint-order="fill stroke markers" d=" M 311.16267485762415 161.790482243984 L 301 166 L 311.16267485762415 170.209517756016 L 311.16267485762415 161.790482243984" stroke-miterlimit="10" stroke-dasharray=""/></g><g><rect fill="#ffffff" stroke="none" x="320" y="147" width="149.54443359375" height="13" transform="matrix(1 0 0 1 -54 2)"/></g><g><g><path fill="none" stroke="none"/><text fill="#000000" stroke="none" font-family="Arial" font-size="13px" font-style="normal" font-weight="normal" text-decoration="undefined" x="394.772216796875" y="153.5" text-anchor="middle" dominant-baseline="central" transform="matrix(1 0 0 1 -54 2)">2 : 利用Loader弹出修改窗</text></g></g><g><rect fill="#ffffff" stroke="none" x="341" y="164" width="14" height="28" transform="matrix(1 0 0 1 -54 2)"/></g><g><path fill="none" stroke="#000000" paint-order="fill stroke markers" d=" M 287 166 L 301 166 L 301 194 L 287 194 L 287 166 Z Z" stroke-miterlimit="10" stroke-dasharray=""/></g><g><path fill="none" stroke="#000000" paint-order="fill stroke markers" d=" M 287 188 L 103 188" stroke-miterlimit="10" stroke-dasharray="3"/></g><g><path fill="none" stroke="#000000" paint-order="fill stroke markers" d=" M 113.16267485762415 183.790482243984 L 103 188 L 113.16267485762415 192.209517756016" stroke-miterlimit="10" stroke-dasharray=""/></g><g><rect fill="#ffffff" stroke="none" x="148" y="190" width="200.0654296875" height="13" transform="matrix(1 0 0 1 -54 2)"/></g><g><g><path fill="none" stroke="none"/><text fill="#000000" stroke="none" font-family="Arial" font-size="13px" font-style="normal" font-weight="normal" text-decoration="undefined" x="248.03271484375" y="196.5" text-anchor="middle" dominant-baseline="central" transform="matrix(1 0 0 1 -54 2)">3 : 显示修改窗口，待用户填写信息</text></g></g><g><path fill="none" stroke="#000000" paint-order="fill stroke markers" d=" M 103 266 L 287 266" stroke-miterlimit="10" stroke-dasharray=""/></g><g><path fill="#000000" stroke="none" paint-order="stroke fill markers" d=" M 276.83732514237585 270.209517756016 L 287 266 L 276.83732514237585 261.790482243984"/></g><g><path fill="none" stroke="#000000" paint-order="fill stroke markers" d=" M 276.83732514237585 270.209517756016 L 287 266 L 276.83732514237585 261.790482243984 L 276.83732514237585 270.209517756016" stroke-miterlimit="10" stroke-dasharray=""/></g><g><rect fill="#ffffff" stroke="none" x="169" y="248" width="161.0654296875" height="13" transform="matrix(1 0 0 1 -54 2)"/></g><g><g><path fill="none" stroke="none"/><text fill="#000000" stroke="none" font-family="Arial" font-size="13px" font-style="normal" font-weight="normal" text-decoration="undefined" x="249.53271484375" y="254.5" text-anchor="middle" dominant-baseline="central" transform="matrix(1 0 0 1 -54 2)">4 : 用户填写信息并点击确认</text></g></g><g><rect fill="#ffffff" stroke="none" x="341" y="264" width="14" height="32" transform="matrix(1 0 0 1 -54 2)"/></g><g><path fill="none" stroke="#000000" paint-order="fill stroke markers" d=" M 287 266 L 301 266 L 301 298 L 287 298 L 287 266 Z Z" stroke-miterlimit="10" stroke-dasharray=""/></g><g><path fill="none" stroke="#000000" paint-order="fill stroke markers" d=" M 301 290 L 331 290 L 331 310 L 301 310" stroke-miterlimit="10" stroke-dasharray=""/></g><g><path fill="#000000" stroke="none" paint-order="stroke fill markers" d=" M 311.16267485762415 305.790482243984 L 301 310 L 311.16267485762415 314.209517756016"/></g><g><path fill="none" stroke="#000000" paint-order="fill stroke markers" d=" M 311.16267485762415 305.790482243984 L 301 310 L 311.16267485762415 314.209517756016 L 311.16267485762415 305.790482243984" stroke-miterlimit="10" stroke-dasharray=""/></g><g><rect fill="#ffffff" stroke="none" x="340" y="291" width="109.0654296875" height="13" transform="matrix(1 0 0 1 -54 2)"/></g><g><g><path fill="none" stroke="none"/><text fill="#000000" stroke="none" font-family="Arial" font-size="13px" font-style="normal" font-weight="normal" text-decoration="undefined" x="394.53271484375" y="297.5" text-anchor="middle" dominant-baseline="central" transform="matrix(1 0 0 1 -54 2)">5 : 输入合法性检查</text></g></g><g><rect fill="#ffffff" stroke="none" x="341" y="308" width="14" height="228" transform="matrix(1 0 0 1 -54 2)"/></g><g><path fill="none" stroke="#000000" paint-order="fill stroke markers" d=" M 287 310 L 301 310 L 301 538 L 287 538 L 287 310 Z Z" stroke-miterlimit="10" stroke-dasharray=""/></g><g><path fill="none" stroke="#000000" paint-order="fill stroke markers" d=" M 301 338 L 554 338" stroke-miterlimit="10" stroke-dasharray=""/></g><g><path fill="#000000" stroke="none" paint-order="stroke fill markers" d=" M 543.8373251423759 342.209517756016 L 554 338 L 543.8373251423758 333.790482243984"/></g><g><path fill="none" stroke="#000000" paint-order="fill stroke markers" d=" M 543.8373251423759 342.209517756016 L 554 338 L 543.8373251423758 333.790482243984 L 543.8373251423759 342.209517756016" stroke-miterlimit="10" stroke-dasharray=""/></g><g><rect fill="#ffffff" stroke="none" x="418" y="320" width="127.89892578125" height="13" transform="matrix(1 0 0 1 -54 2)"/></g><g><g><path fill="none" stroke="none"/><text fill="#000000" stroke="none" font-family="Arial" font-size="13px" font-style="normal" font-weight="normal" text-decoration="undefined" x="481.949462890625" y="326.5" text-anchor="middle" dominant-baseline="central" transform="matrix(1 0 0 1 -54 2)">6 : editUserProfile_api</text></g></g><g><rect fill="#ffffff" stroke="none" x="608" y="336" width="14" height="28" transform="matrix(1 0 0 1 -54 2)"/></g><g><path fill="none" stroke="#000000" paint-order="fill stroke markers" d=" M 554 338 L 568 338 L 568 366 L 554 366 L 554 338 Z Z" stroke-miterlimit="10" stroke-dasharray=""/></g><g><path fill="none" stroke="#000000" paint-order="fill stroke markers" d=" M 568 362 L 598 362 L 598 382 L 568 382" stroke-miterlimit="10" stroke-dasharray=""/></g><g><path fill="#000000" stroke="none" paint-order="stroke fill markers" d=" M 578.1626748576241 377.790482243984 L 568 382 L 578.1626748576241 386.209517756016"/></g><g><path fill="none" stroke="#000000" paint-order="fill stroke markers" d=" M 578.1626748576241 377.790482243984 L 568 382 L 578.1626748576241 386.209517756016 L 578.1626748576241 377.790482243984" stroke-miterlimit="10" stroke-dasharray=""/></g><g><rect fill="#ffffff" stroke="none" x="587" y="363" width="148.0654296875" height="13" transform="matrix(1 0 0 1 -54 2)"/></g><g><g><path fill="none" stroke="none"/><text fill="#000000" stroke="none" font-family="Arial" font-size="13px" font-style="normal" font-weight="normal" text-decoration="undefined" x="661.03271484375" y="369.5" text-anchor="middle" dominant-baseline="central" transform="matrix(1 0 0 1 -54 2)">7 : 根据用户名查找该用户</text></g></g><g><rect fill="#ffffff" stroke="none" x="608" y="380" width="14" height="28" transform="matrix(1 0 0 1 -54 2)"/></g><g><path fill="none" stroke="#000000" paint-order="fill stroke markers" d=" M 554 382 L 568 382 L 568 410 L 554 410 L 554 382 Z Z" stroke-miterlimit="10" stroke-dasharray=""/></g><g><path fill="none" stroke="#000000" paint-order="fill stroke markers" d=" M 568 402 L 598 402 L 598 422 L 568 422" stroke-miterlimit="10" stroke-dasharray=""/></g><g><path fill="#000000" stroke="none" paint-order="stroke fill markers" d=" M 578.1626748576241 417.790482243984 L 568 422 L 578.1626748576241 426.209517756016"/></g><g><path fill="none" stroke="#000000" paint-order="fill stroke markers" d=" M 578.1626748576241 417.790482243984 L 568 422 L 578.1626748576241 426.209517756016 L 578.1626748576241 417.790482243984" stroke-miterlimit="10" stroke-dasharray=""/></g><g><rect fill="#ffffff" stroke="none" x="568" y="403" width="187.0654296875" height="13" transform="matrix(1 0 0 1 -54 2)"/></g><g><g><path fill="none" stroke="none"/><text fill="#000000" stroke="none" font-family="Arial" font-size="13px" font-style="normal" font-weight="normal" text-decoration="undefined" x="661.53271484375" y="409.5" text-anchor="middle" dominant-baseline="central" transform="matrix(1 0 0 1 -54 2)">8 : 身份证唯一性检查、应用更改</text></g></g><g><rect fill="#ffffff" stroke="none" x="608" y="420" width="14" height="28" transform="matrix(1 0 0 1 -54 2)"/></g><g><path fill="none" stroke="#000000" paint-order="fill stroke markers" d=" M 554 422 L 568 422 L 568 450 L 554 450 L 554 422 Z Z" stroke-miterlimit="10" stroke-dasharray=""/></g><g><path fill="none" stroke="#000000" paint-order="fill stroke markers" d=" M 561 450 L 301 450" stroke-miterlimit="10" stroke-dasharray="3"/></g><g><path fill="none" stroke="#000000" paint-order="fill stroke markers" d=" M 311.16267485762415 445.790482243984 L 301 450 L 311.16267485762415 454.209517756016" stroke-miterlimit="10" stroke-dasharray=""/></g><g><rect fill="#ffffff" stroke="none" x="431" y="452" width="107.62451171875" height="13" transform="matrix(1 0 0 1 -54 2)"/></g><g><g><path fill="none" stroke="none"/><text fill="#000000" stroke="none" font-family="Arial" font-size="13px" font-style="normal" font-weight="normal" text-decoration="undefined" x="484.812255859375" y="458.5" text-anchor="middle" dominant-baseline="central" transform="matrix(1 0 0 1 -54 2)">9 : 修改成功or失败</text></g></g><g><path fill="none" stroke="#000000" paint-order="fill stroke markers" d=" M 287 482 L 103 482" stroke-miterlimit="10" stroke-dasharray="3"/></g><g><path fill="none" stroke="#000000" paint-order="fill stroke markers" d=" M 113.16267485762415 477.790482243984 L 103 482 L 113.16267485762415 486.209517756016" stroke-miterlimit="10" stroke-dasharray=""/></g><g><rect fill="#ffffff" stroke="none" x="210" y="484" width="77.29541015625" height="13" transform="matrix(1 0 0 1 -54 2)"/></g><g><g><path fill="none" stroke="none"/><text fill="#000000" stroke="none" font-family="Arial" font-size="13px" font-style="normal" font-weight="normal" text-decoration="undefined" x="248.647705078125" y="490.5" text-anchor="middle" dominant-baseline="central" transform="matrix(1 0 0 1 -54 2)">10 : 弹窗回复</text></g></g><g><path fill="none" stroke="#000000" paint-order="fill stroke markers" d=" M 287 514 L 103 514" stroke-miterlimit="10" stroke-dasharray="3"/></g><g><path fill="none" stroke="#000000" paint-order="fill stroke markers" d=" M 113.16267485762415 509.790482243984 L 103 514 L 113.16267485762415 518.209517756016" stroke-miterlimit="10" stroke-dasharray=""/></g><g><rect fill="#ffffff" stroke="none" x="184" y="516" width="128.33056640625" height="13" transform="matrix(1 0 0 1 -54 2)"/></g><g><g><path fill="none" stroke="none"/><text fill="#000000" stroke="none" font-family="Arial" font-size="13px" font-style="normal" font-weight="normal" text-decoration="undefined" x="248.165283203125" y="522.5" text-anchor="middle" dominant-baseline="central" transform="matrix(1 0 0 1 -54 2)">11 : 显示修改后的信息</text></g></g></g></svg>