<svg version="1.1" xmlns="http://www.w3.org/2000/svg" xmlns:xlink="http://www.w3.org/1999/xlink" width="428" height="372"><defs/><g><g><path fill="none" stroke="#000000" paint-order="fill stroke markers" d=" M 10 10 L 418 10 L 418 362 L 10 362 L 10 10" stroke-miterlimit="10" stroke-dasharray=""/></g><g><path fill="#ffffff" stroke="none" paint-order="stroke fill markers" d=" M 10 10 L 10 33 L 135.05908203125 33 L 146.55908203125 21.5 L 146.55908203125 10 L 10 10"/></g><g><path fill="none" stroke="#000000" paint-order="fill stroke markers" d=" M 10 10 L 10 33 L 135.05908203125 33 L 146.55908203125 21.5 L 146.55908203125 10 L 10 10 L 10 10" stroke-miterlimit="10" stroke-dasharray=""/></g><g><g><path fill="none" stroke="none"/><text fill="#000000" stroke="none" font-family="Arial" font-size="13px" font-style="normal" font-weight="normal" text-decoration="undefined" x="152.39453125" y="19.5" text-anchor="middle" dominant-baseline="central" transform="matrix(1 0 0 1 -70 2)">顺序图-退出登录</text></g></g><g><g><path fill="none" stroke="none"/><text fill="#000000" stroke="none" font-family="Arial" font-size="13px" font-style="normal" font-weight="bold" text-decoration="undefined" x="91.864990234375" y="19.5" text-anchor="middle" dominant-baseline="central" transform="matrix(1 0 0 1 -70 2)">sd</text></g></g><g><rect fill="#C0C0C0" stroke="none" x="119" y="47" width="72.736328125" height="40" transform="matrix(1 0 0 1 -70 2)" fill-opacity="0.2"/></g><g><rect fill="#ffffff" stroke="none" x="112" y="40" width="72.736328125" height="40" transform="matrix(1 0 0 1 -70 2)"/></g><g><path fill="none" stroke="#000000" paint-order="fill stroke markers" d=" M 42 42 L 114.736328125 42 L 114.736328125 82 L 42 82 L 42 42 Z Z" stroke-miterlimit="10" stroke-dasharray=""/></g><g><g><path fill="none" stroke="none"/><text fill="#000000" stroke="none" font-family="Arial" font-size="13px" font-style="normal" font-weight="bold" text-decoration="undefined" x="148.8681640625" y="53.5" text-anchor="middle" dominant-baseline="central" transform="matrix(1 0 0 1 -70 2)">用户</text></g></g><g><path fill="none" stroke="#000000" paint-order="fill stroke markers" d=" M 78.5 83 L 78.5 338" stroke-miterlimit="10" stroke-dasharray="3"/></g><g><rect fill="#C0C0C0" stroke="none" x="271" y="47" width="72.736328125" height="40" transform="matrix(1 0 0 1 -70 2)" fill-opacity="0.2"/></g><g><rect fill="#ffffff" stroke="none" x="264" y="40" width="72.736328125" height="40" transform="matrix(1 0 0 1 -70 2)"/></g><g><path fill="none" stroke="#000000" paint-order="fill stroke markers" d=" M 194 42 L 266.736328125 42 L 266.736328125 82 L 194 82 L 194 42 Z Z" stroke-miterlimit="10" stroke-dasharray=""/></g><g><g><path fill="none" stroke="none"/><text fill="#000000" stroke="none" font-family="Arial" font-size="13px" font-style="normal" font-weight="bold" text-decoration="undefined" x="300.8681640625" y="53.5" text-anchor="middle" dominant-baseline="central" transform="matrix(1 0 0 1 -70 2)">前端</text></g></g><g><path fill="none" stroke="#000000" paint-order="fill stroke markers" d=" M 230.5 83 L 230.5 330" stroke-miterlimit="10" stroke-dasharray="3"/></g><g><path fill="none" stroke="#000000" paint-order="fill stroke markers" d=" M 79 103 L 223 103" stroke-miterlimit="10" stroke-dasharray=""/></g><g><path fill="#000000" stroke="none" paint-order="stroke fill markers" d=" M 212.83732514237585 107.20951775601598 L 223 103 L 212.83732514237585 98.79048224398402"/></g><g><path fill="none" stroke="#000000" paint-order="fill stroke markers" d=" M 212.83732514237585 107.20951775601598 L 223 103 L 212.83732514237585 98.79048224398402 L 212.83732514237585 107.20951775601598" stroke-miterlimit="10" stroke-dasharray=""/></g><g><rect fill="#ffffff" stroke="none" x="156" y="85" width="130.7236328125" height="13" transform="matrix(1 0 0 1 -70 2)"/></g><g><g><path fill="none" stroke="none"/><text fill="#000000" stroke="none" font-family="Arial" font-size="13px" font-style="normal" font-weight="normal" text-decoration="undefined" x="221.36181640625" y="91.5" text-anchor="middle" dominant-baseline="central" transform="matrix(1 0 0 1 -70 2)">1 : 点击“退出登录”按钮</text></g></g><g><rect fill="#ffffff" stroke="none" x="293" y="101" width="14" height="28" transform="matrix(1 0 0 1 -70 2)"/></g><g><path fill="none" stroke="#000000" paint-order="fill stroke markers" d=" M 223 103 L 237 103 L 237 131 L 223 131 L 223 103 Z Z" stroke-miterlimit="10" stroke-dasharray=""/></g><g><path fill="none" stroke="#000000" paint-order="fill stroke markers" d=" M 237 122 L 267 122 L 267 142 L 237 142" stroke-miterlimit="10" stroke-dasharray=""/></g><g><path fill="#000000" stroke="none" paint-order="stroke fill markers" d=" M 247.16267485762415 137.790482243984 L 237 142 L 247.16267485762415 146.209517756016"/></g><g><path fill="none" stroke="#000000" paint-order="fill stroke markers" d=" M 247.16267485762415 137.790482243984 L 237 142 L 247.16267485762415 146.209517756016 L 247.16267485762415 137.790482243984" stroke-miterlimit="10" stroke-dasharray=""/></g><g><rect fill="#ffffff" stroke="none" x="252" y="123" width="188.54443359375" height="13" transform="matrix(1 0 0 1 -70 2)"/></g><g><g><path fill="none" stroke="none"/><text fill="#000000" stroke="none" font-family="Arial" font-size="13px" font-style="normal" font-weight="normal" text-decoration="undefined" x="346.272216796875" y="129.5" text-anchor="middle" dominant-baseline="central" transform="matrix(1 0 0 1 -70 2)">2 : 利用Loader弹窗显示确认窗口</text></g></g><g><rect fill="#ffffff" stroke="none" x="293" y="140" width="14" height="28" transform="matrix(1 0 0 1 -70 2)"/></g><g><path fill="none" stroke="#000000" paint-order="fill stroke markers" d=" M 223 142 L 237 142 L 237 170 L 223 170 L 223 142 Z Z" stroke-miterlimit="10" stroke-dasharray=""/></g><g><path fill="none" stroke="#000000" paint-order="fill stroke markers" d=" M 223 166 L 79 166" stroke-miterlimit="10" stroke-dasharray="3"/></g><g><path fill="none" stroke="#000000" paint-order="fill stroke markers" d=" M 89.16267485762415 161.790482243984 L 79 166 L 89.16267485762415 170.209517756016" stroke-miterlimit="10" stroke-dasharray=""/></g><g><rect fill="#ffffff" stroke="none" x="146" y="168" width="148.0654296875" height="13" transform="matrix(1 0 0 1 -70 2)"/></g><g><g><path fill="none" stroke="none"/><text fill="#000000" stroke="none" font-family="Arial" font-size="13px" font-style="normal" font-weight="normal" text-decoration="undefined" x="220.03271484375" y="174.5" text-anchor="middle" dominant-baseline="central" transform="matrix(1 0 0 1 -70 2)">3 : 显示弹窗，待用户确认</text></g></g><g><path fill="none" stroke="#000000" paint-order="fill stroke markers" d=" M 79 218 L 223 218" stroke-miterlimit="10" stroke-dasharray=""/></g><g><path fill="#000000" stroke="none" paint-order="stroke fill markers" d=" M 212.83732514237585 222.209517756016 L 223 218 L 212.83732514237585 213.790482243984"/></g><g><path fill="none" stroke="#000000" paint-order="fill stroke markers" d=" M 212.83732514237585 222.209517756016 L 223 218 L 212.83732514237585 213.790482243984 L 212.83732514237585 222.209517756016" stroke-miterlimit="10" stroke-dasharray=""/></g><g><rect fill="#ffffff" stroke="none" x="173" y="200" width="96.0654296875" height="13" transform="matrix(1 0 0 1 -70 2)"/></g><g><g><path fill="none" stroke="none"/><text fill="#000000" stroke="none" font-family="Arial" font-size="13px" font-style="normal" font-weight="normal" text-decoration="undefined" x="221.03271484375" y="206.5" text-anchor="middle" dominant-baseline="central" transform="matrix(1 0 0 1 -70 2)">4 : 用户点击确认</text></g></g><g><rect fill="#ffffff" stroke="none" x="293" y="216" width="14" height="28" transform="matrix(1 0 0 1 -70 2)"/></g><g><path fill="none" stroke="#000000" paint-order="fill stroke markers" d=" M 223 218 L 237 218 L 237 246 L 223 246 L 223 218 Z Z" stroke-miterlimit="10" stroke-dasharray=""/></g><g><path fill="none" stroke="#000000" paint-order="fill stroke markers" d=" M 237 242 L 267 242 L 267 262 L 237 262" stroke-miterlimit="10" stroke-dasharray=""/></g><g><path fill="#000000" stroke="none" paint-order="stroke fill markers" d=" M 247.16267485762415 257.790482243984 L 237 262 L 247.16267485762415 266.209517756016"/></g><g><path fill="none" stroke="#000000" paint-order="fill stroke markers" d=" M 247.16267485762415 257.790482243984 L 237 262 L 247.16267485762415 266.209517756016 L 247.16267485762415 257.790482243984" stroke-miterlimit="10" stroke-dasharray=""/></g><g><rect fill="#ffffff" stroke="none" x="241" y="243" width="211.6689453125" height="13" transform="matrix(1 0 0 1 -70 2)"/></g><g><g><path fill="none" stroke="none"/><text fill="#000000" stroke="none" font-family="Arial" font-size="13px" font-style="normal" font-weight="normal" text-decoration="undefined" x="346.83447265625" y="249.5" text-anchor="middle" dominant-baseline="central" transform="matrix(1 0 0 1 -70 2)">5 : 清空SessionState，返回登录页面</text></g></g><g><rect fill="#ffffff" stroke="none" x="293" y="260" width="14" height="44" transform="matrix(1 0 0 1 -70 2)"/></g><g><path fill="none" stroke="#000000" paint-order="fill stroke markers" d=" M 223 262 L 237 262 L 237 306 L 223 306 L 223 262 Z Z" stroke-miterlimit="10" stroke-dasharray=""/></g><g><path fill="none" stroke="#000000" paint-order="fill stroke markers" d=" M 223 299 L 79 299" stroke-miterlimit="10" stroke-dasharray="3"/></g><g><path fill="none" stroke="#000000" paint-order="fill stroke markers" d=" M 89.16267485762415 294.790482243984 L 79 299 L 89.16267485762415 303.209517756016" stroke-miterlimit="10" stroke-dasharray=""/></g><g><rect fill="#ffffff" stroke="none" x="172" y="301" width="96.0654296875" height="13" transform="matrix(1 0 0 1 -70 2)"/></g><g><g><path fill="none" stroke="none"/><text fill="#000000" stroke="none" font-family="Arial" font-size="13px" font-style="normal" font-weight="normal" text-decoration="undefined" x="220.03271484375" y="307.5" text-anchor="middle" dominant-baseline="central" transform="matrix(1 0 0 1 -70 2)">6 : 显示登录页面</text></g></g></g></svg>