<svg version="1.1" xmlns="http://www.w3.org/2000/svg" xmlns:xlink="http://www.w3.org/1999/xlink" width="620" height="452"><defs/><g><g><path fill="none" stroke="#000000" paint-order="fill stroke markers" d=" M 10 10 L 610 10 L 610 442 L 10 442 L 10 10" stroke-miterlimit="10" stroke-dasharray=""/></g><g><path fill="#ffffff" stroke="none" paint-order="stroke fill markers" d=" M 10 10 L 10 33 L 109.05908203125 33 L 120.55908203125 21.5 L 120.55908203125 10 L 10 10"/></g><g><path fill="none" stroke="#000000" paint-order="fill stroke markers" d=" M 10 10 L 10 33 L 109.05908203125 33 L 120.55908203125 21.5 L 120.55908203125 10 L 10 10 L 10 10" stroke-miterlimit="10" stroke-dasharray=""/></g><g><g><path fill="none" stroke="none"/><text fill="#000000" stroke="none" font-family="Arial" font-size="13px" font-style="normal" font-weight="normal" text-decoration="undefined" x="171.39453125" y="19.5" text-anchor="middle" dominant-baseline="central" transform="matrix(1 0 0 1 -102 2)">顺序图-登录</text></g></g><g><g><path fill="none" stroke="none"/><text fill="#000000" stroke="none" font-family="Arial" font-size="13px" font-style="normal" font-weight="bold" text-decoration="undefined" x="123.864990234375" y="19.5" text-anchor="middle" dominant-baseline="central" transform="matrix(1 0 0 1 -102 2)">sd</text></g></g><g><rect fill="#C0C0C0" stroke="none" x="167" y="47" width="99.0537109375" height="40" transform="matrix(1 0 0 1 -102 2)" fill-opacity="0.2"/></g><g><rect fill="#ffffff" stroke="none" x="160" y="40" width="99.0537109375" height="40" transform="matrix(1 0 0 1 -102 2)"/></g><g><path fill="none" stroke="#000000" paint-order="fill stroke markers" d=" M 58 42 L 157.0537109375 42 L 157.0537109375 82 L 58 82 L 58 42 Z Z" stroke-miterlimit="10" stroke-dasharray=""/></g><g><g><path fill="none" stroke="none"/><text fill="#000000" stroke="none" font-family="Arial" font-size="13px" font-style="normal" font-weight="bold" text-decoration="undefined" x="210.02685546875" y="53.5" text-anchor="middle" dominant-baseline="central" transform="matrix(1 0 0 1 -102 2)">用户or管理员</text></g></g><g><path fill="none" stroke="#000000" paint-order="fill stroke markers" d=" M 108.5 83 L 108.5 408" stroke-miterlimit="10" stroke-dasharray="3"/></g><g><rect fill="#C0C0C0" stroke="none" x="303" y="47" width="72.736328125" height="40" transform="matrix(1 0 0 1 -102 2)" fill-opacity="0.2"/></g><g><rect fill="#ffffff" stroke="none" x="296" y="40" width="72.736328125" height="40" transform="matrix(1 0 0 1 -102 2)"/></g><g><path fill="none" stroke="#000000" paint-order="fill stroke markers" d=" M 194 42 L 266.736328125 42 L 266.736328125 82 L 194 82 L 194 42 Z Z" stroke-miterlimit="10" stroke-dasharray=""/></g><g><g><path fill="none" stroke="none"/><text fill="#000000" stroke="none" font-family="Arial" font-size="13px" font-style="normal" font-weight="bold" text-decoration="undefined" x="332.8681640625" y="53.5" text-anchor="middle" dominant-baseline="central" transform="matrix(1 0 0 1 -102 2)">前端</text></g></g><g><path fill="none" stroke="#000000" paint-order="fill stroke markers" d=" M 230.5 83 L 230.5 408" stroke-miterlimit="10" stroke-dasharray="3"/></g><g><rect fill="#C0C0C0" stroke="none" x="559" y="47" width="132.505859375" height="40" transform="matrix(1 0 0 1 -102 2)" fill-opacity="0.2"/></g><g><rect fill="#ffffff" stroke="none" x="552" y="40" width="132.505859375" height="40" transform="matrix(1 0 0 1 -102 2)"/></g><g><path fill="none" stroke="#000000" paint-order="fill stroke markers" d=" M 450 42 L 582.505859375 42 L 582.505859375 82 L 450 82 L 450 42 Z Z" stroke-miterlimit="10" stroke-dasharray=""/></g><g><g><path fill="none" stroke="none"/><text fill="#000000" stroke="none" font-family="Arial" font-size="13px" font-style="normal" font-weight="bold" text-decoration="undefined" x="618.7529296875" y="53.5" text-anchor="middle" dominant-baseline="central" transform="matrix(1 0 0 1 -102 2)">AccountManager</text></g></g><g><path fill="none" stroke="#000000" paint-order="fill stroke markers" d=" M 516.5 83 L 516.5 242" stroke-miterlimit="10" stroke-dasharray="3"/></g><g><path fill="none" stroke="#000000" paint-order="fill stroke markers" d=" M 109 106 L 223 106" stroke-miterlimit="10" stroke-dasharray=""/></g><g><path fill="#000000" stroke="none" paint-order="stroke fill markers" d=" M 212.83732514237585 110.20951775601598 L 223 106 L 212.83732514237585 101.79048224398402"/></g><g><path fill="none" stroke="#000000" paint-order="fill stroke markers" d=" M 212.83732514237585 110.20951775601598 L 223 106 L 212.83732514237585 101.79048224398402 L 212.83732514237585 110.20951775601598" stroke-miterlimit="10" stroke-dasharray=""/></g><g><rect fill="#ffffff" stroke="none" x="229" y="88" width="78.04443359375" height="13" transform="matrix(1 0 0 1 -102 2)"/></g><g><g><path fill="none" stroke="none"/><text fill="#000000" stroke="none" font-family="Arial" font-size="13px" font-style="normal" font-weight="normal" text-decoration="undefined" x="268.022216796875" y="94.5" text-anchor="middle" dominant-baseline="central" transform="matrix(1 0 0 1 -102 2)">1 : 点击登录</text></g></g><g><rect fill="#ffffff" stroke="none" x="325" y="104" width="14" height="288" transform="matrix(1 0 0 1 -102 2)"/></g><g><path fill="none" stroke="#000000" paint-order="fill stroke markers" d=" M 223 106 L 237 106 L 237 394 L 223 394 L 223 106 Z Z" stroke-miterlimit="10" stroke-dasharray=""/></g><g><path fill="none" stroke="#000000" paint-order="fill stroke markers" d=" M 237 114 L 267 114 L 267 134 L 244 134" stroke-miterlimit="10" stroke-dasharray=""/></g><g><path fill="#000000" stroke="none" paint-order="stroke fill markers" d=" M 254.16267485762415 129.790482243984 L 244 134 L 254.16267485762415 138.209517756016"/></g><g><path fill="none" stroke="#000000" paint-order="fill stroke markers" d=" M 254.16267485762415 129.790482243984 L 244 134 L 254.16267485762415 138.209517756016 L 254.16267485762415 129.790482243984" stroke-miterlimit="10" stroke-dasharray=""/></g><g><rect fill="#ffffff" stroke="none" x="272" y="115" width="213.4462890625" height="13" transform="matrix(1 0 0 1 -102 2)"/></g><g><g><path fill="none" stroke="none"/><text fill="#000000" stroke="none" font-family="Arial" font-size="13px" font-style="normal" font-weight="normal" text-decoration="undefined" x="378.72314453125" y="121.5" text-anchor="middle" dominant-baseline="central" transform="matrix(1 0 0 1 -102 2)">2 : 判断是登录界面是用户还是管理员</text></g></g><g><rect fill="#ffffff" stroke="none" x="332" y="132" width="14" height="28" transform="matrix(1 0 0 1 -102 2)"/></g><g><path fill="none" stroke="#000000" paint-order="fill stroke markers" d=" M 230 134 L 244 134 L 244 162 L 230 162 L 230 134 Z Z" stroke-miterlimit="10" stroke-dasharray=""/></g><g><path fill="none" stroke="#000000" paint-order="fill stroke markers" d=" M 237 178 L 509 178" stroke-miterlimit="10" stroke-dasharray=""/></g><g><path fill="#000000" stroke="none" paint-order="stroke fill markers" d=" M 498.8373251423759 182.209517756016 L 509 178 L 498.8373251423758 173.790482243984"/></g><g><path fill="none" stroke="#000000" paint-order="fill stroke markers" d=" M 498.8373251423759 182.209517756016 L 509 178 L 498.8373251423758 173.790482243984 L 498.8373251423759 182.209517756016" stroke-miterlimit="10" stroke-dasharray=""/></g><g><rect fill="#ffffff" stroke="none" x="436" y="160" width="78.04443359375" height="13" transform="matrix(1 0 0 1 -102 2)"/></g><g><g><path fill="none" stroke="none"/><text fill="#000000" stroke="none" font-family="Arial" font-size="13px" font-style="normal" font-weight="normal" text-decoration="undefined" x="475.022216796875" y="166.5" text-anchor="middle" dominant-baseline="central" transform="matrix(1 0 0 1 -102 2)">3 : login_api</text></g></g><g><rect fill="#ffffff" stroke="none" x="611" y="176" width="14" height="40" transform="matrix(1 0 0 1 -102 2)"/></g><g><path fill="none" stroke="#000000" paint-order="fill stroke markers" d=" M 509 178 L 523 178 L 523 218 L 509 218 L 509 178 Z Z" stroke-miterlimit="10" stroke-dasharray=""/></g><g><path fill="none" stroke="#000000" paint-order="fill stroke markers" d=" M 509 198 L 237 198" stroke-miterlimit="10" stroke-dasharray="3"/></g><g><path fill="none" stroke="#000000" paint-order="fill stroke markers" d=" M 247.16267485762415 193.790482243984 L 237 198 L 247.16267485762415 202.209517756016" stroke-miterlimit="10" stroke-dasharray=""/></g><g><rect fill="#ffffff" stroke="none" x="442" y="200" width="65.025390625" height="13" transform="matrix(1 0 0 1 -102 2)"/></g><g><g><path fill="none" stroke="none"/><text fill="#000000" stroke="none" font-family="Arial" font-size="13px" font-style="normal" font-weight="normal" text-decoration="undefined" x="474.5126953125" y="206.5" text-anchor="middle" dominant-baseline="central" transform="matrix(1 0 0 1 -102 2)">4 : success</text></g></g><g><path fill="none" stroke="#000000" paint-order="fill stroke markers" d=" M 237 226 L 267 226 L 267 246 L 244 246" stroke-miterlimit="10" stroke-dasharray=""/></g><g><path fill="#000000" stroke="none" paint-order="stroke fill markers" d=" M 254.16267485762415 241.790482243984 L 244 246 L 254.16267485762415 250.209517756016"/></g><g><path fill="none" stroke="#000000" paint-order="fill stroke markers" d=" M 254.16267485762415 241.790482243984 L 244 246 L 254.16267485762415 250.209517756016 L 254.16267485762415 241.790482243984" stroke-miterlimit="10" stroke-dasharray=""/></g><g><rect fill="#ffffff" stroke="none" x="246" y="227" width="265.28759765625" height="13" transform="matrix(1 0 0 1 -102 2)"/></g><g><g><path fill="none" stroke="none"/><text fill="#000000" stroke="none" font-family="Arial" font-size="13px" font-style="normal" font-weight="normal" text-decoration="undefined" x="378.643798828125" y="233.5" text-anchor="middle" dominant-baseline="central" transform="matrix(1 0 0 1 -102 2)">5 : 将登录状态保存在全局对象SessionState中</text></g></g><g><rect fill="#ffffff" stroke="none" x="332" y="244" width="14" height="28" transform="matrix(1 0 0 1 -102 2)"/></g><g><path fill="none" stroke="#000000" paint-order="fill stroke markers" d=" M 230 246 L 244 246 L 244 274 L 230 274 L 230 246 Z Z" stroke-miterlimit="10" stroke-dasharray=""/></g><g><path fill="none" stroke="#000000" paint-order="fill stroke markers" d=" M 237 290 L 267 290 L 267 310 L 244 310" stroke-miterlimit="10" stroke-dasharray=""/></g><g><path fill="#000000" stroke="none" paint-order="stroke fill markers" d=" M 254.16267485762415 305.790482243984 L 244 310 L 254.16267485762415 314.209517756016"/></g><g><path fill="none" stroke="#000000" paint-order="fill stroke markers" d=" M 254.16267485762415 305.790482243984 L 244 310 L 254.16267485762415 314.209517756016 L 254.16267485762415 305.790482243984" stroke-miterlimit="10" stroke-dasharray=""/></g><g><rect fill="#ffffff" stroke="none" x="339" y="291" width="78.04443359375" height="13" transform="matrix(1 0 0 1 -102 2)"/></g><g><g><path fill="none" stroke="none"/><text fill="#000000" stroke="none" font-family="Arial" font-size="13px" font-style="normal" font-weight="normal" text-decoration="undefined" x="378.022216796875" y="297.5" text-anchor="middle" dominant-baseline="central" transform="matrix(1 0 0 1 -102 2)">6 : 页面跳转</text></g></g><g><rect fill="#ffffff" stroke="none" x="332" y="308" width="14" height="28" transform="matrix(1 0 0 1 -102 2)"/></g><g><path fill="none" stroke="#000000" paint-order="fill stroke markers" d=" M 230 310 L 244 310 L 244 338 L 230 338 L 230 310 Z Z" stroke-miterlimit="10" stroke-dasharray=""/></g><g><path fill="none" stroke="#000000" paint-order="fill stroke markers" d=" M 223 357 L 109 357" stroke-miterlimit="10" stroke-dasharray="3"/></g><g><path fill="none" stroke="#000000" paint-order="fill stroke markers" d=" M 119.16267485762415 352.790482243984 L 109 357 L 119.16267485762415 361.209517756016" stroke-miterlimit="10" stroke-dasharray=""/></g><g><rect fill="#ffffff" stroke="none" x="174" y="359" width="187.4462890625" height="13" transform="matrix(1 0 0 1 -102 2)"/></g><g><g><path fill="none" stroke="none"/><text fill="#000000" stroke="none" font-family="Arial" font-size="13px" font-style="normal" font-weight="normal" text-decoration="undefined" x="267.72314453125" y="365.5" text-anchor="middle" dominant-baseline="central" transform="matrix(1 0 0 1 -102 2)">7 : 登录成功，进入对应角色首页</text></g></g></g></svg>