<svg version="1.1" xmlns="http://www.w3.org/2000/svg" xmlns:xlink="http://www.w3.org/1999/xlink" width="956" height="796"><defs/><g><g><path fill="none" stroke="#000000" paint-order="fill stroke markers" d=" M 10 10 L 946 10 L 946 786 L 10 786 L 10 10" stroke-miterlimit="10" stroke-dasharray=""/></g><g><path fill="#ffffff" stroke="none" paint-order="stroke fill markers" d=" M 10 10 L 10 33 L 135.05908203125 33 L 146.55908203125 21.5 L 146.55908203125 10 L 10 10"/></g><g><path fill="none" stroke="#000000" paint-order="fill stroke markers" d=" M 10 10 L 10 33 L 135.05908203125 33 L 146.55908203125 21.5 L 146.55908203125 10 L 10 10 L 10 10" stroke-miterlimit="10" stroke-dasharray=""/></g><g><g><path fill="none" stroke="none"/><text fill="#000000" stroke="none" font-family="Arial" font-size="13px" font-style="normal" font-weight="normal" text-decoration="undefined" x="296.39453125" y="19.5" text-anchor="middle" dominant-baseline="central" transform="matrix(1 0 0 1 -214 2)">顺序图-查询余票</text></g></g><g><g><path fill="none" stroke="none"/><text fill="#000000" stroke="none" font-family="Arial" font-size="13px" font-style="normal" font-weight="bold" text-decoration="undefined" x="235.864990234375" y="19.5" text-anchor="middle" dominant-baseline="central" transform="matrix(1 0 0 1 -214 2)">sd</text></g></g><g><rect fill="#C0C0C0" stroke="none" x="279" y="47" width="72.736328125" height="40" transform="matrix(1 0 0 1 -214 2)" fill-opacity="0.2"/></g><g><rect fill="#ffffff" stroke="none" x="272" y="40" width="72.736328125" height="40" transform="matrix(1 0 0 1 -214 2)"/></g><g><path fill="none" stroke="#000000" paint-order="fill stroke markers" d=" M 58 42 L 130.736328125 42 L 130.736328125 82 L 58 82 L 58 42 Z Z" stroke-miterlimit="10" stroke-dasharray=""/></g><g><g><path fill="none" stroke="none"/><text fill="#000000" stroke="none" font-family="Arial" font-size="13px" font-style="normal" font-weight="bold" text-decoration="undefined" x="308.8681640625" y="53.5" text-anchor="middle" dominant-baseline="central" transform="matrix(1 0 0 1 -214 2)">用户</text></g></g><g><path fill="none" stroke="#000000" paint-order="fill stroke markers" d=" M 94.5 83 L 94.5 745" stroke-miterlimit="10" stroke-dasharray="3"/></g><g><rect fill="#C0C0C0" stroke="none" x="431" y="47" width="72.736328125" height="40" transform="matrix(1 0 0 1 -214 2)" fill-opacity="0.2"/></g><g><rect fill="#ffffff" stroke="none" x="424" y="40" width="72.736328125" height="40" transform="matrix(1 0 0 1 -214 2)"/></g><g><path fill="none" stroke="#000000" paint-order="fill stroke markers" d=" M 210 42 L 282.736328125 42 L 282.736328125 82 L 210 82 L 210 42 Z Z" stroke-miterlimit="10" stroke-dasharray=""/></g><g><g><path fill="none" stroke="none"/><text fill="#000000" stroke="none" font-family="Arial" font-size="13px" font-style="normal" font-weight="bold" text-decoration="undefined" x="460.8681640625" y="53.5" text-anchor="middle" dominant-baseline="central" transform="matrix(1 0 0 1 -214 2)">前端</text></g></g><g><path fill="none" stroke="#000000" paint-order="fill stroke markers" d=" M 246.5 83 L 246.5 763" stroke-miterlimit="10" stroke-dasharray="3"/></g><g><rect fill="#C0C0C0" stroke="none" x="583" y="47" width="121.64501953125" height="40" transform="matrix(1 0 0 1 -214 2)" fill-opacity="0.2"/></g><g><rect fill="#ffffff" stroke="none" x="576" y="40" width="121.64501953125" height="40" transform="matrix(1 0 0 1 -214 2)"/></g><g><path fill="none" stroke="#000000" paint-order="fill stroke markers" d=" M 362 42 L 483.64501953125 42 L 483.64501953125 82 L 362 82 L 362 42 Z Z" stroke-miterlimit="10" stroke-dasharray=""/></g><g><g><path fill="none" stroke="none"/><text fill="#000000" stroke="none" font-family="Arial" font-size="13px" font-style="normal" font-weight="bold" text-decoration="undefined" x="637.322509765625" y="53.5" text-anchor="middle" dominant-baseline="central" transform="matrix(1 0 0 1 -214 2)">BookingSystem</text></g></g><g><path fill="none" stroke="#000000" paint-order="fill stroke markers" d=" M 423.5 83 L 423.5 763" stroke-miterlimit="10" stroke-dasharray="3"/></g><g><rect fill="#C0C0C0" stroke="none" x="815" y="47" width="110.873046875" height="40" transform="matrix(1 0 0 1 -214 2)" fill-opacity="0.2"/></g><g><rect fill="#ffffff" stroke="none" x="808" y="40" width="110.873046875" height="40" transform="matrix(1 0 0 1 -214 2)"/></g><g><path fill="none" stroke="#000000" paint-order="fill stroke markers" d=" M 594 42 L 704.873046875 42 L 704.873046875 82 L 594 82 L 594 42 Z Z" stroke-miterlimit="10" stroke-dasharray=""/></g><g><g><path fill="none" stroke="none"/><text fill="#000000" stroke="none" font-family="Arial" font-size="13px" font-style="normal" font-weight="bold" text-decoration="undefined" x="863.9365234375" y="53.5" text-anchor="middle" dominant-baseline="central" transform="matrix(1 0 0 1 -214 2)">TrainManager</text></g></g><g><path fill="none" stroke="#000000" paint-order="fill stroke markers" d=" M 649.5 83 L 649.5 458" stroke-miterlimit="10" stroke-dasharray="3"/></g><g><rect fill="#C0C0C0" stroke="none" x="1023" y="47" width="116.32568359375" height="40" transform="matrix(1 0 0 1 -214 2)" fill-opacity="0.2"/></g><g><rect fill="#ffffff" stroke="none" x="1016" y="40" width="116.32568359375" height="40" transform="matrix(1 0 0 1 -214 2)"/></g><g><path fill="none" stroke="#000000" paint-order="fill stroke markers" d=" M 802 42 L 918.32568359375 42 L 918.32568359375 82 L 802 82 L 802 42 Z Z" stroke-miterlimit="10" stroke-dasharray=""/></g><g><g><path fill="none" stroke="none"/><text fill="#000000" stroke="none" font-family="Arial" font-size="13px" font-style="normal" font-weight="bold" text-decoration="undefined" x="1074.662841796875" y="53.5" text-anchor="middle" dominant-baseline="central" transform="matrix(1 0 0 1 -214 2)">OrderManager</text></g></g><g><path fill="none" stroke="#000000" paint-order="fill stroke markers" d=" M 860.5 83 L 860.5 442" stroke-miterlimit="10" stroke-dasharray="3"/></g><g><path fill="none" stroke="#000000" paint-order="fill stroke markers" d=" M 95 242 L 239 242" stroke-miterlimit="10" stroke-dasharray=""/></g><g><path fill="#000000" stroke="none" paint-order="stroke fill markers" d=" M 228.83732514237585 246.209517756016 L 239 242 L 228.83732514237585 237.790482243984"/></g><g><path fill="none" stroke="#000000" paint-order="fill stroke markers" d=" M 228.83732514237585 246.209517756016 L 239 242 L 228.83732514237585 237.790482243984 L 228.83732514237585 246.209517756016" stroke-miterlimit="10" stroke-dasharray=""/></g><g><rect fill="#ffffff" stroke="none" x="342" y="224" width="78.04443359375" height="13" transform="matrix(1 0 0 1 -214 2)"/></g><g><g><path fill="none" stroke="none"/><text fill="#000000" stroke="none" font-family="Arial" font-size="13px" font-style="normal" font-weight="normal" text-decoration="undefined" x="381.022216796875" y="230.5" text-anchor="middle" dominant-baseline="central" transform="matrix(1 0 0 1 -214 2)">1 : 点击查询</text></g></g><g><rect fill="#ffffff" stroke="none" x="453" y="240" width="14" height="488" transform="matrix(1 0 0 1 -214 2)"/></g><g><path fill="none" stroke="#000000" paint-order="fill stroke markers" d=" M 239 242 L 253 242 L 253 730 L 239 730 L 239 242 Z Z" stroke-miterlimit="10" stroke-dasharray=""/></g><g><path fill="none" stroke="#000000" paint-order="fill stroke markers" d=" M 253 258 L 416 258" stroke-miterlimit="10" stroke-dasharray=""/></g><g><path fill="#000000" stroke="none" paint-order="stroke fill markers" d=" M 405.8373251423759 262.209517756016 L 416 258 L 405.8373251423758 253.790482243984"/></g><g><path fill="none" stroke="#000000" paint-order="fill stroke markers" d=" M 405.8373251423759 262.209517756016 L 416 258 L 405.8373251423758 253.790482243984 L 405.8373251423759 262.209517756016" stroke-miterlimit="10" stroke-dasharray=""/></g><g><rect fill="#ffffff" stroke="none" x="488" y="240" width="121.798828125" height="13" transform="matrix(1 0 0 1 -214 2)"/></g><g><g><path fill="none" stroke="none"/><text fill="#000000" stroke="none" font-family="Arial" font-size="13px" font-style="normal" font-weight="normal" text-decoration="undefined" x="548.8994140625" y="246.5" text-anchor="middle" dominant-baseline="central" transform="matrix(1 0 0 1 -214 2)">2 : queryTickets_api</text></g></g><g><rect fill="#ffffff" stroke="none" x="630" y="256" width="14" height="491" transform="matrix(1 0 0 1 -214 2)"/></g><g><path fill="none" stroke="#000000" paint-order="fill stroke markers" d=" M 416 258 L 430 258 L 430 749 L 416 749 L 416 258 Z Z" stroke-miterlimit="10" stroke-dasharray=""/></g><g><path fill="none" stroke="#000000" paint-order="fill stroke markers" d=" M 430 274 L 642 274" stroke-miterlimit="10" stroke-dasharray=""/></g><g><path fill="#000000" stroke="none" paint-order="stroke fill markers" d=" M 631.8373251423759 278.209517756016 L 642 274 L 631.8373251423758 269.790482243984"/></g><g><path fill="none" stroke="#000000" paint-order="fill stroke markers" d=" M 631.8373251423759 278.209517756016 L 642 274 L 631.8373251423758 269.790482243984 L 631.8373251423759 278.209517756016" stroke-miterlimit="10" stroke-dasharray=""/></g><g><rect fill="#ffffff" stroke="none" x="685" y="256" width="130.35546875" height="13" transform="matrix(1 0 0 1 -214 2)"/></g><g><g><path fill="none" stroke="none"/><text fill="#000000" stroke="none" font-family="Arial" font-size="13px" font-style="normal" font-weight="normal" text-decoration="undefined" x="750.177734375" y="262.5" text-anchor="middle" dominant-baseline="central" transform="matrix(1 0 0 1 -214 2)">3 : getRoutesByCities</text></g></g><g><rect fill="#ffffff" stroke="none" x="856" y="272" width="14" height="32" transform="matrix(1 0 0 1 -214 2)"/></g><g><path fill="none" stroke="#000000" paint-order="fill stroke markers" d=" M 642 274 L 656 274 L 656 306 L 642 306 L 642 274 Z Z" stroke-miterlimit="10" stroke-dasharray=""/></g><g><path fill="none" stroke="#000000" paint-order="fill stroke markers" d=" M 642 298 L 430 298" stroke-miterlimit="10" stroke-dasharray="3"/></g><g><path fill="none" stroke="#000000" paint-order="fill stroke markers" d=" M 440.1626748576241 293.790482243984 L 430 298 L 440.1626748576241 302.209517756016" stroke-miterlimit="10" stroke-dasharray=""/></g><g><rect fill="#ffffff" stroke="none" x="649" y="300" width="200.4462890625" height="13" transform="matrix(1 0 0 1 -214 2)"/></g><g><g><path fill="none" stroke="none"/><text fill="#000000" stroke="none" font-family="Arial" font-size="13px" font-style="normal" font-weight="normal" text-decoration="undefined" x="749.22314453125" y="306.5" text-anchor="middle" dominant-baseline="central" transform="matrix(1 0 0 1 -214 2)">4 : 满足条件的所有车次和车站安排</text></g></g><g><path fill="none" stroke="#000000" paint-order="fill stroke markers" d=" M 430 362 L 853 362" stroke-miterlimit="10" stroke-dasharray=""/></g><g><path fill="#000000" stroke="none" paint-order="stroke fill markers" d=" M 842.8373251423759 366.209517756016 L 853 362 L 842.8373251423759 357.790482243984"/></g><g><path fill="none" stroke="#000000" paint-order="fill stroke markers" d=" M 842.8373251423759 366.209517756016 L 853 362 L 842.8373251423759 357.790482243984 L 842.8373251423759 366.209517756016" stroke-miterlimit="10" stroke-dasharray=""/></g><g><rect fill="#ffffff" stroke="none" x="706" y="344" width="298.94921875" height="13" transform="matrix(1 0 0 1 -214 2)"/></g><g><g><path fill="none" stroke="none"/><text fill="#000000" stroke="none" font-family="Arial" font-size="13px" font-style="normal" font-weight="normal" text-decoration="undefined" x="855.474609375" y="350.5" text-anchor="middle" dominant-baseline="central" transform="matrix(1 0 0 1 -214 2)">5 : getOrdersUnusedAndOverlapByTrainNumber</text></g></g><g><rect fill="#ffffff" stroke="none" x="1067" y="360" width="14" height="28" transform="matrix(1 0 0 1 -214 2)"/></g><g><path fill="none" stroke="#000000" paint-order="fill stroke markers" d=" M 853 362 L 867 362 L 867 390 L 853 390 L 853 362 Z Z" stroke-miterlimit="10" stroke-dasharray=""/></g><g><path fill="none" stroke="#000000" paint-order="fill stroke markers" d=" M 853 381 L 430 381" stroke-miterlimit="10" stroke-dasharray="3"/></g><g><path fill="none" stroke="#000000" paint-order="fill stroke markers" d=" M 440.1626748576241 376.790482243984 L 430 381 L 440.1626748576241 385.209517756016" stroke-miterlimit="10" stroke-dasharray=""/></g><g><rect fill="#ffffff" stroke="none" x="774" y="383" width="161.4462890625" height="13" transform="matrix(1 0 0 1 -214 2)"/></g><g><g><path fill="none" stroke="none"/><text fill="#000000" stroke="none" font-family="Arial" font-size="13px" font-style="normal" font-weight="normal" text-decoration="undefined" x="854.72314453125" y="389.5" text-anchor="middle" dominant-baseline="central" transform="matrix(1 0 0 1 -214 2)">6 : 与该安排重叠的所有订单</text></g></g><g><path fill="none" stroke="#000000" paint-order="fill stroke markers" d=" M 430 450 L 460 450 L 460 470 L 437 470" stroke-miterlimit="10" stroke-dasharray=""/></g><g><path fill="#000000" stroke="none" paint-order="stroke fill markers" d=" M 447.1626748576241 465.790482243984 L 437 470 L 447.1626748576241 474.209517756016"/></g><g><path fill="none" stroke="#000000" paint-order="fill stroke markers" d=" M 447.1626748576241 465.790482243984 L 437 470 L 447.1626748576241 474.209517756016 L 447.1626748576241 465.790482243984" stroke-miterlimit="10" stroke-dasharray=""/></g><g><rect fill="#ffffff" stroke="none" x="518" y="451" width="330.4462890625" height="13" transform="matrix(1 0 0 1 -214 2)"/></g><g><g><path fill="none" stroke="none"/><text fill="#000000" stroke="none" font-family="Arial" font-size="13px" font-style="normal" font-weight="normal" text-decoration="undefined" x="683.22314453125" y="457.5" text-anchor="middle" dominant-baseline="central" transform="matrix(1 0 0 1 -214 2)">7 : 判断座位等级，并减少该安排对应座位等级的余票数量</text></g></g><g><rect fill="#ffffff" stroke="none" x="637" y="468" width="14" height="28" transform="matrix(1 0 0 1 -214 2)"/></g><g><path fill="none" stroke="#000000" paint-order="fill stroke markers" d=" M 423 470 L 437 470 L 437 498 L 423 498 L 423 470 Z Z" stroke-miterlimit="10" stroke-dasharray=""/></g><g><path fill="none" stroke="#000000" paint-order="fill stroke markers" d=" M 430 538 L 460 538 L 460 558 L 437 558" stroke-miterlimit="10" stroke-dasharray=""/></g><g><path fill="#000000" stroke="none" paint-order="stroke fill markers" d=" M 447.1626748576241 553.790482243984 L 437 558 L 447.1626748576241 562.209517756016"/></g><g><path fill="none" stroke="#000000" paint-order="fill stroke markers" d=" M 447.1626748576241 553.790482243984 L 437 558 L 447.1626748576241 562.209517756016 L 447.1626748576241 553.790482243984" stroke-miterlimit="10" stroke-dasharray=""/></g><g><rect fill="#ffffff" stroke="none" x="644" y="539" width="78.04443359375" height="13" transform="matrix(1 0 0 1 -214 2)"/></g><g><g><path fill="none" stroke="none"/><text fill="#000000" stroke="none" font-family="Arial" font-size="13px" font-style="normal" font-weight="normal" text-decoration="undefined" x="683.022216796875" y="545.5" text-anchor="middle" dominant-baseline="central" transform="matrix(1 0 0 1 -214 2)">8 : 计算历时</text></g></g><g><rect fill="#ffffff" stroke="none" x="637" y="556" width="14" height="28" transform="matrix(1 0 0 1 -214 2)"/></g><g><path fill="none" stroke="#000000" paint-order="fill stroke markers" d=" M 423 558 L 437 558 L 437 586 L 423 586 L 423 558 Z Z" stroke-miterlimit="10" stroke-dasharray=""/></g><g><path fill="none" stroke="#000000" paint-order="fill stroke markers" d=" M 430 602 L 460 602 L 460 622 L 437 622" stroke-miterlimit="10" stroke-dasharray=""/></g><g><path fill="#000000" stroke="none" paint-order="stroke fill markers" d=" M 447.1626748576241 617.790482243984 L 437 622 L 447.1626748576241 626.209517756016"/></g><g><path fill="none" stroke="#000000" paint-order="fill stroke markers" d=" M 447.1626748576241 617.790482243984 L 437 622 L 447.1626748576241 626.209517756016 L 447.1626748576241 617.790482243984" stroke-miterlimit="10" stroke-dasharray=""/></g><g><rect fill="#ffffff" stroke="none" x="644" y="603" width="78.04443359375" height="13" transform="matrix(1 0 0 1 -214 2)"/></g><g><g><path fill="none" stroke="none"/><text fill="#000000" stroke="none" font-family="Arial" font-size="13px" font-style="normal" font-weight="normal" text-decoration="undefined" x="683.022216796875" y="609.5" text-anchor="middle" dominant-baseline="central" transform="matrix(1 0 0 1 -214 2)">9 : 计算票价</text></g></g><g><rect fill="#ffffff" stroke="none" x="637" y="620" width="14" height="28" transform="matrix(1 0 0 1 -214 2)"/></g><g><path fill="none" stroke="#000000" paint-order="fill stroke markers" d=" M 423 622 L 437 622 L 437 650 L 423 650 L 423 622 Z Z" stroke-miterlimit="10" stroke-dasharray=""/></g><g><path fill="none" stroke="#000000" paint-order="fill stroke markers" d=" M 239 664 L 95 664" stroke-miterlimit="10" stroke-dasharray="3"/></g><g><path fill="none" stroke="#000000" paint-order="fill stroke markers" d=" M 105.16267485762415 659.790482243984 L 95 664 L 105.16267485762415 668.209517756016" stroke-miterlimit="10" stroke-dasharray=""/></g><g><rect fill="#ffffff" stroke="none" x="328" y="666" width="104.06982421875" height="13" transform="matrix(1 0 0 1 -214 2)"/></g><g><g><path fill="none" stroke="none"/><text fill="#000000" stroke="none" font-family="Arial" font-size="13px" font-style="normal" font-weight="normal" text-decoration="undefined" x="380.034912109375" y="672.5" text-anchor="middle" dominant-baseline="central" transform="matrix(1 0 0 1 -214 2)">10 : 显示所有余票</text></g></g><g><path fill="none" stroke="#000000" paint-order="fill stroke markers" d=" M 416 664 L 253 664" stroke-miterlimit="10" stroke-dasharray="3"/></g><g><path fill="none" stroke="#000000" paint-order="fill stroke markers" d=" M 263.16267485762415 659.790482243984 L 253 664 L 263.16267485762415 668.209517756016" stroke-miterlimit="10" stroke-dasharray=""/></g><g><rect fill="#ffffff" stroke="none" x="482" y="666" width="130.06982421875" height="13" transform="matrix(1 0 0 1 -214 2)"/></g><g><g><path fill="none" stroke="none"/><text fill="#000000" stroke="none" font-family="Arial" font-size="13px" font-style="normal" font-weight="normal" text-decoration="undefined" x="547.034912109375" y="672.5" text-anchor="middle" dominant-baseline="central" transform="matrix(1 0 0 1 -214 2)">11 : 返回有余票的安排</text></g></g><g><path fill="none" stroke="#000000" paint-order="fill stroke markers" d=" M 378 322 L 874 322 L 874 674 L 378 674 L 378 322" stroke-miterlimit="10" stroke-dasharray=""/></g><g><path fill="#ffffff" stroke="none" paint-order="stroke fill markers" d=" M 378 322 L 378 345 L 492.9599609375 345 L 504.4599609375 333.5 L 504.4599609375 322 L 378 322"/></g><g><path fill="none" stroke="#000000" paint-order="fill stroke markers" d=" M 378 322 L 378 345 L 492.9599609375 345 L 504.4599609375 333.5 L 504.4599609375 322 L 378 322 L 378 322" stroke-miterlimit="10" stroke-dasharray=""/></g><g><g><path fill="none" stroke="none"/><text fill="#000000" stroke="none" font-family="Arial" font-size="13px" font-style="normal" font-weight="normal" text-decoration="undefined" x="662.9599609375" y="331.5" text-anchor="middle" dominant-baseline="central" transform="matrix(1 0 0 1 -214 2)">对于每个安排</text></g></g><g><g><path fill="none" stroke="none"/><text fill="#000000" stroke="none" font-family="Arial" font-size="13px" font-style="normal" font-weight="bold" text-decoration="undefined" x="607.47998046875" y="331.5" text-anchor="middle" dominant-baseline="central" transform="matrix(1 0 0 1 -214 2)">seq</text></g></g><g><path fill="none" stroke="#000000" paint-order="fill stroke markers" d=" M 386 402 L 618 402 L 618 522 L 386 522 L 386 402" stroke-miterlimit="10" stroke-dasharray=""/></g><g><path fill="#ffffff" stroke="none" paint-order="stroke fill markers" d=" M 386 402 L 386 425 L 526.9599609375 425 L 538.4599609375 413.5 L 538.4599609375 402 L 386 402"/></g><g><path fill="none" stroke="#000000" paint-order="fill stroke markers" d=" M 386 402 L 386 425 L 526.9599609375 425 L 538.4599609375 413.5 L 538.4599609375 402 L 386 402 L 386 402" stroke-miterlimit="10" stroke-dasharray=""/></g><g><g><path fill="none" stroke="none"/><text fill="#000000" stroke="none" font-family="Arial" font-size="13px" font-style="normal" font-weight="normal" text-decoration="undefined" x="683.9599609375" y="411.5" text-anchor="middle" dominant-baseline="central" transform="matrix(1 0 0 1 -214 2)">对于每个重叠订单</text></g></g><g><g><path fill="none" stroke="none"/><text fill="#000000" stroke="none" font-family="Arial" font-size="13px" font-style="normal" font-weight="bold" text-decoration="undefined" x="615.47998046875" y="411.5" text-anchor="middle" dominant-baseline="central" transform="matrix(1 0 0 1 -214 2)">seq</text></g></g></g></svg>