<svg version="1.1" xmlns="http://www.w3.org/2000/svg" xmlns:xlink="http://www.w3.org/1999/xlink" width="524" height="644"><defs/><g><g><path fill="none" stroke="#000000" paint-order="fill stroke markers" d=" M 10 10 L 514 10 L 514 634 L 10 634 L 10 10" stroke-miterlimit="10" stroke-dasharray=""/></g><g><path fill="#ffffff" stroke="none" paint-order="stroke fill markers" d=" M 10 10 L 10 33 L 109.05908203125 33 L 120.55908203125 21.5 L 120.55908203125 10 L 10 10"/></g><g><path fill="none" stroke="#000000" paint-order="fill stroke markers" d=" M 10 10 L 10 33 L 109.05908203125 33 L 120.55908203125 21.5 L 120.55908203125 10 L 10 10 L 10 10" stroke-miterlimit="10" stroke-dasharray=""/></g><g><g><path fill="none" stroke="none"/><text fill="#000000" stroke="none" font-family="Arial" font-size="13px" font-style="normal" font-weight="normal" text-decoration="undefined" x="59.39453125" y="11.5" text-anchor="middle" dominant-baseline="central" transform="matrix(1 0 0 1 10 10)">顺序图-锁定</text></g></g><g><g><path fill="none" stroke="none"/><text fill="#000000" stroke="none" font-family="Arial" font-size="13px" font-style="normal" font-weight="bold" text-decoration="undefined" x="11.864990234375" y="11.5" text-anchor="middle" dominant-baseline="central" transform="matrix(1 0 0 1 10 10)">sd</text></g></g><g><rect fill="#C0C0C0" stroke="none" x="63" y="47" width="72.736328125" height="40" transform="matrix(1 0 0 1 10 10)" fill-opacity="0.2"/></g><g><rect fill="#ffffff" stroke="none" x="56" y="40" width="72.736328125" height="40" transform="matrix(1 0 0 1 10 10)"/></g><g><path fill="none" stroke="#000000" paint-order="fill stroke markers" d=" M 66 50 L 138.736328125 50 L 138.736328125 90 L 66 90 L 66 50 Z Z" stroke-miterlimit="10" stroke-dasharray=""/></g><g><g><path fill="none" stroke="none"/><text fill="#000000" stroke="none" font-family="Arial" font-size="13px" font-style="normal" font-weight="bold" text-decoration="undefined" x="92.8681640625" y="53.5" text-anchor="middle" dominant-baseline="central" transform="matrix(1 0 0 1 10 10)">用户</text></g></g><g><path fill="none" stroke="#000000" paint-order="fill stroke markers" d=" M 102.5 91 L 102.5 616" stroke-miterlimit="10" stroke-dasharray="3"/></g><g><rect fill="#C0C0C0" stroke="none" x="183" y="47" width="72.736328125" height="40" transform="matrix(1 0 0 1 10 10)" fill-opacity="0.2"/></g><g><rect fill="#ffffff" stroke="none" x="176" y="40" width="72.736328125" height="40" transform="matrix(1 0 0 1 10 10)"/></g><g><path fill="none" stroke="#000000" paint-order="fill stroke markers" d=" M 186 50 L 258.736328125 50 L 258.736328125 90 L 186 90 L 186 50 Z Z" stroke-miterlimit="10" stroke-dasharray=""/></g><g><g><path fill="none" stroke="none"/><text fill="#000000" stroke="none" font-family="Arial" font-size="13px" font-style="normal" font-weight="bold" text-decoration="undefined" x="212.8681640625" y="53.5" text-anchor="middle" dominant-baseline="central" transform="matrix(1 0 0 1 10 10)">前端</text></g></g><g><path fill="none" stroke="#000000" paint-order="fill stroke markers" d=" M 222.5 91 L 222.5 616" stroke-miterlimit="10" stroke-dasharray="3"/></g><g><rect fill="#C0C0C0" stroke="none" x="359" y="47" width="130.23974609375" height="40" transform="matrix(1 0 0 1 10 10)" fill-opacity="0.2"/></g><g><rect fill="#ffffff" stroke="none" x="352" y="40" width="130.23974609375" height="40" transform="matrix(1 0 0 1 10 10)"/></g><g><path fill="none" stroke="#000000" paint-order="fill stroke markers" d=" M 362 50 L 492.23974609375 50 L 492.23974609375 90 L 362 90 L 362 50 Z Z" stroke-miterlimit="10" stroke-dasharray=""/></g><g><g><path fill="none" stroke="none"/><text fill="#000000" stroke="none" font-family="Arial" font-size="13px" font-style="normal" font-weight="bold" text-decoration="undefined" x="417.619873046875" y="53.5" text-anchor="middle" dominant-baseline="central" transform="matrix(1 0 0 1 10 10)">accountManager</text></g></g><g><path fill="none" stroke="#000000" paint-order="fill stroke markers" d=" M 427.5 91 L 427.5 618" stroke-miterlimit="10" stroke-dasharray="3"/></g><g><path fill="none" stroke="#000000" paint-order="fill stroke markers" d=" M 103 121 L 215 121" stroke-miterlimit="10" stroke-dasharray=""/></g><g><path fill="#000000" stroke="none" paint-order="stroke fill markers" d=" M 204.83732514237585 125.20951775601598 L 215 121 L 204.83732514237585 116.79048224398402"/></g><g><path fill="none" stroke="#000000" paint-order="fill stroke markers" d=" M 204.83732514237585 125.20951775601598 L 215 121 L 204.83732514237585 116.79048224398402 L 204.83732514237585 125.20951775601598" stroke-miterlimit="10" stroke-dasharray=""/></g><g><rect fill="#ffffff" stroke="none" x="101" y="95" width="96.4462890625" height="13" transform="matrix(1 0 0 1 10 10)"/></g><g><g><path fill="none" stroke="none"/><text fill="#000000" stroke="none" font-family="Arial" font-size="13px" font-style="normal" font-weight="normal" text-decoration="undefined" x="149.22314453125" y="101.5" text-anchor="middle" dominant-baseline="central" transform="matrix(1 0 0 1 10 10)">1 : 用户点击锁定</text></g></g><g><rect fill="#ffffff" stroke="none" x="205" y="111" width="14" height="481" transform="matrix(1 0 0 1 10 10)"/></g><g><path fill="none" stroke="#000000" paint-order="fill stroke markers" d=" M 215 121 L 229 121 L 229 602 L 215 602 L 215 121 Z Z" stroke-miterlimit="10" stroke-dasharray=""/></g><g><path fill="none" stroke="#000000" paint-order="fill stroke markers" d=" M 229 138 L 259 138 L 259 158 L 236 158" stroke-miterlimit="10" stroke-dasharray=""/></g><g><path fill="#000000" stroke="none" paint-order="stroke fill markers" d=" M 246.16267485762415 153.790482243984 L 236 158 L 246.16267485762415 162.209517756016"/></g><g><path fill="none" stroke="#000000" paint-order="fill stroke markers" d=" M 246.16267485762415 153.790482243984 L 236 158 L 246.16267485762415 162.209517756016 L 246.16267485762415 153.790482243984" stroke-miterlimit="10" stroke-dasharray=""/></g><g><rect fill="#ffffff" stroke="none" x="184" y="131" width="148.4462890625" height="13" transform="matrix(1 0 0 1 10 10)"/></g><g><g><path fill="none" stroke="none"/><text fill="#000000" stroke="none" font-family="Arial" font-size="13px" font-style="normal" font-weight="normal" text-decoration="undefined" x="258.22314453125" y="137.5" text-anchor="middle" dominant-baseline="central" transform="matrix(1 0 0 1 10 10)">2 : 判断是用户还是管理员</text></g></g><g><rect fill="#ffffff" stroke="none" x="212" y="148" width="14" height="436" transform="matrix(1 0 0 1 10 10)"/></g><g><path fill="none" stroke="#000000" paint-order="fill stroke markers" d=" M 222 158 L 236 158 L 236 594 L 222 594 L 222 158 Z Z" stroke-miterlimit="10" stroke-dasharray=""/></g><g><path fill="none" stroke="#000000" paint-order="fill stroke markers" d=" M 236 210 L 266 210 L 266 230 L 243 230" stroke-miterlimit="10" stroke-dasharray=""/></g><g><path fill="#000000" stroke="none" paint-order="stroke fill markers" d=" M 253.16267485762415 225.790482243984 L 243 230 L 253.16267485762415 234.209517756016"/></g><g><path fill="none" stroke="#000000" paint-order="fill stroke markers" d=" M 253.16267485762415 225.790482243984 L 243 230 L 253.16267485762415 234.209517756016 L 253.16267485762415 225.790482243984" stroke-miterlimit="10" stroke-dasharray=""/></g><g><rect fill="#ffffff" stroke="none" x="210" y="203" width="110.830078125" height="13" transform="matrix(1 0 0 1 10 10)"/></g><g><g><path fill="none" stroke="none"/><text fill="#000000" stroke="none" font-family="Arial" font-size="13px" font-style="normal" font-weight="normal" text-decoration="undefined" x="265.4150390625" y="209.5" text-anchor="middle" dominant-baseline="central" transform="matrix(1 0 0 1 10 10)">3 : 用户：lockUser</text></g></g><g><rect fill="#ffffff" stroke="none" x="219" y="220" width="14" height="156" transform="matrix(1 0 0 1 10 10)"/></g><g><path fill="none" stroke="#000000" paint-order="fill stroke markers" d=" M 229 230 L 243 230 L 243 386 L 229 386 L 229 230 Z Z" stroke-miterlimit="10" stroke-dasharray=""/></g><g><path fill="none" stroke="#000000" paint-order="fill stroke markers" d=" M 243 266 L 420 266" stroke-miterlimit="10" stroke-dasharray=""/></g><g><path fill="#000000" stroke="none" paint-order="stroke fill markers" d=" M 409.83732514237585 270.209517756016 L 420 266 L 409.83732514237585 261.790482243984"/></g><g><path fill="none" stroke="#000000" paint-order="fill stroke markers" d=" M 409.83732514237585 270.209517756016 L 420 266 L 409.83732514237585 261.790482243984 L 409.83732514237585 270.209517756016" stroke-miterlimit="10" stroke-dasharray=""/></g><g><rect fill="#ffffff" stroke="none" x="273" y="240" width="96.60498046875" height="13" transform="matrix(1 0 0 1 10 10)"/></g><g><g><path fill="none" stroke="none"/><text fill="#000000" stroke="none" font-family="Arial" font-size="13px" font-style="normal" font-weight="normal" text-decoration="undefined" x="321.302490234375" y="246.5" text-anchor="middle" dominant-baseline="central" transform="matrix(1 0 0 1 10 10)">4 : lockUser_api</text></g></g><g><rect fill="#ffffff" stroke="none" x="410" y="256" width="14" height="40" transform="matrix(1 0 0 1 10 10)"/></g><g><path fill="none" stroke="#000000" paint-order="fill stroke markers" d=" M 420 266 L 434 266 L 434 306 L 420 306 L 420 266 Z Z" stroke-miterlimit="10" stroke-dasharray=""/></g><g><path fill="none" stroke="#000000" paint-order="fill stroke markers" d=" M 420 295 L 243 295" stroke-miterlimit="10" stroke-dasharray="3"/></g><g><path fill="none" stroke="#000000" paint-order="fill stroke markers" d=" M 253.16267485762415 290.790482243984 L 243 295 L 253.16267485762415 299.209517756016" stroke-miterlimit="10" stroke-dasharray=""/></g><g><rect fill="#ffffff" stroke="none" x="246" y="289" width="148.4462890625" height="13" transform="matrix(1 0 0 1 10 10)"/></g><g><g><path fill="none" stroke="none"/><text fill="#000000" stroke="none" font-family="Arial" font-size="13px" font-style="normal" font-weight="normal" text-decoration="undefined" x="320.22314453125" y="295.5" text-anchor="middle" dominant-baseline="central" transform="matrix(1 0 0 1 10 10)">5 : 返回是否锁定成功结果</text></g></g><g><path fill="none" stroke="#000000" paint-order="fill stroke markers" d=" M 243 330 L 273 330 L 273 350 L 250 350" stroke-miterlimit="10" stroke-dasharray=""/></g><g><path fill="#000000" stroke="none" paint-order="stroke fill markers" d=" M 260.16267485762415 345.790482243984 L 250 350 L 260.16267485762415 354.209517756016"/></g><g><path fill="none" stroke="#000000" paint-order="fill stroke markers" d=" M 260.16267485762415 345.790482243984 L 250 350 L 260.16267485762415 354.209517756016 L 260.16267485762415 345.790482243984" stroke-miterlimit="10" stroke-dasharray=""/></g><g><rect fill="#ffffff" stroke="none" x="213" y="323" width="118.61865234375" height="13" transform="matrix(1 0 0 1 10 10)"/></g><g><g><path fill="none" stroke="none"/><text fill="#000000" stroke="none" font-family="Arial" font-size="13px" font-style="normal" font-weight="normal" text-decoration="undefined" x="272.309326171875" y="329.5" text-anchor="middle" dominant-baseline="central" transform="matrix(1 0 0 1 10 10)">6 : refreshAccounts</text></g></g><g><rect fill="#ffffff" stroke="none" x="226" y="340" width="14" height="28" transform="matrix(1 0 0 1 10 10)"/></g><g><path fill="none" stroke="#000000" paint-order="fill stroke markers" d=" M 236 350 L 250 350 L 250 378 L 236 378 L 236 350 Z Z" stroke-miterlimit="10" stroke-dasharray=""/></g><g><path fill="none" stroke="#000000" paint-order="fill stroke markers" d=" M 236 418 L 266 418 L 266 438 L 243 438" stroke-miterlimit="10" stroke-dasharray=""/></g><g><path fill="#000000" stroke="none" paint-order="stroke fill markers" d=" M 253.16267485762415 433.790482243984 L 243 438 L 253.16267485762415 442.209517756016"/></g><g><path fill="none" stroke="#000000" paint-order="fill stroke markers" d=" M 253.16267485762415 433.790482243984 L 243 438 L 253.16267485762415 442.209517756016 L 253.16267485762415 433.790482243984" stroke-miterlimit="10" stroke-dasharray=""/></g><g><rect fill="#ffffff" stroke="none" x="197" y="411" width="136.880859375" height="13" transform="matrix(1 0 0 1 10 10)"/></g><g><g><path fill="none" stroke="none"/><text fill="#000000" stroke="none" font-family="Arial" font-size="13px" font-style="normal" font-weight="normal" text-decoration="undefined" x="265.4404296875" y="417.5" text-anchor="middle" dominant-baseline="central" transform="matrix(1 0 0 1 10 10)">7 : 管理员：lockAdmin</text></g></g><g><rect fill="#ffffff" stroke="none" x="219" y="428" width="14" height="140" transform="matrix(1 0 0 1 10 10)"/></g><g><path fill="none" stroke="#000000" paint-order="fill stroke markers" d=" M 229 438 L 243 438 L 243 578 L 229 578 L 229 438 Z Z" stroke-miterlimit="10" stroke-dasharray=""/></g><g><path fill="none" stroke="#000000" paint-order="fill stroke markers" d=" M 243 465 L 420 465" stroke-miterlimit="10" stroke-dasharray=""/></g><g><path fill="#000000" stroke="none" paint-order="stroke fill markers" d=" M 409.83732514237585 469.209517756016 L 420 465 L 409.83732514237585 460.790482243984"/></g><g><path fill="none" stroke="#000000" paint-order="fill stroke markers" d=" M 409.83732514237585 469.209517756016 L 420 465 L 409.83732514237585 460.790482243984 L 409.83732514237585 469.209517756016" stroke-miterlimit="10" stroke-dasharray=""/></g><g><rect fill="#ffffff" stroke="none" x="267" y="439" width="109.65576171875" height="13" transform="matrix(1 0 0 1 10 10)"/></g><g><g><path fill="none" stroke="none"/><text fill="#000000" stroke="none" font-family="Arial" font-size="13px" font-style="normal" font-weight="normal" text-decoration="undefined" x="321.827880859375" y="445.5" text-anchor="middle" dominant-baseline="central" transform="matrix(1 0 0 1 10 10)">8 : lockAdmin_api</text></g></g><g><rect fill="#ffffff" stroke="none" x="410" y="455" width="14" height="57" transform="matrix(1 0 0 1 10 10)"/></g><g><path fill="none" stroke="#000000" paint-order="fill stroke markers" d=" M 420 465 L 434 465 L 434 522 L 420 522 L 420 465 Z Z" stroke-miterlimit="10" stroke-dasharray=""/></g><g><path fill="none" stroke="#000000" paint-order="fill stroke markers" d=" M 420 501 L 243 501" stroke-miterlimit="10" stroke-dasharray="3"/></g><g><path fill="none" stroke="#000000" paint-order="fill stroke markers" d=" M 253.16267485762415 496.790482243984 L 243 501 L 253.16267485762415 505.209517756016" stroke-miterlimit="10" stroke-dasharray=""/></g><g><rect fill="#ffffff" stroke="none" x="246" y="495" width="148.4462890625" height="13" transform="matrix(1 0 0 1 10 10)"/></g><g><g><path fill="none" stroke="none"/><text fill="#000000" stroke="none" font-family="Arial" font-size="13px" font-style="normal" font-weight="normal" text-decoration="undefined" x="320.22314453125" y="501.5" text-anchor="middle" dominant-baseline="central" transform="matrix(1 0 0 1 10 10)">9 : 返回是否锁定成功结果</text></g></g><g><path fill="none" stroke="#000000" paint-order="fill stroke markers" d=" M 243 522 L 273 522 L 273 542 L 250 542" stroke-miterlimit="10" stroke-dasharray=""/></g><g><path fill="#000000" stroke="none" paint-order="stroke fill markers" d=" M 260.16267485762415 537.790482243984 L 250 542 L 260.16267485762415 546.209517756016"/></g><g><path fill="none" stroke="#000000" paint-order="fill stroke markers" d=" M 260.16267485762415 537.790482243984 L 250 542 L 260.16267485762415 546.209517756016 L 260.16267485762415 537.790482243984" stroke-miterlimit="10" stroke-dasharray=""/></g><g><rect fill="#ffffff" stroke="none" x="209" y="515" width="126.2421875" height="13" transform="matrix(1 0 0 1 10 10)"/></g><g><g><path fill="none" stroke="none"/><text fill="#000000" stroke="none" font-family="Arial" font-size="13px" font-style="normal" font-weight="normal" text-decoration="undefined" x="272.12109375" y="521.5" text-anchor="middle" dominant-baseline="central" transform="matrix(1 0 0 1 10 10)">10 : refreshAccounts</text></g></g><g><rect fill="#ffffff" stroke="none" x="226" y="532" width="14" height="28" transform="matrix(1 0 0 1 10 10)"/></g><g><path fill="none" stroke="#000000" paint-order="fill stroke markers" d=" M 236 542 L 250 542 L 250 570 L 236 570 L 236 542 Z Z" stroke-miterlimit="10" stroke-dasharray=""/></g><g><path fill="none" stroke="#000000" paint-order="fill stroke markers" d=" M 222 578 L 103 578" stroke-miterlimit="10" stroke-dasharray="3"/></g><g><path fill="none" stroke="#000000" paint-order="fill stroke markers" d=" M 113.16267485762415 573.790482243984 L 103 578 L 113.16267485762415 582.209517756016" stroke-miterlimit="10" stroke-dasharray=""/></g><g><rect fill="#ffffff" stroke="none" x="80" y="572" width="143.06982421875" height="13" transform="matrix(1 0 0 1 10 10)"/></g><g><g><path fill="none" stroke="none"/><text fill="#000000" stroke="none" font-family="Arial" font-size="13px" font-style="normal" font-weight="normal" text-decoration="undefined" x="151.534912109375" y="578.5" text-anchor="middle" dominant-baseline="central" transform="matrix(1 0 0 1 10 10)">11 : 返回更新后用户列表</text></g></g></g></svg>