<svg version="1.1" xmlns="http://www.w3.org/2000/svg" xmlns:xlink="http://www.w3.org/1999/xlink" width="712" height="612"><defs/><g><g><path fill="none" stroke="#000000" paint-order="fill stroke markers" d=" M 10 10 L 702 10 L 702 602 L 10 602 L 10 10" stroke-miterlimit="10" stroke-dasharray=""/></g><g><path fill="#ffffff" stroke="none" paint-order="stroke fill markers" d=" M 10 10 L 10 33 L 135.05908203125 33 L 146.55908203125 21.5 L 146.55908203125 10 L 10 10"/></g><g><path fill="none" stroke="#000000" paint-order="fill stroke markers" d=" M 10 10 L 10 33 L 135.05908203125 33 L 146.55908203125 21.5 L 146.55908203125 10 L 10 10 L 10 10" stroke-miterlimit="10" stroke-dasharray=""/></g><g><g><path fill="none" stroke="none"/><text fill="#000000" stroke="none" font-family="Arial" font-size="13px" font-style="normal" font-weight="normal" text-decoration="undefined" x="72.39453125" y="19.5" text-anchor="middle" dominant-baseline="central" transform="matrix(1 0 0 1 10 2)">顺序图-座位模版</text></g></g><g><g><path fill="none" stroke="none"/><text fill="#000000" stroke="none" font-family="Arial" font-size="13px" font-style="normal" font-weight="bold" text-decoration="undefined" x="11.864990234375" y="19.5" text-anchor="middle" dominant-baseline="central" transform="matrix(1 0 0 1 10 2)">sd</text></g></g><g><rect fill="#C0C0C0" stroke="none" x="47" y="47" width="72.736328125" height="40" transform="matrix(1 0 0 1 10 2)" fill-opacity="0.2"/></g><g><rect fill="#ffffff" stroke="none" x="40" y="40" width="72.736328125" height="40" transform="matrix(1 0 0 1 10 2)"/></g><g><path fill="none" stroke="#000000" paint-order="fill stroke markers" d=" M 50 42 L 122.736328125 42 L 122.736328125 82 L 50 82 L 50 42 Z Z" stroke-miterlimit="10" stroke-dasharray=""/></g><g><g><path fill="none" stroke="none"/><text fill="#000000" stroke="none" font-family="Arial" font-size="13px" font-style="normal" font-weight="bold" text-decoration="undefined" x="76.8681640625" y="53.5" text-anchor="middle" dominant-baseline="central" transform="matrix(1 0 0 1 10 2)">用户</text></g></g><g><path fill="none" stroke="#000000" paint-order="fill stroke markers" d=" M 86.5 83 L 86.5 593" stroke-miterlimit="10" stroke-dasharray="3"/></g><g><rect fill="#C0C0C0" stroke="none" x="191" y="47" width="72.736328125" height="40" transform="matrix(1 0 0 1 10 2)" fill-opacity="0.2"/></g><g><rect fill="#ffffff" stroke="none" x="184" y="40" width="72.736328125" height="40" transform="matrix(1 0 0 1 10 2)"/></g><g><path fill="none" stroke="#000000" paint-order="fill stroke markers" d=" M 194 42 L 266.736328125 42 L 266.736328125 82 L 194 82 L 194 42 Z Z" stroke-miterlimit="10" stroke-dasharray=""/></g><g><g><path fill="none" stroke="none"/><text fill="#000000" stroke="none" font-family="Arial" font-size="13px" font-style="normal" font-weight="bold" text-decoration="undefined" x="220.8681640625" y="53.5" text-anchor="middle" dominant-baseline="central" transform="matrix(1 0 0 1 10 2)">前端</text></g></g><g><path fill="none" stroke="#000000" paint-order="fill stroke markers" d=" M 230.5 83 L 230.5 593" stroke-miterlimit="10" stroke-dasharray="3"/></g><g><rect fill="#C0C0C0" stroke="none" x="335" y="47" width="109.197265625" height="40" transform="matrix(1 0 0 1 10 2)" fill-opacity="0.2"/></g><g><rect fill="#ffffff" stroke="none" x="328" y="40" width="109.197265625" height="40" transform="matrix(1 0 0 1 10 2)"/></g><g><path fill="none" stroke="#000000" paint-order="fill stroke markers" d=" M 338 42 L 447.197265625 42 L 447.197265625 82 L 338 82 L 338 42 Z Z" stroke-miterlimit="10" stroke-dasharray=""/></g><g><g><path fill="none" stroke="none"/><text fill="#000000" stroke="none" font-family="Arial" font-size="13px" font-style="normal" font-weight="bold" text-decoration="undefined" x="383.0986328125" y="53.5" text-anchor="middle" dominant-baseline="central" transform="matrix(1 0 0 1 10 2)">trainManager</text></g></g><g><path fill="none" stroke="#000000" paint-order="fill stroke markers" d=" M 393.5 83 L 393.5 298" stroke-miterlimit="10" stroke-dasharray="3"/></g><g><rect fill="#C0C0C0" stroke="none" x="519" y="47" width="121.41650390625" height="40" transform="matrix(1 0 0 1 10 2)" fill-opacity="0.2"/></g><g><rect fill="#ffffff" stroke="none" x="512" y="40" width="121.41650390625" height="40" transform="matrix(1 0 0 1 10 2)"/></g><g><path fill="none" stroke="#000000" paint-order="fill stroke markers" d=" M 522 42 L 643.41650390625 42 L 643.41650390625 82 L 522 82 L 522 42 Z Z" stroke-miterlimit="10" stroke-dasharray=""/></g><g><g><path fill="none" stroke="none"/><text fill="#000000" stroke="none" font-family="Arial" font-size="13px" font-style="normal" font-weight="bold" text-decoration="undefined" x="573.208251953125" y="53.5" text-anchor="middle" dominant-baseline="central" transform="matrix(1 0 0 1 10 2)">bookingSystem</text></g></g><g><path fill="none" stroke="#000000" paint-order="fill stroke markers" d=" M 583.5 83 L 583.5 584" stroke-miterlimit="10" stroke-dasharray="3"/></g><g><path fill="none" stroke="#000000" paint-order="fill stroke markers" d=" M 87 122 L 223 122" stroke-miterlimit="10" stroke-dasharray=""/></g><g><path fill="#000000" stroke="none" paint-order="stroke fill markers" d=" M 212.83732514237585 126.20951775601598 L 223 122 L 212.83732514237585 117.79048224398402"/></g><g><path fill="none" stroke="#000000" paint-order="fill stroke markers" d=" M 212.83732514237585 126.20951775601598 L 223 122 L 212.83732514237585 117.79048224398402 L 212.83732514237585 126.20951775601598" stroke-miterlimit="10" stroke-dasharray=""/></g><g><rect fill="#ffffff" stroke="none" x="84" y="104" width="122.4462890625" height="13" transform="matrix(1 0 0 1 10 2)"/></g><g><g><path fill="none" stroke="none"/><text fill="#000000" stroke="none" font-family="Arial" font-size="13px" font-style="normal" font-weight="normal" text-decoration="undefined" x="145.22314453125" y="110.5" text-anchor="middle" dominant-baseline="central" transform="matrix(1 0 0 1 10 2)">1 : 点击“座位模版”</text></g></g><g><rect fill="#ffffff" stroke="none" x="213" y="120" width="14" height="176" transform="matrix(1 0 0 1 10 2)"/></g><g><path fill="none" stroke="#000000" paint-order="fill stroke markers" d=" M 223 122 L 237 122 L 237 298 L 223 298 L 223 122 Z Z" stroke-miterlimit="10" stroke-dasharray=""/></g><g><path fill="none" stroke="#000000" paint-order="fill stroke markers" d=" M 237 146 L 267 146 L 267 166 L 244 166" stroke-miterlimit="10" stroke-dasharray=""/></g><g><path fill="#000000" stroke="none" paint-order="stroke fill markers" d=" M 254.16267485762415 161.790482243984 L 244 166 L 254.16267485762415 170.209517756016"/></g><g><path fill="none" stroke="#000000" paint-order="fill stroke markers" d=" M 254.16267485762415 161.790482243984 L 244 166 L 254.16267485762415 170.209517756016 L 254.16267485762415 161.790482243984" stroke-miterlimit="10" stroke-dasharray=""/></g><g><rect fill="#ffffff" stroke="none" x="199" y="147" width="135.4462890625" height="13" transform="matrix(1 0 0 1 10 2)"/></g><g><g><path fill="none" stroke="none"/><text fill="#000000" stroke="none" font-family="Arial" font-size="13px" font-style="normal" font-weight="normal" text-decoration="undefined" x="266.72314453125" y="153.5" text-anchor="middle" dominant-baseline="central" transform="matrix(1 0 0 1 10 2)">2 : 获取对应列车列车号</text></g></g><g><rect fill="#ffffff" stroke="none" x="220" y="164" width="14" height="28" transform="matrix(1 0 0 1 10 2)"/></g><g><path fill="none" stroke="#000000" paint-order="fill stroke markers" d=" M 230 166 L 244 166 L 244 194 L 230 194 L 230 166 Z Z" stroke-miterlimit="10" stroke-dasharray=""/></g><g><path fill="none" stroke="#000000" paint-order="fill stroke markers" d=" M 237 204 L 386 204" stroke-miterlimit="10" stroke-dasharray=""/></g><g><path fill="#000000" stroke="none" paint-order="stroke fill markers" d=" M 375.83732514237585 208.209517756016 L 386 204 L 375.83732514237585 199.790482243984"/></g><g><path fill="none" stroke="#000000" paint-order="fill stroke markers" d=" M 375.83732514237585 208.209517756016 L 386 204 L 375.83732514237585 199.790482243984 L 375.83732514237585 208.209517756016" stroke-miterlimit="10" stroke-dasharray=""/></g><g><rect fill="#ffffff" stroke="none" x="241" y="186" width="121.91943359375" height="13" transform="matrix(1 0 0 1 10 2)"/></g><g><g><path fill="none" stroke="none"/><text fill="#000000" stroke="none" font-family="Arial" font-size="13px" font-style="normal" font-weight="normal" text-decoration="undefined" x="301.959716796875" y="192.5" text-anchor="middle" dominant-baseline="central" transform="matrix(1 0 0 1 10 2)">3 : getCarriages_api</text></g></g><g><rect fill="#ffffff" stroke="none" x="376" y="202" width="14" height="62" transform="matrix(1 0 0 1 10 2)"/></g><g><path fill="none" stroke="#000000" paint-order="fill stroke markers" d=" M 386 204 L 400 204 L 400 266 L 386 266 L 386 204 Z Z" stroke-miterlimit="10" stroke-dasharray=""/></g><g><path fill="none" stroke="#000000" paint-order="fill stroke markers" d=" M 386 253 L 237 253" stroke-miterlimit="10" stroke-dasharray="3"/></g><g><path fill="none" stroke="#000000" paint-order="fill stroke markers" d=" M 247.16267485762415 248.790482243984 L 237 253 L 247.16267485762415 257.209517756016" stroke-miterlimit="10" stroke-dasharray=""/></g><g><rect fill="#ffffff" stroke="none" x="226" y="255" width="148.4462890625" height="13" transform="matrix(1 0 0 1 10 2)"/></g><g><g><path fill="none" stroke="none"/><text fill="#000000" stroke="none" font-family="Arial" font-size="13px" font-style="normal" font-weight="normal" text-decoration="undefined" x="300.22314453125" y="261.5" text-anchor="middle" dominant-baseline="central" transform="matrix(1 0 0 1 10 2)">4 : 返回该列车的座位模版</text></g></g><g><path fill="none" stroke="#000000" paint-order="fill stroke markers" d=" M 223 266 L 87 266" stroke-miterlimit="10" stroke-dasharray="3"/></g><g><path fill="none" stroke="#000000" paint-order="fill stroke markers" d=" M 97.16267485762415 261.790482243984 L 87 266 L 97.16267485762415 270.209517756016" stroke-miterlimit="10" stroke-dasharray=""/></g><g><rect fill="#ffffff" stroke="none" x="96" y="268" width="96.4462890625" height="13" transform="matrix(1 0 0 1 10 2)"/></g><g><g><path fill="none" stroke="none"/><text fill="#000000" stroke="none" font-family="Arial" font-size="13px" font-style="normal" font-weight="normal" text-decoration="undefined" x="144.22314453125" y="274.5" text-anchor="middle" dominant-baseline="central" transform="matrix(1 0 0 1 10 2)">5 : 显示座位模版</text></g></g><g><path fill="none" stroke="#000000" paint-order="fill stroke markers" d=" M 87 335 L 223 335" stroke-miterlimit="10" stroke-dasharray=""/></g><g><path fill="#000000" stroke="none" paint-order="stroke fill markers" d=" M 212.83732514237585 339.209517756016 L 223 335 L 212.83732514237585 330.790482243984"/></g><g><path fill="none" stroke="#000000" paint-order="fill stroke markers" d=" M 212.83732514237585 339.209517756016 L 223 335 L 212.83732514237585 330.790482243984 L 212.83732514237585 339.209517756016" stroke-miterlimit="10" stroke-dasharray=""/></g><g><rect fill="#ffffff" stroke="none" x="65" y="317" width="161.4462890625" height="13" transform="matrix(1 0 0 1 10 2)"/></g><g><g><path fill="none" stroke="none"/><text fill="#000000" stroke="none" font-family="Arial" font-size="13px" font-style="normal" font-weight="normal" text-decoration="undefined" x="145.72314453125" y="323.5" text-anchor="middle" dominant-baseline="central" transform="matrix(1 0 0 1 10 2)">6 : 修改座位模版后点击确认</text></g></g><g><rect fill="#ffffff" stroke="none" x="213" y="333" width="14" height="235" transform="matrix(1 0 0 1 10 2)"/></g><g><path fill="none" stroke="#000000" paint-order="fill stroke markers" d=" M 223 335 L 237 335 L 237 570 L 223 570 L 223 335 Z Z" stroke-miterlimit="10" stroke-dasharray=""/></g><g><path fill="none" stroke="#000000" paint-order="fill stroke markers" d=" M 237 354 L 267 354 L 267 374 L 244 374" stroke-miterlimit="10" stroke-dasharray=""/></g><g><path fill="#000000" stroke="none" paint-order="stroke fill markers" d=" M 254.16267485762415 369.790482243984 L 244 374 L 254.16267485762415 378.209517756016"/></g><g><path fill="none" stroke="#000000" paint-order="fill stroke markers" d=" M 254.16267485762415 369.790482243984 L 244 374 L 254.16267485762415 378.209517756016 L 254.16267485762415 369.790482243984" stroke-miterlimit="10" stroke-dasharray=""/></g><g><rect fill="#ffffff" stroke="none" x="194" y="355" width="145.90087890625" height="13" transform="matrix(1 0 0 1 10 2)"/></g><g><g><path fill="none" stroke="none"/><text fill="#000000" stroke="none" font-family="Arial" font-size="13px" font-style="normal" font-weight="normal" text-decoration="undefined" x="266.950439453125" y="361.5" text-anchor="middle" dominant-baseline="central" transform="matrix(1 0 0 1 10 2)">7 : updateSeatTemplate</text></g></g><g><rect fill="#ffffff" stroke="none" x="220" y="372" width="14" height="116" transform="matrix(1 0 0 1 10 2)"/></g><g><path fill="none" stroke="#000000" paint-order="fill stroke markers" d=" M 230 374 L 244 374 L 244 490 L 230 490 L 230 374 Z Z" stroke-miterlimit="10" stroke-dasharray=""/></g><g><path fill="none" stroke="#000000" paint-order="fill stroke markers" d=" M 244 386 L 274 386 L 274 406 L 251 406" stroke-miterlimit="10" stroke-dasharray=""/></g><g><path fill="#000000" stroke="none" paint-order="stroke fill markers" d=" M 261.16267485762415 401.790482243984 L 251 406 L 261.16267485762415 410.209517756016"/></g><g><path fill="none" stroke="#000000" paint-order="fill stroke markers" d=" M 261.16267485762415 401.790482243984 L 251 406 L 261.16267485762415 410.209517756016 L 261.16267485762415 401.790482243984" stroke-miterlimit="10" stroke-dasharray=""/></g><g><rect fill="#ffffff" stroke="none" x="199" y="387" width="148.4462890625" height="13" transform="matrix(1 0 0 1 10 2)"/></g><g><g><path fill="none" stroke="none"/><text fill="#000000" stroke="none" font-family="Arial" font-size="13px" font-style="normal" font-weight="normal" text-decoration="undefined" x="273.22314453125" y="393.5" text-anchor="middle" dominant-baseline="central" transform="matrix(1 0 0 1 10 2)">8 : 检查是否有待乘坐订单</text></g></g><g><rect fill="#ffffff" stroke="none" x="227" y="404" width="14" height="28" transform="matrix(1 0 0 1 10 2)"/></g><g><path fill="none" stroke="#000000" paint-order="fill stroke markers" d=" M 237 406 L 251 406 L 251 434 L 237 434 L 237 406 Z Z" stroke-miterlimit="10" stroke-dasharray=""/></g><g><path fill="none" stroke="#000000" paint-order="fill stroke markers" d=" M 244 442 L 576 442" stroke-miterlimit="10" stroke-dasharray=""/></g><g><path fill="#000000" stroke="none" paint-order="stroke fill markers" d=" M 565.8373251423759 446.209517756016 L 576 442 L 565.8373251423758 437.790482243984"/></g><g><path fill="none" stroke="#000000" paint-order="fill stroke markers" d=" M 565.8373251423759 446.209517756016 L 576 442 L 565.8373251423758 437.790482243984 L 565.8373251423759 446.209517756016" stroke-miterlimit="10" stroke-dasharray=""/></g><g><rect fill="#ffffff" stroke="none" x="315" y="424" width="170.67578125" height="13" transform="matrix(1 0 0 1 10 2)"/></g><g><g><path fill="none" stroke="none"/><text fill="#000000" stroke="none" font-family="Arial" font-size="13px" font-style="normal" font-weight="normal" text-decoration="undefined" x="400.337890625" y="430.5" text-anchor="middle" dominant-baseline="central" transform="matrix(1 0 0 1 10 2)">9 : updateSeatTemplate_api</text></g></g><g><rect fill="#ffffff" stroke="none" x="566" y="440" width="14" height="48" transform="matrix(1 0 0 1 10 2)"/></g><g><path fill="none" stroke="#000000" paint-order="fill stroke markers" d=" M 576 442 L 590 442 L 590 490 L 576 490 L 576 442 Z Z" stroke-miterlimit="10" stroke-dasharray=""/></g><g><path fill="none" stroke="#000000" paint-order="fill stroke markers" d=" M 576 474 L 244 474" stroke-miterlimit="10" stroke-dasharray="3"/></g><g><path fill="none" stroke="#000000" paint-order="fill stroke markers" d=" M 254.16267485762415 469.790482243984 L 244 474 L 254.16267485762415 478.209517756016" stroke-miterlimit="10" stroke-dasharray=""/></g><g><rect fill="#ffffff" stroke="none" x="308" y="476" width="182.06982421875" height="13" transform="matrix(1 0 0 1 10 2)"/></g><g><g><path fill="none" stroke="none"/><text fill="#000000" stroke="none" font-family="Arial" font-size="13px" font-style="normal" font-weight="normal" text-decoration="undefined" x="399.034912109375" y="482.5" text-anchor="middle" dominant-baseline="central" transform="matrix(1 0 0 1 10 2)">10 : 返回更新座位模版是否成功</text></g></g><g><path fill="none" stroke="#000000" paint-order="fill stroke markers" d=" M 237 514 L 267 514 L 267 534 L 244 534" stroke-miterlimit="10" stroke-dasharray=""/></g><g><path fill="#000000" stroke="none" paint-order="stroke fill markers" d=" M 254.16267485762415 529.790482243984 L 244 534 L 254.16267485762415 538.209517756016"/></g><g><path fill="none" stroke="#000000" paint-order="fill stroke markers" d=" M 254.16267485762415 529.790482243984 L 244 534 L 254.16267485762415 538.209517756016 L 254.16267485762415 529.790482243984" stroke-miterlimit="10" stroke-dasharray=""/></g><g><rect fill="#ffffff" stroke="none" x="188" y="515" width="156.06982421875" height="13" transform="matrix(1 0 0 1 10 2)"/></g><g><g><path fill="none" stroke="none"/><text fill="#000000" stroke="none" font-family="Arial" font-size="13px" font-style="normal" font-weight="normal" text-decoration="undefined" x="266.034912109375" y="521.5" text-anchor="middle" dominant-baseline="central" transform="matrix(1 0 0 1 10 2)">11 : 更新成功刷新列车列表</text></g></g><g><rect fill="#ffffff" stroke="none" x="220" y="532" width="14" height="28" transform="matrix(1 0 0 1 10 2)"/></g><g><path fill="none" stroke="#000000" paint-order="fill stroke markers" d=" M 230 534 L 244 534 L 244 562 L 230 562 L 230 534 Z Z" stroke-miterlimit="10" stroke-dasharray=""/></g><g><path fill="none" stroke="#000000" paint-order="fill stroke markers" d=" M 223 562 L 87 562" stroke-miterlimit="10" stroke-dasharray="3"/></g><g><path fill="none" stroke="#000000" paint-order="fill stroke markers" d=" M 97.16267485762415 557.790482243984 L 87 562 L 97.16267485762415 566.209517756016" stroke-miterlimit="10" stroke-dasharray=""/></g><g><rect fill="#ffffff" stroke="none" x="92" y="564" width="104.06982421875" height="13" transform="matrix(1 0 0 1 10 2)"/></g><g><g><path fill="none" stroke="none"/><text fill="#000000" stroke="none" font-family="Arial" font-size="13px" font-style="normal" font-weight="normal" text-decoration="undefined" x="144.034912109375" y="570.5" text-anchor="middle" dominant-baseline="central" transform="matrix(1 0 0 1 10 2)">12 : 显示列车列表</text></g></g><g><path fill="none" stroke="#000000" paint-order="fill stroke markers" d=" M 26 298 L 610 298 L 610 594 L 26 594 L 26 298" stroke-miterlimit="10" stroke-dasharray=""/></g><g><path fill="#ffffff" stroke="none" paint-order="stroke fill markers" d=" M 26 298 L 26 321 L 140.9599609375 321 L 152.4599609375 309.5 L 152.4599609375 298 L 26 298"/></g><g><path fill="none" stroke="#000000" paint-order="fill stroke markers" d=" M 26 298 L 26 321 L 140.9599609375 321 L 152.4599609375 309.5 L 152.4599609375 298 L 26 298 L 26 298" stroke-miterlimit="10" stroke-dasharray=""/></g><g><g><path fill="none" stroke="none"/><text fill="#000000" stroke="none" font-family="Arial" font-size="13px" font-style="normal" font-weight="normal" text-decoration="undefined" x="86.9599609375" y="307.5" text-anchor="middle" dominant-baseline="central" transform="matrix(1 0 0 1 10 2)">修改座位模版</text></g></g><g><g><path fill="none" stroke="none"/><text fill="#000000" stroke="none" font-family="Arial" font-size="13px" font-style="normal" font-weight="bold" text-decoration="undefined" x="31.47998046875" y="307.5" text-anchor="middle" dominant-baseline="central" transform="matrix(1 0 0 1 10 2)">seq</text></g></g></g></svg>