<svg version="1.1" xmlns="http://www.w3.org/2000/svg" xmlns:xlink="http://www.w3.org/1999/xlink" width="548" height="476"><defs/><g><g><path fill="none" stroke="#000000" paint-order="fill stroke markers" d=" M 10 10 L 538 10 L 538 466 L 10 466 L 10 10" stroke-miterlimit="10" stroke-dasharray=""/></g><g><path fill="#ffffff" stroke="none" paint-order="stroke fill markers" d=" M 10 10 L 10 33 L 135.05908203125 33 L 146.55908203125 21.5 L 146.55908203125 10 L 10 10"/></g><g><path fill="none" stroke="#000000" paint-order="fill stroke markers" d=" M 10 10 L 10 33 L 135.05908203125 33 L 146.55908203125 21.5 L 146.55908203125 10 L 10 10 L 10 10" stroke-miterlimit="10" stroke-dasharray=""/></g><g><g><path fill="none" stroke="none"/><text fill="#000000" stroke="none" font-family="Arial" font-size="13px" font-style="normal" font-weight="normal" text-decoration="undefined" x="72.39453125" y="19.5" text-anchor="middle" dominant-baseline="central" transform="matrix(1 0 0 1 10 2)">顺序图-重置密码</text></g></g><g><g><path fill="none" stroke="none"/><text fill="#000000" stroke="none" font-family="Arial" font-size="13px" font-style="normal" font-weight="bold" text-decoration="undefined" x="11.864990234375" y="19.5" text-anchor="middle" dominant-baseline="central" transform="matrix(1 0 0 1 10 2)">sd</text></g></g><g><rect fill="#C0C0C0" stroke="none" x="71" y="47" width="72.736328125" height="40" transform="matrix(1 0 0 1 10 2)" fill-opacity="0.2"/></g><g><rect fill="#ffffff" stroke="none" x="64" y="40" width="72.736328125" height="40" transform="matrix(1 0 0 1 10 2)"/></g><g><path fill="none" stroke="#000000" paint-order="fill stroke markers" d=" M 74 42 L 146.736328125 42 L 146.736328125 82 L 74 82 L 74 42 Z Z" stroke-miterlimit="10" stroke-dasharray=""/></g><g><g><path fill="none" stroke="none"/><text fill="#000000" stroke="none" font-family="Arial" font-size="13px" font-style="normal" font-weight="bold" text-decoration="undefined" x="100.8681640625" y="53.5" text-anchor="middle" dominant-baseline="central" transform="matrix(1 0 0 1 10 2)">用户</text></g></g><g><path fill="none" stroke="#000000" paint-order="fill stroke markers" d=" M 110.5 83 L 110.5 448" stroke-miterlimit="10" stroke-dasharray="3"/></g><g><rect fill="#C0C0C0" stroke="none" x="199" y="47" width="72.736328125" height="40" transform="matrix(1 0 0 1 10 2)" fill-opacity="0.2"/></g><g><rect fill="#ffffff" stroke="none" x="192" y="40" width="72.736328125" height="40" transform="matrix(1 0 0 1 10 2)"/></g><g><path fill="none" stroke="#000000" paint-order="fill stroke markers" d=" M 202 42 L 274.736328125 42 L 274.736328125 82 L 202 82 L 202 42 Z Z" stroke-miterlimit="10" stroke-dasharray=""/></g><g><g><path fill="none" stroke="none"/><text fill="#000000" stroke="none" font-family="Arial" font-size="13px" font-style="normal" font-weight="bold" text-decoration="undefined" x="228.8681640625" y="53.5" text-anchor="middle" dominant-baseline="central" transform="matrix(1 0 0 1 10 2)">前端</text></g></g><g><path fill="none" stroke="#000000" paint-order="fill stroke markers" d=" M 238.5 83 L 238.5 448" stroke-miterlimit="10" stroke-dasharray="3"/></g><g><rect fill="#C0C0C0" stroke="none" x="399" y="47" width="130.23974609375" height="40" transform="matrix(1 0 0 1 10 2)" fill-opacity="0.2"/></g><g><rect fill="#ffffff" stroke="none" x="392" y="40" width="130.23974609375" height="40" transform="matrix(1 0 0 1 10 2)"/></g><g><path fill="none" stroke="#000000" paint-order="fill stroke markers" d=" M 402 42 L 532.23974609375 42 L 532.23974609375 82 L 402 82 L 402 42 Z Z" stroke-miterlimit="10" stroke-dasharray=""/></g><g><g><path fill="none" stroke="none"/><text fill="#000000" stroke="none" font-family="Arial" font-size="13px" font-style="normal" font-weight="bold" text-decoration="undefined" x="457.619873046875" y="53.5" text-anchor="middle" dominant-baseline="central" transform="matrix(1 0 0 1 10 2)">accountManager</text></g></g><g><path fill="none" stroke="#000000" paint-order="fill stroke markers" d=" M 467.5 83 L 467.5 346" stroke-miterlimit="10" stroke-dasharray="3"/></g><g><path fill="none" stroke="#000000" paint-order="fill stroke markers" d=" M 111 118 L 231 118" stroke-miterlimit="10" stroke-dasharray=""/></g><g><path fill="#000000" stroke="none" paint-order="stroke fill markers" d=" M 220.83732514237585 122.20951775601598 L 231 118 L 220.83732514237585 113.79048224398402"/></g><g><path fill="none" stroke="#000000" paint-order="fill stroke markers" d=" M 220.83732514237585 122.20951775601598 L 231 118 L 220.83732514237585 113.79048224398402 L 220.83732514237585 122.20951775601598" stroke-miterlimit="10" stroke-dasharray=""/></g><g><rect fill="#ffffff" stroke="none" x="87" y="100" width="148.4462890625" height="13" transform="matrix(1 0 0 1 10 2)"/></g><g><g><path fill="none" stroke="none"/><text fill="#000000" stroke="none" font-family="Arial" font-size="13px" font-style="normal" font-weight="normal" text-decoration="undefined" x="161.22314453125" y="106.5" text-anchor="middle" dominant-baseline="central" transform="matrix(1 0 0 1 10 2)">1 : 用户点击“重置密码”</text></g></g><g><rect fill="#ffffff" stroke="none" x="221" y="116" width="14" height="316" transform="matrix(1 0 0 1 10 2)"/></g><g><path fill="none" stroke="#000000" paint-order="fill stroke markers" d=" M 231 118 L 245 118 L 245 434 L 231 434 L 231 118 Z Z" stroke-miterlimit="10" stroke-dasharray=""/></g><g><path fill="none" stroke="#000000" paint-order="fill stroke markers" d=" M 245 154 L 275 154 L 275 174 L 252 174" stroke-miterlimit="10" stroke-dasharray=""/></g><g><path fill="#000000" stroke="none" paint-order="stroke fill markers" d=" M 262.16267485762415 169.790482243984 L 252 174 L 262.16267485762415 178.209517756016"/></g><g><path fill="none" stroke="#000000" paint-order="fill stroke markers" d=" M 262.16267485762415 169.790482243984 L 252 174 L 262.16267485762415 178.209517756016 L 262.16267485762415 169.790482243984" stroke-miterlimit="10" stroke-dasharray=""/></g><g><rect fill="#ffffff" stroke="none" x="175" y="155" width="199.7353515625" height="13" transform="matrix(1 0 0 1 10 2)"/></g><g><g><path fill="none" stroke="none"/><text fill="#000000" stroke="none" font-family="Arial" font-size="13px" font-style="normal" font-weight="normal" text-decoration="undefined" x="274.86767578125" y="161.5" text-anchor="middle" dominant-baseline="central" transform="matrix(1 0 0 1 10 2)">2 : 加载resetPasswordDialog页面</text></g></g><g><rect fill="#ffffff" stroke="none" x="228" y="172" width="14" height="36" transform="matrix(1 0 0 1 10 2)"/></g><g><path fill="none" stroke="#000000" paint-order="fill stroke markers" d=" M 238 174 L 252 174 L 252 210 L 238 210 L 238 174 Z Z" stroke-miterlimit="10" stroke-dasharray=""/></g><g><path fill="none" stroke="#000000" paint-order="fill stroke markers" d=" M 245 226 L 275 226 L 275 246 L 252 246" stroke-miterlimit="10" stroke-dasharray=""/></g><g><path fill="#000000" stroke="none" paint-order="stroke fill markers" d=" M 262.16267485762415 241.790482243984 L 252 246 L 262.16267485762415 250.209517756016"/></g><g><path fill="none" stroke="#000000" paint-order="fill stroke markers" d=" M 262.16267485762415 241.790482243984 L 252 246 L 262.16267485762415 250.209517756016 L 262.16267485762415 241.790482243984" stroke-miterlimit="10" stroke-dasharray=""/></g><g><rect fill="#ffffff" stroke="none" x="221" y="227" width="107.1484375" height="13" transform="matrix(1 0 0 1 10 2)"/></g><g><g><path fill="none" stroke="none"/><text fill="#000000" stroke="none" font-family="Arial" font-size="13px" font-style="normal" font-weight="normal" text-decoration="undefined" x="274.57421875" y="233.5" text-anchor="middle" dominant-baseline="central" transform="matrix(1 0 0 1 10 2)">3 : resetPassword</text></g></g><g><rect fill="#ffffff" stroke="none" x="228" y="244" width="14" height="132" transform="matrix(1 0 0 1 10 2)"/></g><g><path fill="none" stroke="#000000" paint-order="fill stroke markers" d=" M 238 246 L 252 246 L 252 378 L 238 378 L 238 246 Z Z" stroke-miterlimit="10" stroke-dasharray=""/></g><g><path fill="none" stroke="#000000" paint-order="fill stroke markers" d=" M 252 263 L 460 263" stroke-miterlimit="10" stroke-dasharray=""/></g><g><path fill="#000000" stroke="none" paint-order="stroke fill markers" d=" M 449.83732514237585 267.209517756016 L 460 263 L 449.83732514237585 258.790482243984"/></g><g><path fill="none" stroke="#000000" paint-order="fill stroke markers" d=" M 449.83732514237585 267.209517756016 L 460 263 L 449.83732514237585 258.790482243984 L 449.83732514237585 267.209517756016" stroke-miterlimit="10" stroke-dasharray=""/></g><g><rect fill="#ffffff" stroke="none" x="281" y="245" width="131.92333984375" height="13" transform="matrix(1 0 0 1 10 2)"/></g><g><g><path fill="none" stroke="none"/><text fill="#000000" stroke="none" font-family="Arial" font-size="13px" font-style="normal" font-weight="normal" text-decoration="undefined" x="346.961669921875" y="251.5" text-anchor="middle" dominant-baseline="central" transform="matrix(1 0 0 1 10 2)">4 : resetPassword_api</text></g></g><g><rect fill="#ffffff" stroke="none" x="450" y="261" width="14" height="28" transform="matrix(1 0 0 1 10 2)"/></g><g><path fill="none" stroke="#000000" paint-order="fill stroke markers" d=" M 460 263 L 474 263 L 474 291 L 460 291 L 460 263 Z Z" stroke-miterlimit="10" stroke-dasharray=""/></g><g><path fill="none" stroke="#000000" paint-order="fill stroke markers" d=" M 460 282 L 252 282" stroke-miterlimit="10" stroke-dasharray="3"/></g><g><path fill="none" stroke="#000000" paint-order="fill stroke markers" d=" M 262.16267485762415 277.790482243984 L 252 282 L 262.16267485762415 286.209517756016" stroke-miterlimit="10" stroke-dasharray=""/></g><g><rect fill="#ffffff" stroke="none" x="271" y="284" width="148.4462890625" height="13" transform="matrix(1 0 0 1 10 2)"/></g><g><g><path fill="none" stroke="none"/><text fill="#000000" stroke="none" font-family="Arial" font-size="13px" font-style="normal" font-weight="normal" text-decoration="undefined" x="345.22314453125" y="290.5" text-anchor="middle" dominant-baseline="central" transform="matrix(1 0 0 1 10 2)">5 : 返回是否重置成功结果</text></g></g><g><path fill="none" stroke="#000000" paint-order="fill stroke markers" d=" M 252 306 L 282 306 L 282 326 L 259 326" stroke-miterlimit="10" stroke-dasharray=""/></g><g><path fill="#000000" stroke="none" paint-order="stroke fill markers" d=" M 269.16267485762415 321.790482243984 L 259 326 L 269.16267485762415 330.209517756016"/></g><g><path fill="none" stroke="#000000" paint-order="fill stroke markers" d=" M 269.16267485762415 321.790482243984 L 259 326 L 269.16267485762415 330.209517756016 L 269.16267485762415 321.790482243984" stroke-miterlimit="10" stroke-dasharray=""/></g><g><rect fill="#ffffff" stroke="none" x="222" y="307" width="118.61865234375" height="13" transform="matrix(1 0 0 1 10 2)"/></g><g><g><path fill="none" stroke="none"/><text fill="#000000" stroke="none" font-family="Arial" font-size="13px" font-style="normal" font-weight="normal" text-decoration="undefined" x="281.309326171875" y="313.5" text-anchor="middle" dominant-baseline="central" transform="matrix(1 0 0 1 10 2)">6 : refreshAccounts</text></g></g><g><rect fill="#ffffff" stroke="none" x="235" y="324" width="14" height="28" transform="matrix(1 0 0 1 10 2)"/></g><g><path fill="none" stroke="#000000" paint-order="fill stroke markers" d=" M 245 326 L 259 326 L 259 354 L 245 354 L 245 326 Z Z" stroke-miterlimit="10" stroke-dasharray=""/></g><g><path fill="none" stroke="#000000" paint-order="fill stroke markers" d=" M 231 404 L 111 404" stroke-miterlimit="10" stroke-dasharray="3"/></g><g><path fill="none" stroke="#000000" paint-order="fill stroke markers" d=" M 121.16267485762415 399.790482243984 L 111 404 L 121.16267485762415 408.209517756016" stroke-miterlimit="10" stroke-dasharray=""/></g><g><rect fill="#ffffff" stroke="none" x="99" y="406" width="122.4462890625" height="13" transform="matrix(1 0 0 1 10 2)"/></g><g><g><path fill="none" stroke="none"/><text fill="#000000" stroke="none" font-family="Arial" font-size="13px" font-style="normal" font-weight="normal" text-decoration="undefined" x="160.22314453125" y="412.5" text-anchor="middle" dominant-baseline="central" transform="matrix(1 0 0 1 10 2)">7 : 返回用户管理页面</text></g></g></g></svg>